M48
;DRILL file {KiCad 4.0.2+dfsg1-stable} date Fri 17 May 2019 07:49:40 CEST
;FORMAT={-:-/ absolute / metric / decimal}
FMAT,2
METRIC,TZ
T1C0.400
T2C0.762
T3C0.800
T4C1.016
T5C1.100
T6C2.350
T7C3.000
T8C3.500
%
G90
G05
M71
T1
X92.895Y-140.982
X93.795Y-146.837
X93.863Y-176.439
X93.936Y-137.873
X94.517Y-147.368
X94.813Y-135.721
X96.284Y-149.484
X99.844Y-91.874
X100.Y-113.823
X100.958Y-90.691
X101.374Y-93.247
X101.636Y-82.655
X102.244Y-65.939
X102.443Y-128.488
X102.535Y-52.873
X102.735Y-47.346
X103.057Y-52.193
X103.065Y-53.615
X103.079Y-51.261
X103.514Y-83.453
X103.828Y-56.308
X103.988Y-114.714
X104.13Y-92.008
X104.378Y-62.921
X104.381Y-83.793
X104.385Y-55.621
X105.609Y-64.233
X105.621Y-48.021
X105.746Y-69.835
X105.785Y-88.392
X105.84Y-67.984
X106.088Y-92.923
X106.246Y-71.932
X106.35Y-46.371
X106.481Y-68.66
X106.922Y-74.855
X107.802Y-62.393
X107.904Y-75.825
X107.971Y-74.93
X108.356Y-92.85
X108.874Y-69.627
X109.233Y-115.392
X109.328Y-48.713
X109.384Y-98.025
X110.985Y-66.135
X111.717Y-66.635
X113.312Y-52.655
X113.68Y-68.172
X114.166Y-69.354
X114.175Y-52.5
X114.615Y-66.964
X114.757Y-53.245
X115.075Y-47.628
X116.338Y-81.778
X116.4Y-94.369
X116.782Y-52.761
X117.164Y-46.286
X117.385Y-47.293
X118.073Y-47.923
X119.668Y-93.665
X121.249Y-39.02
X121.842Y-51.067
X123.01Y-115.721
X123.364Y-52.454
X123.463Y-143.475
X125.138Y-145.152
X125.375Y-144.243
X125.993Y-138.381
X127.744Y-153.173
X128.053Y-73.028
X129.086Y-141.536
X129.931Y-113.521
X130.259Y-123.504
X130.76Y-153.781
X131.684Y-113.952
X131.749Y-73.72
X133.901Y-152.969
X134.632Y-176.919
X135.558Y-153.997
X135.717Y-106.141
X135.84Y-148.511
X136.76Y-109.849
X137.065Y-79.822
X137.23Y-177.045
X137.485Y-111.707
X138.546Y-145.836
X138.757Y-104.421
X139.312Y-147.817
X139.392Y-30.647
X140.007Y-149.207
X140.03Y-102.95
X140.463Y-75.551
X140.506Y-176.555
X140.795Y-79.774
X140.981Y-102.555
X141.025Y-74.906
X141.154Y-109.242
X141.372Y-79.072
X142.264Y-78.773
X142.275Y-49.622
X143.131Y-44.166
X143.749Y-41.801
X143.935Y-72.411
X144.596Y-71.87
X144.628Y-43.168
X144.951Y-88.764
X145.816Y-43.851
X145.895Y-72.482
X146.369Y-82.025
X146.484Y-75.975
X146.592Y-77.405
X146.921Y-145.336
X147.306Y-177.002
X147.581Y-97.58
X147.641Y-87.083
X147.879Y-75.33
X147.898Y-66.655
X147.942Y-48.53
X148.148Y-61.712
X148.197Y-37.521
X148.569Y-74.161
X148.647Y-95.937
X149.091Y-144.897
X149.235Y-68.035
X149.271Y-74.662
X149.305Y-48.923
X149.684Y-176.889
X149.799Y-81.629
X150.013Y-53.46
X150.015Y-88.176
X150.109Y-73.056
X150.161Y-141.542
X150.487Y-83.454
X150.714Y-84.464
X150.744Y-143.665
X150.822Y-73.567
X151.103Y-86.612
X152.262Y-113.872
X152.76Y-141.536
X152.927Y-145.566
X153.093Y-112.225
X153.619Y-144.811
X153.681Y-141.509
X153.829Y-94.248
X154.114Y-97.957
X154.293Y-93.313
X154.675Y-141.536
X155.458Y-91.846
X155.497Y-153.528
X155.85Y-80.614
X156.629Y-152.519
X156.768Y-91.744
X156.869Y-85.719
X156.987Y-149.865
X157.062Y-82.733
X157.673Y-149.331
X164.877Y-143.676
T2
X87.63Y-151.257
X87.63Y-154.817
X90.17Y-151.257
X90.17Y-154.817
X92.71Y-151.257
X92.71Y-154.817
X95.25Y-151.257
X95.25Y-154.817
X97.79Y-151.257
X97.79Y-154.817
X100.33Y-151.257
X100.33Y-154.817
X102.87Y-151.257
X102.87Y-154.817
T3
X109.6Y-34.31
X109.6Y-36.81
X109.6Y-59.71
X109.6Y-62.21
X109.6Y-85.11
X109.6Y-87.61
X110.6Y-32.31
X110.6Y-38.81
X110.6Y-57.71
X110.6Y-64.21
X110.6Y-83.11
X110.6Y-89.61
X111.6Y-34.31
X111.6Y-36.81
X111.6Y-59.71
X111.6Y-62.21
X111.6Y-85.11
X111.6Y-87.61
X112.6Y-32.31
X112.6Y-38.81
X112.6Y-57.71
X112.6Y-64.21
X112.6Y-83.11
X112.6Y-89.61
X113.6Y-34.31
X113.6Y-36.81
X113.6Y-59.71
X113.6Y-62.21
X113.6Y-85.11
X113.6Y-87.61
X114.6Y-32.31
X114.6Y-38.81
X114.6Y-57.71
X114.6Y-64.21
X114.6Y-83.11
X114.6Y-89.61
X115.6Y-34.31
X115.6Y-36.81
X115.6Y-59.71
X115.6Y-62.21
X115.6Y-85.11
X115.6Y-87.61
X116.6Y-32.31
X116.6Y-38.81
X116.6Y-57.71
X116.6Y-64.21
X116.6Y-83.11
X116.6Y-89.61
X117.6Y-34.31
X117.6Y-36.81
X117.6Y-59.71
X117.6Y-62.21
X117.6Y-85.11
X117.6Y-87.61
X118.6Y-32.31
X118.6Y-38.81
X118.6Y-57.71
X118.6Y-64.21
X118.6Y-83.11
X118.6Y-89.61
X119.6Y-34.31
X119.6Y-36.81
X119.6Y-59.71
X119.6Y-62.21
X119.6Y-85.11
X119.6Y-87.61
X122.6Y-32.31
X122.6Y-38.81
X122.6Y-57.71
X122.6Y-64.21
X122.6Y-83.11
X122.6Y-89.61
X123.6Y-34.31
X123.6Y-36.81
X123.6Y-59.71
X123.6Y-62.21
X123.6Y-85.11
X123.6Y-87.61
X124.6Y-32.31
X124.6Y-38.81
X124.6Y-57.71
X124.6Y-64.21
X124.6Y-83.11
X124.6Y-89.61
X125.6Y-34.31
X125.6Y-36.81
X125.6Y-59.71
X125.6Y-62.21
X125.6Y-85.11
X125.6Y-87.61
X126.6Y-32.31
X126.6Y-38.81
X126.6Y-57.71
X126.6Y-64.21
X126.6Y-83.11
X126.6Y-89.61
X127.6Y-34.31
X127.6Y-36.81
X127.6Y-59.71
X127.6Y-62.21
X127.6Y-85.11
X127.6Y-87.61
X128.6Y-32.31
X128.6Y-38.81
X128.6Y-57.71
X128.6Y-64.21
X128.6Y-83.11
X128.6Y-89.61
X129.6Y-34.31
X129.6Y-36.81
X129.6Y-59.71
X129.6Y-62.21
X129.6Y-85.11
X129.6Y-87.61
X130.6Y-32.31
X130.6Y-38.81
X130.6Y-57.71
X130.6Y-64.21
X130.6Y-83.11
X130.6Y-89.61
X131.6Y-34.31
X131.6Y-36.81
X131.6Y-59.71
X131.6Y-62.21
X131.6Y-85.11
X131.6Y-87.61
X132.6Y-32.31
X132.6Y-38.81
X132.6Y-57.71
X132.6Y-64.21
X132.6Y-83.11
X132.6Y-89.61
X133.6Y-34.31
X133.6Y-36.81
X133.6Y-59.71
X133.6Y-62.21
X133.6Y-85.11
X133.6Y-87.61
X134.6Y-32.31
X134.6Y-38.81
X134.6Y-57.71
X134.6Y-64.21
X134.6Y-83.11
X134.6Y-89.61
X135.6Y-34.31
X135.6Y-36.81
X135.6Y-59.71
X135.6Y-62.21
X135.6Y-85.11
X135.6Y-87.61
X136.6Y-32.31
X136.6Y-38.81
X136.6Y-57.71
X136.6Y-64.21
X136.6Y-83.11
X136.6Y-89.61
X137.6Y-34.31
X137.6Y-36.81
X137.6Y-59.71
X137.6Y-62.21
X137.6Y-85.11
X137.6Y-87.61
X138.6Y-32.31
X138.6Y-38.81
X138.6Y-57.71
X138.6Y-64.21
X138.6Y-83.11
X138.6Y-89.61
X139.6Y-34.31
X139.6Y-36.81
X139.6Y-59.71
X139.6Y-62.21
X139.6Y-85.11
X139.6Y-87.61
X139.7Y-48.26
X139.7Y-73.66
X139.7Y-99.06
X140.6Y-32.31
X140.6Y-38.81
X140.6Y-57.71
X140.6Y-64.21
X140.6Y-83.11
X140.6Y-89.61
X141.6Y-34.31
X141.6Y-36.81
X141.6Y-59.71
X141.6Y-62.21
X141.6Y-85.11
X141.6Y-87.61
X142.2Y-48.26
X142.2Y-73.66
X142.2Y-99.06
X142.6Y-32.31
X142.6Y-38.81
X142.6Y-57.71
X142.6Y-64.21
X142.6Y-83.11
X142.6Y-89.61
T4
X109.Y-128.
X109.Y-137.
X128.22Y-151.074
X128.22Y-155.926
X130.76Y-151.074
X130.76Y-155.926
X133.3Y-151.074
X133.3Y-155.926
X135.84Y-151.074
X135.84Y-155.926
X138.38Y-151.074
X138.38Y-155.926
X140.92Y-151.074
X140.92Y-155.926
X143.46Y-151.074
X143.46Y-155.926
X146.Y-151.074
X146.Y-155.926
X148.54Y-151.074
X148.54Y-155.926
X151.08Y-151.074
X151.08Y-155.926
X153.62Y-151.074
X153.62Y-155.926
X156.16Y-151.074
X156.16Y-155.926
X158.Y-111.
X158.7Y-151.074
X158.7Y-155.926
X159.Y-120.
X159.Y-122.54
X159.Y-125.08
X159.Y-127.62
X161.24Y-151.074
X161.24Y-155.926
X163.78Y-151.074
X163.78Y-155.926
X165.Y-111.
T5
X88.9Y-120.65
X91.44Y-120.65
X93.98Y-120.65
T6
X121.25Y-35.56
X121.25Y-60.96
X121.25Y-86.36
X144.4Y-35.56
X144.4Y-60.96
X144.4Y-86.36
T7
X58.Y-27.
X58.Y-104.
X191.Y-27.
X191.Y-105.
T8
X91.44Y-103.99
T0
M30
