%TF.GenerationSoftware,KiCad,Pcbnew,4.0.2+dfsg1-stable*%
%TF.CreationDate,2019-06-07T12:13:31+02:00*%
%TF.ProjectId,abex,616265782E6B696361645F7063620000,rev?*%
%TF.FileFunction,Paste,Top*%
%FSLAX46Y46*%
G04 Gerber Fmt 4.6, Leading zero omitted, Abs format (unit mm)*
G04 Created by KiCad (PCBNEW 4.0.2+dfsg1-stable) date ven 07 giu 2019 12:13:31 CEST*
%MOMM*%
G01*
G04 APERTURE LIST*
%ADD10C,0.100000*%
%ADD11R,2.000000X1.600000*%
%ADD12R,1.501140X2.999740*%
%ADD13R,1.930400X5.588000*%
%ADD14R,1.800860X1.597660*%
%ADD15R,2.000000X2.500000*%
%ADD16R,0.400000X1.000000*%
G04 APERTURE END LIST*
D10*
D11*
X85630000Y-127000000D03*
X89630000Y-127000000D03*
X95980000Y-132080000D03*
X91980000Y-132080000D03*
D12*
X99060000Y-122461020D03*
X99060000Y-126458980D03*
D13*
X164330000Y-180652000D03*
X161790000Y-180652000D03*
X159250000Y-180652000D03*
X156710000Y-180652000D03*
X154170000Y-180652000D03*
X151630000Y-180652000D03*
X149090000Y-180652000D03*
X146550000Y-180652000D03*
X144010000Y-180652000D03*
X141470000Y-180652000D03*
X138930000Y-180652000D03*
X136390000Y-180652000D03*
X133850000Y-180652000D03*
X131310000Y-180652000D03*
X128770000Y-180652000D03*
D14*
X119000000Y-113580140D03*
X119000000Y-116419860D03*
D13*
X103022000Y-180690000D03*
X100482000Y-180690000D03*
X97942000Y-180690000D03*
X95402000Y-180690000D03*
X92862000Y-180690000D03*
X90322000Y-180690000D03*
X87782000Y-180690000D03*
D15*
X114000000Y-118000000D03*
X110000000Y-118000000D03*
X110000000Y-112000000D03*
X114000000Y-112000000D03*
X100000000Y-112000000D03*
X104000000Y-112000000D03*
D16*
X165485000Y-136800000D03*
X164835000Y-136800000D03*
X164185000Y-136800000D03*
X163535000Y-136800000D03*
X162885000Y-136800000D03*
X162235000Y-136800000D03*
X161585000Y-136800000D03*
X160935000Y-136800000D03*
X160285000Y-136800000D03*
X159635000Y-136800000D03*
X159635000Y-142600000D03*
X160285000Y-142600000D03*
X160935000Y-142600000D03*
X161585000Y-142600000D03*
X162235000Y-142600000D03*
X162885000Y-142600000D03*
X163535000Y-142600000D03*
X164185000Y-142600000D03*
X164835000Y-142600000D03*
X165485000Y-142600000D03*
X129925000Y-136800000D03*
X129275000Y-136800000D03*
X128625000Y-136800000D03*
X127975000Y-136800000D03*
X127325000Y-136800000D03*
X126675000Y-136800000D03*
X126025000Y-136800000D03*
X125375000Y-136800000D03*
X124725000Y-136800000D03*
X124075000Y-136800000D03*
X124075000Y-142600000D03*
X124725000Y-142600000D03*
X125375000Y-142600000D03*
X126025000Y-142600000D03*
X126675000Y-142600000D03*
X127325000Y-142600000D03*
X127975000Y-142600000D03*
X128625000Y-142600000D03*
X129275000Y-142600000D03*
X129925000Y-142600000D03*
X140085000Y-136800000D03*
X139435000Y-136800000D03*
X138785000Y-136800000D03*
X138135000Y-136800000D03*
X137485000Y-136800000D03*
X136835000Y-136800000D03*
X136185000Y-136800000D03*
X135535000Y-136800000D03*
X134885000Y-136800000D03*
X134235000Y-136800000D03*
X134235000Y-142600000D03*
X134885000Y-142600000D03*
X135535000Y-142600000D03*
X136185000Y-142600000D03*
X136835000Y-142600000D03*
X137485000Y-142600000D03*
X138135000Y-142600000D03*
X138785000Y-142600000D03*
X139435000Y-142600000D03*
X140085000Y-142600000D03*
X155325000Y-136800000D03*
X154675000Y-136800000D03*
X154025000Y-136800000D03*
X153375000Y-136800000D03*
X152725000Y-136800000D03*
X152075000Y-136800000D03*
X151425000Y-136800000D03*
X150775000Y-136800000D03*
X150125000Y-136800000D03*
X149475000Y-136800000D03*
X149475000Y-142600000D03*
X150125000Y-142600000D03*
X150775000Y-142600000D03*
X151425000Y-142600000D03*
X152075000Y-142600000D03*
X152725000Y-142600000D03*
X153375000Y-142600000D03*
X154025000Y-142600000D03*
X154675000Y-142600000D03*
X155325000Y-142600000D03*
D15*
X103600000Y-118110000D03*
X99600000Y-118110000D03*
D16*
X96905000Y-136800000D03*
X96255000Y-136800000D03*
X95605000Y-136800000D03*
X94955000Y-136800000D03*
X94305000Y-136800000D03*
X93655000Y-136800000D03*
X93005000Y-136800000D03*
X92355000Y-136800000D03*
X91705000Y-136800000D03*
X91055000Y-136800000D03*
X91055000Y-142600000D03*
X91705000Y-142600000D03*
X92355000Y-142600000D03*
X93005000Y-142600000D03*
X93655000Y-142600000D03*
X94305000Y-142600000D03*
X94955000Y-142600000D03*
X95605000Y-142600000D03*
X96255000Y-142600000D03*
X96905000Y-142600000D03*
M02*
