%TF.GenerationSoftware,KiCad,Pcbnew,4.0.2+dfsg1-stable*%
%TF.CreationDate,2019-06-27T14:18:57+02:00*%
%TF.ProjectId,abex,616265782E6B696361645F7063620000,rev?*%
%TF.FileFunction,Copper,L2,Bot,Signal*%
%FSLAX46Y46*%
G04 Gerber Fmt 4.6, Leading zero omitted, Abs format (unit mm)*
G04 Created by KiCad (PCBNEW 4.0.2+dfsg1-stable) date gio 27 giu 2019 14:18:57 CEST*
%MOMM*%
G01*
G04 APERTURE LIST*
%ADD10C,0.100000*%
%ADD11R,1.930400X5.588000*%
%ADD12C,1.524000*%
%ADD13R,1.524000X1.524000*%
%ADD14R,2.235200X2.235200*%
%ADD15R,2.032000X1.727200*%
%ADD16O,2.032000X1.727200*%
%ADD17R,1.600000X1.600000*%
%ADD18C,1.600000*%
%ADD19R,1.905000X2.000000*%
%ADD20O,1.905000X2.000000*%
%ADD21R,1.308000X1.308000*%
%ADD22C,1.308000*%
%ADD23C,0.600000*%
%ADD24C,0.250000*%
%ADD25C,0.254000*%
G04 APERTURE END LIST*
D10*
D11*
X164330000Y-180652000D03*
X161790000Y-180652000D03*
X159250000Y-180652000D03*
X156710000Y-180652000D03*
X154170000Y-180652000D03*
X151630000Y-180652000D03*
X149090000Y-180652000D03*
X146550000Y-180652000D03*
X144010000Y-180652000D03*
X141470000Y-180652000D03*
X138930000Y-180652000D03*
X136390000Y-180652000D03*
X133850000Y-180652000D03*
X131310000Y-180652000D03*
X128770000Y-180652000D03*
D12*
X128220000Y-151074300D03*
X128220000Y-155925700D03*
X130760000Y-151074300D03*
X130760000Y-155925700D03*
X133300000Y-151074300D03*
X133300000Y-155925700D03*
X135840000Y-151074300D03*
X135840000Y-155925700D03*
X138380000Y-151074300D03*
X138380000Y-155925700D03*
X140920000Y-151074300D03*
X140920000Y-155925700D03*
X143460000Y-151074300D03*
X143460000Y-155925700D03*
X146000000Y-151074300D03*
X146000000Y-155925700D03*
X148540000Y-151074300D03*
X148540000Y-155925700D03*
X151080000Y-151074300D03*
X151080000Y-155925700D03*
X153620000Y-151074300D03*
X153620000Y-155925700D03*
X156160000Y-151074300D03*
X156160000Y-155925700D03*
X158700000Y-151074300D03*
X158700000Y-155925700D03*
X161240000Y-151074300D03*
X161240000Y-155925700D03*
D13*
X163780000Y-151074300D03*
D12*
X163780000Y-155925700D03*
D11*
X103022000Y-180690000D03*
X100482000Y-180690000D03*
X97942000Y-180690000D03*
X95402000Y-180690000D03*
X92862000Y-180690000D03*
X90322000Y-180690000D03*
X87782000Y-180690000D03*
D14*
X165000000Y-111000000D03*
X158000000Y-111000000D03*
X109000000Y-128000000D03*
X109000000Y-137000000D03*
D13*
X102870000Y-151257000D03*
D12*
X100330000Y-151257000D03*
X97790000Y-151257000D03*
X95250000Y-151257000D03*
X92710000Y-151257000D03*
X90170000Y-151257000D03*
X87630000Y-151257000D03*
X102870000Y-154817000D03*
X100330000Y-154817000D03*
X97790000Y-154817000D03*
X95250000Y-154817000D03*
X92710000Y-154817000D03*
X90170000Y-154817000D03*
X87630000Y-154817000D03*
D15*
X159000000Y-120000000D03*
D16*
X159000000Y-122540000D03*
X159000000Y-125080000D03*
X159000000Y-127620000D03*
D17*
X139700000Y-99060000D03*
D18*
X142200000Y-99060000D03*
D17*
X139700000Y-48260000D03*
D18*
X142200000Y-48260000D03*
D17*
X139700000Y-73660000D03*
D18*
X142200000Y-73660000D03*
D19*
X88900000Y-120650000D03*
D20*
X91440000Y-120650000D03*
X93980000Y-120650000D03*
D21*
X109600000Y-85110000D03*
D22*
X110600000Y-83110000D03*
X111600000Y-85110000D03*
X112600000Y-83110000D03*
X113600000Y-85110000D03*
X114600000Y-83110000D03*
X115600000Y-85110000D03*
X116600000Y-83110000D03*
X117600000Y-85110000D03*
X118600000Y-83110000D03*
X119600000Y-85110000D03*
X109600000Y-87610000D03*
X110600000Y-89610000D03*
X111600000Y-87610000D03*
X112600000Y-89610000D03*
X113600000Y-87610000D03*
X114600000Y-89610000D03*
X115600000Y-87610000D03*
X116600000Y-89610000D03*
X117600000Y-87610000D03*
X118600000Y-89610000D03*
X119600000Y-87610000D03*
X122600000Y-83110000D03*
X123600000Y-85110000D03*
X124600000Y-83110000D03*
X125600000Y-85110000D03*
X126600000Y-83110000D03*
X127600000Y-85110000D03*
X128600000Y-83110000D03*
X129600000Y-85110000D03*
X130600000Y-83110000D03*
X131600000Y-85110000D03*
X132600000Y-83110000D03*
X133600000Y-85110000D03*
X134600000Y-83110000D03*
X135600000Y-85110000D03*
X136600000Y-83110000D03*
X137600000Y-85110000D03*
X138600000Y-83110000D03*
X139600000Y-85110000D03*
X140600000Y-83110000D03*
X141600000Y-85110000D03*
X142600000Y-83110000D03*
X122600000Y-89610000D03*
X123600000Y-87610000D03*
X124600000Y-89610000D03*
X125600000Y-87610000D03*
X126600000Y-89610000D03*
X127600000Y-87610000D03*
X128600000Y-89610000D03*
X129600000Y-87610000D03*
X130600000Y-89610000D03*
X131600000Y-87610000D03*
X132600000Y-89610000D03*
X133600000Y-87610000D03*
X134600000Y-89610000D03*
X135600000Y-87610000D03*
X136600000Y-89610000D03*
X137600000Y-87610000D03*
X138600000Y-89610000D03*
X139600000Y-87610000D03*
X140600000Y-89610000D03*
X141600000Y-87610000D03*
X142600000Y-89610000D03*
D21*
X109600000Y-59710000D03*
D22*
X110600000Y-57710000D03*
X111600000Y-59710000D03*
X112600000Y-57710000D03*
X113600000Y-59710000D03*
X114600000Y-57710000D03*
X115600000Y-59710000D03*
X116600000Y-57710000D03*
X117600000Y-59710000D03*
X118600000Y-57710000D03*
X119600000Y-59710000D03*
X109600000Y-62210000D03*
X110600000Y-64210000D03*
X111600000Y-62210000D03*
X112600000Y-64210000D03*
X113600000Y-62210000D03*
X114600000Y-64210000D03*
X115600000Y-62210000D03*
X116600000Y-64210000D03*
X117600000Y-62210000D03*
X118600000Y-64210000D03*
X119600000Y-62210000D03*
X122600000Y-57710000D03*
X123600000Y-59710000D03*
X124600000Y-57710000D03*
X125600000Y-59710000D03*
X126600000Y-57710000D03*
X127600000Y-59710000D03*
X128600000Y-57710000D03*
X129600000Y-59710000D03*
X130600000Y-57710000D03*
X131600000Y-59710000D03*
X132600000Y-57710000D03*
X133600000Y-59710000D03*
X134600000Y-57710000D03*
X135600000Y-59710000D03*
X136600000Y-57710000D03*
X137600000Y-59710000D03*
X138600000Y-57710000D03*
X139600000Y-59710000D03*
X140600000Y-57710000D03*
X141600000Y-59710000D03*
X142600000Y-57710000D03*
X122600000Y-64210000D03*
X123600000Y-62210000D03*
X124600000Y-64210000D03*
X125600000Y-62210000D03*
X126600000Y-64210000D03*
X127600000Y-62210000D03*
X128600000Y-64210000D03*
X129600000Y-62210000D03*
X130600000Y-64210000D03*
X131600000Y-62210000D03*
X132600000Y-64210000D03*
X133600000Y-62210000D03*
X134600000Y-64210000D03*
X135600000Y-62210000D03*
X136600000Y-64210000D03*
X137600000Y-62210000D03*
X138600000Y-64210000D03*
X139600000Y-62210000D03*
X140600000Y-64210000D03*
X141600000Y-62210000D03*
X142600000Y-64210000D03*
D21*
X109600000Y-34310000D03*
D22*
X110600000Y-32310000D03*
X111600000Y-34310000D03*
X112600000Y-32310000D03*
X113600000Y-34310000D03*
X114600000Y-32310000D03*
X115600000Y-34310000D03*
X116600000Y-32310000D03*
X117600000Y-34310000D03*
X118600000Y-32310000D03*
X119600000Y-34310000D03*
X109600000Y-36810000D03*
X110600000Y-38810000D03*
X111600000Y-36810000D03*
X112600000Y-38810000D03*
X113600000Y-36810000D03*
X114600000Y-38810000D03*
X115600000Y-36810000D03*
X116600000Y-38810000D03*
X117600000Y-36810000D03*
X118600000Y-38810000D03*
X119600000Y-36810000D03*
X122600000Y-32310000D03*
X123600000Y-34310000D03*
X124600000Y-32310000D03*
X125600000Y-34310000D03*
X126600000Y-32310000D03*
X127600000Y-34310000D03*
X128600000Y-32310000D03*
X129600000Y-34310000D03*
X130600000Y-32310000D03*
X131600000Y-34310000D03*
X132600000Y-32310000D03*
X133600000Y-34310000D03*
X134600000Y-32310000D03*
X135600000Y-34310000D03*
X136600000Y-32310000D03*
X137600000Y-34310000D03*
X138600000Y-32310000D03*
X139600000Y-34310000D03*
X140600000Y-32310000D03*
X141600000Y-34310000D03*
X142600000Y-32310000D03*
X122600000Y-38810000D03*
X123600000Y-36810000D03*
X124600000Y-38810000D03*
X125600000Y-36810000D03*
X126600000Y-38810000D03*
X127600000Y-36810000D03*
X128600000Y-38810000D03*
X129600000Y-36810000D03*
X130600000Y-38810000D03*
X131600000Y-36810000D03*
X132600000Y-38810000D03*
X133600000Y-36810000D03*
X134600000Y-38810000D03*
X135600000Y-36810000D03*
X136600000Y-38810000D03*
X137600000Y-36810000D03*
X138600000Y-38810000D03*
X139600000Y-36810000D03*
X140600000Y-38810000D03*
X141600000Y-36810000D03*
X142600000Y-38810000D03*
D23*
X149238500Y-60703200D03*
X149568800Y-53599600D03*
X164327200Y-143669300D03*
X132863500Y-176555300D03*
X161271900Y-128306900D03*
X139435000Y-143807300D03*
X154675000Y-141401400D03*
X150330500Y-75977900D03*
X151741100Y-82698400D03*
X101010500Y-125194600D03*
X149411100Y-78999200D03*
X157778700Y-143673200D03*
X147643600Y-77396100D03*
X146433400Y-125384200D03*
X149229400Y-143685400D03*
X95980000Y-124485700D03*
X100135700Y-124485700D03*
X151442800Y-141525100D03*
X159307000Y-148350900D03*
X158700000Y-154186300D03*
X143559600Y-143699000D03*
X148868400Y-149007800D03*
X147390000Y-176446000D03*
X141624800Y-143684100D03*
X146000000Y-148698700D03*
X147813100Y-153743100D03*
X149701800Y-164066400D03*
X139132100Y-144756100D03*
X142270100Y-149147800D03*
X140413600Y-143803900D03*
X140920000Y-146531700D03*
X142490000Y-157065300D03*
X142804200Y-176677200D03*
X134549800Y-158394900D03*
X138575300Y-175965600D03*
X151870300Y-153620800D03*
X149015100Y-165486500D03*
X150389900Y-144086700D03*
X127094300Y-146619500D03*
X123261400Y-156676700D03*
X158205300Y-147002400D03*
X158105800Y-145190300D03*
X151911900Y-163184700D03*
X127779800Y-147136800D03*
X128432900Y-141539100D03*
X125420000Y-149150800D03*
X141141800Y-158400300D03*
X139250600Y-158386000D03*
X126507600Y-144257100D03*
X125567500Y-148239300D03*
X127893100Y-143678800D03*
X125986100Y-147448200D03*
X127149100Y-164471100D03*
X145965700Y-153975700D03*
X129708900Y-176179200D03*
X120476600Y-113554300D03*
X115099500Y-113928100D03*
X139507100Y-135524200D03*
X96255000Y-135593500D03*
X123624500Y-134819300D03*
X140924800Y-67958200D03*
X91055000Y-135734700D03*
X120991400Y-57841000D03*
X112188300Y-43347600D03*
X147463600Y-135468900D03*
X113898900Y-115973900D03*
X117528100Y-115973900D03*
X149994000Y-141037200D03*
X98774800Y-145349900D03*
X97445700Y-148393300D03*
X95922400Y-146786100D03*
X93655000Y-143920300D03*
X100482000Y-156686400D03*
X121451800Y-144174200D03*
X94241900Y-149377900D03*
X124018600Y-140971800D03*
X117640200Y-143207400D03*
X90290800Y-141848500D03*
X99961500Y-134778600D03*
X112927300Y-43842300D03*
X101534700Y-87041000D03*
X148846100Y-75592700D03*
X149132500Y-120466100D03*
X146933100Y-55814100D03*
X145151700Y-44065000D03*
X92368500Y-134029500D03*
X107119200Y-77676200D03*
X101367500Y-68315700D03*
X109240100Y-80384900D03*
X103278300Y-82663200D03*
X125448200Y-116836700D03*
X152559200Y-128713200D03*
X100776500Y-41990500D03*
X100867200Y-69120900D03*
X95495600Y-134734100D03*
X106546700Y-77045900D03*
X114133100Y-67473600D03*
X102368100Y-62756700D03*
X133055500Y-107554500D03*
X100579000Y-83486400D03*
X145458900Y-31280600D03*
X109416200Y-79478800D03*
X103278300Y-81812900D03*
X100776500Y-43292700D03*
X95808000Y-76610300D03*
X93928800Y-103869700D03*
X114928000Y-68195400D03*
X88000700Y-128425900D03*
X101951800Y-64851900D03*
X143084400Y-46469800D03*
X146589500Y-118032800D03*
X147431900Y-73364700D03*
X146253500Y-53305600D03*
X148512300Y-74061200D03*
X147470600Y-118803400D03*
X145399300Y-45020200D03*
X147656300Y-124306900D03*
X145517700Y-69634000D03*
X147256200Y-72014600D03*
X150123900Y-121219900D03*
X144161000Y-49522800D03*
X108215000Y-58156600D03*
X101092500Y-84837100D03*
X105256600Y-64095300D03*
X105363300Y-59311000D03*
X105801200Y-89933000D03*
X104722300Y-58741100D03*
X105386900Y-88217600D03*
X111972000Y-42077000D03*
X104330500Y-46274700D03*
X100256700Y-77896700D03*
X112109000Y-72531200D03*
X107283600Y-89933000D03*
X116907300Y-91342700D03*
X108800000Y-57481300D03*
X111972000Y-78803500D03*
X105752100Y-65631800D03*
X103498400Y-77238400D03*
X118131000Y-74836300D03*
X104081200Y-75948100D03*
X109431600Y-54129400D03*
X104907200Y-70212200D03*
X121357800Y-97645600D03*
X120377000Y-65546700D03*
X102697100Y-85585500D03*
X109213900Y-82252400D03*
X125015600Y-121055800D03*
X155578000Y-133937900D03*
X104265800Y-78399400D03*
X101427300Y-82424400D03*
X112472300Y-76401800D03*
X111883000Y-41176900D03*
X98582200Y-74143000D03*
X113178000Y-68428800D03*
X107709600Y-44405500D03*
X116525400Y-111847000D03*
X103885300Y-88872300D03*
X110154900Y-43234000D03*
X104369900Y-90376500D03*
X105036000Y-48528000D03*
X103617100Y-47783300D03*
X118983500Y-101256000D03*
X126884300Y-113326500D03*
X110059600Y-54704200D03*
X106430900Y-71397700D03*
X120807700Y-70443300D03*
X122587800Y-94635700D03*
X125488300Y-97101500D03*
X111746900Y-53852300D03*
X104979400Y-71208100D03*
X121238400Y-67307500D03*
X104328700Y-74992900D03*
X120112700Y-72404300D03*
X104576200Y-74037800D03*
X123003700Y-70561400D03*
X137923400Y-53246000D03*
X134726300Y-67817600D03*
X138970400Y-53154000D03*
X140110500Y-77449500D03*
X140286200Y-52710200D03*
X136600000Y-70311000D03*
X138984200Y-51039600D03*
X144303500Y-41504800D03*
X150054000Y-57551400D03*
X141895100Y-71015900D03*
X142891400Y-67978900D03*
X145848500Y-94235400D03*
X145757000Y-58318200D03*
X147864500Y-58266400D03*
X142323800Y-75534700D03*
X101565200Y-111472900D03*
X152663200Y-69851100D03*
X144303500Y-40301000D03*
X149199600Y-46483600D03*
X154019900Y-51239400D03*
X152898000Y-100796900D03*
X146639000Y-69851100D03*
X152319000Y-88575000D03*
X149985600Y-61866300D03*
X144790400Y-64594400D03*
X161850300Y-123169900D03*
X149982700Y-66884300D03*
X148388100Y-60430200D03*
X153809400Y-85889500D03*
X149710000Y-47741900D03*
X103600000Y-119917800D03*
D24*
X86441500Y-176180200D02*
X87782000Y-177520700D01*
X86441500Y-152445500D02*
X86441500Y-176180200D01*
X87630000Y-151257000D02*
X86441500Y-152445500D01*
X87782000Y-180690000D02*
X87782000Y-177520700D01*
X133790900Y-177482700D02*
X133850000Y-177482700D01*
X132863500Y-176555300D02*
X133790900Y-177482700D01*
X133850000Y-180652000D02*
X133850000Y-177482700D01*
X133300000Y-149589800D02*
X133300000Y-151074300D01*
X139082500Y-143807300D02*
X133300000Y-149589800D01*
X139435000Y-143807300D02*
X139082500Y-143807300D01*
X142089100Y-59710000D02*
X141600000Y-59710000D01*
X144714500Y-57084600D02*
X142089100Y-59710000D01*
X149053000Y-57084600D02*
X144714500Y-57084600D01*
X147018300Y-137000000D02*
X151003400Y-140985100D01*
X109000000Y-137000000D02*
X147018300Y-137000000D01*
X140515400Y-142726900D02*
X139435000Y-143807300D01*
X149261600Y-142726900D02*
X140515400Y-142726900D01*
X151003400Y-140985100D02*
X149261600Y-142726900D01*
X151156700Y-140831800D02*
X151003400Y-140985100D01*
X154651800Y-140831800D02*
X151156700Y-140831800D01*
X154651800Y-141378200D02*
X154675000Y-141401400D01*
X154651800Y-140831800D02*
X154651800Y-141378200D01*
X158036500Y-137447100D02*
X154651800Y-140831800D01*
X158036500Y-131542300D02*
X158036500Y-137447100D01*
X161271900Y-128306900D02*
X158036500Y-131542300D01*
X164258700Y-143669300D02*
X164327200Y-143669300D01*
X158036500Y-137447100D02*
X164258700Y-143669300D01*
X151741100Y-77388500D02*
X150330500Y-75977900D01*
X151741100Y-82698400D02*
X151741100Y-77388500D01*
X149238500Y-57270100D02*
X149238500Y-60703200D01*
X149053000Y-57084600D02*
X149238500Y-57270100D01*
X149568800Y-56568800D02*
X149568800Y-53599600D01*
X149053000Y-57084600D02*
X149568800Y-56568800D01*
X128144300Y-34310000D02*
X127600000Y-34310000D01*
X129175100Y-33279200D02*
X128144300Y-34310000D01*
X130113500Y-33279200D02*
X129175100Y-33279200D01*
X131144300Y-34310000D02*
X130113500Y-33279200D01*
X131600000Y-34310000D02*
X131144300Y-34310000D01*
X114144300Y-34310000D02*
X113600000Y-34310000D01*
X115175100Y-33279200D02*
X114144300Y-34310000D01*
X116113500Y-33279200D02*
X115175100Y-33279200D01*
X117144300Y-34310000D02*
X116113500Y-33279200D01*
X117600000Y-34310000D02*
X117144300Y-34310000D01*
X110144300Y-34310000D02*
X109600000Y-34310000D01*
X111175100Y-33279200D02*
X110144300Y-34310000D01*
X112113500Y-33279200D02*
X111175100Y-33279200D01*
X113144300Y-34310000D02*
X112113500Y-33279200D01*
X113600000Y-34310000D02*
X113144300Y-34310000D01*
X118144300Y-59710000D02*
X117600000Y-59710000D01*
X119175100Y-58679200D02*
X118144300Y-59710000D01*
X121569200Y-58679200D02*
X119175100Y-58679200D01*
X122600000Y-59710000D02*
X121569200Y-58679200D01*
X123600000Y-59710000D02*
X122600000Y-59710000D01*
X114144300Y-59710000D02*
X113600000Y-59710000D01*
X115175100Y-58679200D02*
X114144300Y-59710000D01*
X116113500Y-58679200D02*
X115175100Y-58679200D01*
X117144300Y-59710000D02*
X116113500Y-58679200D01*
X117600000Y-59710000D02*
X117144300Y-59710000D01*
X110144300Y-59710000D02*
X109600000Y-59710000D01*
X111175100Y-58679200D02*
X110144300Y-59710000D01*
X112113500Y-58679200D02*
X111175100Y-58679200D01*
X113144300Y-59710000D02*
X112113500Y-58679200D01*
X113600000Y-59710000D02*
X113144300Y-59710000D01*
X128144300Y-85110000D02*
X127600000Y-85110000D01*
X129175100Y-84079200D02*
X128144300Y-85110000D01*
X130113500Y-84079200D02*
X129175100Y-84079200D01*
X131144300Y-85110000D02*
X130113500Y-84079200D01*
X131600000Y-85110000D02*
X131144300Y-85110000D01*
X114144300Y-85110000D02*
X113600000Y-85110000D01*
X115175100Y-84079200D02*
X114144300Y-85110000D01*
X116113500Y-84079200D02*
X115175100Y-84079200D01*
X117144300Y-85110000D02*
X116113500Y-84079200D01*
X117600000Y-85110000D02*
X117144300Y-85110000D01*
X110144300Y-85110000D02*
X109600000Y-85110000D01*
X111175100Y-84079200D02*
X110144300Y-85110000D01*
X112113500Y-84079200D02*
X111175100Y-84079200D01*
X113144300Y-85110000D02*
X112113500Y-84079200D01*
X113600000Y-85110000D02*
X113144300Y-85110000D01*
X109000000Y-128000000D02*
X107507100Y-128000000D01*
X104701700Y-125194600D02*
X101010500Y-125194600D01*
X107507100Y-128000000D02*
X104701700Y-125194600D01*
X94609300Y-125194600D02*
X91440000Y-122025300D01*
X101010500Y-125194600D02*
X94609300Y-125194600D01*
X91440000Y-120650000D02*
X91440000Y-122025300D01*
X142144300Y-32310000D02*
X140144300Y-34310000D01*
X142600000Y-32310000D02*
X142144300Y-32310000D01*
X140144300Y-34310000D02*
X139600000Y-34310000D01*
X118144300Y-34310000D02*
X117600000Y-34310000D01*
X119175100Y-33279200D02*
X118144300Y-34310000D01*
X121569200Y-33279200D02*
X119175100Y-33279200D01*
X122600000Y-34310000D02*
X121569200Y-33279200D01*
X123600000Y-34310000D02*
X122600000Y-34310000D01*
X158886300Y-144780800D02*
X157778700Y-143673200D01*
X158886300Y-147397000D02*
X158886300Y-144780800D01*
X157550000Y-148733300D02*
X158886300Y-147397000D01*
X157550000Y-152035600D02*
X157550000Y-148733300D01*
X161240000Y-155725600D02*
X157550000Y-152035600D01*
X161240000Y-155925700D02*
X161240000Y-155725600D01*
X132144300Y-36810000D02*
X131600000Y-36810000D01*
X133175100Y-37840800D02*
X132144300Y-36810000D01*
X134113500Y-37840800D02*
X133175100Y-37840800D01*
X135144300Y-36810000D02*
X134113500Y-37840800D01*
X135600000Y-36810000D02*
X135144300Y-36810000D01*
X139055800Y-34310000D02*
X139600000Y-34310000D01*
X138025000Y-33279200D02*
X139055800Y-34310000D01*
X137086600Y-33279200D02*
X138025000Y-33279200D01*
X136055800Y-34310000D02*
X137086600Y-33279200D01*
X135600000Y-34310000D02*
X136055800Y-34310000D01*
X149478500Y-79066600D02*
X149411100Y-78999200D01*
X149478500Y-91781500D02*
X149478500Y-79066600D01*
X142200000Y-99060000D02*
X149478500Y-91781500D01*
X149246700Y-78999200D02*
X147643600Y-77396100D01*
X149411100Y-78999200D02*
X149246700Y-78999200D01*
X118144300Y-85110000D02*
X117600000Y-85110000D01*
X119175100Y-84079200D02*
X118144300Y-85110000D01*
X121569200Y-84079200D02*
X119175100Y-84079200D01*
X122600000Y-85110000D02*
X121569200Y-84079200D01*
X123600000Y-85110000D02*
X122600000Y-85110000D01*
X140144300Y-59710000D02*
X139600000Y-59710000D01*
X142144300Y-57710000D02*
X140144300Y-59710000D01*
X142600000Y-57710000D02*
X142144300Y-57710000D01*
X138912700Y-76947300D02*
X142200000Y-73660000D01*
X138912700Y-79422700D02*
X138912700Y-76947300D01*
X142600000Y-83110000D02*
X138912700Y-79422700D01*
X142200000Y-45183900D02*
X142200000Y-48260000D01*
X145021600Y-42362300D02*
X142200000Y-45183900D01*
X145021600Y-38714900D02*
X145021600Y-42362300D01*
X141866700Y-35560000D02*
X145021600Y-38714900D01*
X141394300Y-35560000D02*
X141866700Y-35560000D01*
X140144300Y-34310000D02*
X141394300Y-35560000D01*
X146832600Y-124985000D02*
X146433400Y-125384200D01*
X148218300Y-124985000D02*
X146832600Y-124985000D01*
X153203300Y-120000000D02*
X148218300Y-124985000D01*
X159000000Y-120000000D02*
X153203300Y-120000000D01*
X142200000Y-120352400D02*
X142200000Y-99060000D01*
X146832600Y-124985000D02*
X142200000Y-120352400D01*
X149541100Y-143373700D02*
X149229400Y-143685400D01*
X157479200Y-143373700D02*
X149541100Y-143373700D01*
X157778700Y-143673200D02*
X157479200Y-143373700D01*
X93980000Y-122485700D02*
X95980000Y-124485700D01*
X93980000Y-120650000D02*
X93980000Y-122485700D01*
X95980000Y-124485700D02*
X100135700Y-124485700D01*
X164958900Y-176853800D02*
X164330000Y-177482700D01*
X164958900Y-153390500D02*
X164958900Y-176853800D01*
X163780000Y-152211600D02*
X164958900Y-153390500D01*
X163780000Y-151074300D02*
X163780000Y-152211600D01*
X164330000Y-180652000D02*
X164330000Y-177482700D01*
X152562400Y-142644700D02*
X151442800Y-141525100D01*
X157705300Y-142644700D02*
X152562400Y-142644700D01*
X163780000Y-148719400D02*
X157705300Y-142644700D01*
X163780000Y-151074300D02*
X163780000Y-148719400D01*
X162420000Y-152254300D02*
X161240000Y-151074300D01*
X162420000Y-176852700D02*
X162420000Y-152254300D01*
X161790000Y-177482700D02*
X162420000Y-176852700D01*
X161790000Y-180652000D02*
X161790000Y-177482700D01*
X159250000Y-180652000D02*
X159250000Y-177482700D01*
X159880000Y-155366300D02*
X158700000Y-154186300D01*
X159880000Y-176852700D02*
X159880000Y-155366300D01*
X159250000Y-177482700D02*
X159880000Y-176852700D01*
X159307000Y-150467300D02*
X159307000Y-148350900D01*
X158700000Y-151074300D02*
X159307000Y-150467300D01*
X157309400Y-176883300D02*
X156710000Y-177482700D01*
X157309400Y-153834300D02*
X157309400Y-176883300D01*
X156160000Y-152684900D02*
X157309400Y-153834300D01*
X156160000Y-151074300D02*
X156160000Y-152684900D01*
X156710000Y-180652000D02*
X156710000Y-177482700D01*
X154757400Y-176895300D02*
X154170000Y-177482700D01*
X154757400Y-152211700D02*
X154757400Y-176895300D01*
X153620000Y-151074300D02*
X154757400Y-152211700D01*
X154170000Y-180652000D02*
X154170000Y-177482700D01*
X151630000Y-180652000D02*
X151630000Y-177482700D01*
X152555600Y-152549900D02*
X151080000Y-151074300D01*
X152555600Y-153932300D02*
X152555600Y-152549900D01*
X152450900Y-154037000D02*
X152555600Y-153932300D01*
X152450900Y-162768600D02*
X152450900Y-154037000D01*
X152587200Y-162904900D02*
X152450900Y-162768600D01*
X152587200Y-176525500D02*
X152587200Y-162904900D01*
X151630000Y-177482700D02*
X152587200Y-176525500D01*
X148868400Y-149007800D02*
X143559600Y-143699000D01*
X148426700Y-177482700D02*
X147390000Y-176446000D01*
X149090000Y-177482700D02*
X148426700Y-177482700D01*
X149090000Y-180652000D02*
X149090000Y-177482700D01*
X146000000Y-148059300D02*
X146000000Y-148698700D01*
X141624800Y-143684100D02*
X146000000Y-148059300D01*
X146550000Y-176006900D02*
X146550000Y-180652000D01*
X150394900Y-172162000D02*
X146550000Y-176006900D01*
X150394900Y-163392700D02*
X150394900Y-172162000D01*
X149852200Y-162850000D02*
X150394900Y-163392700D01*
X149852200Y-154819700D02*
X149852200Y-162850000D01*
X146106800Y-151074300D02*
X149852200Y-154819700D01*
X146000000Y-151074300D02*
X146106800Y-151074300D01*
X149701800Y-170734800D02*
X149701800Y-164066400D01*
X144010000Y-176426600D02*
X149701800Y-170734800D01*
X144010000Y-180652000D02*
X144010000Y-176426600D01*
X146281700Y-152211700D02*
X147813100Y-153743100D01*
X144597400Y-152211700D02*
X146281700Y-152211700D01*
X143460000Y-151074300D02*
X144597400Y-152211700D01*
X139132100Y-146009800D02*
X142270100Y-149147800D01*
X139132100Y-144756100D02*
X139132100Y-146009800D01*
X141470000Y-180652000D02*
X141470000Y-177482700D01*
X141998700Y-177482700D02*
X142804200Y-176677200D01*
X141470000Y-177482700D02*
X141998700Y-177482700D01*
X142057400Y-156632700D02*
X142490000Y-157065300D01*
X142057400Y-152211700D02*
X142057400Y-156632700D01*
X140920000Y-151074300D02*
X142057400Y-152211700D01*
X140920000Y-144310300D02*
X140413600Y-143803900D01*
X140920000Y-146531700D02*
X140920000Y-144310300D01*
X138930000Y-176320300D02*
X138930000Y-180652000D01*
X138575300Y-175965600D02*
X138930000Y-176320300D01*
X134979400Y-158394900D02*
X134549800Y-158394900D01*
X136977400Y-156396900D02*
X134979400Y-158394900D01*
X136977400Y-152476900D02*
X136977400Y-156396900D01*
X138380000Y-151074300D02*
X136977400Y-152476900D01*
X136390000Y-180652000D02*
X136390000Y-177482700D01*
X148099400Y-165486500D02*
X149015100Y-165486500D01*
X136390000Y-177195900D02*
X148099400Y-165486500D01*
X136390000Y-177482700D02*
X136390000Y-177195900D01*
X149737400Y-151487900D02*
X151870300Y-153620800D01*
X149737400Y-150413600D02*
X149737400Y-151487900D01*
X149146900Y-149823100D02*
X149737400Y-150413600D01*
X141990500Y-149823100D02*
X149146900Y-149823100D01*
X141594800Y-149427400D02*
X141990500Y-149823100D01*
X137486900Y-149427400D02*
X141594800Y-149427400D01*
X135840000Y-151074300D02*
X137486900Y-149427400D01*
X150389900Y-148580100D02*
X150389900Y-144086700D01*
X149146900Y-149823100D02*
X150389900Y-148580100D01*
X129653800Y-177482700D02*
X131310000Y-177482700D01*
X128572400Y-176401300D02*
X129653800Y-177482700D01*
X128572400Y-160892700D02*
X128572400Y-176401300D01*
X124157700Y-156478000D02*
X128572400Y-160892700D01*
X124157700Y-144832800D02*
X124157700Y-156478000D01*
X128133500Y-140857000D02*
X124157700Y-144832800D01*
X128710700Y-140857000D02*
X128133500Y-140857000D01*
X130760000Y-142906300D02*
X128710700Y-140857000D01*
X130760000Y-151074300D02*
X130760000Y-142906300D01*
X131310000Y-180652000D02*
X131310000Y-177482700D01*
X128770000Y-180652000D02*
X128770000Y-177482700D01*
X127831500Y-176544200D02*
X128770000Y-177482700D01*
X127831500Y-161246800D02*
X127831500Y-176544200D01*
X123261400Y-156676700D02*
X127831500Y-161246800D01*
X128455100Y-150839200D02*
X128220000Y-151074300D01*
X128455100Y-146795800D02*
X128455100Y-150839200D01*
X128076300Y-146417000D02*
X128455100Y-146795800D01*
X127296800Y-146417000D02*
X128076300Y-146417000D01*
X127094300Y-146619500D02*
X127296800Y-146417000D01*
X155281700Y-155047400D02*
X156160000Y-155925700D01*
X155281700Y-151804500D02*
X155281700Y-155047400D01*
X155020400Y-151543200D02*
X155281700Y-151804500D01*
X155020400Y-150187300D02*
X155020400Y-151543200D01*
X158205300Y-147002400D02*
X155020400Y-150187300D01*
X157879600Y-145190300D02*
X158105800Y-145190300D01*
X152447200Y-150622700D02*
X157879600Y-145190300D01*
X152447200Y-151509800D02*
X152447200Y-150622700D01*
X153620000Y-152682600D02*
X152447200Y-151509800D01*
X153620000Y-155925700D02*
X153620000Y-152682600D01*
X151911900Y-156757600D02*
X151911900Y-163184700D01*
X151080000Y-155925700D02*
X151911900Y-156757600D01*
X127065400Y-147851200D02*
X127779800Y-147136800D01*
X127065400Y-156421500D02*
X127065400Y-147851200D01*
X128215800Y-157571900D02*
X127065400Y-156421500D01*
X133262400Y-157571900D02*
X128215800Y-157571900D01*
X134481500Y-156352800D02*
X133262400Y-157571900D01*
X134481500Y-154265100D02*
X134481500Y-156352800D01*
X137236700Y-151509900D02*
X134481500Y-154265100D01*
X137236700Y-150593700D02*
X137236700Y-151509900D01*
X137902700Y-149927700D02*
X137236700Y-150593700D01*
X141387400Y-149927700D02*
X137902700Y-149927700D01*
X142190000Y-150730300D02*
X141387400Y-149927700D01*
X142190000Y-151455800D02*
X142190000Y-150730300D01*
X143759100Y-153024900D02*
X142190000Y-151455800D01*
X146020000Y-153024900D02*
X143759100Y-153024900D01*
X148540000Y-155544900D02*
X146020000Y-153024900D01*
X148540000Y-155925700D02*
X148540000Y-155544900D01*
X142299900Y-159625800D02*
X146000000Y-155925700D01*
X128013300Y-159625800D02*
X142299900Y-159625800D01*
X124703200Y-156315700D02*
X128013300Y-159625800D01*
X124703200Y-145106500D02*
X124703200Y-156315700D01*
X128270600Y-141539100D02*
X124703200Y-145106500D01*
X128432900Y-141539100D02*
X128270600Y-141539100D01*
X125420000Y-156251800D02*
X125420000Y-149150800D01*
X128249200Y-159081000D02*
X125420000Y-156251800D01*
X141472800Y-159081000D02*
X128249200Y-159081000D01*
X143460000Y-157093800D02*
X141472800Y-159081000D01*
X143460000Y-155925700D02*
X143460000Y-157093800D01*
X140920000Y-158178500D02*
X141141800Y-158400300D01*
X140920000Y-155925700D02*
X140920000Y-158178500D01*
X138380000Y-157515400D02*
X139250600Y-158386000D01*
X138380000Y-155925700D02*
X138380000Y-157515400D01*
X125278000Y-147949800D02*
X125567500Y-148239300D01*
X125278000Y-145486700D02*
X125278000Y-147949800D01*
X126507600Y-144257100D02*
X125278000Y-145486700D01*
X133690200Y-158075500D02*
X135840000Y-155925700D01*
X127951400Y-158075500D02*
X133690200Y-158075500D01*
X126507200Y-156631300D02*
X127951400Y-158075500D01*
X126507200Y-149179000D02*
X126507200Y-156631300D01*
X125567500Y-148239300D02*
X126507200Y-149179000D01*
X129574300Y-145360000D02*
X127893100Y-143678800D01*
X129574300Y-156380700D02*
X129574300Y-145360000D01*
X130256700Y-157063100D02*
X129574300Y-156380700D01*
X132162600Y-157063100D02*
X130256700Y-157063100D01*
X133300000Y-155925700D02*
X132162600Y-157063100D01*
X127893100Y-144158100D02*
X127893100Y-143678800D01*
X125986100Y-146065100D02*
X127893100Y-144158100D01*
X125986100Y-147448200D02*
X125986100Y-146065100D01*
X122586100Y-159908100D02*
X127149100Y-164471100D01*
X122586100Y-145631800D02*
X122586100Y-159908100D01*
X127883500Y-140334400D02*
X122586100Y-145631800D01*
X128900600Y-140334400D02*
X127883500Y-140334400D01*
X131897300Y-143331100D02*
X128900600Y-140334400D01*
X131897300Y-154788400D02*
X131897300Y-143331100D01*
X130760000Y-155925700D02*
X131897300Y-154788400D01*
X147188500Y-158699600D02*
X129708900Y-176179200D01*
X147188500Y-155198500D02*
X147188500Y-158699600D01*
X145965700Y-153975700D02*
X147188500Y-155198500D01*
X130144300Y-87610000D02*
X129600000Y-87610000D01*
X131175100Y-88640800D02*
X130144300Y-87610000D01*
X132113500Y-88640800D02*
X131175100Y-88640800D01*
X133144300Y-87610000D02*
X132113500Y-88640800D01*
X133600000Y-87610000D02*
X133144300Y-87610000D01*
X116641800Y-86151800D02*
X115600000Y-85110000D01*
X118558200Y-86151800D02*
X116641800Y-86151800D01*
X119600000Y-85110000D02*
X118558200Y-86151800D01*
X116629400Y-60739400D02*
X115600000Y-59710000D01*
X118570600Y-60739400D02*
X116629400Y-60739400D01*
X119600000Y-59710000D02*
X118570600Y-60739400D01*
X126850000Y-60960000D02*
X128350000Y-60960000D01*
X125600000Y-59710000D02*
X126850000Y-60960000D01*
X128350000Y-61415700D02*
X129144300Y-62210000D01*
X128350000Y-60960000D02*
X128350000Y-61415700D01*
X129600000Y-62210000D02*
X129144300Y-62210000D01*
X128350000Y-60960000D02*
X129600000Y-59710000D01*
X133600000Y-59989200D02*
X133600000Y-59710000D01*
X132849800Y-60739400D02*
X133600000Y-59989200D01*
X130629400Y-60739400D02*
X132849800Y-60739400D01*
X129600000Y-59710000D02*
X130629400Y-60739400D01*
X134388800Y-61421200D02*
X134388800Y-60778000D01*
X133600000Y-62210000D02*
X134388800Y-61421200D01*
X136532000Y-60778000D02*
X134388800Y-60778000D01*
X137600000Y-59710000D02*
X136532000Y-60778000D01*
X134388800Y-60778000D02*
X133600000Y-59989200D01*
X139700000Y-99060000D02*
X139700000Y-97884700D01*
X112629400Y-86139400D02*
X111600000Y-85110000D01*
X114570600Y-86139400D02*
X112629400Y-86139400D01*
X115600000Y-85110000D02*
X114570600Y-86139400D01*
X128111300Y-63243000D02*
X129144300Y-62210000D01*
X127177300Y-63243000D02*
X128111300Y-63243000D01*
X127110800Y-63176500D02*
X127177300Y-63243000D01*
X126177800Y-63176500D02*
X127110800Y-63176500D01*
X126111800Y-63242500D02*
X126177800Y-63176500D01*
X125176800Y-63242500D02*
X126111800Y-63242500D01*
X125109900Y-63175600D02*
X125176800Y-63242500D01*
X124178700Y-63175600D02*
X125109900Y-63175600D01*
X124113500Y-63240800D02*
X124178700Y-63175600D01*
X123175100Y-63240800D02*
X124113500Y-63240800D01*
X123106500Y-63172200D02*
X123175100Y-63240800D01*
X122111800Y-63172200D02*
X123106500Y-63172200D01*
X121545200Y-63738800D02*
X122111800Y-63172200D01*
X121545200Y-64610900D02*
X121545200Y-63738800D01*
X130594300Y-73660000D02*
X121545200Y-64610900D01*
X138524700Y-73660000D02*
X130594300Y-73660000D01*
X133600000Y-87168800D02*
X133600000Y-87610000D01*
X134629400Y-86139400D02*
X133600000Y-87168800D01*
X133600000Y-85110000D02*
X134629400Y-86139400D01*
X136570600Y-86139400D02*
X137600000Y-85110000D01*
X134629400Y-86139400D02*
X136570600Y-86139400D01*
X139700000Y-73660000D02*
X139112400Y-73660000D01*
X139112400Y-73660000D02*
X138524700Y-73660000D01*
X96113800Y-135734700D02*
X91055000Y-135734700D01*
X96255000Y-135593500D02*
X96113800Y-135734700D01*
X115584300Y-113928100D02*
X115099500Y-113928100D01*
X115958100Y-113554300D02*
X115584300Y-113928100D01*
X120476600Y-113554300D02*
X115958100Y-113554300D01*
X130572400Y-48260000D02*
X120991400Y-57841000D01*
X139700000Y-48260000D02*
X130572400Y-48260000D01*
X115976000Y-34310000D02*
X115600000Y-34310000D01*
X117011200Y-35345200D02*
X115976000Y-34310000D01*
X118564800Y-35345200D02*
X117011200Y-35345200D01*
X119600000Y-34310000D02*
X118564800Y-35345200D01*
X148454800Y-89129900D02*
X139700000Y-97884700D01*
X148454800Y-79869800D02*
X148454800Y-89129900D01*
X146004100Y-77419100D02*
X148454800Y-79869800D01*
X146004100Y-72046800D02*
X146004100Y-77419100D01*
X141915500Y-67958200D02*
X146004100Y-72046800D01*
X140924800Y-67958200D02*
X141915500Y-67958200D01*
X97745200Y-134103300D02*
X96255000Y-135593500D01*
X122908500Y-134103300D02*
X97745200Y-134103300D01*
X123624500Y-134819300D02*
X122908500Y-134103300D01*
X110570600Y-60739400D02*
X111600000Y-59710000D01*
X108724600Y-60739400D02*
X110570600Y-60739400D01*
X107004200Y-59019000D02*
X108724600Y-60739400D01*
X107004200Y-53125500D02*
X107004200Y-59019000D01*
X112188300Y-47941400D02*
X107004200Y-53125500D01*
X112188300Y-43347600D02*
X112188300Y-47941400D01*
X139700000Y-101865100D02*
X139700000Y-99060000D01*
X127563300Y-114001800D02*
X139700000Y-101865100D01*
X120924100Y-114001800D02*
X127563300Y-114001800D01*
X120476600Y-113554300D02*
X120924100Y-114001800D01*
X140320200Y-72452200D02*
X139112400Y-73660000D01*
X142689600Y-72452200D02*
X140320200Y-72452200D01*
X143407200Y-73169800D02*
X142689600Y-72452200D01*
X143407200Y-74115000D02*
X143407200Y-73169800D01*
X142662800Y-74859400D02*
X143407200Y-74115000D01*
X141722400Y-74859400D02*
X142662800Y-74859400D01*
X139420100Y-77161700D02*
X141722400Y-74859400D01*
X139420100Y-78421900D02*
X139420100Y-77161700D01*
X143644400Y-82646200D02*
X139420100Y-78421900D01*
X143644400Y-83540800D02*
X143644400Y-82646200D01*
X143029000Y-84156200D02*
X143644400Y-83540800D01*
X142101800Y-84156200D02*
X143029000Y-84156200D01*
X142026300Y-84080700D02*
X142101800Y-84156200D01*
X141173800Y-84080700D02*
X142026300Y-84080700D01*
X141102000Y-84152500D02*
X141173800Y-84080700D01*
X140098100Y-84152500D02*
X141102000Y-84152500D01*
X140026300Y-84080700D02*
X140098100Y-84152500D01*
X139173800Y-84080700D02*
X140026300Y-84080700D01*
X138144500Y-85110000D02*
X139173800Y-84080700D01*
X137600000Y-85110000D02*
X138144500Y-85110000D01*
X124329400Y-135524200D02*
X139507100Y-135524200D01*
X123624500Y-134819300D02*
X124329400Y-135524200D01*
X147408300Y-135524200D02*
X147463600Y-135468900D01*
X139507100Y-135524200D02*
X147408300Y-135524200D01*
X117528100Y-115973900D02*
X113898900Y-115973900D01*
X104021900Y-176520800D02*
X103022000Y-177520700D01*
X104021900Y-153546200D02*
X104021900Y-176520800D01*
X102870000Y-152394300D02*
X104021900Y-153546200D01*
X102870000Y-151257000D02*
X102870000Y-152394300D01*
X103022000Y-180690000D02*
X103022000Y-177520700D01*
X148753500Y-139796700D02*
X149994000Y-141037200D01*
X126784300Y-139796700D02*
X148753500Y-139796700D01*
X115324000Y-151257000D02*
X126784300Y-139796700D01*
X102870000Y-151257000D02*
X115324000Y-151257000D01*
X101531500Y-176471200D02*
X100482000Y-177520700D01*
X101531500Y-152458500D02*
X101531500Y-176471200D01*
X100330000Y-151257000D02*
X101531500Y-152458500D01*
X100482000Y-180690000D02*
X100482000Y-177520700D01*
X100330000Y-146905100D02*
X98774800Y-145349900D01*
X100330000Y-151257000D02*
X100330000Y-146905100D01*
X98990100Y-176472600D02*
X97942000Y-177520700D01*
X98990100Y-152457100D02*
X98990100Y-176472600D01*
X97790000Y-151257000D02*
X98990100Y-152457100D01*
X97942000Y-180690000D02*
X97942000Y-177520700D01*
X95402000Y-180690000D02*
X95402000Y-177520700D01*
X95250000Y-151257000D02*
X96450100Y-151257000D01*
X96450100Y-176472600D02*
X95402000Y-177520700D01*
X96450100Y-151257000D02*
X96450100Y-176472600D01*
X96450100Y-149388900D02*
X97445700Y-148393300D01*
X96450100Y-151257000D02*
X96450100Y-149388900D01*
X93910100Y-176472600D02*
X92862000Y-177520700D01*
X93910100Y-152457100D02*
X93910100Y-176472600D01*
X92710000Y-151257000D02*
X93910100Y-152457100D01*
X92862000Y-180690000D02*
X92862000Y-177520700D01*
X92710000Y-149954800D02*
X92710000Y-151257000D01*
X95878700Y-146786100D02*
X92710000Y-149954800D01*
X95922400Y-146786100D02*
X95878700Y-146786100D01*
X90170000Y-147405300D02*
X93655000Y-143920300D01*
X90170000Y-151257000D02*
X90170000Y-147405300D01*
X90322000Y-157153800D02*
X90322000Y-180690000D01*
X89032600Y-155864400D02*
X90322000Y-157153800D01*
X89032600Y-152394400D02*
X89032600Y-155864400D01*
X90170000Y-151257000D02*
X89032600Y-152394400D01*
X100482000Y-154969000D02*
X100482000Y-156686400D01*
X100330000Y-154817000D02*
X100482000Y-154969000D01*
X120951500Y-144674500D02*
X121451800Y-144174200D01*
X98490100Y-144674500D02*
X120951500Y-144674500D01*
X97147300Y-146017300D02*
X98490100Y-144674500D01*
X97147300Y-147427700D02*
X97147300Y-146017300D01*
X94096800Y-150478200D02*
X97147300Y-147427700D01*
X94096800Y-151936100D02*
X94096800Y-150478200D01*
X95250000Y-153089300D02*
X94096800Y-151936100D01*
X95250000Y-154817000D02*
X95250000Y-153089300D01*
X121245900Y-140971800D02*
X124018600Y-140971800D01*
X118293600Y-143924100D02*
X121245900Y-140971800D01*
X98532900Y-143924100D02*
X118293600Y-143924100D01*
X96647000Y-145810000D02*
X98532900Y-143924100D01*
X96647000Y-147112000D02*
X96647000Y-145810000D01*
X94381100Y-149377900D02*
X96647000Y-147112000D01*
X94241900Y-149377900D02*
X94381100Y-149377900D01*
X98541900Y-143207400D02*
X117640200Y-143207400D01*
X91457800Y-150291500D02*
X98541900Y-143207400D01*
X91457800Y-153529200D02*
X91457800Y-150291500D01*
X90170000Y-154817000D02*
X91457800Y-153529200D01*
X92891600Y-141848500D02*
X90290800Y-141848500D01*
X99961500Y-134778600D02*
X92891600Y-141848500D01*
X102196700Y-87041000D02*
X101534700Y-87041000D01*
X106127700Y-83110000D02*
X102196700Y-87041000D01*
X110600000Y-83110000D02*
X106127700Y-83110000D01*
X112927300Y-48556100D02*
X112927300Y-43842300D01*
X107533000Y-53950400D02*
X112927300Y-48556100D01*
X107533000Y-58463100D02*
X107533000Y-53950400D01*
X107934700Y-58864800D02*
X107533000Y-58463100D01*
X108558000Y-58864800D02*
X107934700Y-58864800D01*
X108765900Y-58656900D02*
X108558000Y-58864800D01*
X109653100Y-58656900D02*
X108765900Y-58656900D01*
X110600000Y-57710000D02*
X109653100Y-58656900D01*
X142495900Y-55814100D02*
X140600000Y-57710000D01*
X146933100Y-55814100D02*
X142495900Y-55814100D01*
X150987300Y-118611300D02*
X149132500Y-120466100D01*
X150987300Y-82497200D02*
X150987300Y-118611300D01*
X151087100Y-82397400D02*
X150987300Y-82497200D01*
X151087100Y-77833700D02*
X151087100Y-82397400D01*
X148846100Y-75592700D02*
X151087100Y-77833700D01*
X145952100Y-43264600D02*
X145151700Y-44065000D01*
X145952100Y-34180700D02*
X145952100Y-43264600D01*
X143021300Y-31249900D02*
X145952100Y-34180700D01*
X141660100Y-31249900D02*
X143021300Y-31249900D01*
X140600000Y-32310000D02*
X141660100Y-31249900D01*
X99035600Y-65983800D02*
X101367500Y-68315700D01*
X99035600Y-39545900D02*
X99035600Y-65983800D01*
X109353500Y-29228000D02*
X99035600Y-39545900D01*
X123518000Y-29228000D02*
X109353500Y-29228000D01*
X126600000Y-32310000D02*
X123518000Y-29228000D01*
X101542500Y-68490700D02*
X101367500Y-68315700D01*
X101542500Y-69400700D02*
X101542500Y-68490700D01*
X87071900Y-83871300D02*
X101542500Y-69400700D01*
X87071900Y-128732900D02*
X87071900Y-83871300D01*
X92368500Y-134029500D02*
X87071900Y-128732900D01*
X121166200Y-77676200D02*
X126600000Y-83110000D01*
X107119200Y-77676200D02*
X121166200Y-77676200D01*
X115874900Y-80384900D02*
X109240100Y-80384900D01*
X118600000Y-83110000D02*
X115874900Y-80384900D01*
X141779000Y-128713200D02*
X152559200Y-128713200D01*
X129902500Y-116836700D02*
X141779000Y-128713200D01*
X125448200Y-116836700D02*
X129902500Y-116836700D01*
X117055600Y-30765600D02*
X118600000Y-32310000D01*
X109980100Y-30765600D02*
X117055600Y-30765600D01*
X100776500Y-39969200D02*
X109980100Y-30765600D01*
X100776500Y-41990500D02*
X100776500Y-39969200D01*
X103383100Y-82663200D02*
X103278300Y-82663200D01*
X105661300Y-80385000D02*
X103383100Y-82663200D01*
X109240100Y-80385000D02*
X105661300Y-80385000D01*
X109240100Y-80384900D02*
X109240100Y-80385000D01*
X92110300Y-134734100D02*
X95495600Y-134734100D01*
X86543100Y-129166900D02*
X92110300Y-134734100D01*
X86543100Y-82953700D02*
X86543100Y-129166900D01*
X100330700Y-69166100D02*
X86543100Y-82953700D01*
X98488200Y-67323600D02*
X100330700Y-69166100D01*
X98488200Y-39333400D02*
X98488200Y-67323600D01*
X109115000Y-28706600D02*
X98488200Y-39333400D01*
X124996600Y-28706600D02*
X109115000Y-28706600D01*
X128600000Y-32310000D02*
X124996600Y-28706600D01*
X100822000Y-69166100D02*
X100867200Y-69120900D01*
X100330700Y-69166100D02*
X100822000Y-69166100D01*
X122567100Y-77077100D02*
X128600000Y-83110000D01*
X112192600Y-77077100D02*
X122567100Y-77077100D01*
X112101600Y-76986100D02*
X112192600Y-77077100D01*
X106606500Y-76986100D02*
X112101600Y-76986100D01*
X106546700Y-77045900D02*
X106606500Y-76986100D01*
X100099200Y-60487800D02*
X102368100Y-62756700D01*
X100099200Y-39907300D02*
X100099200Y-60487800D01*
X109777700Y-30228800D02*
X100099200Y-39907300D01*
X120518800Y-30228800D02*
X109777700Y-30228800D01*
X122600000Y-32310000D02*
X120518800Y-30228800D01*
X114133100Y-67473600D02*
X114018500Y-67359000D01*
X102368100Y-63228000D02*
X102368100Y-62756700D01*
X106384500Y-67244400D02*
X102368100Y-63228000D01*
X113903900Y-67244400D02*
X106384500Y-67244400D01*
X114018500Y-67359000D02*
X113903900Y-67244400D01*
X125736400Y-100235400D02*
X133055500Y-107554500D01*
X107437200Y-100235400D02*
X125736400Y-100235400D01*
X96278900Y-89077100D02*
X107437200Y-100235400D01*
X96278900Y-80328700D02*
X96278900Y-89077100D01*
X97772200Y-78835400D02*
X96278900Y-80328700D01*
X97772200Y-76348500D02*
X97772200Y-78835400D01*
X104998100Y-69122600D02*
X97772200Y-76348500D01*
X114976500Y-69122600D02*
X104998100Y-69122600D01*
X115642900Y-68456200D02*
X114976500Y-69122600D01*
X115642900Y-67952400D02*
X115642900Y-68456200D01*
X115049500Y-67359000D02*
X115642900Y-67952400D01*
X114018500Y-67359000D02*
X115049500Y-67359000D01*
X123216400Y-75726400D02*
X130600000Y-83110000D01*
X106123000Y-75726400D02*
X123216400Y-75726400D01*
X104725700Y-77123700D02*
X106123000Y-75726400D01*
X104568100Y-77123700D02*
X104725700Y-77123700D01*
X103009100Y-78682700D02*
X104568100Y-77123700D01*
X103009100Y-79637400D02*
X103009100Y-78682700D01*
X100579000Y-82067500D02*
X103009100Y-79637400D01*
X100579000Y-83486400D02*
X100579000Y-82067500D01*
X147529100Y-33350800D02*
X145458900Y-31280600D01*
X147529100Y-44595100D02*
X147529100Y-33350800D01*
X142472000Y-49652200D02*
X147529100Y-44595100D01*
X138657800Y-49652200D02*
X142472000Y-49652200D01*
X130600000Y-57710000D02*
X138657800Y-49652200D01*
X93928800Y-78489500D02*
X93928800Y-103869700D01*
X95808000Y-76610300D02*
X93928800Y-78489500D01*
X115556000Y-31266000D02*
X116600000Y-32310000D01*
X110187400Y-31266000D02*
X115556000Y-31266000D01*
X101451800Y-40001600D02*
X110187400Y-31266000D01*
X101451800Y-42617400D02*
X101451800Y-40001600D01*
X100776500Y-43292700D02*
X101451800Y-42617400D01*
X103172400Y-81812900D02*
X103278300Y-81812900D01*
X102602900Y-82382400D02*
X103172400Y-81812900D01*
X102602900Y-82990900D02*
X102602900Y-82382400D01*
X102950600Y-83338600D02*
X102602900Y-82990900D01*
X103558100Y-83338600D02*
X102950600Y-83338600D01*
X105828100Y-81068600D02*
X103558100Y-83338600D01*
X114558600Y-81068600D02*
X105828100Y-81068600D01*
X116600000Y-83110000D02*
X114558600Y-81068600D01*
X105612400Y-79478800D02*
X109416200Y-79478800D01*
X103278300Y-81812900D02*
X105612400Y-79478800D01*
X113899700Y-68195400D02*
X114928000Y-68195400D01*
X113457800Y-67753500D02*
X113899700Y-68195400D01*
X103113000Y-67753500D02*
X113457800Y-67753500D01*
X101951800Y-66592300D02*
X103113000Y-67753500D01*
X101951800Y-64851900D02*
X101951800Y-66592300D01*
X99596900Y-62497000D02*
X101951800Y-64851900D01*
X99596900Y-39701900D02*
X99596900Y-62497000D01*
X109570400Y-29728400D02*
X99596900Y-39701900D01*
X122018400Y-29728400D02*
X109570400Y-29728400D01*
X124600000Y-32310000D02*
X122018400Y-29728400D01*
X103113000Y-68537800D02*
X103113000Y-67753500D01*
X96579500Y-75071300D02*
X103113000Y-68537800D01*
X96579500Y-77136600D02*
X96579500Y-75071300D01*
X94913700Y-78802400D02*
X96579500Y-77136600D01*
X94913700Y-111567900D02*
X94913700Y-78802400D01*
X87572200Y-118909400D02*
X94913700Y-111567900D01*
X87572200Y-127997400D02*
X87572200Y-118909400D01*
X88000700Y-128425900D02*
X87572200Y-127997400D01*
X149986700Y-114635600D02*
X146589500Y-118032800D01*
X149986700Y-82082600D02*
X149986700Y-114635600D01*
X150086500Y-81982800D02*
X149986700Y-82082600D01*
X150086500Y-78530200D02*
X150086500Y-81982800D01*
X147431900Y-75875600D02*
X150086500Y-78530200D01*
X147431900Y-73364700D02*
X147431900Y-75875600D01*
X138711200Y-30198800D02*
X136600000Y-32310000D01*
X143385600Y-30198800D02*
X138711200Y-30198800D01*
X147006300Y-33819500D02*
X143385600Y-30198800D01*
X147006300Y-44368300D02*
X147006300Y-33819500D01*
X144904800Y-46469800D02*
X147006300Y-44368300D01*
X143084400Y-46469800D02*
X144904800Y-46469800D01*
X150487000Y-115787000D02*
X147470600Y-118803400D01*
X150487000Y-82289900D02*
X150487000Y-115787000D01*
X150586800Y-82190100D02*
X150487000Y-82289900D01*
X150586800Y-78322900D02*
X150586800Y-82190100D01*
X148145800Y-75881900D02*
X150586800Y-78322900D01*
X148145800Y-74427700D02*
X148145800Y-75881900D01*
X148512300Y-74061200D02*
X148145800Y-74427700D01*
X145010200Y-54548900D02*
X146253500Y-53305600D01*
X141761100Y-54548900D02*
X145010200Y-54548900D01*
X138600000Y-57710000D02*
X141761100Y-54548900D01*
X146505900Y-43913600D02*
X145399300Y-45020200D01*
X146505900Y-34026800D02*
X146505900Y-43913600D01*
X143228600Y-30749500D02*
X146505900Y-34026800D01*
X140160500Y-30749500D02*
X143228600Y-30749500D01*
X138600000Y-32310000D02*
X140160500Y-30749500D01*
X132600000Y-56468800D02*
X132600000Y-57710000D01*
X138704500Y-50364300D02*
X132600000Y-56468800D01*
X146708800Y-50364300D02*
X138704500Y-50364300D01*
X148474800Y-48598300D02*
X146708800Y-50364300D01*
X148053900Y-67097800D02*
X145517700Y-69634000D01*
X149241200Y-67097800D02*
X148053900Y-67097800D01*
X135737900Y-29172100D02*
X132600000Y-32310000D01*
X145105300Y-29172100D02*
X135737900Y-29172100D01*
X148608000Y-32674800D02*
X145105300Y-29172100D01*
X148608000Y-45713000D02*
X148608000Y-32674800D01*
X148474800Y-45846200D02*
X148608000Y-45713000D01*
X148474800Y-48598300D02*
X148474800Y-45846200D01*
X148015400Y-124306900D02*
X147656300Y-124306900D01*
X153587700Y-118734600D02*
X148015400Y-124306900D01*
X153587700Y-86901400D02*
X153587700Y-118734600D01*
X153134000Y-86447700D02*
X153587700Y-86901400D01*
X153134000Y-85359600D02*
X153134000Y-86447700D01*
X153493100Y-85000500D02*
X153134000Y-85359600D01*
X153493100Y-69674300D02*
X153493100Y-85000500D01*
X152947200Y-69128400D02*
X153493100Y-69674300D01*
X151271800Y-69128400D02*
X152947200Y-69128400D01*
X149241200Y-67097800D02*
X151271800Y-69128400D01*
X149241200Y-66669200D02*
X149241200Y-67097800D01*
X152854700Y-63055700D02*
X149241200Y-66669200D01*
X152854700Y-53685700D02*
X152854700Y-63055700D01*
X152354400Y-53185400D02*
X152854700Y-53685700D01*
X152354400Y-52477900D02*
X152354400Y-53185400D01*
X148474800Y-48598300D02*
X152354400Y-52477900D01*
X147479400Y-72014600D02*
X147256200Y-72014600D01*
X152416400Y-76951600D02*
X147479400Y-72014600D01*
X152416400Y-82978200D02*
X152416400Y-76951600D01*
X151629200Y-83765400D02*
X152416400Y-82978200D01*
X151629200Y-119714600D02*
X151629200Y-83765400D01*
X150123900Y-121219900D02*
X151629200Y-119714600D01*
X137237500Y-29672500D02*
X134600000Y-32310000D01*
X144875900Y-29672500D02*
X137237500Y-29672500D01*
X148053300Y-32849900D02*
X144875900Y-29672500D01*
X148053300Y-44778600D02*
X148053300Y-32849900D01*
X144161000Y-48670900D02*
X148053300Y-44778600D01*
X144161000Y-49522800D02*
X144161000Y-48670900D01*
X109079800Y-58156600D02*
X108215000Y-58156600D01*
X109543500Y-57692900D02*
X109079800Y-58156600D01*
X109543500Y-57278600D02*
X109543500Y-57692900D01*
X110163900Y-56658200D02*
X109543500Y-57278600D01*
X113548200Y-56658200D02*
X110163900Y-56658200D01*
X114600000Y-57710000D02*
X113548200Y-56658200D01*
X113059000Y-81569000D02*
X114600000Y-83110000D01*
X106035200Y-81569000D02*
X113059000Y-81569000D01*
X102767100Y-84837100D02*
X106035200Y-81569000D01*
X101092500Y-84837100D02*
X102767100Y-84837100D01*
X108262300Y-62210000D02*
X105363300Y-59311000D01*
X109600000Y-62210000D02*
X108262300Y-62210000D01*
X105256600Y-63982600D02*
X105256600Y-64095300D01*
X102042900Y-60768900D02*
X105256600Y-63982600D01*
X102042900Y-44367100D02*
X102042900Y-60768900D01*
X109600000Y-36810000D02*
X102042900Y-44367100D01*
X108124200Y-87610000D02*
X105801200Y-89933000D01*
X109600000Y-87610000D02*
X108124200Y-87610000D01*
X104655200Y-58808200D02*
X104722300Y-58741100D01*
X104655200Y-59558000D02*
X104655200Y-58808200D01*
X108338000Y-63240800D02*
X104655200Y-59558000D01*
X110025000Y-63240800D02*
X108338000Y-63240800D01*
X111055800Y-62210000D02*
X110025000Y-63240800D01*
X111600000Y-62210000D02*
X111055800Y-62210000D01*
X107060600Y-86543900D02*
X105386900Y-88217600D01*
X110533900Y-86543900D02*
X107060600Y-86543900D01*
X111600000Y-87610000D02*
X110533900Y-86543900D01*
X111513000Y-42536000D02*
X111972000Y-42077000D01*
X111513000Y-47909000D02*
X111513000Y-42536000D01*
X104722300Y-54699700D02*
X111513000Y-47909000D01*
X104722300Y-58741100D02*
X104722300Y-54699700D01*
X104330500Y-43559300D02*
X104330500Y-46274700D01*
X110179300Y-37710500D02*
X104330500Y-43559300D01*
X111044800Y-37710500D02*
X110179300Y-37710500D01*
X111243800Y-37909500D02*
X111044800Y-37710500D01*
X112044800Y-37909500D02*
X111243800Y-37909500D01*
X113144300Y-36810000D02*
X112044800Y-37909500D01*
X113600000Y-36810000D02*
X113144300Y-36810000D01*
X108821300Y-89933000D02*
X107283600Y-89933000D01*
X110243800Y-88510500D02*
X108821300Y-89933000D01*
X111044800Y-88510500D02*
X110243800Y-88510500D01*
X111243800Y-88709500D02*
X111044800Y-88510500D01*
X112044800Y-88709500D02*
X111243800Y-88709500D01*
X113144300Y-87610000D02*
X112044800Y-88709500D01*
X113600000Y-87610000D02*
X113144300Y-87610000D01*
X112109000Y-72531300D02*
X112109000Y-72531200D01*
X105127500Y-72531300D02*
X112109000Y-72531300D01*
X100256700Y-77402100D02*
X105127500Y-72531300D01*
X100256700Y-77896700D02*
X100256700Y-77402100D01*
X118390100Y-91342700D02*
X116907300Y-91342700D01*
X119639700Y-90093100D02*
X118390100Y-91342700D01*
X119639700Y-89105400D02*
X119639700Y-90093100D01*
X119044800Y-88510500D02*
X119639700Y-89105400D01*
X118243800Y-88510500D02*
X119044800Y-88510500D01*
X118044800Y-88709500D02*
X118243800Y-88510500D01*
X117243800Y-88709500D02*
X118044800Y-88709500D01*
X116144300Y-87610000D02*
X117243800Y-88709500D01*
X115600000Y-87610000D02*
X116144300Y-87610000D01*
X116055800Y-36810000D02*
X115600000Y-36810000D01*
X117155300Y-37909500D02*
X116055800Y-36810000D01*
X117956300Y-37909500D02*
X117155300Y-37909500D01*
X118155300Y-37710500D02*
X117956300Y-37909500D01*
X118956300Y-37710500D02*
X118155300Y-37710500D01*
X119661500Y-38415700D02*
X118956300Y-37710500D01*
X119661500Y-42651500D02*
X119661500Y-38415700D01*
X108739400Y-53573600D02*
X119661500Y-42651500D01*
X108739400Y-57420700D02*
X108739400Y-53573600D01*
X108800000Y-57481300D02*
X108739400Y-57420700D01*
X105258200Y-78803500D02*
X111972000Y-78803500D01*
X102102600Y-81959100D02*
X105258200Y-78803500D01*
X102102600Y-82917900D02*
X102102600Y-81959100D01*
X100858800Y-84161700D02*
X102102600Y-82917900D01*
X100785500Y-84161700D02*
X100858800Y-84161700D01*
X100417100Y-84530100D02*
X100785500Y-84161700D01*
X100417100Y-87408200D02*
X100417100Y-84530100D01*
X104680400Y-91671500D02*
X100417100Y-87408200D01*
X116578500Y-91671500D02*
X104680400Y-91671500D01*
X116907300Y-91342700D02*
X116578500Y-91671500D01*
X106864300Y-66744000D02*
X105752100Y-65631800D01*
X117590100Y-66744000D02*
X106864300Y-66744000D01*
X119645900Y-64688200D02*
X117590100Y-66744000D01*
X119645900Y-63800100D02*
X119645900Y-64688200D01*
X118055800Y-62210000D02*
X119645900Y-63800100D01*
X117600000Y-62210000D02*
X118055800Y-62210000D01*
X103043400Y-62923100D02*
X105752100Y-65631800D01*
X103043400Y-62477000D02*
X103043400Y-62923100D01*
X101542600Y-60976200D02*
X103043400Y-62477000D01*
X101542600Y-43377000D02*
X101542600Y-60976200D01*
X109161800Y-35757800D02*
X101542600Y-43377000D01*
X116547800Y-35757800D02*
X109161800Y-35757800D01*
X117600000Y-36810000D02*
X116547800Y-35757800D01*
X104113400Y-76623400D02*
X103498400Y-77238400D01*
X104518500Y-76623400D02*
X104113400Y-76623400D01*
X105915800Y-75226100D02*
X104518500Y-76623400D01*
X117741200Y-75226100D02*
X105915800Y-75226100D01*
X118131000Y-74836300D02*
X117741200Y-75226100D01*
X102432900Y-78303900D02*
X103498400Y-77238400D01*
X102432900Y-79481600D02*
X102432900Y-78303900D01*
X99903700Y-82010800D02*
X102432900Y-79481600D01*
X99903700Y-87606200D02*
X99903700Y-82010800D01*
X104469300Y-92171800D02*
X99903700Y-87606200D01*
X118280800Y-92171800D02*
X104469300Y-92171800D01*
X120177000Y-90275600D02*
X118280800Y-92171800D01*
X120177000Y-88187000D02*
X120177000Y-90275600D01*
X119600000Y-87610000D02*
X120177000Y-88187000D01*
X103833500Y-75948100D02*
X104081200Y-75948100D01*
X101932600Y-77849000D02*
X103833500Y-75948100D01*
X101932600Y-79274300D02*
X101932600Y-77849000D01*
X99403400Y-81803500D02*
X101932600Y-79274300D01*
X99403400Y-87813500D02*
X99403400Y-81803500D01*
X104262000Y-92672100D02*
X99403400Y-87813500D01*
X118488100Y-92672100D02*
X104262000Y-92672100D01*
X121526300Y-89633900D02*
X118488100Y-92672100D01*
X121526300Y-89220900D02*
X121526300Y-89633900D01*
X123137200Y-87610000D02*
X121526300Y-89220900D01*
X123600000Y-87610000D02*
X123137200Y-87610000D01*
X122295100Y-62210000D02*
X123600000Y-62210000D01*
X121033400Y-63471700D02*
X122295100Y-62210000D01*
X121033400Y-64887400D02*
X121033400Y-63471700D01*
X123716200Y-67570200D02*
X121033400Y-64887400D01*
X123716200Y-70807600D02*
X123716200Y-67570200D01*
X120532200Y-73991600D02*
X123716200Y-70807600D01*
X118020300Y-73991600D02*
X120532200Y-73991600D01*
X117286100Y-74725800D02*
X118020300Y-73991600D01*
X105708500Y-74725800D02*
X117286100Y-74725800D01*
X104486200Y-75948100D02*
X105708500Y-74725800D01*
X104081200Y-75948100D02*
X104486200Y-75948100D01*
X125144300Y-36810000D02*
X125600000Y-36810000D01*
X124044800Y-37909500D02*
X125144300Y-36810000D01*
X123243800Y-37909500D02*
X124044800Y-37909500D01*
X123087200Y-37752900D02*
X123243800Y-37909500D01*
X122193400Y-37752900D02*
X123087200Y-37752900D01*
X121067600Y-38878700D02*
X122193400Y-37752900D01*
X121067600Y-42493400D02*
X121067600Y-38878700D01*
X109431600Y-54129400D02*
X121067600Y-42493400D01*
X115818900Y-70104800D02*
X120377000Y-65546700D01*
X105014600Y-70104800D02*
X115818900Y-70104800D01*
X104907200Y-70212200D02*
X105014600Y-70104800D01*
X105623000Y-97645600D02*
X121357800Y-97645600D01*
X96824400Y-88847000D02*
X105623000Y-97645600D01*
X96824400Y-80844500D02*
X96824400Y-88847000D01*
X98287700Y-79381200D02*
X96824400Y-80844500D01*
X98287700Y-76831700D02*
X98287700Y-79381200D01*
X104907200Y-70212200D02*
X98287700Y-76831700D01*
X111559400Y-82069400D02*
X112600000Y-83110000D01*
X109396900Y-82069400D02*
X111559400Y-82069400D01*
X109213900Y-82252400D02*
X109396900Y-82069400D01*
X137897700Y-133937900D02*
X155578000Y-133937900D01*
X125015600Y-121055800D02*
X137897700Y-133937900D01*
X106059400Y-82252400D02*
X109213900Y-82252400D01*
X102726300Y-85585500D02*
X106059400Y-82252400D01*
X102697100Y-85585500D02*
X102726300Y-85585500D01*
X108524400Y-64210000D02*
X110600000Y-64210000D01*
X104044200Y-59729800D02*
X108524400Y-64210000D01*
X104044200Y-54051400D02*
X104044200Y-59729800D01*
X111012700Y-47082900D02*
X104044200Y-54051400D01*
X111012700Y-42047200D02*
X111012700Y-47082900D01*
X111883000Y-41176900D02*
X111012700Y-42047200D01*
X104265800Y-78315700D02*
X104265800Y-78399400D01*
X106267300Y-76314200D02*
X104265800Y-78315700D01*
X112384700Y-76314200D02*
X106267300Y-76314200D01*
X112472300Y-76401800D02*
X112384700Y-76314200D01*
X104265800Y-79088300D02*
X104265800Y-78399400D01*
X101427300Y-81926800D02*
X104265800Y-79088300D01*
X101427300Y-82424400D02*
X101427300Y-81926800D01*
X107709600Y-43602600D02*
X107709600Y-44405500D01*
X112502200Y-38810000D02*
X107709600Y-43602600D01*
X112600000Y-38810000D02*
X112502200Y-38810000D01*
X104296400Y-68428800D02*
X98582200Y-74143000D01*
X113178000Y-68428800D02*
X104296400Y-68428800D01*
X95778500Y-91100100D02*
X116525400Y-111847000D01*
X95778500Y-79767600D02*
X95778500Y-91100100D01*
X97079800Y-78466300D02*
X95778500Y-79767600D01*
X97079800Y-75645400D02*
X97079800Y-78466300D01*
X98582200Y-74143000D02*
X97079800Y-75645400D01*
X113566900Y-65243100D02*
X114600000Y-64210000D01*
X108849800Y-65243100D02*
X113566900Y-65243100D01*
X103543800Y-59937100D02*
X108849800Y-65243100D01*
X103543800Y-51364300D02*
X103543800Y-59937100D01*
X110154900Y-44753200D02*
X103543800Y-51364300D01*
X110154900Y-43234000D02*
X110154900Y-44753200D01*
X105125900Y-90112900D02*
X103885300Y-88872300D01*
X105125900Y-90230500D02*
X105125900Y-90112900D01*
X105566300Y-90670900D02*
X105125900Y-90230500D01*
X113539100Y-90670900D02*
X105566300Y-90670900D01*
X114600000Y-89610000D02*
X113539100Y-90670900D01*
X115066600Y-65743400D02*
X116600000Y-64210000D01*
X108567600Y-65743400D02*
X115066600Y-65743400D01*
X103043500Y-60219300D02*
X108567600Y-65743400D01*
X103043500Y-50520500D02*
X103043500Y-60219300D01*
X105036000Y-48528000D02*
X103043500Y-50520500D01*
X105164600Y-91171200D02*
X104369900Y-90376500D01*
X115038800Y-91171200D02*
X105164600Y-91171200D01*
X116600000Y-89610000D02*
X115038800Y-91171200D01*
X118983500Y-105425700D02*
X126884300Y-113326500D01*
X118983500Y-101256000D02*
X118983500Y-105425700D01*
X105286900Y-47783300D02*
X103617100Y-47783300D01*
X109265800Y-43804400D02*
X105286900Y-47783300D01*
X109265800Y-42839100D02*
X109265800Y-43804400D01*
X111603300Y-40501600D02*
X109265800Y-42839100D01*
X116908400Y-40501600D02*
X111603300Y-40501600D01*
X118600000Y-38810000D02*
X116908400Y-40501600D01*
X116566300Y-66243700D02*
X118600000Y-64210000D01*
X108360300Y-66243700D02*
X116566300Y-66243700D01*
X102543200Y-60426600D02*
X108360300Y-66243700D01*
X102543200Y-48857200D02*
X102543200Y-60426600D01*
X103617100Y-47783300D02*
X102543200Y-48857200D01*
X110059600Y-54584600D02*
X110059600Y-54704200D01*
X122600000Y-42044200D02*
X110059600Y-54584600D01*
X122600000Y-38810000D02*
X122600000Y-42044200D01*
X120022400Y-71228600D02*
X120807700Y-70443300D01*
X106600000Y-71228600D02*
X120022400Y-71228600D01*
X106430900Y-71397700D02*
X106600000Y-71228600D01*
X105945100Y-71883500D02*
X106430900Y-71397700D01*
X105067600Y-71883500D02*
X105945100Y-71883500D01*
X99538300Y-77412800D02*
X105067600Y-71883500D01*
X99538300Y-79545800D02*
X99538300Y-77412800D01*
X97853000Y-81231100D02*
X99538300Y-79545800D01*
X97853000Y-88386000D02*
X97853000Y-81231100D01*
X104102700Y-94635700D02*
X97853000Y-88386000D01*
X122587800Y-94635700D02*
X104102700Y-94635700D01*
X124600000Y-40999200D02*
X111746900Y-53852300D01*
X124600000Y-38810000D02*
X124600000Y-40999200D01*
X117847300Y-70698600D02*
X121238400Y-67307500D01*
X105461900Y-70698600D02*
X117847300Y-70698600D01*
X104952400Y-71208100D02*
X105461900Y-70698600D01*
X104952400Y-71208100D02*
X104979400Y-71208100D01*
X99037900Y-77122600D02*
X104952400Y-71208100D01*
X99037900Y-79338600D02*
X99037900Y-77122600D01*
X97352700Y-81023800D02*
X99037900Y-79338600D01*
X97352700Y-88618800D02*
X97352700Y-81023800D01*
X105704200Y-96970300D02*
X97352700Y-88618800D01*
X125357100Y-96970300D02*
X105704200Y-96970300D01*
X125488300Y-97101500D02*
X125357100Y-96970300D01*
X118296200Y-72404300D02*
X120112700Y-72404300D01*
X116959000Y-73741500D02*
X118296200Y-72404300D01*
X105985200Y-73741500D02*
X116959000Y-73741500D01*
X104733800Y-74992900D02*
X105985200Y-73741500D01*
X104328700Y-74992900D02*
X104733800Y-74992900D01*
X104081100Y-74992900D02*
X104328700Y-74992900D01*
X101432300Y-77641700D02*
X104081100Y-74992900D01*
X101432300Y-79067000D02*
X101432300Y-77641700D01*
X98903100Y-81596200D02*
X101432300Y-79067000D01*
X98903100Y-88020800D02*
X98903100Y-81596200D01*
X104075000Y-93192700D02*
X98903100Y-88020800D01*
X123017300Y-93192700D02*
X104075000Y-93192700D01*
X126600000Y-89610000D02*
X123017300Y-93192700D01*
X104328600Y-74037800D02*
X104576200Y-74037800D01*
X100932000Y-77434400D02*
X104328600Y-74037800D01*
X100932000Y-78859700D02*
X100932000Y-77434400D01*
X98402800Y-81388900D02*
X100932000Y-78859700D01*
X98402800Y-88228100D02*
X98402800Y-81388900D01*
X103904000Y-93729300D02*
X98402800Y-88228100D01*
X124480700Y-93729300D02*
X103904000Y-93729300D01*
X128600000Y-89610000D02*
X124480700Y-93729300D01*
X121836200Y-71728900D02*
X123003700Y-70561400D01*
X116331000Y-71728900D02*
X121836200Y-71728900D01*
X114818800Y-73241100D02*
X116331000Y-71728900D01*
X105372900Y-73241100D02*
X114818800Y-73241100D01*
X104576200Y-74037800D02*
X105372900Y-73241100D01*
X140139800Y-67817600D02*
X134726300Y-67817600D01*
X133294400Y-92304400D02*
X130600000Y-89610000D01*
X143641000Y-92304400D02*
X133294400Y-92304400D01*
X147954500Y-87990900D02*
X143641000Y-92304400D01*
X147954500Y-80077100D02*
X147954500Y-87990900D01*
X145503800Y-77626400D02*
X147954500Y-80077100D01*
X145503800Y-72254100D02*
X145503800Y-77626400D01*
X141883300Y-68633600D02*
X145503800Y-72254100D01*
X140637900Y-68633600D02*
X141883300Y-68633600D01*
X140139800Y-68135500D02*
X140637900Y-68633600D01*
X140139800Y-67817600D02*
X140139800Y-68135500D01*
X140139800Y-67683900D02*
X140139800Y-67817600D01*
X140540800Y-67282900D02*
X140139800Y-67683900D01*
X146124300Y-67282900D02*
X140540800Y-67282900D01*
X147698600Y-65708600D02*
X146124300Y-67282900D01*
X149333400Y-65708600D02*
X147698600Y-65708600D01*
X152316600Y-62725400D02*
X149333400Y-65708600D01*
X152316600Y-53855300D02*
X152316600Y-62725400D01*
X151854100Y-53392800D02*
X152316600Y-53855300D01*
X151854100Y-52703000D02*
X151854100Y-53392800D01*
X150179700Y-51028600D02*
X151854100Y-52703000D01*
X140140800Y-51028600D02*
X150179700Y-51028600D01*
X137923400Y-53246000D02*
X140140800Y-51028600D01*
X134731600Y-91741600D02*
X132600000Y-89610000D01*
X143496200Y-91741600D02*
X134731600Y-91741600D01*
X147454200Y-87783600D02*
X143496200Y-91741600D01*
X147454200Y-80284400D02*
X147454200Y-87783600D01*
X145003500Y-77833700D02*
X147454200Y-80284400D01*
X145003500Y-72461400D02*
X145003500Y-77833700D01*
X141676000Y-69133900D02*
X145003500Y-72461400D01*
X135086200Y-69133900D02*
X141676000Y-69133900D01*
X134047800Y-68095500D02*
X135086200Y-69133900D01*
X134047800Y-66782500D02*
X134047800Y-68095500D01*
X132600000Y-65334700D02*
X132600000Y-64210000D01*
X134047800Y-66782500D02*
X132600000Y-65334700D01*
X145813500Y-66782500D02*
X134047800Y-66782500D01*
X147387700Y-65208300D02*
X145813500Y-66782500D01*
X149054300Y-65208300D02*
X147387700Y-65208300D01*
X151770100Y-62492500D02*
X149054300Y-65208300D01*
X151770100Y-54016400D02*
X151770100Y-62492500D01*
X151353800Y-53600100D02*
X151770100Y-54016400D01*
X151353800Y-52952200D02*
X151353800Y-53600100D01*
X149953300Y-51551700D02*
X151353800Y-52952200D01*
X140489700Y-51551700D02*
X149953300Y-51551700D01*
X138970400Y-53071000D02*
X140489700Y-51551700D01*
X138970400Y-53154000D02*
X138970400Y-53071000D01*
X140110500Y-78326500D02*
X140110500Y-77449500D01*
X144159200Y-82375200D02*
X140110500Y-78326500D01*
X144159200Y-84408400D02*
X144159200Y-82375200D01*
X142849700Y-85717900D02*
X144159200Y-84408400D01*
X142849700Y-87904600D02*
X142849700Y-85717900D01*
X142044800Y-88709500D02*
X142849700Y-87904600D01*
X141243800Y-88709500D02*
X142044800Y-88709500D01*
X141044800Y-88510500D02*
X141243800Y-88709500D01*
X140243800Y-88510500D02*
X141044800Y-88510500D01*
X140044800Y-88709500D02*
X140243800Y-88510500D01*
X139243800Y-88709500D02*
X140044800Y-88709500D01*
X139044800Y-88510500D02*
X139243800Y-88709500D01*
X138243800Y-88510500D02*
X139044800Y-88510500D01*
X138044800Y-88709500D02*
X138243800Y-88510500D01*
X137243800Y-88709500D02*
X138044800Y-88709500D01*
X137044800Y-88510500D02*
X137243800Y-88709500D01*
X136243800Y-88510500D02*
X137044800Y-88510500D01*
X135144300Y-89610000D02*
X136243800Y-88510500D01*
X134600000Y-89610000D02*
X135144300Y-89610000D01*
X136672100Y-66282100D02*
X134600000Y-64210000D01*
X145502800Y-66282100D02*
X136672100Y-66282100D01*
X147327100Y-64457800D02*
X145502800Y-66282100D01*
X149097100Y-64457800D02*
X147327100Y-64457800D01*
X151259200Y-62295700D02*
X149097100Y-64457800D01*
X151259200Y-54213100D02*
X151259200Y-62295700D01*
X150853500Y-53807400D02*
X151259200Y-54213100D01*
X150853500Y-53159700D02*
X150853500Y-53807400D01*
X149745900Y-52052100D02*
X150853500Y-53159700D01*
X140944300Y-52052100D02*
X149745900Y-52052100D01*
X140286200Y-52710200D02*
X140944300Y-52052100D01*
X138226000Y-91236000D02*
X136600000Y-89610000D01*
X143242700Y-91236000D02*
X138226000Y-91236000D01*
X146953900Y-87524800D02*
X143242700Y-91236000D01*
X146953900Y-80859700D02*
X146953900Y-87524800D01*
X144503200Y-78409000D02*
X146953900Y-80859700D01*
X144503200Y-72668800D02*
X144503200Y-78409000D01*
X142145400Y-70311000D02*
X144503200Y-72668800D01*
X136600000Y-70311000D02*
X142145400Y-70311000D01*
X138160000Y-65770000D02*
X136600000Y-64210000D01*
X144703100Y-65770000D02*
X138160000Y-65770000D01*
X146765700Y-63707400D02*
X144703100Y-65770000D01*
X149139800Y-63707400D02*
X146765700Y-63707400D01*
X150744500Y-62102700D02*
X149139800Y-63707400D01*
X150744500Y-54406000D02*
X150744500Y-62102700D01*
X150353200Y-54014700D02*
X150744500Y-54406000D01*
X150353200Y-53367100D02*
X150353200Y-54014700D01*
X149573700Y-52587600D02*
X150353200Y-53367100D01*
X145017500Y-52587600D02*
X149573700Y-52587600D01*
X143672700Y-53932400D02*
X145017500Y-52587600D01*
X137590500Y-53932400D02*
X143672700Y-53932400D01*
X137224400Y-53566300D02*
X137590500Y-53932400D01*
X137224400Y-52799400D02*
X137224400Y-53566300D01*
X138984200Y-51039600D02*
X137224400Y-52799400D01*
X142018900Y-71015900D02*
X141895100Y-71015900D01*
X144002900Y-72999900D02*
X142018900Y-71015900D01*
X144002900Y-78890300D02*
X144002900Y-72999900D01*
X146453600Y-81341000D02*
X144002900Y-78890300D01*
X146453600Y-87306900D02*
X146453600Y-81341000D01*
X143063600Y-90696900D02*
X146453600Y-87306900D01*
X139686900Y-90696900D02*
X143063600Y-90696900D01*
X138600000Y-89610000D02*
X139686900Y-90696900D01*
X139635300Y-65245300D02*
X138600000Y-64210000D01*
X143184600Y-65245300D02*
X139635300Y-65245300D01*
X144510800Y-63919100D02*
X143184600Y-65245300D01*
X145049000Y-63919100D02*
X144510800Y-63919100D01*
X146919200Y-62048900D02*
X145049000Y-63919100D01*
X148848100Y-62048900D02*
X146919200Y-62048900D01*
X150054000Y-60843000D02*
X148848100Y-62048900D01*
X150054000Y-57551400D02*
X150054000Y-60843000D01*
X141294800Y-41504800D02*
X144303500Y-41504800D01*
X138600000Y-38810000D02*
X141294800Y-41504800D01*
X148955100Y-91128800D02*
X145848500Y-94235400D01*
X148955100Y-79662500D02*
X148955100Y-91128800D01*
X146504400Y-77211800D02*
X148955100Y-79662500D01*
X146504400Y-71591900D02*
X146504400Y-77211800D01*
X142891400Y-67978900D02*
X146504400Y-71591900D01*
X141144300Y-64210000D02*
X140600000Y-64210000D01*
X142824800Y-62529500D02*
X141144300Y-64210000D01*
X145023500Y-62529500D02*
X142824800Y-62529500D01*
X146012200Y-61540800D02*
X145023500Y-62529500D01*
X146012200Y-58573400D02*
X146012200Y-61540800D01*
X145757000Y-58318200D02*
X146012200Y-58573400D01*
X143780200Y-63029800D02*
X142600000Y-64210000D01*
X145230800Y-63029800D02*
X143780200Y-63029800D01*
X147712800Y-60547800D02*
X145230800Y-63029800D01*
X147712800Y-58418100D02*
X147712800Y-60547800D01*
X147864500Y-58266400D02*
X147712800Y-58418100D01*
X143343400Y-89610000D02*
X142600000Y-89610000D01*
X145953200Y-87000200D02*
X143343400Y-89610000D01*
X145953200Y-83426700D02*
X145953200Y-87000200D01*
X142323800Y-79797300D02*
X145953200Y-83426700D01*
X142323800Y-75534700D02*
X142323800Y-79797300D01*
X158000000Y-111000000D02*
X158000000Y-112492900D01*
X160391400Y-114884300D02*
X158000000Y-112492900D01*
X160391400Y-121033900D02*
X160391400Y-114884300D01*
X160186300Y-121239000D02*
X160391400Y-121033900D01*
X157120800Y-121239000D02*
X160186300Y-121239000D01*
X152300300Y-126059500D02*
X157120800Y-121239000D01*
X146153700Y-126059500D02*
X152300300Y-126059500D01*
X134891300Y-114797100D02*
X146153700Y-126059500D01*
X104889400Y-114797100D02*
X134891300Y-114797100D01*
X101565200Y-111472900D02*
X104889400Y-114797100D01*
X152663200Y-69851100D02*
X146639000Y-69851100D01*
X152968400Y-70156300D02*
X152663200Y-69851100D01*
X152968400Y-84261300D02*
X152968400Y-70156300D01*
X152383500Y-84846200D02*
X152968400Y-84261300D01*
X152383500Y-88575000D02*
X152383500Y-84846200D01*
X152383500Y-100282400D02*
X152383500Y-88575000D01*
X152898000Y-100796900D02*
X152383500Y-100282400D01*
X152383500Y-88575000D02*
X152319000Y-88575000D01*
X144303500Y-39037100D02*
X144303500Y-40301000D01*
X143012200Y-37745800D02*
X144303500Y-39037100D01*
X142120000Y-37745800D02*
X143012200Y-37745800D01*
X141956300Y-37909500D02*
X142120000Y-37745800D01*
X141155300Y-37909500D02*
X141956300Y-37909500D01*
X140956300Y-37710500D02*
X141155300Y-37909500D01*
X140155300Y-37710500D02*
X140956300Y-37710500D01*
X139956300Y-37909500D02*
X140155300Y-37710500D01*
X139155300Y-37909500D02*
X139956300Y-37909500D01*
X138055800Y-36810000D02*
X139155300Y-37909500D01*
X137600000Y-36810000D02*
X138055800Y-36810000D01*
X149406800Y-46483600D02*
X149199600Y-46483600D01*
X154019900Y-51096700D02*
X149406800Y-46483600D01*
X154019900Y-51239400D02*
X154019900Y-51096700D01*
X161179100Y-123841100D02*
X159000000Y-123841100D01*
X161850300Y-123169900D02*
X161179100Y-123841100D01*
X159000000Y-125080000D02*
X159000000Y-123841100D01*
X145081400Y-64594400D02*
X144790400Y-64594400D01*
X146719000Y-62956800D02*
X145081400Y-64594400D01*
X148895100Y-62956800D02*
X146719000Y-62956800D01*
X149985600Y-61866300D02*
X148895100Y-62956800D01*
X159000000Y-127620000D02*
X159000000Y-126381100D01*
X159665800Y-126381100D02*
X159000000Y-126381100D01*
X162539300Y-123507600D02*
X159665800Y-126381100D01*
X162539300Y-94619400D02*
X162539300Y-123507600D01*
X153809400Y-85889500D02*
X162539300Y-94619400D01*
X148586100Y-60232200D02*
X148388100Y-60430200D01*
X148586100Y-57983300D02*
X148586100Y-60232200D01*
X148187700Y-57584900D02*
X148586100Y-57983300D01*
X145535300Y-57584900D02*
X148187700Y-57584900D01*
X141600000Y-61520200D02*
X145535300Y-57584900D01*
X141600000Y-62210000D02*
X141600000Y-61520200D01*
X153362800Y-64322300D02*
X151123400Y-66561700D01*
X153362800Y-53132600D02*
X153362800Y-64322300D01*
X153104800Y-52874600D02*
X153362800Y-53132600D01*
X153104800Y-51136700D02*
X153104800Y-52874600D01*
X149710000Y-47741900D02*
X153104800Y-51136700D01*
X150305300Y-66561700D02*
X151123400Y-66561700D01*
X149982700Y-66884300D02*
X150305300Y-66561700D01*
X154038100Y-85660800D02*
X153809400Y-85889500D01*
X154038100Y-69476400D02*
X154038100Y-85660800D01*
X151123400Y-66561700D02*
X154038100Y-69476400D01*
X165000000Y-111000000D02*
X165000000Y-112492900D01*
X165000000Y-123598100D02*
X165000000Y-112492900D01*
X159209600Y-129388500D02*
X165000000Y-123598100D01*
X139984100Y-129388500D02*
X159209600Y-129388500D01*
X130513400Y-119917800D02*
X139984100Y-129388500D01*
X103600000Y-119917800D02*
X130513400Y-119917800D01*
D25*
G36*
X161433748Y-155911558D02*
X161419605Y-155925700D01*
X161433748Y-155939843D01*
X161254143Y-156119448D01*
X161240000Y-156105305D01*
X161225858Y-156119448D01*
X161046253Y-155939843D01*
X161060395Y-155925700D01*
X161046253Y-155911558D01*
X161225858Y-155731953D01*
X161240000Y-155746095D01*
X161254143Y-155731953D01*
X161433748Y-155911558D01*
X161433748Y-155911558D01*
G37*
X161433748Y-155911558D02*
X161419605Y-155925700D01*
X161433748Y-155939843D01*
X161254143Y-156119448D01*
X161240000Y-156105305D01*
X161225858Y-156119448D01*
X161046253Y-155939843D01*
X161060395Y-155925700D01*
X161046253Y-155911558D01*
X161225858Y-155731953D01*
X161240000Y-155746095D01*
X161254143Y-155731953D01*
X161433748Y-155911558D01*
G36*
X87823748Y-154802858D02*
X87809605Y-154817000D01*
X87823748Y-154831143D01*
X87644143Y-155010748D01*
X87630000Y-154996605D01*
X87615858Y-155010748D01*
X87436253Y-154831143D01*
X87450395Y-154817000D01*
X87436253Y-154802858D01*
X87615858Y-154623253D01*
X87630000Y-154637395D01*
X87644143Y-154623253D01*
X87823748Y-154802858D01*
X87823748Y-154802858D01*
G37*
X87823748Y-154802858D02*
X87809605Y-154817000D01*
X87823748Y-154831143D01*
X87644143Y-155010748D01*
X87630000Y-154996605D01*
X87615858Y-155010748D01*
X87436253Y-154831143D01*
X87450395Y-154817000D01*
X87436253Y-154802858D01*
X87615858Y-154623253D01*
X87630000Y-154637395D01*
X87644143Y-154623253D01*
X87823748Y-154802858D01*
G36*
X160054990Y-151864603D02*
X160447630Y-152257929D01*
X160960900Y-152471057D01*
X161516661Y-152471542D01*
X161549055Y-152458157D01*
X161660000Y-152569102D01*
X161660000Y-154592298D01*
X161447698Y-154516556D01*
X160892632Y-154544338D01*
X160508857Y-154703303D01*
X160456184Y-154886942D01*
X160417401Y-154828899D01*
X159635122Y-154046620D01*
X159635162Y-154001133D01*
X159493117Y-153657357D01*
X159230327Y-153394108D01*
X158886799Y-153251462D01*
X158514833Y-153251138D01*
X158171057Y-153393183D01*
X158013034Y-153550931D01*
X158011548Y-153543461D01*
X157846801Y-153296899D01*
X156920000Y-152370098D01*
X156920000Y-152271831D01*
X156950303Y-152259310D01*
X157343629Y-151866670D01*
X157429949Y-151658788D01*
X157514990Y-151864603D01*
X157907630Y-152257929D01*
X158420900Y-152471057D01*
X158976661Y-152471542D01*
X159490303Y-152259310D01*
X159883629Y-151866670D01*
X159969949Y-151658788D01*
X160054990Y-151864603D01*
X160054990Y-151864603D01*
G37*
X160054990Y-151864603D02*
X160447630Y-152257929D01*
X160960900Y-152471057D01*
X161516661Y-152471542D01*
X161549055Y-152458157D01*
X161660000Y-152569102D01*
X161660000Y-154592298D01*
X161447698Y-154516556D01*
X160892632Y-154544338D01*
X160508857Y-154703303D01*
X160456184Y-154886942D01*
X160417401Y-154828899D01*
X159635122Y-154046620D01*
X159635162Y-154001133D01*
X159493117Y-153657357D01*
X159230327Y-153394108D01*
X158886799Y-153251462D01*
X158514833Y-153251138D01*
X158171057Y-153393183D01*
X158013034Y-153550931D01*
X158011548Y-153543461D01*
X157846801Y-153296899D01*
X156920000Y-152370098D01*
X156920000Y-152271831D01*
X156950303Y-152259310D01*
X157343629Y-151866670D01*
X157429949Y-151658788D01*
X157514990Y-151864603D01*
X157907630Y-152257929D01*
X158420900Y-152471057D01*
X158976661Y-152471542D01*
X159490303Y-152259310D01*
X159883629Y-151866670D01*
X159969949Y-151658788D01*
X160054990Y-151864603D01*
G36*
X158372162Y-148164101D02*
X158371838Y-148536067D01*
X158513883Y-148879843D01*
X158547000Y-148913018D01*
X158547000Y-149677166D01*
X158423339Y-149677058D01*
X157909697Y-149889290D01*
X157516371Y-150281930D01*
X157430051Y-150489812D01*
X157345010Y-150283997D01*
X156952370Y-149890671D01*
X156556295Y-149726207D01*
X158344980Y-147937522D01*
X158390467Y-147937562D01*
X158481921Y-147899774D01*
X158372162Y-148164101D01*
X158372162Y-148164101D01*
G37*
X158372162Y-148164101D02*
X158371838Y-148536067D01*
X158513883Y-148879843D01*
X158547000Y-148913018D01*
X158547000Y-149677166D01*
X158423339Y-149677058D01*
X157909697Y-149889290D01*
X157516371Y-150281930D01*
X157430051Y-150489812D01*
X157345010Y-150283997D01*
X156952370Y-149890671D01*
X156556295Y-149726207D01*
X158344980Y-147937522D01*
X158390467Y-147937562D01*
X158481921Y-147899774D01*
X158372162Y-148164101D01*
G36*
X150912473Y-142317292D02*
X151256001Y-142459938D01*
X151302876Y-142459979D01*
X152024999Y-143182102D01*
X152271561Y-143346848D01*
X152562400Y-143404700D01*
X157390498Y-143404700D01*
X158241215Y-144255417D01*
X157920633Y-144255138D01*
X157576857Y-144397183D01*
X157313608Y-144659973D01*
X157298329Y-144696769D01*
X151988297Y-150006801D01*
X151872370Y-149890671D01*
X151359100Y-149677543D01*
X150803339Y-149677058D01*
X150289697Y-149889290D01*
X150286008Y-149892972D01*
X150274801Y-149876199D01*
X150221702Y-149823100D01*
X150927301Y-149117501D01*
X151092048Y-148870940D01*
X151112200Y-148769627D01*
X151149900Y-148580100D01*
X151149900Y-144649163D01*
X151182092Y-144617027D01*
X151324738Y-144273499D01*
X151325062Y-143901533D01*
X151183017Y-143557757D01*
X150920227Y-143294508D01*
X150576699Y-143151862D01*
X150204733Y-143151538D01*
X149860957Y-143293583D01*
X149597708Y-143556373D01*
X149455062Y-143899901D01*
X149454738Y-144271867D01*
X149596783Y-144615643D01*
X149629900Y-144648818D01*
X149629900Y-148265298D01*
X149539036Y-148356162D01*
X149398727Y-148215608D01*
X149055199Y-148072962D01*
X149008323Y-148072921D01*
X144494722Y-143559320D01*
X144494762Y-143513833D01*
X144483634Y-143486900D01*
X149261600Y-143486900D01*
X149552439Y-143429048D01*
X149799001Y-143264301D01*
X150829314Y-142233988D01*
X150912473Y-142317292D01*
X150912473Y-142317292D01*
G37*
X150912473Y-142317292D02*
X151256001Y-142459938D01*
X151302876Y-142459979D01*
X152024999Y-143182102D01*
X152271561Y-143346848D01*
X152562400Y-143404700D01*
X157390498Y-143404700D01*
X158241215Y-144255417D01*
X157920633Y-144255138D01*
X157576857Y-144397183D01*
X157313608Y-144659973D01*
X157298329Y-144696769D01*
X151988297Y-150006801D01*
X151872370Y-149890671D01*
X151359100Y-149677543D01*
X150803339Y-149677058D01*
X150289697Y-149889290D01*
X150286008Y-149892972D01*
X150274801Y-149876199D01*
X150221702Y-149823100D01*
X150927301Y-149117501D01*
X151092048Y-148870940D01*
X151112200Y-148769627D01*
X151149900Y-148580100D01*
X151149900Y-144649163D01*
X151182092Y-144617027D01*
X151324738Y-144273499D01*
X151325062Y-143901533D01*
X151183017Y-143557757D01*
X150920227Y-143294508D01*
X150576699Y-143151862D01*
X150204733Y-143151538D01*
X149860957Y-143293583D01*
X149597708Y-143556373D01*
X149455062Y-143899901D01*
X149454738Y-144271867D01*
X149596783Y-144615643D01*
X149629900Y-144648818D01*
X149629900Y-148265298D01*
X149539036Y-148356162D01*
X149398727Y-148215608D01*
X149055199Y-148072962D01*
X149008323Y-148072921D01*
X144494722Y-143559320D01*
X144494762Y-143513833D01*
X144483634Y-143486900D01*
X149261600Y-143486900D01*
X149552439Y-143429048D01*
X149799001Y-143264301D01*
X150829314Y-142233988D01*
X150912473Y-142317292D01*
G36*
X106899799Y-100772801D02*
X107146360Y-100937548D01*
X107437200Y-100995400D01*
X118079307Y-100995400D01*
X118048662Y-101069201D01*
X118048338Y-101441167D01*
X118190383Y-101784943D01*
X118223500Y-101818118D01*
X118223500Y-105425700D01*
X118281352Y-105716539D01*
X118446099Y-105963101D01*
X125724798Y-113241800D01*
X121359149Y-113241800D01*
X121269717Y-113025357D01*
X121006927Y-112762108D01*
X120663399Y-112619462D01*
X120291433Y-112619138D01*
X119947657Y-112761183D01*
X119914482Y-112794300D01*
X115958100Y-112794300D01*
X115667261Y-112852152D01*
X115420699Y-113016899D01*
X115397967Y-113039631D01*
X115286299Y-112993262D01*
X114914333Y-112992938D01*
X114570557Y-113134983D01*
X114307308Y-113397773D01*
X114164662Y-113741301D01*
X114164404Y-114037100D01*
X105204202Y-114037100D01*
X102500322Y-111333220D01*
X102500362Y-111287733D01*
X102358317Y-110943957D01*
X102095527Y-110680708D01*
X101751999Y-110538062D01*
X101380033Y-110537738D01*
X101036257Y-110679783D01*
X100773008Y-110942573D01*
X100630362Y-111286101D01*
X100630038Y-111658067D01*
X100772083Y-112001843D01*
X101034873Y-112265092D01*
X101378401Y-112407738D01*
X101425277Y-112407779D01*
X104351999Y-115334501D01*
X104598561Y-115499248D01*
X104889400Y-115557100D01*
X113059567Y-115557100D01*
X112964062Y-115787101D01*
X112963738Y-116159067D01*
X113105783Y-116502843D01*
X113368573Y-116766092D01*
X113712101Y-116908738D01*
X114084067Y-116909062D01*
X114427843Y-116767017D01*
X114461018Y-116733900D01*
X116965637Y-116733900D01*
X116997773Y-116766092D01*
X117341301Y-116908738D01*
X117713267Y-116909062D01*
X118057043Y-116767017D01*
X118320292Y-116504227D01*
X118462938Y-116160699D01*
X118463262Y-115788733D01*
X118367553Y-115557100D01*
X134576498Y-115557100D01*
X145616299Y-126596901D01*
X145862861Y-126761648D01*
X146153700Y-126819500D01*
X152300300Y-126819500D01*
X152591139Y-126761648D01*
X152837701Y-126596901D01*
X157421452Y-122013150D01*
X157316655Y-122540000D01*
X157430729Y-123113489D01*
X157755585Y-123599670D01*
X158070366Y-123810000D01*
X157755585Y-124020330D01*
X157430729Y-124506511D01*
X157316655Y-125080000D01*
X157430729Y-125653489D01*
X157755585Y-126139670D01*
X158070366Y-126350000D01*
X157755585Y-126560330D01*
X157430729Y-127046511D01*
X157316655Y-127620000D01*
X157430729Y-128193489D01*
X157721394Y-128628500D01*
X153494274Y-128628500D01*
X153494362Y-128528033D01*
X153352317Y-128184257D01*
X153089527Y-127921008D01*
X152745999Y-127778362D01*
X152374033Y-127778038D01*
X152030257Y-127920083D01*
X151997082Y-127953200D01*
X142093802Y-127953200D01*
X130439901Y-116299299D01*
X130193339Y-116134552D01*
X129902500Y-116076700D01*
X126010663Y-116076700D01*
X125978527Y-116044508D01*
X125634999Y-115901862D01*
X125263033Y-115901538D01*
X124919257Y-116043583D01*
X124656008Y-116306373D01*
X124513362Y-116649901D01*
X124513038Y-117021867D01*
X124655083Y-117365643D01*
X124917873Y-117628892D01*
X125261401Y-117771538D01*
X125633367Y-117771862D01*
X125977143Y-117629817D01*
X126010318Y-117596700D01*
X129587698Y-117596700D01*
X140619498Y-128628500D01*
X140298902Y-128628500D01*
X131050801Y-119380399D01*
X130804239Y-119215652D01*
X130513400Y-119157800D01*
X104162463Y-119157800D01*
X104130327Y-119125608D01*
X103786799Y-118982962D01*
X103414833Y-118982638D01*
X103071057Y-119124683D01*
X102807808Y-119387473D01*
X102665162Y-119731001D01*
X102664838Y-120102967D01*
X102806883Y-120446743D01*
X103069673Y-120709992D01*
X103413201Y-120852638D01*
X103785167Y-120852962D01*
X104128943Y-120710917D01*
X104162118Y-120677800D01*
X124160156Y-120677800D01*
X124080762Y-120869001D01*
X124080438Y-121240967D01*
X124222483Y-121584743D01*
X124485273Y-121847992D01*
X124828801Y-121990638D01*
X124875677Y-121990679D01*
X137360299Y-134475301D01*
X137606861Y-134640048D01*
X137897700Y-134697900D01*
X139058466Y-134697900D01*
X138978157Y-134731083D01*
X138944982Y-134764200D01*
X124644202Y-134764200D01*
X124559622Y-134679620D01*
X124559662Y-134634133D01*
X124417617Y-134290357D01*
X124154827Y-134027108D01*
X123811299Y-133884462D01*
X123764423Y-133884421D01*
X123445901Y-133565899D01*
X123199339Y-133401152D01*
X122908500Y-133343300D01*
X97745200Y-133343300D01*
X97454361Y-133401152D01*
X97207799Y-133565899D01*
X96370532Y-134403166D01*
X96288717Y-134205157D01*
X96025927Y-133941908D01*
X95682399Y-133799262D01*
X95310433Y-133798938D01*
X94966657Y-133940983D01*
X94933482Y-133974100D01*
X93303549Y-133974100D01*
X93303662Y-133844333D01*
X93161617Y-133500557D01*
X92898827Y-133237308D01*
X92555299Y-133094662D01*
X92508423Y-133094621D01*
X88581276Y-129167474D01*
X88792892Y-128956227D01*
X88935538Y-128612699D01*
X88935822Y-128285750D01*
X107247400Y-128285750D01*
X107247400Y-129243910D01*
X107344073Y-129477299D01*
X107522702Y-129655927D01*
X107756091Y-129752600D01*
X108714250Y-129752600D01*
X108873000Y-129593850D01*
X108873000Y-128127000D01*
X109127000Y-128127000D01*
X109127000Y-129593850D01*
X109285750Y-129752600D01*
X110243909Y-129752600D01*
X110477298Y-129655927D01*
X110655927Y-129477299D01*
X110752600Y-129243910D01*
X110752600Y-128285750D01*
X110593850Y-128127000D01*
X109127000Y-128127000D01*
X108873000Y-128127000D01*
X107406150Y-128127000D01*
X107247400Y-128285750D01*
X88935822Y-128285750D01*
X88935862Y-128240733D01*
X88793817Y-127896957D01*
X88531027Y-127633708D01*
X88332200Y-127551147D01*
X88332200Y-126756090D01*
X107247400Y-126756090D01*
X107247400Y-127714250D01*
X107406150Y-127873000D01*
X108873000Y-127873000D01*
X108873000Y-126406150D01*
X109127000Y-126406150D01*
X109127000Y-127873000D01*
X110593850Y-127873000D01*
X110752600Y-127714250D01*
X110752600Y-126756090D01*
X110655927Y-126522701D01*
X110477298Y-126344073D01*
X110243909Y-126247400D01*
X109285750Y-126247400D01*
X109127000Y-126406150D01*
X108873000Y-126406150D01*
X108714250Y-126247400D01*
X107756091Y-126247400D01*
X107522702Y-126344073D01*
X107344073Y-126522701D01*
X107247400Y-126756090D01*
X88332200Y-126756090D01*
X88332200Y-122297440D01*
X89852500Y-122297440D01*
X90087817Y-122253162D01*
X90303941Y-122114090D01*
X90447863Y-121903453D01*
X90573076Y-122025973D01*
X91067020Y-122240563D01*
X91313000Y-122120594D01*
X91313000Y-120777000D01*
X91293000Y-120777000D01*
X91293000Y-120523000D01*
X91313000Y-120523000D01*
X91313000Y-119179406D01*
X91567000Y-119179406D01*
X91567000Y-120523000D01*
X91587000Y-120523000D01*
X91587000Y-120777000D01*
X91567000Y-120777000D01*
X91567000Y-122120594D01*
X91812980Y-122240563D01*
X92306924Y-122025973D01*
X92710081Y-121631484D01*
X92857468Y-121852064D01*
X93220000Y-122094300D01*
X93220000Y-122485700D01*
X93277852Y-122776539D01*
X93442599Y-123023101D01*
X95044878Y-124625380D01*
X95044838Y-124670867D01*
X95186883Y-125014643D01*
X95449673Y-125277892D01*
X95793201Y-125420538D01*
X96165167Y-125420862D01*
X96508943Y-125278817D01*
X96542118Y-125245700D01*
X99573237Y-125245700D01*
X99605373Y-125277892D01*
X99948901Y-125420538D01*
X100320867Y-125420862D01*
X100664643Y-125278817D01*
X100927892Y-125016027D01*
X101070538Y-124672499D01*
X101070862Y-124300533D01*
X100928817Y-123956757D01*
X100666027Y-123693508D01*
X100322499Y-123550862D01*
X99950533Y-123550538D01*
X99606757Y-123692583D01*
X99573582Y-123725700D01*
X96542463Y-123725700D01*
X96510327Y-123693508D01*
X96166799Y-123550862D01*
X96119923Y-123550821D01*
X94740000Y-122170898D01*
X94740000Y-122094300D01*
X95102532Y-121852064D01*
X95446659Y-121337042D01*
X95567500Y-120729532D01*
X95567500Y-120570468D01*
X95446659Y-119962958D01*
X95102532Y-119447936D01*
X94587510Y-119103809D01*
X93980000Y-118982968D01*
X93372490Y-119103809D01*
X92857468Y-119447936D01*
X92710081Y-119668516D01*
X92306924Y-119274027D01*
X91812980Y-119059437D01*
X91567000Y-119179406D01*
X91313000Y-119179406D01*
X91067020Y-119059437D01*
X90573076Y-119274027D01*
X90445488Y-119398872D01*
X90316590Y-119198559D01*
X90104390Y-119053569D01*
X89852500Y-119002560D01*
X88553842Y-119002560D01*
X95451101Y-112105301D01*
X95615848Y-111858739D01*
X95673700Y-111567900D01*
X95673700Y-92070102D01*
X115590278Y-111986680D01*
X115590238Y-112032167D01*
X115732283Y-112375943D01*
X115995073Y-112639192D01*
X116338601Y-112781838D01*
X116710567Y-112782162D01*
X117054343Y-112640117D01*
X117317592Y-112377327D01*
X117460238Y-112033799D01*
X117460562Y-111661833D01*
X117318517Y-111318057D01*
X117055727Y-111054808D01*
X116712199Y-110912162D01*
X116665323Y-110912121D01*
X96538500Y-90785298D01*
X96538500Y-90411502D01*
X106899799Y-100772801D01*
X106899799Y-100772801D01*
G37*
X106899799Y-100772801D02*
X107146360Y-100937548D01*
X107437200Y-100995400D01*
X118079307Y-100995400D01*
X118048662Y-101069201D01*
X118048338Y-101441167D01*
X118190383Y-101784943D01*
X118223500Y-101818118D01*
X118223500Y-105425700D01*
X118281352Y-105716539D01*
X118446099Y-105963101D01*
X125724798Y-113241800D01*
X121359149Y-113241800D01*
X121269717Y-113025357D01*
X121006927Y-112762108D01*
X120663399Y-112619462D01*
X120291433Y-112619138D01*
X119947657Y-112761183D01*
X119914482Y-112794300D01*
X115958100Y-112794300D01*
X115667261Y-112852152D01*
X115420699Y-113016899D01*
X115397967Y-113039631D01*
X115286299Y-112993262D01*
X114914333Y-112992938D01*
X114570557Y-113134983D01*
X114307308Y-113397773D01*
X114164662Y-113741301D01*
X114164404Y-114037100D01*
X105204202Y-114037100D01*
X102500322Y-111333220D01*
X102500362Y-111287733D01*
X102358317Y-110943957D01*
X102095527Y-110680708D01*
X101751999Y-110538062D01*
X101380033Y-110537738D01*
X101036257Y-110679783D01*
X100773008Y-110942573D01*
X100630362Y-111286101D01*
X100630038Y-111658067D01*
X100772083Y-112001843D01*
X101034873Y-112265092D01*
X101378401Y-112407738D01*
X101425277Y-112407779D01*
X104351999Y-115334501D01*
X104598561Y-115499248D01*
X104889400Y-115557100D01*
X113059567Y-115557100D01*
X112964062Y-115787101D01*
X112963738Y-116159067D01*
X113105783Y-116502843D01*
X113368573Y-116766092D01*
X113712101Y-116908738D01*
X114084067Y-116909062D01*
X114427843Y-116767017D01*
X114461018Y-116733900D01*
X116965637Y-116733900D01*
X116997773Y-116766092D01*
X117341301Y-116908738D01*
X117713267Y-116909062D01*
X118057043Y-116767017D01*
X118320292Y-116504227D01*
X118462938Y-116160699D01*
X118463262Y-115788733D01*
X118367553Y-115557100D01*
X134576498Y-115557100D01*
X145616299Y-126596901D01*
X145862861Y-126761648D01*
X146153700Y-126819500D01*
X152300300Y-126819500D01*
X152591139Y-126761648D01*
X152837701Y-126596901D01*
X157421452Y-122013150D01*
X157316655Y-122540000D01*
X157430729Y-123113489D01*
X157755585Y-123599670D01*
X158070366Y-123810000D01*
X157755585Y-124020330D01*
X157430729Y-124506511D01*
X157316655Y-125080000D01*
X157430729Y-125653489D01*
X157755585Y-126139670D01*
X158070366Y-126350000D01*
X157755585Y-126560330D01*
X157430729Y-127046511D01*
X157316655Y-127620000D01*
X157430729Y-128193489D01*
X157721394Y-128628500D01*
X153494274Y-128628500D01*
X153494362Y-128528033D01*
X153352317Y-128184257D01*
X153089527Y-127921008D01*
X152745999Y-127778362D01*
X152374033Y-127778038D01*
X152030257Y-127920083D01*
X151997082Y-127953200D01*
X142093802Y-127953200D01*
X130439901Y-116299299D01*
X130193339Y-116134552D01*
X129902500Y-116076700D01*
X126010663Y-116076700D01*
X125978527Y-116044508D01*
X125634999Y-115901862D01*
X125263033Y-115901538D01*
X124919257Y-116043583D01*
X124656008Y-116306373D01*
X124513362Y-116649901D01*
X124513038Y-117021867D01*
X124655083Y-117365643D01*
X124917873Y-117628892D01*
X125261401Y-117771538D01*
X125633367Y-117771862D01*
X125977143Y-117629817D01*
X126010318Y-117596700D01*
X129587698Y-117596700D01*
X140619498Y-128628500D01*
X140298902Y-128628500D01*
X131050801Y-119380399D01*
X130804239Y-119215652D01*
X130513400Y-119157800D01*
X104162463Y-119157800D01*
X104130327Y-119125608D01*
X103786799Y-118982962D01*
X103414833Y-118982638D01*
X103071057Y-119124683D01*
X102807808Y-119387473D01*
X102665162Y-119731001D01*
X102664838Y-120102967D01*
X102806883Y-120446743D01*
X103069673Y-120709992D01*
X103413201Y-120852638D01*
X103785167Y-120852962D01*
X104128943Y-120710917D01*
X104162118Y-120677800D01*
X124160156Y-120677800D01*
X124080762Y-120869001D01*
X124080438Y-121240967D01*
X124222483Y-121584743D01*
X124485273Y-121847992D01*
X124828801Y-121990638D01*
X124875677Y-121990679D01*
X137360299Y-134475301D01*
X137606861Y-134640048D01*
X137897700Y-134697900D01*
X139058466Y-134697900D01*
X138978157Y-134731083D01*
X138944982Y-134764200D01*
X124644202Y-134764200D01*
X124559622Y-134679620D01*
X124559662Y-134634133D01*
X124417617Y-134290357D01*
X124154827Y-134027108D01*
X123811299Y-133884462D01*
X123764423Y-133884421D01*
X123445901Y-133565899D01*
X123199339Y-133401152D01*
X122908500Y-133343300D01*
X97745200Y-133343300D01*
X97454361Y-133401152D01*
X97207799Y-133565899D01*
X96370532Y-134403166D01*
X96288717Y-134205157D01*
X96025927Y-133941908D01*
X95682399Y-133799262D01*
X95310433Y-133798938D01*
X94966657Y-133940983D01*
X94933482Y-133974100D01*
X93303549Y-133974100D01*
X93303662Y-133844333D01*
X93161617Y-133500557D01*
X92898827Y-133237308D01*
X92555299Y-133094662D01*
X92508423Y-133094621D01*
X88581276Y-129167474D01*
X88792892Y-128956227D01*
X88935538Y-128612699D01*
X88935822Y-128285750D01*
X107247400Y-128285750D01*
X107247400Y-129243910D01*
X107344073Y-129477299D01*
X107522702Y-129655927D01*
X107756091Y-129752600D01*
X108714250Y-129752600D01*
X108873000Y-129593850D01*
X108873000Y-128127000D01*
X109127000Y-128127000D01*
X109127000Y-129593850D01*
X109285750Y-129752600D01*
X110243909Y-129752600D01*
X110477298Y-129655927D01*
X110655927Y-129477299D01*
X110752600Y-129243910D01*
X110752600Y-128285750D01*
X110593850Y-128127000D01*
X109127000Y-128127000D01*
X108873000Y-128127000D01*
X107406150Y-128127000D01*
X107247400Y-128285750D01*
X88935822Y-128285750D01*
X88935862Y-128240733D01*
X88793817Y-127896957D01*
X88531027Y-127633708D01*
X88332200Y-127551147D01*
X88332200Y-126756090D01*
X107247400Y-126756090D01*
X107247400Y-127714250D01*
X107406150Y-127873000D01*
X108873000Y-127873000D01*
X108873000Y-126406150D01*
X109127000Y-126406150D01*
X109127000Y-127873000D01*
X110593850Y-127873000D01*
X110752600Y-127714250D01*
X110752600Y-126756090D01*
X110655927Y-126522701D01*
X110477298Y-126344073D01*
X110243909Y-126247400D01*
X109285750Y-126247400D01*
X109127000Y-126406150D01*
X108873000Y-126406150D01*
X108714250Y-126247400D01*
X107756091Y-126247400D01*
X107522702Y-126344073D01*
X107344073Y-126522701D01*
X107247400Y-126756090D01*
X88332200Y-126756090D01*
X88332200Y-122297440D01*
X89852500Y-122297440D01*
X90087817Y-122253162D01*
X90303941Y-122114090D01*
X90447863Y-121903453D01*
X90573076Y-122025973D01*
X91067020Y-122240563D01*
X91313000Y-122120594D01*
X91313000Y-120777000D01*
X91293000Y-120777000D01*
X91293000Y-120523000D01*
X91313000Y-120523000D01*
X91313000Y-119179406D01*
X91567000Y-119179406D01*
X91567000Y-120523000D01*
X91587000Y-120523000D01*
X91587000Y-120777000D01*
X91567000Y-120777000D01*
X91567000Y-122120594D01*
X91812980Y-122240563D01*
X92306924Y-122025973D01*
X92710081Y-121631484D01*
X92857468Y-121852064D01*
X93220000Y-122094300D01*
X93220000Y-122485700D01*
X93277852Y-122776539D01*
X93442599Y-123023101D01*
X95044878Y-124625380D01*
X95044838Y-124670867D01*
X95186883Y-125014643D01*
X95449673Y-125277892D01*
X95793201Y-125420538D01*
X96165167Y-125420862D01*
X96508943Y-125278817D01*
X96542118Y-125245700D01*
X99573237Y-125245700D01*
X99605373Y-125277892D01*
X99948901Y-125420538D01*
X100320867Y-125420862D01*
X100664643Y-125278817D01*
X100927892Y-125016027D01*
X101070538Y-124672499D01*
X101070862Y-124300533D01*
X100928817Y-123956757D01*
X100666027Y-123693508D01*
X100322499Y-123550862D01*
X99950533Y-123550538D01*
X99606757Y-123692583D01*
X99573582Y-123725700D01*
X96542463Y-123725700D01*
X96510327Y-123693508D01*
X96166799Y-123550862D01*
X96119923Y-123550821D01*
X94740000Y-122170898D01*
X94740000Y-122094300D01*
X95102532Y-121852064D01*
X95446659Y-121337042D01*
X95567500Y-120729532D01*
X95567500Y-120570468D01*
X95446659Y-119962958D01*
X95102532Y-119447936D01*
X94587510Y-119103809D01*
X93980000Y-118982968D01*
X93372490Y-119103809D01*
X92857468Y-119447936D01*
X92710081Y-119668516D01*
X92306924Y-119274027D01*
X91812980Y-119059437D01*
X91567000Y-119179406D01*
X91313000Y-119179406D01*
X91067020Y-119059437D01*
X90573076Y-119274027D01*
X90445488Y-119398872D01*
X90316590Y-119198559D01*
X90104390Y-119053569D01*
X89852500Y-119002560D01*
X88553842Y-119002560D01*
X95451101Y-112105301D01*
X95615848Y-111858739D01*
X95673700Y-111567900D01*
X95673700Y-92070102D01*
X115590278Y-111986680D01*
X115590238Y-112032167D01*
X115732283Y-112375943D01*
X115995073Y-112639192D01*
X116338601Y-112781838D01*
X116710567Y-112782162D01*
X117054343Y-112640117D01*
X117317592Y-112377327D01*
X117460238Y-112033799D01*
X117460562Y-111661833D01*
X117318517Y-111318057D01*
X117055727Y-111054808D01*
X116712199Y-110912162D01*
X116665323Y-110912121D01*
X96538500Y-90785298D01*
X96538500Y-90411502D01*
X106899799Y-100772801D01*
G36*
X161779300Y-94934202D02*
X161779300Y-122234837D01*
X161665133Y-122234738D01*
X161321357Y-122376783D01*
X161058108Y-122639573D01*
X160915462Y-122983101D01*
X160915421Y-123029977D01*
X160864298Y-123081100D01*
X160575714Y-123081100D01*
X160683345Y-122540000D01*
X160569271Y-121966511D01*
X160529118Y-121906417D01*
X160723701Y-121776401D01*
X160928801Y-121571301D01*
X161093548Y-121324740D01*
X161151400Y-121033900D01*
X161151400Y-114884300D01*
X161127033Y-114761800D01*
X161093548Y-114593460D01*
X160928801Y-114346899D01*
X159310622Y-112728720D01*
X159352917Y-112720762D01*
X159569041Y-112581690D01*
X159714031Y-112369490D01*
X159765040Y-112117600D01*
X159765040Y-109882400D01*
X159720762Y-109647083D01*
X159581690Y-109430959D01*
X159369490Y-109285969D01*
X159117600Y-109234960D01*
X156882400Y-109234960D01*
X156647083Y-109279238D01*
X156430959Y-109418310D01*
X156285969Y-109630510D01*
X156234960Y-109882400D01*
X156234960Y-112117600D01*
X156279238Y-112352917D01*
X156418310Y-112569041D01*
X156630510Y-112714031D01*
X156882400Y-112765040D01*
X157294133Y-112765040D01*
X157297852Y-112783739D01*
X157462599Y-113030301D01*
X159631400Y-115199102D01*
X159631400Y-118501400D01*
X159285750Y-118501400D01*
X159127000Y-118660150D01*
X159127000Y-119873000D01*
X159147000Y-119873000D01*
X159147000Y-120127000D01*
X159127000Y-120127000D01*
X159127000Y-120147000D01*
X158873000Y-120147000D01*
X158873000Y-120127000D01*
X157507750Y-120127000D01*
X157349000Y-120285750D01*
X157349000Y-120479000D01*
X157120800Y-120479000D01*
X156887167Y-120525473D01*
X156829960Y-120536852D01*
X156583399Y-120701599D01*
X151985498Y-125299500D01*
X146468502Y-125299500D01*
X135428701Y-114259699D01*
X135182139Y-114094952D01*
X134891300Y-114037100D01*
X128602802Y-114037100D01*
X140237401Y-102402501D01*
X140402148Y-102155939D01*
X140460000Y-101865100D01*
X140460000Y-100507440D01*
X140500000Y-100507440D01*
X140735317Y-100463162D01*
X140951441Y-100324090D01*
X141096431Y-100111890D01*
X141105370Y-100067745D01*
X141371861Y-100067745D01*
X141445995Y-100313864D01*
X141983223Y-100506965D01*
X142553454Y-100479778D01*
X142954005Y-100313864D01*
X143028139Y-100067745D01*
X142200000Y-99239605D01*
X141371861Y-100067745D01*
X141105370Y-100067745D01*
X141144646Y-99873799D01*
X141192255Y-99888139D01*
X142020395Y-99060000D01*
X142379605Y-99060000D01*
X143207745Y-99888139D01*
X143453864Y-99814005D01*
X143646965Y-99276777D01*
X143619778Y-98706546D01*
X143453864Y-98305995D01*
X143207745Y-98231861D01*
X142379605Y-99060000D01*
X142020395Y-99060000D01*
X141192255Y-98231861D01*
X141144833Y-98246145D01*
X141108351Y-98052255D01*
X141371861Y-98052255D01*
X142200000Y-98880395D01*
X143028139Y-98052255D01*
X142954005Y-97806136D01*
X142416777Y-97613035D01*
X141846546Y-97640222D01*
X141445995Y-97806136D01*
X141371861Y-98052255D01*
X141108351Y-98052255D01*
X141103162Y-98024683D01*
X140964090Y-97808559D01*
X140896871Y-97762631D01*
X148195100Y-90464402D01*
X148195100Y-90813998D01*
X145708820Y-93300278D01*
X145663333Y-93300238D01*
X145319557Y-93442283D01*
X145056308Y-93705073D01*
X144913662Y-94048601D01*
X144913338Y-94420567D01*
X145055383Y-94764343D01*
X145318173Y-95027592D01*
X145661701Y-95170238D01*
X146033667Y-95170562D01*
X146377443Y-95028517D01*
X146640692Y-94765727D01*
X146783338Y-94422199D01*
X146783379Y-94375323D01*
X149226700Y-91932002D01*
X149226700Y-114320798D01*
X146449820Y-117097678D01*
X146404333Y-117097638D01*
X146060557Y-117239683D01*
X145797308Y-117502473D01*
X145654662Y-117846001D01*
X145654338Y-118217967D01*
X145796383Y-118561743D01*
X146059173Y-118824992D01*
X146402701Y-118967638D01*
X146535456Y-118967754D01*
X146535438Y-118988567D01*
X146677483Y-119332343D01*
X146940273Y-119595592D01*
X147283801Y-119738238D01*
X147655767Y-119738562D01*
X147999543Y-119596517D01*
X148262792Y-119333727D01*
X148405438Y-118990199D01*
X148405479Y-118943323D01*
X150227300Y-117121502D01*
X150227300Y-118296498D01*
X148992820Y-119530978D01*
X148947333Y-119530938D01*
X148603557Y-119672983D01*
X148340308Y-119935773D01*
X148197662Y-120279301D01*
X148197338Y-120651267D01*
X148339383Y-120995043D01*
X148602173Y-121258292D01*
X148945701Y-121400938D01*
X149188741Y-121401150D01*
X149188738Y-121405067D01*
X149330783Y-121748843D01*
X149414646Y-121832852D01*
X147865948Y-123381550D01*
X147843099Y-123372062D01*
X147471133Y-123371738D01*
X147127357Y-123513783D01*
X146864108Y-123776573D01*
X146721462Y-124120101D01*
X146721138Y-124492067D01*
X146863183Y-124835843D01*
X147125973Y-125099092D01*
X147469501Y-125241738D01*
X147841467Y-125242062D01*
X148185243Y-125100017D01*
X148268938Y-125016468D01*
X148306239Y-125009048D01*
X148552801Y-124844301D01*
X154125101Y-119272001D01*
X154289848Y-119025440D01*
X154292901Y-119010090D01*
X157349000Y-119010090D01*
X157349000Y-119714250D01*
X157507750Y-119873000D01*
X158873000Y-119873000D01*
X158873000Y-118660150D01*
X158714250Y-118501400D01*
X157857691Y-118501400D01*
X157624302Y-118598073D01*
X157445673Y-118776701D01*
X157349000Y-119010090D01*
X154292901Y-119010090D01*
X154347700Y-118734600D01*
X154347700Y-87502602D01*
X161779300Y-94934202D01*
X161779300Y-94934202D01*
G37*
X161779300Y-94934202D02*
X161779300Y-122234837D01*
X161665133Y-122234738D01*
X161321357Y-122376783D01*
X161058108Y-122639573D01*
X160915462Y-122983101D01*
X160915421Y-123029977D01*
X160864298Y-123081100D01*
X160575714Y-123081100D01*
X160683345Y-122540000D01*
X160569271Y-121966511D01*
X160529118Y-121906417D01*
X160723701Y-121776401D01*
X160928801Y-121571301D01*
X161093548Y-121324740D01*
X161151400Y-121033900D01*
X161151400Y-114884300D01*
X161127033Y-114761800D01*
X161093548Y-114593460D01*
X160928801Y-114346899D01*
X159310622Y-112728720D01*
X159352917Y-112720762D01*
X159569041Y-112581690D01*
X159714031Y-112369490D01*
X159765040Y-112117600D01*
X159765040Y-109882400D01*
X159720762Y-109647083D01*
X159581690Y-109430959D01*
X159369490Y-109285969D01*
X159117600Y-109234960D01*
X156882400Y-109234960D01*
X156647083Y-109279238D01*
X156430959Y-109418310D01*
X156285969Y-109630510D01*
X156234960Y-109882400D01*
X156234960Y-112117600D01*
X156279238Y-112352917D01*
X156418310Y-112569041D01*
X156630510Y-112714031D01*
X156882400Y-112765040D01*
X157294133Y-112765040D01*
X157297852Y-112783739D01*
X157462599Y-113030301D01*
X159631400Y-115199102D01*
X159631400Y-118501400D01*
X159285750Y-118501400D01*
X159127000Y-118660150D01*
X159127000Y-119873000D01*
X159147000Y-119873000D01*
X159147000Y-120127000D01*
X159127000Y-120127000D01*
X159127000Y-120147000D01*
X158873000Y-120147000D01*
X158873000Y-120127000D01*
X157507750Y-120127000D01*
X157349000Y-120285750D01*
X157349000Y-120479000D01*
X157120800Y-120479000D01*
X156887167Y-120525473D01*
X156829960Y-120536852D01*
X156583399Y-120701599D01*
X151985498Y-125299500D01*
X146468502Y-125299500D01*
X135428701Y-114259699D01*
X135182139Y-114094952D01*
X134891300Y-114037100D01*
X128602802Y-114037100D01*
X140237401Y-102402501D01*
X140402148Y-102155939D01*
X140460000Y-101865100D01*
X140460000Y-100507440D01*
X140500000Y-100507440D01*
X140735317Y-100463162D01*
X140951441Y-100324090D01*
X141096431Y-100111890D01*
X141105370Y-100067745D01*
X141371861Y-100067745D01*
X141445995Y-100313864D01*
X141983223Y-100506965D01*
X142553454Y-100479778D01*
X142954005Y-100313864D01*
X143028139Y-100067745D01*
X142200000Y-99239605D01*
X141371861Y-100067745D01*
X141105370Y-100067745D01*
X141144646Y-99873799D01*
X141192255Y-99888139D01*
X142020395Y-99060000D01*
X142379605Y-99060000D01*
X143207745Y-99888139D01*
X143453864Y-99814005D01*
X143646965Y-99276777D01*
X143619778Y-98706546D01*
X143453864Y-98305995D01*
X143207745Y-98231861D01*
X142379605Y-99060000D01*
X142020395Y-99060000D01*
X141192255Y-98231861D01*
X141144833Y-98246145D01*
X141108351Y-98052255D01*
X141371861Y-98052255D01*
X142200000Y-98880395D01*
X143028139Y-98052255D01*
X142954005Y-97806136D01*
X142416777Y-97613035D01*
X141846546Y-97640222D01*
X141445995Y-97806136D01*
X141371861Y-98052255D01*
X141108351Y-98052255D01*
X141103162Y-98024683D01*
X140964090Y-97808559D01*
X140896871Y-97762631D01*
X148195100Y-90464402D01*
X148195100Y-90813998D01*
X145708820Y-93300278D01*
X145663333Y-93300238D01*
X145319557Y-93442283D01*
X145056308Y-93705073D01*
X144913662Y-94048601D01*
X144913338Y-94420567D01*
X145055383Y-94764343D01*
X145318173Y-95027592D01*
X145661701Y-95170238D01*
X146033667Y-95170562D01*
X146377443Y-95028517D01*
X146640692Y-94765727D01*
X146783338Y-94422199D01*
X146783379Y-94375323D01*
X149226700Y-91932002D01*
X149226700Y-114320798D01*
X146449820Y-117097678D01*
X146404333Y-117097638D01*
X146060557Y-117239683D01*
X145797308Y-117502473D01*
X145654662Y-117846001D01*
X145654338Y-118217967D01*
X145796383Y-118561743D01*
X146059173Y-118824992D01*
X146402701Y-118967638D01*
X146535456Y-118967754D01*
X146535438Y-118988567D01*
X146677483Y-119332343D01*
X146940273Y-119595592D01*
X147283801Y-119738238D01*
X147655767Y-119738562D01*
X147999543Y-119596517D01*
X148262792Y-119333727D01*
X148405438Y-118990199D01*
X148405479Y-118943323D01*
X150227300Y-117121502D01*
X150227300Y-118296498D01*
X148992820Y-119530978D01*
X148947333Y-119530938D01*
X148603557Y-119672983D01*
X148340308Y-119935773D01*
X148197662Y-120279301D01*
X148197338Y-120651267D01*
X148339383Y-120995043D01*
X148602173Y-121258292D01*
X148945701Y-121400938D01*
X149188741Y-121401150D01*
X149188738Y-121405067D01*
X149330783Y-121748843D01*
X149414646Y-121832852D01*
X147865948Y-123381550D01*
X147843099Y-123372062D01*
X147471133Y-123371738D01*
X147127357Y-123513783D01*
X146864108Y-123776573D01*
X146721462Y-124120101D01*
X146721138Y-124492067D01*
X146863183Y-124835843D01*
X147125973Y-125099092D01*
X147469501Y-125241738D01*
X147841467Y-125242062D01*
X148185243Y-125100017D01*
X148268938Y-125016468D01*
X148306239Y-125009048D01*
X148552801Y-124844301D01*
X154125101Y-119272001D01*
X154289848Y-119025440D01*
X154292901Y-119010090D01*
X157349000Y-119010090D01*
X157349000Y-119714250D01*
X157507750Y-119873000D01*
X158873000Y-119873000D01*
X158873000Y-118660150D01*
X158714250Y-118501400D01*
X157857691Y-118501400D01*
X157624302Y-118598073D01*
X157445673Y-118776701D01*
X157349000Y-119010090D01*
X154292901Y-119010090D01*
X154347700Y-118734600D01*
X154347700Y-87502602D01*
X161779300Y-94934202D01*
G36*
X108586302Y-83917673D02*
X108407673Y-84096301D01*
X108311000Y-84329690D01*
X108311000Y-84824250D01*
X108469750Y-84983000D01*
X109473000Y-84983000D01*
X109473000Y-84963000D01*
X109727000Y-84963000D01*
X109727000Y-84983000D01*
X109747000Y-84983000D01*
X109747000Y-85237000D01*
X109727000Y-85237000D01*
X109727000Y-85257000D01*
X109473000Y-85257000D01*
X109473000Y-85237000D01*
X108469750Y-85237000D01*
X108311000Y-85395750D01*
X108311000Y-85783900D01*
X107060600Y-85783900D01*
X106769760Y-85841752D01*
X106523199Y-86006499D01*
X105247220Y-87282478D01*
X105201733Y-87282438D01*
X104857957Y-87424483D01*
X104594708Y-87687273D01*
X104452062Y-88030801D01*
X104451987Y-88116532D01*
X104415627Y-88080108D01*
X104072099Y-87937462D01*
X103700133Y-87937138D01*
X103356357Y-88079183D01*
X103093108Y-88341973D01*
X102950462Y-88685501D01*
X102950304Y-88866602D01*
X101960455Y-87876753D01*
X102063643Y-87834117D01*
X102096818Y-87801000D01*
X102196700Y-87801000D01*
X102487539Y-87743148D01*
X102734101Y-87578401D01*
X106442502Y-83870000D01*
X108701395Y-83870000D01*
X108586302Y-83917673D01*
X108586302Y-83917673D01*
G37*
X108586302Y-83917673D02*
X108407673Y-84096301D01*
X108311000Y-84329690D01*
X108311000Y-84824250D01*
X108469750Y-84983000D01*
X109473000Y-84983000D01*
X109473000Y-84963000D01*
X109727000Y-84963000D01*
X109727000Y-84983000D01*
X109747000Y-84983000D01*
X109747000Y-85237000D01*
X109727000Y-85237000D01*
X109727000Y-85257000D01*
X109473000Y-85257000D01*
X109473000Y-85237000D01*
X108469750Y-85237000D01*
X108311000Y-85395750D01*
X108311000Y-85783900D01*
X107060600Y-85783900D01*
X106769760Y-85841752D01*
X106523199Y-86006499D01*
X105247220Y-87282478D01*
X105201733Y-87282438D01*
X104857957Y-87424483D01*
X104594708Y-87687273D01*
X104452062Y-88030801D01*
X104451987Y-88116532D01*
X104415627Y-88080108D01*
X104072099Y-87937462D01*
X103700133Y-87937138D01*
X103356357Y-88079183D01*
X103093108Y-88341973D01*
X102950462Y-88685501D01*
X102950304Y-88866602D01*
X101960455Y-87876753D01*
X102063643Y-87834117D01*
X102096818Y-87801000D01*
X102196700Y-87801000D01*
X102487539Y-87743148D01*
X102734101Y-87578401D01*
X106442502Y-83870000D01*
X108701395Y-83870000D01*
X108586302Y-83917673D01*
G36*
X131793748Y-85095858D02*
X131779605Y-85110000D01*
X132501917Y-85832312D01*
X132503586Y-85831906D01*
X132506602Y-85839206D01*
X132868887Y-86202124D01*
X133249446Y-86360146D01*
X132870794Y-86516602D01*
X132507876Y-86878887D01*
X132504010Y-86888197D01*
X132501917Y-86887688D01*
X131779605Y-87610000D01*
X131793748Y-87624143D01*
X131614143Y-87803748D01*
X131600000Y-87789605D01*
X131585858Y-87803748D01*
X131406253Y-87624143D01*
X131420395Y-87610000D01*
X130698083Y-86887688D01*
X130696414Y-86888094D01*
X130693398Y-86880794D01*
X130331113Y-86517876D01*
X129950554Y-86359854D01*
X130329206Y-86203398D01*
X130521021Y-86011917D01*
X130877688Y-86011917D01*
X130933862Y-86242926D01*
X131240925Y-86349885D01*
X130933862Y-86477074D01*
X130877688Y-86708083D01*
X131600000Y-87430395D01*
X132322312Y-86708083D01*
X132266138Y-86477074D01*
X131959075Y-86370115D01*
X132266138Y-86242926D01*
X132322312Y-86011917D01*
X131600000Y-85289605D01*
X130877688Y-86011917D01*
X130521021Y-86011917D01*
X130692124Y-85841113D01*
X130695990Y-85831803D01*
X130698083Y-85832312D01*
X131420395Y-85110000D01*
X131406253Y-85095858D01*
X131585858Y-84916253D01*
X131600000Y-84930395D01*
X131614143Y-84916253D01*
X131793748Y-85095858D01*
X131793748Y-85095858D01*
G37*
X131793748Y-85095858D02*
X131779605Y-85110000D01*
X132501917Y-85832312D01*
X132503586Y-85831906D01*
X132506602Y-85839206D01*
X132868887Y-86202124D01*
X133249446Y-86360146D01*
X132870794Y-86516602D01*
X132507876Y-86878887D01*
X132504010Y-86888197D01*
X132501917Y-86887688D01*
X131779605Y-87610000D01*
X131793748Y-87624143D01*
X131614143Y-87803748D01*
X131600000Y-87789605D01*
X131585858Y-87803748D01*
X131406253Y-87624143D01*
X131420395Y-87610000D01*
X130698083Y-86887688D01*
X130696414Y-86888094D01*
X130693398Y-86880794D01*
X130331113Y-86517876D01*
X129950554Y-86359854D01*
X130329206Y-86203398D01*
X130521021Y-86011917D01*
X130877688Y-86011917D01*
X130933862Y-86242926D01*
X131240925Y-86349885D01*
X130933862Y-86477074D01*
X130877688Y-86708083D01*
X131600000Y-87430395D01*
X132322312Y-86708083D01*
X132266138Y-86477074D01*
X131959075Y-86370115D01*
X132266138Y-86242926D01*
X132322312Y-86011917D01*
X131600000Y-85289605D01*
X130877688Y-86011917D01*
X130521021Y-86011917D01*
X130692124Y-85841113D01*
X130695990Y-85831803D01*
X130698083Y-85832312D01*
X131420395Y-85110000D01*
X131406253Y-85095858D01*
X131585858Y-84916253D01*
X131600000Y-84930395D01*
X131614143Y-84916253D01*
X131793748Y-85095858D01*
G36*
X135793748Y-87595858D02*
X135779605Y-87610000D01*
X135793748Y-87624143D01*
X135614143Y-87803748D01*
X135600000Y-87789605D01*
X135585858Y-87803748D01*
X135406253Y-87624143D01*
X135420395Y-87610000D01*
X135406253Y-87595858D01*
X135585858Y-87416253D01*
X135600000Y-87430395D01*
X135614143Y-87416253D01*
X135793748Y-87595858D01*
X135793748Y-87595858D01*
G37*
X135793748Y-87595858D02*
X135779605Y-87610000D01*
X135793748Y-87624143D01*
X135614143Y-87803748D01*
X135600000Y-87789605D01*
X135585858Y-87803748D01*
X135406253Y-87624143D01*
X135420395Y-87610000D01*
X135406253Y-87595858D01*
X135585858Y-87416253D01*
X135600000Y-87430395D01*
X135614143Y-87416253D01*
X135793748Y-87595858D01*
G36*
X127793748Y-85095858D02*
X127779605Y-85110000D01*
X128501917Y-85832312D01*
X128503586Y-85831906D01*
X128506602Y-85839206D01*
X128868887Y-86202124D01*
X129249446Y-86360146D01*
X128870794Y-86516602D01*
X128507876Y-86878887D01*
X128504010Y-86888197D01*
X128501917Y-86887688D01*
X127779605Y-87610000D01*
X127793748Y-87624143D01*
X127614143Y-87803748D01*
X127600000Y-87789605D01*
X127585858Y-87803748D01*
X127406253Y-87624143D01*
X127420395Y-87610000D01*
X126698083Y-86887688D01*
X126696414Y-86888094D01*
X126693398Y-86880794D01*
X126331113Y-86517876D01*
X125950554Y-86359854D01*
X126329206Y-86203398D01*
X126521021Y-86011917D01*
X126877688Y-86011917D01*
X126933862Y-86242926D01*
X127240925Y-86349885D01*
X126933862Y-86477074D01*
X126877688Y-86708083D01*
X127600000Y-87430395D01*
X128322312Y-86708083D01*
X128266138Y-86477074D01*
X127959075Y-86370115D01*
X128266138Y-86242926D01*
X128322312Y-86011917D01*
X127600000Y-85289605D01*
X126877688Y-86011917D01*
X126521021Y-86011917D01*
X126692124Y-85841113D01*
X126695990Y-85831803D01*
X126698083Y-85832312D01*
X127420395Y-85110000D01*
X127406253Y-85095858D01*
X127585858Y-84916253D01*
X127600000Y-84930395D01*
X127614143Y-84916253D01*
X127793748Y-85095858D01*
X127793748Y-85095858D01*
G37*
X127793748Y-85095858D02*
X127779605Y-85110000D01*
X128501917Y-85832312D01*
X128503586Y-85831906D01*
X128506602Y-85839206D01*
X128868887Y-86202124D01*
X129249446Y-86360146D01*
X128870794Y-86516602D01*
X128507876Y-86878887D01*
X128504010Y-86888197D01*
X128501917Y-86887688D01*
X127779605Y-87610000D01*
X127793748Y-87624143D01*
X127614143Y-87803748D01*
X127600000Y-87789605D01*
X127585858Y-87803748D01*
X127406253Y-87624143D01*
X127420395Y-87610000D01*
X126698083Y-86887688D01*
X126696414Y-86888094D01*
X126693398Y-86880794D01*
X126331113Y-86517876D01*
X125950554Y-86359854D01*
X126329206Y-86203398D01*
X126521021Y-86011917D01*
X126877688Y-86011917D01*
X126933862Y-86242926D01*
X127240925Y-86349885D01*
X126933862Y-86477074D01*
X126877688Y-86708083D01*
X127600000Y-87430395D01*
X128322312Y-86708083D01*
X128266138Y-86477074D01*
X127959075Y-86370115D01*
X128266138Y-86242926D01*
X128322312Y-86011917D01*
X127600000Y-85289605D01*
X126877688Y-86011917D01*
X126521021Y-86011917D01*
X126692124Y-85841113D01*
X126695990Y-85831803D01*
X126698083Y-85832312D01*
X127420395Y-85110000D01*
X127406253Y-85095858D01*
X127585858Y-84916253D01*
X127600000Y-84930395D01*
X127614143Y-84916253D01*
X127793748Y-85095858D01*
G36*
X123793748Y-85095858D02*
X123779605Y-85110000D01*
X124501917Y-85832312D01*
X124503586Y-85831906D01*
X124506602Y-85839206D01*
X124868887Y-86202124D01*
X125249446Y-86360146D01*
X124870794Y-86516602D01*
X124599845Y-86787078D01*
X124331113Y-86517876D01*
X123967181Y-86366758D01*
X124266138Y-86242926D01*
X124322312Y-86011917D01*
X123600000Y-85289605D01*
X123585858Y-85303748D01*
X123406253Y-85124143D01*
X123420395Y-85110000D01*
X123406253Y-85095858D01*
X123585858Y-84916253D01*
X123600000Y-84930395D01*
X123614143Y-84916253D01*
X123793748Y-85095858D01*
X123793748Y-85095858D01*
G37*
X123793748Y-85095858D02*
X123779605Y-85110000D01*
X124501917Y-85832312D01*
X124503586Y-85831906D01*
X124506602Y-85839206D01*
X124868887Y-86202124D01*
X125249446Y-86360146D01*
X124870794Y-86516602D01*
X124599845Y-86787078D01*
X124331113Y-86517876D01*
X123967181Y-86366758D01*
X124266138Y-86242926D01*
X124322312Y-86011917D01*
X123600000Y-85289605D01*
X123585858Y-85303748D01*
X123406253Y-85124143D01*
X123420395Y-85110000D01*
X123406253Y-85095858D01*
X123585858Y-84916253D01*
X123600000Y-84930395D01*
X123614143Y-84916253D01*
X123793748Y-85095858D01*
G36*
X139793748Y-85095858D02*
X139779605Y-85110000D01*
X140501917Y-85832312D01*
X140503586Y-85831906D01*
X140506602Y-85839206D01*
X140868887Y-86202124D01*
X141249446Y-86360146D01*
X140870794Y-86516602D01*
X140599845Y-86787078D01*
X140331113Y-86517876D01*
X139967181Y-86366758D01*
X140266138Y-86242926D01*
X140322312Y-86011917D01*
X139600000Y-85289605D01*
X138877688Y-86011917D01*
X138933862Y-86242926D01*
X139259024Y-86356189D01*
X138870794Y-86516602D01*
X138599845Y-86787078D01*
X138331113Y-86517876D01*
X137950554Y-86359854D01*
X138329206Y-86203398D01*
X138692124Y-85841113D01*
X138695990Y-85831803D01*
X138698083Y-85832312D01*
X139420395Y-85110000D01*
X139406253Y-85095858D01*
X139585858Y-84916253D01*
X139600000Y-84930395D01*
X139614143Y-84916253D01*
X139793748Y-85095858D01*
X139793748Y-85095858D01*
G37*
X139793748Y-85095858D02*
X139779605Y-85110000D01*
X140501917Y-85832312D01*
X140503586Y-85831906D01*
X140506602Y-85839206D01*
X140868887Y-86202124D01*
X141249446Y-86360146D01*
X140870794Y-86516602D01*
X140599845Y-86787078D01*
X140331113Y-86517876D01*
X139967181Y-86366758D01*
X140266138Y-86242926D01*
X140322312Y-86011917D01*
X139600000Y-85289605D01*
X138877688Y-86011917D01*
X138933862Y-86242926D01*
X139259024Y-86356189D01*
X138870794Y-86516602D01*
X138599845Y-86787078D01*
X138331113Y-86517876D01*
X137950554Y-86359854D01*
X138329206Y-86203398D01*
X138692124Y-85841113D01*
X138695990Y-85831803D01*
X138698083Y-85832312D01*
X139420395Y-85110000D01*
X139406253Y-85095858D01*
X139585858Y-84916253D01*
X139600000Y-84930395D01*
X139614143Y-84916253D01*
X139793748Y-85095858D01*
G36*
X113793748Y-85095858D02*
X113779605Y-85110000D01*
X113793748Y-85124143D01*
X113614143Y-85303748D01*
X113600000Y-85289605D01*
X113585858Y-85303748D01*
X113406253Y-85124143D01*
X113420395Y-85110000D01*
X113406253Y-85095858D01*
X113585858Y-84916253D01*
X113600000Y-84930395D01*
X113614143Y-84916253D01*
X113793748Y-85095858D01*
X113793748Y-85095858D01*
G37*
X113793748Y-85095858D02*
X113779605Y-85110000D01*
X113793748Y-85124143D01*
X113614143Y-85303748D01*
X113600000Y-85289605D01*
X113585858Y-85303748D01*
X113406253Y-85124143D01*
X113420395Y-85110000D01*
X113406253Y-85095858D01*
X113585858Y-84916253D01*
X113600000Y-84930395D01*
X113614143Y-84916253D01*
X113793748Y-85095858D01*
G36*
X135793748Y-85095858D02*
X135779605Y-85110000D01*
X135793748Y-85124143D01*
X135614143Y-85303748D01*
X135600000Y-85289605D01*
X135585858Y-85303748D01*
X135406253Y-85124143D01*
X135420395Y-85110000D01*
X135406253Y-85095858D01*
X135585858Y-84916253D01*
X135600000Y-84930395D01*
X135614143Y-84916253D01*
X135793748Y-85095858D01*
X135793748Y-85095858D01*
G37*
X135793748Y-85095858D02*
X135779605Y-85110000D01*
X135793748Y-85124143D01*
X135614143Y-85303748D01*
X135600000Y-85289605D01*
X135585858Y-85303748D01*
X135406253Y-85124143D01*
X135420395Y-85110000D01*
X135406253Y-85095858D01*
X135585858Y-84916253D01*
X135600000Y-84930395D01*
X135614143Y-84916253D01*
X135793748Y-85095858D01*
G36*
X117793748Y-85095858D02*
X117779605Y-85110000D01*
X117793748Y-85124143D01*
X117614143Y-85303748D01*
X117600000Y-85289605D01*
X117585858Y-85303748D01*
X117406253Y-85124143D01*
X117420395Y-85110000D01*
X117406253Y-85095858D01*
X117585858Y-84916253D01*
X117600000Y-84930395D01*
X117614143Y-84916253D01*
X117793748Y-85095858D01*
X117793748Y-85095858D01*
G37*
X117793748Y-85095858D02*
X117779605Y-85110000D01*
X117793748Y-85124143D01*
X117614143Y-85303748D01*
X117600000Y-85289605D01*
X117585858Y-85303748D01*
X117406253Y-85124143D01*
X117420395Y-85110000D01*
X117406253Y-85095858D01*
X117585858Y-84916253D01*
X117600000Y-84930395D01*
X117614143Y-84916253D01*
X117793748Y-85095858D01*
G36*
X124267772Y-81852574D02*
X123870794Y-82016602D01*
X123599845Y-82287078D01*
X123331113Y-82017876D01*
X122857523Y-81821224D01*
X122344727Y-81820777D01*
X121870794Y-82016602D01*
X121507876Y-82378887D01*
X121311224Y-82852477D01*
X121310777Y-83365273D01*
X121506602Y-83839206D01*
X121868887Y-84202124D01*
X122342477Y-84398776D01*
X122651378Y-84399045D01*
X122467074Y-84443862D01*
X122319015Y-84868919D01*
X122276621Y-84826451D01*
X121611611Y-84550315D01*
X120891548Y-84549686D01*
X120781902Y-84594991D01*
X120693398Y-84380794D01*
X120331113Y-84017876D01*
X119857523Y-83821224D01*
X119700440Y-83821087D01*
X119888776Y-83367523D01*
X119889223Y-82854727D01*
X119693398Y-82380794D01*
X119331113Y-82017876D01*
X118857523Y-81821224D01*
X118385615Y-81820813D01*
X116412301Y-79847499D01*
X116165739Y-79682752D01*
X115874900Y-79624900D01*
X112432493Y-79624900D01*
X112500943Y-79596617D01*
X112764192Y-79333827D01*
X112906838Y-78990299D01*
X112907162Y-78618333D01*
X112831906Y-78436200D01*
X120851398Y-78436200D01*
X124267772Y-81852574D01*
X124267772Y-81852574D01*
G37*
X124267772Y-81852574D02*
X123870794Y-82016602D01*
X123599845Y-82287078D01*
X123331113Y-82017876D01*
X122857523Y-81821224D01*
X122344727Y-81820777D01*
X121870794Y-82016602D01*
X121507876Y-82378887D01*
X121311224Y-82852477D01*
X121310777Y-83365273D01*
X121506602Y-83839206D01*
X121868887Y-84202124D01*
X122342477Y-84398776D01*
X122651378Y-84399045D01*
X122467074Y-84443862D01*
X122319015Y-84868919D01*
X122276621Y-84826451D01*
X121611611Y-84550315D01*
X120891548Y-84549686D01*
X120781902Y-84594991D01*
X120693398Y-84380794D01*
X120331113Y-84017876D01*
X119857523Y-83821224D01*
X119700440Y-83821087D01*
X119888776Y-83367523D01*
X119889223Y-82854727D01*
X119693398Y-82380794D01*
X119331113Y-82017876D01*
X118857523Y-81821224D01*
X118385615Y-81820813D01*
X116412301Y-79847499D01*
X116165739Y-79682752D01*
X115874900Y-79624900D01*
X112432493Y-79624900D01*
X112500943Y-79596617D01*
X112764192Y-79333827D01*
X112906838Y-78990299D01*
X112907162Y-78618333D01*
X112831906Y-78436200D01*
X120851398Y-78436200D01*
X124267772Y-81852574D01*
G36*
X130056899Y-74197401D02*
X130303461Y-74362148D01*
X130594300Y-74420000D01*
X138252560Y-74420000D01*
X138252560Y-74460000D01*
X138296838Y-74695317D01*
X138435910Y-74911441D01*
X138648110Y-75056431D01*
X138900000Y-75107440D01*
X140399558Y-75107440D01*
X138882699Y-76624299D01*
X138717952Y-76870861D01*
X138660100Y-77161700D01*
X138660100Y-78421900D01*
X138717952Y-78712739D01*
X138882699Y-78959301D01*
X141927331Y-82003933D01*
X141877688Y-82208083D01*
X142600000Y-82930395D01*
X142614143Y-82916253D01*
X142793748Y-83095858D01*
X142779605Y-83110000D01*
X142793748Y-83124143D01*
X142614143Y-83303748D01*
X142600000Y-83289605D01*
X142585858Y-83303748D01*
X142406253Y-83124143D01*
X142420395Y-83110000D01*
X141698083Y-82387688D01*
X141696414Y-82388094D01*
X141693398Y-82380794D01*
X141331113Y-82017876D01*
X140857523Y-81821224D01*
X140344727Y-81820777D01*
X139870794Y-82016602D01*
X139599845Y-82287078D01*
X139331113Y-82017876D01*
X138857523Y-81821224D01*
X138344727Y-81820777D01*
X137870794Y-82016602D01*
X137599845Y-82287078D01*
X137331113Y-82017876D01*
X136857523Y-81821224D01*
X136344727Y-81820777D01*
X135870794Y-82016602D01*
X135599845Y-82287078D01*
X135331113Y-82017876D01*
X134857523Y-81821224D01*
X134344727Y-81820777D01*
X133870794Y-82016602D01*
X133599845Y-82287078D01*
X133331113Y-82017876D01*
X132857523Y-81821224D01*
X132344727Y-81820777D01*
X131870794Y-82016602D01*
X131599845Y-82287078D01*
X131331113Y-82017876D01*
X130857523Y-81821224D01*
X130385615Y-81820813D01*
X123753801Y-75188999D01*
X123507239Y-75024252D01*
X123216400Y-74966400D01*
X119065887Y-74966400D01*
X119066074Y-74751600D01*
X120532200Y-74751600D01*
X120823039Y-74693748D01*
X121069601Y-74529001D01*
X124253601Y-71345001D01*
X124418348Y-71098439D01*
X124476200Y-70807600D01*
X124476200Y-68616702D01*
X130056899Y-74197401D01*
X130056899Y-74197401D01*
G37*
X130056899Y-74197401D02*
X130303461Y-74362148D01*
X130594300Y-74420000D01*
X138252560Y-74420000D01*
X138252560Y-74460000D01*
X138296838Y-74695317D01*
X138435910Y-74911441D01*
X138648110Y-75056431D01*
X138900000Y-75107440D01*
X140399558Y-75107440D01*
X138882699Y-76624299D01*
X138717952Y-76870861D01*
X138660100Y-77161700D01*
X138660100Y-78421900D01*
X138717952Y-78712739D01*
X138882699Y-78959301D01*
X141927331Y-82003933D01*
X141877688Y-82208083D01*
X142600000Y-82930395D01*
X142614143Y-82916253D01*
X142793748Y-83095858D01*
X142779605Y-83110000D01*
X142793748Y-83124143D01*
X142614143Y-83303748D01*
X142600000Y-83289605D01*
X142585858Y-83303748D01*
X142406253Y-83124143D01*
X142420395Y-83110000D01*
X141698083Y-82387688D01*
X141696414Y-82388094D01*
X141693398Y-82380794D01*
X141331113Y-82017876D01*
X140857523Y-81821224D01*
X140344727Y-81820777D01*
X139870794Y-82016602D01*
X139599845Y-82287078D01*
X139331113Y-82017876D01*
X138857523Y-81821224D01*
X138344727Y-81820777D01*
X137870794Y-82016602D01*
X137599845Y-82287078D01*
X137331113Y-82017876D01*
X136857523Y-81821224D01*
X136344727Y-81820777D01*
X135870794Y-82016602D01*
X135599845Y-82287078D01*
X135331113Y-82017876D01*
X134857523Y-81821224D01*
X134344727Y-81820777D01*
X133870794Y-82016602D01*
X133599845Y-82287078D01*
X133331113Y-82017876D01*
X132857523Y-81821224D01*
X132344727Y-81820777D01*
X131870794Y-82016602D01*
X131599845Y-82287078D01*
X131331113Y-82017876D01*
X130857523Y-81821224D01*
X130385615Y-81820813D01*
X123753801Y-75188999D01*
X123507239Y-75024252D01*
X123216400Y-74966400D01*
X119065887Y-74966400D01*
X119066074Y-74751600D01*
X120532200Y-74751600D01*
X120823039Y-74693748D01*
X121069601Y-74529001D01*
X124253601Y-71345001D01*
X124418348Y-71098439D01*
X124476200Y-70807600D01*
X124476200Y-68616702D01*
X130056899Y-74197401D01*
G36*
X142393748Y-73645858D02*
X142379605Y-73660000D01*
X142393748Y-73674142D01*
X142214142Y-73853748D01*
X142200000Y-73839605D01*
X142185858Y-73853748D01*
X142006253Y-73674143D01*
X142020395Y-73660000D01*
X142006252Y-73645858D01*
X142185858Y-73466253D01*
X142200000Y-73480395D01*
X142214142Y-73466252D01*
X142393748Y-73645858D01*
X142393748Y-73645858D01*
G37*
X142393748Y-73645858D02*
X142379605Y-73660000D01*
X142393748Y-73674142D01*
X142214142Y-73853748D01*
X142200000Y-73839605D01*
X142185858Y-73853748D01*
X142006253Y-73674143D01*
X142020395Y-73660000D01*
X142006252Y-73645858D01*
X142185858Y-73466253D01*
X142200000Y-73480395D01*
X142214142Y-73466252D01*
X142393748Y-73645858D01*
G36*
X127793748Y-62195858D02*
X127779605Y-62210000D01*
X127793748Y-62224143D01*
X127614143Y-62403748D01*
X127600000Y-62389605D01*
X127585858Y-62403748D01*
X127406253Y-62224143D01*
X127420395Y-62210000D01*
X127406253Y-62195858D01*
X127585858Y-62016253D01*
X127600000Y-62030395D01*
X127614143Y-62016253D01*
X127793748Y-62195858D01*
X127793748Y-62195858D01*
G37*
X127793748Y-62195858D02*
X127779605Y-62210000D01*
X127793748Y-62224143D01*
X127614143Y-62403748D01*
X127600000Y-62389605D01*
X127585858Y-62403748D01*
X127406253Y-62224143D01*
X127420395Y-62210000D01*
X127406253Y-62195858D01*
X127585858Y-62016253D01*
X127600000Y-62030395D01*
X127614143Y-62016253D01*
X127793748Y-62195858D01*
G36*
X131793748Y-62195858D02*
X131779605Y-62210000D01*
X131793748Y-62224143D01*
X131614143Y-62403748D01*
X131600000Y-62389605D01*
X131585858Y-62403748D01*
X131406253Y-62224143D01*
X131420395Y-62210000D01*
X131406253Y-62195858D01*
X131585858Y-62016253D01*
X131600000Y-62030395D01*
X131614143Y-62016253D01*
X131793748Y-62195858D01*
X131793748Y-62195858D01*
G37*
X131793748Y-62195858D02*
X131779605Y-62210000D01*
X131793748Y-62224143D01*
X131614143Y-62403748D01*
X131600000Y-62389605D01*
X131585858Y-62403748D01*
X131406253Y-62224143D01*
X131420395Y-62210000D01*
X131406253Y-62195858D01*
X131585858Y-62016253D01*
X131600000Y-62030395D01*
X131614143Y-62016253D01*
X131793748Y-62195858D01*
G36*
X135793748Y-62195858D02*
X135779605Y-62210000D01*
X135793748Y-62224143D01*
X135614143Y-62403748D01*
X135600000Y-62389605D01*
X135585858Y-62403748D01*
X135406253Y-62224143D01*
X135420395Y-62210000D01*
X135406253Y-62195858D01*
X135585858Y-62016253D01*
X135600000Y-62030395D01*
X135614143Y-62016253D01*
X135793748Y-62195858D01*
X135793748Y-62195858D01*
G37*
X135793748Y-62195858D02*
X135779605Y-62210000D01*
X135793748Y-62224143D01*
X135614143Y-62403748D01*
X135600000Y-62389605D01*
X135585858Y-62403748D01*
X135406253Y-62224143D01*
X135420395Y-62210000D01*
X135406253Y-62195858D01*
X135585858Y-62016253D01*
X135600000Y-62030395D01*
X135614143Y-62016253D01*
X135793748Y-62195858D01*
G36*
X123793748Y-59695858D02*
X123779605Y-59710000D01*
X124501917Y-60432312D01*
X124503586Y-60431906D01*
X124506602Y-60439206D01*
X124868887Y-60802124D01*
X125249446Y-60960146D01*
X124870794Y-61116602D01*
X124599845Y-61387078D01*
X124331113Y-61117876D01*
X123967181Y-60966758D01*
X124266138Y-60842926D01*
X124322312Y-60611917D01*
X123600000Y-59889605D01*
X123585858Y-59903748D01*
X123406253Y-59724143D01*
X123420395Y-59710000D01*
X123406253Y-59695858D01*
X123585858Y-59516253D01*
X123600000Y-59530395D01*
X123614143Y-59516253D01*
X123793748Y-59695858D01*
X123793748Y-59695858D01*
G37*
X123793748Y-59695858D02*
X123779605Y-59710000D01*
X124501917Y-60432312D01*
X124503586Y-60431906D01*
X124506602Y-60439206D01*
X124868887Y-60802124D01*
X125249446Y-60960146D01*
X124870794Y-61116602D01*
X124599845Y-61387078D01*
X124331113Y-61117876D01*
X123967181Y-60966758D01*
X124266138Y-60842926D01*
X124322312Y-60611917D01*
X123600000Y-59889605D01*
X123585858Y-59903748D01*
X123406253Y-59724143D01*
X123420395Y-59710000D01*
X123406253Y-59695858D01*
X123585858Y-59516253D01*
X123600000Y-59530395D01*
X123614143Y-59516253D01*
X123793748Y-59695858D01*
G36*
X113793748Y-59695858D02*
X113779605Y-59710000D01*
X114501917Y-60432312D01*
X114503586Y-60431906D01*
X114506602Y-60439206D01*
X114868887Y-60802124D01*
X115249446Y-60960146D01*
X114870794Y-61116602D01*
X114599845Y-61387078D01*
X114331113Y-61117876D01*
X113967181Y-60966758D01*
X114266138Y-60842926D01*
X114322312Y-60611917D01*
X113600000Y-59889605D01*
X112877688Y-60611917D01*
X112933862Y-60842926D01*
X113259024Y-60956189D01*
X112870794Y-61116602D01*
X112599845Y-61387078D01*
X112331113Y-61117876D01*
X111950554Y-60959854D01*
X112329206Y-60803398D01*
X112692124Y-60441113D01*
X112695990Y-60431803D01*
X112698083Y-60432312D01*
X113420395Y-59710000D01*
X113406253Y-59695858D01*
X113585858Y-59516253D01*
X113600000Y-59530395D01*
X113614143Y-59516253D01*
X113793748Y-59695858D01*
X113793748Y-59695858D01*
G37*
X113793748Y-59695858D02*
X113779605Y-59710000D01*
X114501917Y-60432312D01*
X114503586Y-60431906D01*
X114506602Y-60439206D01*
X114868887Y-60802124D01*
X115249446Y-60960146D01*
X114870794Y-61116602D01*
X114599845Y-61387078D01*
X114331113Y-61117876D01*
X113967181Y-60966758D01*
X114266138Y-60842926D01*
X114322312Y-60611917D01*
X113600000Y-59889605D01*
X112877688Y-60611917D01*
X112933862Y-60842926D01*
X113259024Y-60956189D01*
X112870794Y-61116602D01*
X112599845Y-61387078D01*
X112331113Y-61117876D01*
X111950554Y-60959854D01*
X112329206Y-60803398D01*
X112692124Y-60441113D01*
X112695990Y-60431803D01*
X112698083Y-60432312D01*
X113420395Y-59710000D01*
X113406253Y-59695858D01*
X113585858Y-59516253D01*
X113600000Y-59530395D01*
X113614143Y-59516253D01*
X113793748Y-59695858D01*
G36*
X139793748Y-59695858D02*
X139779605Y-59710000D01*
X140501917Y-60432312D01*
X140503586Y-60431906D01*
X140506602Y-60439206D01*
X140868887Y-60802124D01*
X141133427Y-60911971D01*
X141062599Y-60982799D01*
X141012248Y-61058154D01*
X140870794Y-61116602D01*
X140599845Y-61387078D01*
X140331113Y-61117876D01*
X139967181Y-60966758D01*
X140266138Y-60842926D01*
X140322312Y-60611917D01*
X139600000Y-59889605D01*
X138877688Y-60611917D01*
X138933862Y-60842926D01*
X139259024Y-60956189D01*
X138870794Y-61116602D01*
X138599845Y-61387078D01*
X138331113Y-61117876D01*
X137950554Y-60959854D01*
X138329206Y-60803398D01*
X138692124Y-60441113D01*
X138695990Y-60431803D01*
X138698083Y-60432312D01*
X139420395Y-59710000D01*
X139406253Y-59695858D01*
X139585858Y-59516253D01*
X139600000Y-59530395D01*
X139614143Y-59516253D01*
X139793748Y-59695858D01*
X139793748Y-59695858D01*
G37*
X139793748Y-59695858D02*
X139779605Y-59710000D01*
X140501917Y-60432312D01*
X140503586Y-60431906D01*
X140506602Y-60439206D01*
X140868887Y-60802124D01*
X141133427Y-60911971D01*
X141062599Y-60982799D01*
X141012248Y-61058154D01*
X140870794Y-61116602D01*
X140599845Y-61387078D01*
X140331113Y-61117876D01*
X139967181Y-60966758D01*
X140266138Y-60842926D01*
X140322312Y-60611917D01*
X139600000Y-59889605D01*
X138877688Y-60611917D01*
X138933862Y-60842926D01*
X139259024Y-60956189D01*
X138870794Y-61116602D01*
X138599845Y-61387078D01*
X138331113Y-61117876D01*
X137950554Y-60959854D01*
X138329206Y-60803398D01*
X138692124Y-60441113D01*
X138695990Y-60431803D01*
X138698083Y-60432312D01*
X139420395Y-59710000D01*
X139406253Y-59695858D01*
X139585858Y-59516253D01*
X139600000Y-59530395D01*
X139614143Y-59516253D01*
X139793748Y-59695858D01*
G36*
X127793748Y-59695858D02*
X127779605Y-59710000D01*
X127793748Y-59724143D01*
X127614143Y-59903748D01*
X127600000Y-59889605D01*
X127585858Y-59903748D01*
X127406253Y-59724143D01*
X127420395Y-59710000D01*
X127406253Y-59695858D01*
X127585858Y-59516253D01*
X127600000Y-59530395D01*
X127614143Y-59516253D01*
X127793748Y-59695858D01*
X127793748Y-59695858D01*
G37*
X127793748Y-59695858D02*
X127779605Y-59710000D01*
X127793748Y-59724143D01*
X127614143Y-59903748D01*
X127600000Y-59889605D01*
X127585858Y-59903748D01*
X127406253Y-59724143D01*
X127420395Y-59710000D01*
X127406253Y-59695858D01*
X127585858Y-59516253D01*
X127600000Y-59530395D01*
X127614143Y-59516253D01*
X127793748Y-59695858D01*
G36*
X117793748Y-59695858D02*
X117779605Y-59710000D01*
X117793748Y-59724143D01*
X117614143Y-59903748D01*
X117600000Y-59889605D01*
X117585858Y-59903748D01*
X117406253Y-59724143D01*
X117420395Y-59710000D01*
X117406253Y-59695858D01*
X117585858Y-59516253D01*
X117600000Y-59530395D01*
X117614143Y-59516253D01*
X117793748Y-59695858D01*
X117793748Y-59695858D01*
G37*
X117793748Y-59695858D02*
X117779605Y-59710000D01*
X117793748Y-59724143D01*
X117614143Y-59903748D01*
X117600000Y-59889605D01*
X117585858Y-59903748D01*
X117406253Y-59724143D01*
X117420395Y-59710000D01*
X117406253Y-59695858D01*
X117585858Y-59516253D01*
X117600000Y-59530395D01*
X117614143Y-59516253D01*
X117793748Y-59695858D01*
G36*
X131793748Y-59695858D02*
X131779605Y-59710000D01*
X131793748Y-59724143D01*
X131614143Y-59903748D01*
X131600000Y-59889605D01*
X131585858Y-59903748D01*
X131406253Y-59724143D01*
X131420395Y-59710000D01*
X131406253Y-59695858D01*
X131585858Y-59516253D01*
X131600000Y-59530395D01*
X131614143Y-59516253D01*
X131793748Y-59695858D01*
X131793748Y-59695858D01*
G37*
X131793748Y-59695858D02*
X131779605Y-59710000D01*
X131793748Y-59724143D01*
X131614143Y-59903748D01*
X131600000Y-59889605D01*
X131585858Y-59903748D01*
X131406253Y-59724143D01*
X131420395Y-59710000D01*
X131406253Y-59695858D01*
X131585858Y-59516253D01*
X131600000Y-59530395D01*
X131614143Y-59516253D01*
X131793748Y-59695858D01*
G36*
X135793748Y-59695858D02*
X135779605Y-59710000D01*
X135793748Y-59724143D01*
X135614143Y-59903748D01*
X135600000Y-59889605D01*
X135585858Y-59903748D01*
X135406253Y-59724143D01*
X135420395Y-59710000D01*
X135406253Y-59695858D01*
X135585858Y-59516253D01*
X135600000Y-59530395D01*
X135614143Y-59516253D01*
X135793748Y-59695858D01*
X135793748Y-59695858D01*
G37*
X135793748Y-59695858D02*
X135779605Y-59710000D01*
X135793748Y-59724143D01*
X135614143Y-59903748D01*
X135600000Y-59889605D01*
X135585858Y-59903748D01*
X135406253Y-59724143D01*
X135420395Y-59710000D01*
X135406253Y-59695858D01*
X135585858Y-59516253D01*
X135600000Y-59530395D01*
X135614143Y-59516253D01*
X135793748Y-59695858D01*
G36*
X109727000Y-59583000D02*
X109747000Y-59583000D01*
X109747000Y-59837000D01*
X109727000Y-59837000D01*
X109727000Y-59857000D01*
X109473000Y-59857000D01*
X109473000Y-59837000D01*
X109453000Y-59837000D01*
X109453000Y-59583000D01*
X109473000Y-59583000D01*
X109473000Y-59563000D01*
X109727000Y-59563000D01*
X109727000Y-59583000D01*
X109727000Y-59583000D01*
G37*
X109727000Y-59583000D02*
X109747000Y-59583000D01*
X109747000Y-59837000D01*
X109727000Y-59837000D01*
X109727000Y-59857000D01*
X109473000Y-59857000D01*
X109473000Y-59837000D01*
X109453000Y-59837000D01*
X109453000Y-59583000D01*
X109473000Y-59583000D01*
X109473000Y-59563000D01*
X109727000Y-59563000D01*
X109727000Y-59583000D01*
G36*
X137868887Y-39902124D02*
X138342477Y-40098776D01*
X138814385Y-40099187D01*
X140757399Y-42042201D01*
X141003961Y-42206948D01*
X141294800Y-42264800D01*
X143741037Y-42264800D01*
X143773173Y-42296992D01*
X144116701Y-42439638D01*
X144488667Y-42439962D01*
X144832443Y-42297917D01*
X145095692Y-42035127D01*
X145192100Y-41802952D01*
X145192100Y-42949798D01*
X145012020Y-43129878D01*
X144966533Y-43129838D01*
X144622757Y-43271883D01*
X144359508Y-43534673D01*
X144216862Y-43878201D01*
X144216538Y-44250167D01*
X144358583Y-44593943D01*
X144503580Y-44739194D01*
X144464462Y-44833401D01*
X144464138Y-45205367D01*
X144606183Y-45549143D01*
X144678356Y-45621442D01*
X144589998Y-45709800D01*
X143646863Y-45709800D01*
X143614727Y-45677608D01*
X143271199Y-45534962D01*
X142899233Y-45534638D01*
X142555457Y-45676683D01*
X142292208Y-45939473D01*
X142149562Y-46283001D01*
X142149238Y-46654967D01*
X142218457Y-46822490D01*
X141846546Y-46840222D01*
X141445995Y-47006136D01*
X141371861Y-47252255D01*
X142200000Y-48080395D01*
X142214143Y-48066253D01*
X142393748Y-48245858D01*
X142379605Y-48260000D01*
X142393748Y-48274142D01*
X142214142Y-48453748D01*
X142200000Y-48439605D01*
X142185858Y-48453748D01*
X142006252Y-48274142D01*
X142020395Y-48260000D01*
X141192255Y-47431861D01*
X141144833Y-47446145D01*
X141103162Y-47224683D01*
X140964090Y-47008559D01*
X140751890Y-46863569D01*
X140500000Y-46812560D01*
X138900000Y-46812560D01*
X138664683Y-46856838D01*
X138448559Y-46995910D01*
X138303569Y-47208110D01*
X138252560Y-47460000D01*
X138252560Y-47500000D01*
X130572400Y-47500000D01*
X130281561Y-47557852D01*
X130034999Y-47722599D01*
X120851720Y-56905878D01*
X120806233Y-56905838D01*
X120462457Y-57047883D01*
X120199208Y-57310673D01*
X120056562Y-57654201D01*
X120056238Y-58026167D01*
X120198283Y-58369943D01*
X120461073Y-58633192D01*
X120804601Y-58775838D01*
X121176567Y-58776162D01*
X121520343Y-58634117D01*
X121610916Y-58543702D01*
X121868887Y-58802124D01*
X122342477Y-58998776D01*
X122651378Y-58999045D01*
X122467074Y-59043862D01*
X122319015Y-59468919D01*
X122276621Y-59426451D01*
X121611611Y-59150315D01*
X120891548Y-59149686D01*
X120781902Y-59194991D01*
X120693398Y-58980794D01*
X120331113Y-58617876D01*
X119857523Y-58421224D01*
X119700440Y-58421087D01*
X119888776Y-57967523D01*
X119889223Y-57454727D01*
X119693398Y-56980794D01*
X119331113Y-56617876D01*
X118857523Y-56421224D01*
X118344727Y-56420777D01*
X117870794Y-56616602D01*
X117599845Y-56887078D01*
X117331113Y-56617876D01*
X116857523Y-56421224D01*
X116344727Y-56420777D01*
X115870794Y-56616602D01*
X115599845Y-56887078D01*
X115331113Y-56617876D01*
X114857523Y-56421224D01*
X114385615Y-56420813D01*
X114085601Y-56120799D01*
X113839039Y-55956052D01*
X113548200Y-55898200D01*
X110163900Y-55898200D01*
X109873061Y-55956052D01*
X109626499Y-56120799D01*
X109499400Y-56247898D01*
X109499400Y-55466467D01*
X109529273Y-55496392D01*
X109872801Y-55639038D01*
X110244767Y-55639362D01*
X110588543Y-55497317D01*
X110851792Y-55234527D01*
X110994438Y-54890999D01*
X110994583Y-54724419D01*
X111145603Y-54573399D01*
X111216573Y-54644492D01*
X111560101Y-54787138D01*
X111932067Y-54787462D01*
X112275843Y-54645417D01*
X112539092Y-54382627D01*
X112681738Y-54039099D01*
X112681779Y-53992223D01*
X125137401Y-41536601D01*
X125302148Y-41290040D01*
X125360000Y-40999200D01*
X125360000Y-39872658D01*
X125600155Y-39632922D01*
X125868887Y-39902124D01*
X126342477Y-40098776D01*
X126855273Y-40099223D01*
X127329206Y-39903398D01*
X127600155Y-39632922D01*
X127868887Y-39902124D01*
X128342477Y-40098776D01*
X128855273Y-40099223D01*
X129329206Y-39903398D01*
X129600155Y-39632922D01*
X129868887Y-39902124D01*
X130342477Y-40098776D01*
X130855273Y-40099223D01*
X131329206Y-39903398D01*
X131600155Y-39632922D01*
X131868887Y-39902124D01*
X132342477Y-40098776D01*
X132855273Y-40099223D01*
X133329206Y-39903398D01*
X133600155Y-39632922D01*
X133868887Y-39902124D01*
X134342477Y-40098776D01*
X134855273Y-40099223D01*
X135329206Y-39903398D01*
X135600155Y-39632922D01*
X135868887Y-39902124D01*
X136342477Y-40098776D01*
X136855273Y-40099223D01*
X137329206Y-39903398D01*
X137600155Y-39632922D01*
X137868887Y-39902124D01*
X137868887Y-39902124D01*
G37*
X137868887Y-39902124D02*
X138342477Y-40098776D01*
X138814385Y-40099187D01*
X140757399Y-42042201D01*
X141003961Y-42206948D01*
X141294800Y-42264800D01*
X143741037Y-42264800D01*
X143773173Y-42296992D01*
X144116701Y-42439638D01*
X144488667Y-42439962D01*
X144832443Y-42297917D01*
X145095692Y-42035127D01*
X145192100Y-41802952D01*
X145192100Y-42949798D01*
X145012020Y-43129878D01*
X144966533Y-43129838D01*
X144622757Y-43271883D01*
X144359508Y-43534673D01*
X144216862Y-43878201D01*
X144216538Y-44250167D01*
X144358583Y-44593943D01*
X144503580Y-44739194D01*
X144464462Y-44833401D01*
X144464138Y-45205367D01*
X144606183Y-45549143D01*
X144678356Y-45621442D01*
X144589998Y-45709800D01*
X143646863Y-45709800D01*
X143614727Y-45677608D01*
X143271199Y-45534962D01*
X142899233Y-45534638D01*
X142555457Y-45676683D01*
X142292208Y-45939473D01*
X142149562Y-46283001D01*
X142149238Y-46654967D01*
X142218457Y-46822490D01*
X141846546Y-46840222D01*
X141445995Y-47006136D01*
X141371861Y-47252255D01*
X142200000Y-48080395D01*
X142214143Y-48066253D01*
X142393748Y-48245858D01*
X142379605Y-48260000D01*
X142393748Y-48274142D01*
X142214142Y-48453748D01*
X142200000Y-48439605D01*
X142185858Y-48453748D01*
X142006252Y-48274142D01*
X142020395Y-48260000D01*
X141192255Y-47431861D01*
X141144833Y-47446145D01*
X141103162Y-47224683D01*
X140964090Y-47008559D01*
X140751890Y-46863569D01*
X140500000Y-46812560D01*
X138900000Y-46812560D01*
X138664683Y-46856838D01*
X138448559Y-46995910D01*
X138303569Y-47208110D01*
X138252560Y-47460000D01*
X138252560Y-47500000D01*
X130572400Y-47500000D01*
X130281561Y-47557852D01*
X130034999Y-47722599D01*
X120851720Y-56905878D01*
X120806233Y-56905838D01*
X120462457Y-57047883D01*
X120199208Y-57310673D01*
X120056562Y-57654201D01*
X120056238Y-58026167D01*
X120198283Y-58369943D01*
X120461073Y-58633192D01*
X120804601Y-58775838D01*
X121176567Y-58776162D01*
X121520343Y-58634117D01*
X121610916Y-58543702D01*
X121868887Y-58802124D01*
X122342477Y-58998776D01*
X122651378Y-58999045D01*
X122467074Y-59043862D01*
X122319015Y-59468919D01*
X122276621Y-59426451D01*
X121611611Y-59150315D01*
X120891548Y-59149686D01*
X120781902Y-59194991D01*
X120693398Y-58980794D01*
X120331113Y-58617876D01*
X119857523Y-58421224D01*
X119700440Y-58421087D01*
X119888776Y-57967523D01*
X119889223Y-57454727D01*
X119693398Y-56980794D01*
X119331113Y-56617876D01*
X118857523Y-56421224D01*
X118344727Y-56420777D01*
X117870794Y-56616602D01*
X117599845Y-56887078D01*
X117331113Y-56617876D01*
X116857523Y-56421224D01*
X116344727Y-56420777D01*
X115870794Y-56616602D01*
X115599845Y-56887078D01*
X115331113Y-56617876D01*
X114857523Y-56421224D01*
X114385615Y-56420813D01*
X114085601Y-56120799D01*
X113839039Y-55956052D01*
X113548200Y-55898200D01*
X110163900Y-55898200D01*
X109873061Y-55956052D01*
X109626499Y-56120799D01*
X109499400Y-56247898D01*
X109499400Y-55466467D01*
X109529273Y-55496392D01*
X109872801Y-55639038D01*
X110244767Y-55639362D01*
X110588543Y-55497317D01*
X110851792Y-55234527D01*
X110994438Y-54890999D01*
X110994583Y-54724419D01*
X111145603Y-54573399D01*
X111216573Y-54644492D01*
X111560101Y-54787138D01*
X111932067Y-54787462D01*
X112275843Y-54645417D01*
X112539092Y-54382627D01*
X112681738Y-54039099D01*
X112681779Y-53992223D01*
X125137401Y-41536601D01*
X125302148Y-41290040D01*
X125360000Y-40999200D01*
X125360000Y-39872658D01*
X125600155Y-39632922D01*
X125868887Y-39902124D01*
X126342477Y-40098776D01*
X126855273Y-40099223D01*
X127329206Y-39903398D01*
X127600155Y-39632922D01*
X127868887Y-39902124D01*
X128342477Y-40098776D01*
X128855273Y-40099223D01*
X129329206Y-39903398D01*
X129600155Y-39632922D01*
X129868887Y-39902124D01*
X130342477Y-40098776D01*
X130855273Y-40099223D01*
X131329206Y-39903398D01*
X131600155Y-39632922D01*
X131868887Y-39902124D01*
X132342477Y-40098776D01*
X132855273Y-40099223D01*
X133329206Y-39903398D01*
X133600155Y-39632922D01*
X133868887Y-39902124D01*
X134342477Y-40098776D01*
X134855273Y-40099223D01*
X135329206Y-39903398D01*
X135600155Y-39632922D01*
X135868887Y-39902124D01*
X136342477Y-40098776D01*
X136855273Y-40099223D01*
X137329206Y-39903398D01*
X137600155Y-39632922D01*
X137868887Y-39902124D01*
G36*
X143690703Y-57033595D02*
X143501917Y-56987688D01*
X142779605Y-57710000D01*
X142793748Y-57724143D01*
X142614143Y-57903748D01*
X142600000Y-57889605D01*
X142585858Y-57903748D01*
X142406253Y-57724143D01*
X142420395Y-57710000D01*
X142406253Y-57695858D01*
X142585858Y-57516253D01*
X142600000Y-57530395D01*
X143322312Y-56808083D01*
X143266138Y-56577074D01*
X143257600Y-56574100D01*
X144150198Y-56574100D01*
X143690703Y-57033595D01*
X143690703Y-57033595D01*
G37*
X143690703Y-57033595D02*
X143501917Y-56987688D01*
X142779605Y-57710000D01*
X142793748Y-57724143D01*
X142614143Y-57903748D01*
X142600000Y-57889605D01*
X142585858Y-57903748D01*
X142406253Y-57724143D01*
X142420395Y-57710000D01*
X142406253Y-57695858D01*
X142585858Y-57516253D01*
X142600000Y-57530395D01*
X143322312Y-56808083D01*
X143266138Y-56577074D01*
X143257600Y-56574100D01*
X144150198Y-56574100D01*
X143690703Y-57033595D01*
G36*
X108469750Y-34183000D02*
X109473000Y-34183000D01*
X109473000Y-34163000D01*
X109727000Y-34163000D01*
X109727000Y-34183000D01*
X109747000Y-34183000D01*
X109747000Y-34437000D01*
X109727000Y-34437000D01*
X109727000Y-34457000D01*
X109473000Y-34457000D01*
X109473000Y-34437000D01*
X108469750Y-34437000D01*
X108311000Y-34595750D01*
X108311000Y-35090310D01*
X108407673Y-35323699D01*
X108464386Y-35380412D01*
X102211800Y-41632998D01*
X102211800Y-40316402D01*
X108407476Y-34120726D01*
X108469750Y-34183000D01*
X108469750Y-34183000D01*
G37*
X108469750Y-34183000D02*
X109473000Y-34183000D01*
X109473000Y-34163000D01*
X109727000Y-34163000D01*
X109727000Y-34183000D01*
X109747000Y-34183000D01*
X109747000Y-34437000D01*
X109727000Y-34437000D01*
X109727000Y-34457000D01*
X109473000Y-34457000D01*
X109473000Y-34437000D01*
X108469750Y-34437000D01*
X108311000Y-34595750D01*
X108311000Y-35090310D01*
X108407673Y-35323699D01*
X108464386Y-35380412D01*
X102211800Y-41632998D01*
X102211800Y-40316402D01*
X108407476Y-34120726D01*
X108469750Y-34183000D01*
G36*
X144038389Y-37369685D02*
X144758452Y-37370314D01*
X145192100Y-37191134D01*
X145192100Y-40003144D01*
X145096617Y-39772057D01*
X145063500Y-39738882D01*
X145063500Y-39037100D01*
X145005648Y-38746261D01*
X144840901Y-38499699D01*
X143549601Y-37208399D01*
X143384834Y-37098306D01*
X144038389Y-37369685D01*
X144038389Y-37369685D01*
G37*
X144038389Y-37369685D02*
X144758452Y-37370314D01*
X145192100Y-37191134D01*
X145192100Y-40003144D01*
X145096617Y-39772057D01*
X145063500Y-39738882D01*
X145063500Y-39037100D01*
X145005648Y-38746261D01*
X144840901Y-38499699D01*
X143549601Y-37208399D01*
X143384834Y-37098306D01*
X144038389Y-37369685D01*
G36*
X135793748Y-34295858D02*
X135779605Y-34310000D01*
X136501917Y-35032312D01*
X136503586Y-35031906D01*
X136506602Y-35039206D01*
X136868887Y-35402124D01*
X137249446Y-35560146D01*
X136870794Y-35716602D01*
X136507876Y-36078887D01*
X136504010Y-36088197D01*
X136501917Y-36087688D01*
X135779605Y-36810000D01*
X135793748Y-36824143D01*
X135614143Y-37003748D01*
X135600000Y-36989605D01*
X135585858Y-37003748D01*
X135406253Y-36824143D01*
X135420395Y-36810000D01*
X134698083Y-36087688D01*
X134696414Y-36088094D01*
X134693398Y-36080794D01*
X134331113Y-35717876D01*
X133950554Y-35559854D01*
X134329206Y-35403398D01*
X134521021Y-35211917D01*
X134877688Y-35211917D01*
X134933862Y-35442926D01*
X135240925Y-35549885D01*
X134933862Y-35677074D01*
X134877688Y-35908083D01*
X135600000Y-36630395D01*
X136322312Y-35908083D01*
X136266138Y-35677074D01*
X135959075Y-35570115D01*
X136266138Y-35442926D01*
X136322312Y-35211917D01*
X135600000Y-34489605D01*
X134877688Y-35211917D01*
X134521021Y-35211917D01*
X134692124Y-35041113D01*
X134695990Y-35031803D01*
X134698083Y-35032312D01*
X135420395Y-34310000D01*
X135406253Y-34295858D01*
X135585858Y-34116253D01*
X135600000Y-34130395D01*
X135614143Y-34116253D01*
X135793748Y-34295858D01*
X135793748Y-34295858D01*
G37*
X135793748Y-34295858D02*
X135779605Y-34310000D01*
X136501917Y-35032312D01*
X136503586Y-35031906D01*
X136506602Y-35039206D01*
X136868887Y-35402124D01*
X137249446Y-35560146D01*
X136870794Y-35716602D01*
X136507876Y-36078887D01*
X136504010Y-36088197D01*
X136501917Y-36087688D01*
X135779605Y-36810000D01*
X135793748Y-36824143D01*
X135614143Y-37003748D01*
X135600000Y-36989605D01*
X135585858Y-37003748D01*
X135406253Y-36824143D01*
X135420395Y-36810000D01*
X134698083Y-36087688D01*
X134696414Y-36088094D01*
X134693398Y-36080794D01*
X134331113Y-35717876D01*
X133950554Y-35559854D01*
X134329206Y-35403398D01*
X134521021Y-35211917D01*
X134877688Y-35211917D01*
X134933862Y-35442926D01*
X135240925Y-35549885D01*
X134933862Y-35677074D01*
X134877688Y-35908083D01*
X135600000Y-36630395D01*
X136322312Y-35908083D01*
X136266138Y-35677074D01*
X135959075Y-35570115D01*
X136266138Y-35442926D01*
X136322312Y-35211917D01*
X135600000Y-34489605D01*
X134877688Y-35211917D01*
X134521021Y-35211917D01*
X134692124Y-35041113D01*
X134695990Y-35031803D01*
X134698083Y-35032312D01*
X135420395Y-34310000D01*
X135406253Y-34295858D01*
X135585858Y-34116253D01*
X135600000Y-34130395D01*
X135614143Y-34116253D01*
X135793748Y-34295858D01*
G36*
X131793748Y-34295858D02*
X131779605Y-34310000D01*
X132501917Y-35032312D01*
X132503586Y-35031906D01*
X132506602Y-35039206D01*
X132868887Y-35402124D01*
X133249446Y-35560146D01*
X132870794Y-35716602D01*
X132507876Y-36078887D01*
X132504010Y-36088197D01*
X132501917Y-36087688D01*
X131779605Y-36810000D01*
X131793748Y-36824143D01*
X131614143Y-37003748D01*
X131600000Y-36989605D01*
X131585858Y-37003748D01*
X131406253Y-36824143D01*
X131420395Y-36810000D01*
X130698083Y-36087688D01*
X130696414Y-36088094D01*
X130693398Y-36080794D01*
X130331113Y-35717876D01*
X129950554Y-35559854D01*
X130329206Y-35403398D01*
X130521021Y-35211917D01*
X130877688Y-35211917D01*
X130933862Y-35442926D01*
X131240925Y-35549885D01*
X130933862Y-35677074D01*
X130877688Y-35908083D01*
X131600000Y-36630395D01*
X132322312Y-35908083D01*
X132266138Y-35677074D01*
X131959075Y-35570115D01*
X132266138Y-35442926D01*
X132322312Y-35211917D01*
X131600000Y-34489605D01*
X130877688Y-35211917D01*
X130521021Y-35211917D01*
X130692124Y-35041113D01*
X130695990Y-35031803D01*
X130698083Y-35032312D01*
X131420395Y-34310000D01*
X131406253Y-34295858D01*
X131585858Y-34116253D01*
X131600000Y-34130395D01*
X131614143Y-34116253D01*
X131793748Y-34295858D01*
X131793748Y-34295858D01*
G37*
X131793748Y-34295858D02*
X131779605Y-34310000D01*
X132501917Y-35032312D01*
X132503586Y-35031906D01*
X132506602Y-35039206D01*
X132868887Y-35402124D01*
X133249446Y-35560146D01*
X132870794Y-35716602D01*
X132507876Y-36078887D01*
X132504010Y-36088197D01*
X132501917Y-36087688D01*
X131779605Y-36810000D01*
X131793748Y-36824143D01*
X131614143Y-37003748D01*
X131600000Y-36989605D01*
X131585858Y-37003748D01*
X131406253Y-36824143D01*
X131420395Y-36810000D01*
X130698083Y-36087688D01*
X130696414Y-36088094D01*
X130693398Y-36080794D01*
X130331113Y-35717876D01*
X129950554Y-35559854D01*
X130329206Y-35403398D01*
X130521021Y-35211917D01*
X130877688Y-35211917D01*
X130933862Y-35442926D01*
X131240925Y-35549885D01*
X130933862Y-35677074D01*
X130877688Y-35908083D01*
X131600000Y-36630395D01*
X132322312Y-35908083D01*
X132266138Y-35677074D01*
X131959075Y-35570115D01*
X132266138Y-35442926D01*
X132322312Y-35211917D01*
X131600000Y-34489605D01*
X130877688Y-35211917D01*
X130521021Y-35211917D01*
X130692124Y-35041113D01*
X130695990Y-35031803D01*
X130698083Y-35032312D01*
X131420395Y-34310000D01*
X131406253Y-34295858D01*
X131585858Y-34116253D01*
X131600000Y-34130395D01*
X131614143Y-34116253D01*
X131793748Y-34295858D01*
G36*
X127793748Y-34295858D02*
X127779605Y-34310000D01*
X128501917Y-35032312D01*
X128503586Y-35031906D01*
X128506602Y-35039206D01*
X128868887Y-35402124D01*
X129249446Y-35560146D01*
X128870794Y-35716602D01*
X128507876Y-36078887D01*
X128504010Y-36088197D01*
X128501917Y-36087688D01*
X127779605Y-36810000D01*
X127793748Y-36824143D01*
X127614143Y-37003748D01*
X127600000Y-36989605D01*
X127585858Y-37003748D01*
X127406253Y-36824143D01*
X127420395Y-36810000D01*
X126698083Y-36087688D01*
X126696414Y-36088094D01*
X126693398Y-36080794D01*
X126331113Y-35717876D01*
X125950554Y-35559854D01*
X126329206Y-35403398D01*
X126521021Y-35211917D01*
X126877688Y-35211917D01*
X126933862Y-35442926D01*
X127240925Y-35549885D01*
X126933862Y-35677074D01*
X126877688Y-35908083D01*
X127600000Y-36630395D01*
X128322312Y-35908083D01*
X128266138Y-35677074D01*
X127959075Y-35570115D01*
X128266138Y-35442926D01*
X128322312Y-35211917D01*
X127600000Y-34489605D01*
X126877688Y-35211917D01*
X126521021Y-35211917D01*
X126692124Y-35041113D01*
X126695990Y-35031803D01*
X126698083Y-35032312D01*
X127420395Y-34310000D01*
X127406253Y-34295858D01*
X127585858Y-34116253D01*
X127600000Y-34130395D01*
X127614143Y-34116253D01*
X127793748Y-34295858D01*
X127793748Y-34295858D01*
G37*
X127793748Y-34295858D02*
X127779605Y-34310000D01*
X128501917Y-35032312D01*
X128503586Y-35031906D01*
X128506602Y-35039206D01*
X128868887Y-35402124D01*
X129249446Y-35560146D01*
X128870794Y-35716602D01*
X128507876Y-36078887D01*
X128504010Y-36088197D01*
X128501917Y-36087688D01*
X127779605Y-36810000D01*
X127793748Y-36824143D01*
X127614143Y-37003748D01*
X127600000Y-36989605D01*
X127585858Y-37003748D01*
X127406253Y-36824143D01*
X127420395Y-36810000D01*
X126698083Y-36087688D01*
X126696414Y-36088094D01*
X126693398Y-36080794D01*
X126331113Y-35717876D01*
X125950554Y-35559854D01*
X126329206Y-35403398D01*
X126521021Y-35211917D01*
X126877688Y-35211917D01*
X126933862Y-35442926D01*
X127240925Y-35549885D01*
X126933862Y-35677074D01*
X126877688Y-35908083D01*
X127600000Y-36630395D01*
X128322312Y-35908083D01*
X128266138Y-35677074D01*
X127959075Y-35570115D01*
X128266138Y-35442926D01*
X128322312Y-35211917D01*
X127600000Y-34489605D01*
X126877688Y-35211917D01*
X126521021Y-35211917D01*
X126692124Y-35041113D01*
X126695990Y-35031803D01*
X126698083Y-35032312D01*
X127420395Y-34310000D01*
X127406253Y-34295858D01*
X127585858Y-34116253D01*
X127600000Y-34130395D01*
X127614143Y-34116253D01*
X127793748Y-34295858D01*
G36*
X123793748Y-34295858D02*
X123779605Y-34310000D01*
X124501917Y-35032312D01*
X124503586Y-35031906D01*
X124506602Y-35039206D01*
X124868887Y-35402124D01*
X125249446Y-35560146D01*
X124870794Y-35716602D01*
X124599845Y-35987078D01*
X124331113Y-35717876D01*
X123967181Y-35566758D01*
X124266138Y-35442926D01*
X124322312Y-35211917D01*
X123600000Y-34489605D01*
X123585858Y-34503748D01*
X123406253Y-34324143D01*
X123420395Y-34310000D01*
X123406253Y-34295858D01*
X123585858Y-34116253D01*
X123600000Y-34130395D01*
X123614143Y-34116253D01*
X123793748Y-34295858D01*
X123793748Y-34295858D01*
G37*
X123793748Y-34295858D02*
X123779605Y-34310000D01*
X124501917Y-35032312D01*
X124503586Y-35031906D01*
X124506602Y-35039206D01*
X124868887Y-35402124D01*
X125249446Y-35560146D01*
X124870794Y-35716602D01*
X124599845Y-35987078D01*
X124331113Y-35717876D01*
X123967181Y-35566758D01*
X124266138Y-35442926D01*
X124322312Y-35211917D01*
X123600000Y-34489605D01*
X123585858Y-34503748D01*
X123406253Y-34324143D01*
X123420395Y-34310000D01*
X123406253Y-34295858D01*
X123585858Y-34116253D01*
X123600000Y-34130395D01*
X123614143Y-34116253D01*
X123793748Y-34295858D01*
G36*
X139793748Y-34295858D02*
X139779605Y-34310000D01*
X140501917Y-35032312D01*
X140503586Y-35031906D01*
X140506602Y-35039206D01*
X140868887Y-35402124D01*
X141249446Y-35560146D01*
X140870794Y-35716602D01*
X140599845Y-35987078D01*
X140331113Y-35717876D01*
X139967181Y-35566758D01*
X140266138Y-35442926D01*
X140322312Y-35211917D01*
X139600000Y-34489605D01*
X138877688Y-35211917D01*
X138933862Y-35442926D01*
X139259024Y-35556189D01*
X138870794Y-35716602D01*
X138599845Y-35987078D01*
X138331113Y-35717876D01*
X137950554Y-35559854D01*
X138329206Y-35403398D01*
X138692124Y-35041113D01*
X138695990Y-35031803D01*
X138698083Y-35032312D01*
X139420395Y-34310000D01*
X139406253Y-34295858D01*
X139585858Y-34116253D01*
X139600000Y-34130395D01*
X139614143Y-34116253D01*
X139793748Y-34295858D01*
X139793748Y-34295858D01*
G37*
X139793748Y-34295858D02*
X139779605Y-34310000D01*
X140501917Y-35032312D01*
X140503586Y-35031906D01*
X140506602Y-35039206D01*
X140868887Y-35402124D01*
X141249446Y-35560146D01*
X140870794Y-35716602D01*
X140599845Y-35987078D01*
X140331113Y-35717876D01*
X139967181Y-35566758D01*
X140266138Y-35442926D01*
X140322312Y-35211917D01*
X139600000Y-34489605D01*
X138877688Y-35211917D01*
X138933862Y-35442926D01*
X139259024Y-35556189D01*
X138870794Y-35716602D01*
X138599845Y-35987078D01*
X138331113Y-35717876D01*
X137950554Y-35559854D01*
X138329206Y-35403398D01*
X138692124Y-35041113D01*
X138695990Y-35031803D01*
X138698083Y-35032312D01*
X139420395Y-34310000D01*
X139406253Y-34295858D01*
X139585858Y-34116253D01*
X139600000Y-34130395D01*
X139614143Y-34116253D01*
X139793748Y-34295858D01*
G36*
X142793748Y-32295858D02*
X142779605Y-32310000D01*
X143501917Y-33032312D01*
X143684509Y-32987911D01*
X144446638Y-33750040D01*
X144041548Y-33749686D01*
X143376057Y-34024662D01*
X142888825Y-34511044D01*
X142889223Y-34054727D01*
X142699437Y-33595409D01*
X142930069Y-33582130D01*
X143266138Y-33442926D01*
X143322312Y-33211917D01*
X142600000Y-32489605D01*
X142585858Y-32503748D01*
X142406253Y-32324143D01*
X142420395Y-32310000D01*
X142406253Y-32295858D01*
X142585858Y-32116253D01*
X142600000Y-32130395D01*
X142614143Y-32116253D01*
X142793748Y-32295858D01*
X142793748Y-32295858D01*
G37*
X142793748Y-32295858D02*
X142779605Y-32310000D01*
X143501917Y-33032312D01*
X143684509Y-32987911D01*
X144446638Y-33750040D01*
X144041548Y-33749686D01*
X143376057Y-34024662D01*
X142888825Y-34511044D01*
X142889223Y-34054727D01*
X142699437Y-33595409D01*
X142930069Y-33582130D01*
X143266138Y-33442926D01*
X143322312Y-33211917D01*
X142600000Y-32489605D01*
X142585858Y-32503748D01*
X142406253Y-32324143D01*
X142420395Y-32310000D01*
X142406253Y-32295858D01*
X142585858Y-32116253D01*
X142600000Y-32130395D01*
X142614143Y-32116253D01*
X142793748Y-32295858D01*
G36*
X113793748Y-34295858D02*
X113779605Y-34310000D01*
X113793748Y-34324143D01*
X113614143Y-34503748D01*
X113600000Y-34489605D01*
X113585858Y-34503748D01*
X113406253Y-34324143D01*
X113420395Y-34310000D01*
X113406253Y-34295858D01*
X113585858Y-34116253D01*
X113600000Y-34130395D01*
X113614143Y-34116253D01*
X113793748Y-34295858D01*
X113793748Y-34295858D01*
G37*
X113793748Y-34295858D02*
X113779605Y-34310000D01*
X113793748Y-34324143D01*
X113614143Y-34503748D01*
X113600000Y-34489605D01*
X113585858Y-34503748D01*
X113406253Y-34324143D01*
X113420395Y-34310000D01*
X113406253Y-34295858D01*
X113585858Y-34116253D01*
X113600000Y-34130395D01*
X113614143Y-34116253D01*
X113793748Y-34295858D01*
G36*
X117793748Y-34295858D02*
X117779605Y-34310000D01*
X117793748Y-34324143D01*
X117614143Y-34503748D01*
X117600000Y-34489605D01*
X117585858Y-34503748D01*
X117406253Y-34324143D01*
X117420395Y-34310000D01*
X117406253Y-34295858D01*
X117585858Y-34116253D01*
X117600000Y-34130395D01*
X117614143Y-34116253D01*
X117793748Y-34295858D01*
X117793748Y-34295858D01*
G37*
X117793748Y-34295858D02*
X117779605Y-34310000D01*
X117793748Y-34324143D01*
X117614143Y-34503748D01*
X117600000Y-34489605D01*
X117585858Y-34503748D01*
X117406253Y-34324143D01*
X117420395Y-34310000D01*
X117406253Y-34295858D01*
X117585858Y-34116253D01*
X117600000Y-34130395D01*
X117614143Y-34116253D01*
X117793748Y-34295858D01*
G36*
X121311186Y-32095988D02*
X121310777Y-32565273D01*
X121506602Y-33039206D01*
X121868887Y-33402124D01*
X122342477Y-33598776D01*
X122651378Y-33599045D01*
X122467074Y-33643862D01*
X122319015Y-34068919D01*
X122276621Y-34026451D01*
X121611611Y-33750315D01*
X120891548Y-33749686D01*
X120781902Y-33794991D01*
X120693398Y-33580794D01*
X120331113Y-33217876D01*
X119857523Y-33021224D01*
X119700440Y-33021087D01*
X119888776Y-32567523D01*
X119889223Y-32054727D01*
X119693398Y-31580794D01*
X119331113Y-31217876D01*
X118857523Y-31021224D01*
X118385615Y-31020813D01*
X118353602Y-30988800D01*
X120203998Y-30988800D01*
X121311186Y-32095988D01*
X121311186Y-32095988D01*
G37*
X121311186Y-32095988D02*
X121310777Y-32565273D01*
X121506602Y-33039206D01*
X121868887Y-33402124D01*
X122342477Y-33598776D01*
X122651378Y-33599045D01*
X122467074Y-33643862D01*
X122319015Y-34068919D01*
X122276621Y-34026451D01*
X121611611Y-33750315D01*
X120891548Y-33749686D01*
X120781902Y-33794991D01*
X120693398Y-33580794D01*
X120331113Y-33217876D01*
X119857523Y-33021224D01*
X119700440Y-33021087D01*
X119888776Y-32567523D01*
X119889223Y-32054727D01*
X119693398Y-31580794D01*
X119331113Y-31217876D01*
X118857523Y-31021224D01*
X118385615Y-31020813D01*
X118353602Y-30988800D01*
X120203998Y-30988800D01*
X121311186Y-32095988D01*
M02*
