%TF.GenerationSoftware,KiCad,Pcbnew,4.0.2+dfsg1-stable*%
%TF.CreationDate,2019-06-27T14:18:58+02:00*%
%TF.ProjectId,abex,616265782E6B696361645F7063620000,rev?*%
%TF.FileFunction,Profile,NP*%
%FSLAX46Y46*%
G04 Gerber Fmt 4.6, Leading zero omitted, Abs format (unit mm)*
G04 Created by KiCad (PCBNEW 4.0.2+dfsg1-stable) date gio 27 giu 2019 14:18:58 CEST*
%MOMM*%
G01*
G04 APERTURE LIST*
%ADD10C,0.100000*%
%ADD11C,0.150000*%
G04 APERTURE END LIST*
D10*
D11*
X196000000Y-22000000D02*
X177000000Y-22000000D01*
X196000000Y-110000000D02*
X196000000Y-22000000D01*
X177000000Y-110000000D02*
X196000000Y-110000000D01*
X53000000Y-22000000D02*
X74000000Y-22000000D01*
X53000000Y-109000000D02*
X53000000Y-22000000D01*
X74000000Y-109000000D02*
X53000000Y-109000000D01*
X74000000Y-22000000D02*
X76000000Y-22000000D01*
X76000000Y-109000000D02*
X74000000Y-109000000D01*
X76000000Y-22000000D02*
X177000000Y-22000000D01*
X82000000Y-109000000D02*
X76000000Y-109000000D01*
X82000000Y-158000000D02*
X82000000Y-109000000D01*
X85000000Y-161000000D02*
X82000000Y-158000000D01*
X85000000Y-184000000D02*
X85000000Y-161000000D01*
X106000000Y-184000000D02*
X85000000Y-184000000D01*
X106000000Y-164000000D02*
X106000000Y-184000000D01*
X126000000Y-164000000D02*
X106000000Y-164000000D01*
X126000000Y-184000000D02*
X126000000Y-164000000D01*
X170000000Y-110000000D02*
X177000000Y-110000000D01*
X170000000Y-117000000D02*
X170000000Y-110000000D01*
X170000000Y-158000000D02*
X170000000Y-117000000D01*
X167000000Y-161000000D02*
X170000000Y-158000000D01*
X167000000Y-184000000D02*
X167000000Y-161000000D01*
X126000000Y-184000000D02*
X167000000Y-184000000D01*
M02*
