%TF.GenerationSoftware,KiCad,Pcbnew,4.0.2+dfsg1-stable*%
%TF.CreationDate,2019-05-17T07:49:38+02:00*%
%TF.ProjectId,abex,616265782E6B696361645F7063620000,rev?*%
%TF.FileFunction,Soldermask,Top*%
%FSLAX46Y46*%
G04 Gerber Fmt 4.6, Leading zero omitted, Abs format (unit mm)*
G04 Created by KiCad (PCBNEW 4.0.2+dfsg1-stable) date Fri 17 May 2019 07:49:38 CEST*
%MOMM*%
G01*
G04 APERTURE LIST*
%ADD10C,0.100000*%
%ADD11R,2.400000X2.000000*%
%ADD12R,1.901140X3.399740*%
%ADD13R,2.330400X5.988000*%
%ADD14C,1.924000*%
%ADD15R,1.924000X1.924000*%
%ADD16R,2.200860X1.997660*%
%ADD17R,2.400000X2.900000*%
%ADD18R,0.800000X1.400000*%
%ADD19R,2.635200X2.635200*%
%ADD20C,3.400000*%
%ADD21R,2.432000X2.127200*%
%ADD22O,2.432000X2.127200*%
%ADD23R,2.000000X2.000000*%
%ADD24C,2.000000*%
%ADD25O,3.900000X3.900000*%
%ADD26R,2.305000X2.400000*%
%ADD27O,2.305000X2.400000*%
%ADD28R,1.708000X1.708000*%
%ADD29C,1.708000*%
%ADD30C,2.750000*%
%ADD31C,1.000000*%
G04 APERTURE END LIST*
D10*
D11*
X85630000Y-127000000D03*
X89630000Y-127000000D03*
X95980000Y-132080000D03*
X91980000Y-132080000D03*
D12*
X99060000Y-122461020D03*
X99060000Y-126458980D03*
D13*
X164330000Y-180652000D03*
X161790000Y-180652000D03*
X159250000Y-180652000D03*
X156710000Y-180652000D03*
X154170000Y-180652000D03*
X151630000Y-180652000D03*
X149090000Y-180652000D03*
X146550000Y-180652000D03*
X144010000Y-180652000D03*
X141470000Y-180652000D03*
X138930000Y-180652000D03*
X136390000Y-180652000D03*
X133850000Y-180652000D03*
X131310000Y-180652000D03*
X128770000Y-180652000D03*
D14*
X128220000Y-151074300D03*
X128220000Y-155925700D03*
X130760000Y-151074300D03*
X130760000Y-155925700D03*
X133300000Y-151074300D03*
X133300000Y-155925700D03*
X135840000Y-151074300D03*
X135840000Y-155925700D03*
X138380000Y-151074300D03*
X138380000Y-155925700D03*
X140920000Y-151074300D03*
X140920000Y-155925700D03*
X143460000Y-151074300D03*
X143460000Y-155925700D03*
X146000000Y-151074300D03*
X146000000Y-155925700D03*
X148540000Y-151074300D03*
X148540000Y-155925700D03*
X151080000Y-151074300D03*
X151080000Y-155925700D03*
X153620000Y-151074300D03*
X153620000Y-155925700D03*
X156160000Y-151074300D03*
X156160000Y-155925700D03*
X158700000Y-151074300D03*
X158700000Y-155925700D03*
X161240000Y-151074300D03*
X161240000Y-155925700D03*
D15*
X163780000Y-151074300D03*
D14*
X163780000Y-155925700D03*
D16*
X119000000Y-113580140D03*
X119000000Y-116419860D03*
D13*
X103022000Y-180690000D03*
X100482000Y-180690000D03*
X97942000Y-180690000D03*
X95402000Y-180690000D03*
X92862000Y-180690000D03*
X90322000Y-180690000D03*
X87782000Y-180690000D03*
D17*
X114000000Y-118000000D03*
X110000000Y-118000000D03*
X110000000Y-112000000D03*
X114000000Y-112000000D03*
X100000000Y-112000000D03*
X104000000Y-112000000D03*
D18*
X165485000Y-136800000D03*
X164835000Y-136800000D03*
X164185000Y-136800000D03*
X163535000Y-136800000D03*
X162885000Y-136800000D03*
X162235000Y-136800000D03*
X161585000Y-136800000D03*
X160935000Y-136800000D03*
X160285000Y-136800000D03*
X159635000Y-136800000D03*
X159635000Y-142600000D03*
X160285000Y-142600000D03*
X160935000Y-142600000D03*
X161585000Y-142600000D03*
X162235000Y-142600000D03*
X162885000Y-142600000D03*
X163535000Y-142600000D03*
X164185000Y-142600000D03*
X164835000Y-142600000D03*
X165485000Y-142600000D03*
X129925000Y-136800000D03*
X129275000Y-136800000D03*
X128625000Y-136800000D03*
X127975000Y-136800000D03*
X127325000Y-136800000D03*
X126675000Y-136800000D03*
X126025000Y-136800000D03*
X125375000Y-136800000D03*
X124725000Y-136800000D03*
X124075000Y-136800000D03*
X124075000Y-142600000D03*
X124725000Y-142600000D03*
X125375000Y-142600000D03*
X126025000Y-142600000D03*
X126675000Y-142600000D03*
X127325000Y-142600000D03*
X127975000Y-142600000D03*
X128625000Y-142600000D03*
X129275000Y-142600000D03*
X129925000Y-142600000D03*
X140085000Y-136800000D03*
X139435000Y-136800000D03*
X138785000Y-136800000D03*
X138135000Y-136800000D03*
X137485000Y-136800000D03*
X136835000Y-136800000D03*
X136185000Y-136800000D03*
X135535000Y-136800000D03*
X134885000Y-136800000D03*
X134235000Y-136800000D03*
X134235000Y-142600000D03*
X134885000Y-142600000D03*
X135535000Y-142600000D03*
X136185000Y-142600000D03*
X136835000Y-142600000D03*
X137485000Y-142600000D03*
X138135000Y-142600000D03*
X138785000Y-142600000D03*
X139435000Y-142600000D03*
X140085000Y-142600000D03*
X155325000Y-136800000D03*
X154675000Y-136800000D03*
X154025000Y-136800000D03*
X153375000Y-136800000D03*
X152725000Y-136800000D03*
X152075000Y-136800000D03*
X151425000Y-136800000D03*
X150775000Y-136800000D03*
X150125000Y-136800000D03*
X149475000Y-136800000D03*
X149475000Y-142600000D03*
X150125000Y-142600000D03*
X150775000Y-142600000D03*
X151425000Y-142600000D03*
X152075000Y-142600000D03*
X152725000Y-142600000D03*
X153375000Y-142600000D03*
X154025000Y-142600000D03*
X154675000Y-142600000D03*
X155325000Y-142600000D03*
D19*
X165000000Y-111000000D03*
X158000000Y-111000000D03*
D20*
X191000000Y-27000000D03*
X58000000Y-104000000D03*
X191000000Y-105000000D03*
X58000000Y-27000000D03*
D19*
X109000000Y-128000000D03*
X109000000Y-137000000D03*
D15*
X102870000Y-151257000D03*
D14*
X100330000Y-151257000D03*
X97790000Y-151257000D03*
X95250000Y-151257000D03*
X92710000Y-151257000D03*
X90170000Y-151257000D03*
X87630000Y-151257000D03*
X102870000Y-154817000D03*
X100330000Y-154817000D03*
X97790000Y-154817000D03*
X95250000Y-154817000D03*
X92710000Y-154817000D03*
X90170000Y-154817000D03*
X87630000Y-154817000D03*
D21*
X159000000Y-120000000D03*
D22*
X159000000Y-122540000D03*
X159000000Y-125080000D03*
X159000000Y-127620000D03*
D23*
X139700000Y-99060000D03*
D24*
X142200000Y-99060000D03*
D23*
X139700000Y-48260000D03*
D24*
X142200000Y-48260000D03*
D23*
X139700000Y-73660000D03*
D24*
X142200000Y-73660000D03*
D17*
X103600000Y-118110000D03*
X99600000Y-118110000D03*
D25*
X91440000Y-103990000D03*
D26*
X88900000Y-120650000D03*
D27*
X91440000Y-120650000D03*
X93980000Y-120650000D03*
D18*
X96905000Y-136800000D03*
X96255000Y-136800000D03*
X95605000Y-136800000D03*
X94955000Y-136800000D03*
X94305000Y-136800000D03*
X93655000Y-136800000D03*
X93005000Y-136800000D03*
X92355000Y-136800000D03*
X91705000Y-136800000D03*
X91055000Y-136800000D03*
X91055000Y-142600000D03*
X91705000Y-142600000D03*
X92355000Y-142600000D03*
X93005000Y-142600000D03*
X93655000Y-142600000D03*
X94305000Y-142600000D03*
X94955000Y-142600000D03*
X95605000Y-142600000D03*
X96255000Y-142600000D03*
X96905000Y-142600000D03*
D28*
X109600000Y-85110000D03*
D29*
X110600000Y-83110000D03*
X111600000Y-85110000D03*
X112600000Y-83110000D03*
X113600000Y-85110000D03*
X114600000Y-83110000D03*
X115600000Y-85110000D03*
X116600000Y-83110000D03*
X117600000Y-85110000D03*
X118600000Y-83110000D03*
X119600000Y-85110000D03*
X109600000Y-87610000D03*
X110600000Y-89610000D03*
X111600000Y-87610000D03*
X112600000Y-89610000D03*
X113600000Y-87610000D03*
X114600000Y-89610000D03*
X115600000Y-87610000D03*
X116600000Y-89610000D03*
X117600000Y-87610000D03*
X118600000Y-89610000D03*
X119600000Y-87610000D03*
X122600000Y-83110000D03*
X123600000Y-85110000D03*
X124600000Y-83110000D03*
X125600000Y-85110000D03*
X126600000Y-83110000D03*
X127600000Y-85110000D03*
X128600000Y-83110000D03*
X129600000Y-85110000D03*
X130600000Y-83110000D03*
X131600000Y-85110000D03*
X132600000Y-83110000D03*
X133600000Y-85110000D03*
X134600000Y-83110000D03*
X135600000Y-85110000D03*
X136600000Y-83110000D03*
X137600000Y-85110000D03*
X138600000Y-83110000D03*
X139600000Y-85110000D03*
X140600000Y-83110000D03*
X141600000Y-85110000D03*
X142600000Y-83110000D03*
X122600000Y-89610000D03*
X123600000Y-87610000D03*
X124600000Y-89610000D03*
X125600000Y-87610000D03*
X126600000Y-89610000D03*
X127600000Y-87610000D03*
X128600000Y-89610000D03*
X129600000Y-87610000D03*
X130600000Y-89610000D03*
X131600000Y-87610000D03*
X132600000Y-89610000D03*
X133600000Y-87610000D03*
X134600000Y-89610000D03*
X135600000Y-87610000D03*
X136600000Y-89610000D03*
X137600000Y-87610000D03*
X138600000Y-89610000D03*
X139600000Y-87610000D03*
X140600000Y-89610000D03*
X141600000Y-87610000D03*
X142600000Y-89610000D03*
D30*
X121250000Y-86360000D03*
X144400000Y-86360000D03*
D28*
X109600000Y-59710000D03*
D29*
X110600000Y-57710000D03*
X111600000Y-59710000D03*
X112600000Y-57710000D03*
X113600000Y-59710000D03*
X114600000Y-57710000D03*
X115600000Y-59710000D03*
X116600000Y-57710000D03*
X117600000Y-59710000D03*
X118600000Y-57710000D03*
X119600000Y-59710000D03*
X109600000Y-62210000D03*
X110600000Y-64210000D03*
X111600000Y-62210000D03*
X112600000Y-64210000D03*
X113600000Y-62210000D03*
X114600000Y-64210000D03*
X115600000Y-62210000D03*
X116600000Y-64210000D03*
X117600000Y-62210000D03*
X118600000Y-64210000D03*
X119600000Y-62210000D03*
X122600000Y-57710000D03*
X123600000Y-59710000D03*
X124600000Y-57710000D03*
X125600000Y-59710000D03*
X126600000Y-57710000D03*
X127600000Y-59710000D03*
X128600000Y-57710000D03*
X129600000Y-59710000D03*
X130600000Y-57710000D03*
X131600000Y-59710000D03*
X132600000Y-57710000D03*
X133600000Y-59710000D03*
X134600000Y-57710000D03*
X135600000Y-59710000D03*
X136600000Y-57710000D03*
X137600000Y-59710000D03*
X138600000Y-57710000D03*
X139600000Y-59710000D03*
X140600000Y-57710000D03*
X141600000Y-59710000D03*
X142600000Y-57710000D03*
X122600000Y-64210000D03*
X123600000Y-62210000D03*
X124600000Y-64210000D03*
X125600000Y-62210000D03*
X126600000Y-64210000D03*
X127600000Y-62210000D03*
X128600000Y-64210000D03*
X129600000Y-62210000D03*
X130600000Y-64210000D03*
X131600000Y-62210000D03*
X132600000Y-64210000D03*
X133600000Y-62210000D03*
X134600000Y-64210000D03*
X135600000Y-62210000D03*
X136600000Y-64210000D03*
X137600000Y-62210000D03*
X138600000Y-64210000D03*
X139600000Y-62210000D03*
X140600000Y-64210000D03*
X141600000Y-62210000D03*
X142600000Y-64210000D03*
D30*
X121250000Y-60960000D03*
X144400000Y-60960000D03*
D28*
X109600000Y-34310000D03*
D29*
X110600000Y-32310000D03*
X111600000Y-34310000D03*
X112600000Y-32310000D03*
X113600000Y-34310000D03*
X114600000Y-32310000D03*
X115600000Y-34310000D03*
X116600000Y-32310000D03*
X117600000Y-34310000D03*
X118600000Y-32310000D03*
X119600000Y-34310000D03*
X109600000Y-36810000D03*
X110600000Y-38810000D03*
X111600000Y-36810000D03*
X112600000Y-38810000D03*
X113600000Y-36810000D03*
X114600000Y-38810000D03*
X115600000Y-36810000D03*
X116600000Y-38810000D03*
X117600000Y-36810000D03*
X118600000Y-38810000D03*
X119600000Y-36810000D03*
X122600000Y-32310000D03*
X123600000Y-34310000D03*
X124600000Y-32310000D03*
X125600000Y-34310000D03*
X126600000Y-32310000D03*
X127600000Y-34310000D03*
X128600000Y-32310000D03*
X129600000Y-34310000D03*
X130600000Y-32310000D03*
X131600000Y-34310000D03*
X132600000Y-32310000D03*
X133600000Y-34310000D03*
X134600000Y-32310000D03*
X135600000Y-34310000D03*
X136600000Y-32310000D03*
X137600000Y-34310000D03*
X138600000Y-32310000D03*
X139600000Y-34310000D03*
X140600000Y-32310000D03*
X141600000Y-34310000D03*
X142600000Y-32310000D03*
X122600000Y-38810000D03*
X123600000Y-36810000D03*
X124600000Y-38810000D03*
X125600000Y-36810000D03*
X126600000Y-38810000D03*
X127600000Y-36810000D03*
X128600000Y-38810000D03*
X129600000Y-36810000D03*
X130600000Y-38810000D03*
X131600000Y-36810000D03*
X132600000Y-38810000D03*
X133600000Y-36810000D03*
X134600000Y-38810000D03*
X135600000Y-36810000D03*
X136600000Y-38810000D03*
X137600000Y-36810000D03*
X138600000Y-38810000D03*
X139600000Y-36810000D03*
X140600000Y-38810000D03*
X141600000Y-36810000D03*
X142600000Y-38810000D03*
D30*
X121250000Y-35560000D03*
X144400000Y-35560000D03*
D31*
X140007500Y-149207300D03*
X134631600Y-176919500D03*
X154675000Y-141536500D03*
X129086000Y-141535700D03*
X164877500Y-143676100D03*
X125993300Y-138380700D03*
X109233500Y-115391600D03*
X153618600Y-144810700D03*
X150743700Y-143664700D03*
X157672700Y-149330500D03*
X156628800Y-152519400D03*
X138545600Y-145835900D03*
X149684000Y-176888700D03*
X139311600Y-147816600D03*
X147306500Y-177002100D03*
X140505800Y-176555300D03*
X146920800Y-145335600D03*
X137230000Y-177045000D03*
X149090900Y-144897400D03*
X152759800Y-141536500D03*
X156987500Y-149865100D03*
X155496700Y-153528300D03*
X135839600Y-148510900D03*
X133901500Y-152968800D03*
X135557700Y-153997200D03*
X130760000Y-153781200D03*
X127744400Y-153173000D03*
X153680800Y-141509200D03*
X152926800Y-145565800D03*
X150160600Y-141541800D03*
X96284200Y-149484500D03*
X94517100Y-147367600D03*
X93862600Y-176438700D03*
X93795100Y-146837300D03*
X125138400Y-145152400D03*
X125375000Y-144243200D03*
X123463400Y-143475300D03*
X92894600Y-140981700D03*
X102443100Y-128487700D03*
X105620900Y-48021200D03*
X114756700Y-53244800D03*
X106087900Y-92923500D03*
X142274900Y-49621800D03*
X141024600Y-74906500D03*
X142263700Y-78773400D03*
X121841700Y-51066600D03*
X102734600Y-47345800D03*
X104130400Y-92007700D03*
X152262100Y-113871600D03*
X116781900Y-52760700D03*
X115074600Y-47627600D03*
X110985200Y-66134600D03*
X116338300Y-81778400D03*
X141153600Y-109242000D03*
X104381400Y-83792800D03*
X103079200Y-51260500D03*
X101374500Y-93247100D03*
X94813400Y-135720600D03*
X123364000Y-52454300D03*
X103057500Y-52192800D03*
X106246500Y-71932100D03*
X103514200Y-83453500D03*
X140463300Y-75550600D03*
X140795200Y-79773900D03*
X139391900Y-30646800D03*
X141371900Y-79071900D03*
X148197100Y-37520900D03*
X149304800Y-48923400D03*
X150015300Y-88176400D03*
X148148100Y-61712300D03*
X147640900Y-87083300D03*
X137065000Y-79821600D03*
X143934900Y-72411100D03*
X147898000Y-66655000D03*
X151103500Y-86612400D03*
X102535500Y-52873500D03*
X102244000Y-65939000D03*
X107970500Y-74929800D03*
X99843800Y-91874300D03*
X93936300Y-137872600D03*
X105840200Y-67984500D03*
X105746200Y-69835500D03*
X106921800Y-74855500D03*
X123009900Y-115721400D03*
X130259200Y-123503600D03*
X106480800Y-68659800D03*
X106350000Y-46371500D03*
X109384500Y-98025400D03*
X129930700Y-113520900D03*
X107903800Y-75825200D03*
X103827500Y-56308500D03*
X100958400Y-90690500D03*
X131683800Y-113952400D03*
X108356500Y-92850300D03*
X113312500Y-52654600D03*
X136760400Y-109849100D03*
X117385000Y-47292700D03*
X114175400Y-52500200D03*
X119668400Y-93665000D03*
X137485000Y-111707000D03*
X118072700Y-47922600D03*
X105609000Y-64232600D03*
X135717000Y-106140900D03*
X113679900Y-68172200D03*
X121249500Y-39020500D03*
X138757100Y-104421300D03*
X128052700Y-73027500D03*
X140029700Y-102950200D03*
X140981000Y-102555500D03*
X153093000Y-112224800D03*
X105785100Y-88392200D03*
X103064800Y-53615300D03*
X104384800Y-55620800D03*
X108873700Y-69626700D03*
X109328100Y-48713300D03*
X116400400Y-94369300D03*
X101636000Y-82655200D03*
X114614800Y-66964000D03*
X107802200Y-62392700D03*
X117164100Y-46286000D03*
X104378400Y-62921000D03*
X114166500Y-69353700D03*
X111716800Y-66634900D03*
X131748600Y-73720200D03*
X147581000Y-97580400D03*
X144596400Y-71869900D03*
X146369100Y-82025500D03*
X148647000Y-95937000D03*
X149235400Y-68034800D03*
X144951200Y-88763600D03*
X154114500Y-97957500D03*
X145895000Y-72481700D03*
X149798900Y-81629000D03*
X146484300Y-75975300D03*
X146592300Y-77404700D03*
X153829500Y-94248500D03*
X154293100Y-93313200D03*
X147878600Y-75330300D03*
X155458400Y-91846000D03*
X156767600Y-91744300D03*
X148569200Y-74161300D03*
X149271100Y-74662200D03*
X156869300Y-85719500D03*
X157062200Y-82732800D03*
X150109200Y-73055700D03*
X143748800Y-41800900D03*
X147941700Y-48530500D03*
X150821900Y-73567100D03*
X155849600Y-80613600D03*
X100000000Y-113822600D03*
X150486800Y-83453700D03*
X145816000Y-43851100D03*
X143130900Y-44166100D03*
X150013000Y-53459800D03*
X150714300Y-84463700D03*
X144628200Y-43168200D03*
X103987700Y-114714100D03*
M02*
