%TF.GenerationSoftware,KiCad,Pcbnew,4.0.2+dfsg1-stable*%
%TF.CreationDate,2019-05-17T07:49:38+02:00*%
%TF.ProjectId,abex,616265782E6B696361645F7063620000,rev?*%
%TF.FileFunction,Copper,L2,Bot,Signal*%
%FSLAX46Y46*%
G04 Gerber Fmt 4.6, Leading zero omitted, Abs format (unit mm)*
G04 Created by KiCad (PCBNEW 4.0.2+dfsg1-stable) date Fri 17 May 2019 07:49:38 CEST*
%MOMM*%
G01*
G04 APERTURE LIST*
%ADD10C,0.100000*%
%ADD11R,1.930400X5.588000*%
%ADD12C,1.524000*%
%ADD13R,1.524000X1.524000*%
%ADD14R,2.235200X2.235200*%
%ADD15R,2.032000X1.727200*%
%ADD16O,2.032000X1.727200*%
%ADD17R,1.600000X1.600000*%
%ADD18C,1.600000*%
%ADD19R,1.905000X2.000000*%
%ADD20O,1.905000X2.000000*%
%ADD21R,1.308000X1.308000*%
%ADD22C,1.308000*%
%ADD23C,0.600000*%
%ADD24C,0.250000*%
%ADD25C,0.254000*%
G04 APERTURE END LIST*
D10*
D11*
X164330000Y-180652000D03*
X161790000Y-180652000D03*
X159250000Y-180652000D03*
X156710000Y-180652000D03*
X154170000Y-180652000D03*
X151630000Y-180652000D03*
X149090000Y-180652000D03*
X146550000Y-180652000D03*
X144010000Y-180652000D03*
X141470000Y-180652000D03*
X138930000Y-180652000D03*
X136390000Y-180652000D03*
X133850000Y-180652000D03*
X131310000Y-180652000D03*
X128770000Y-180652000D03*
D12*
X128220000Y-151074300D03*
X128220000Y-155925700D03*
X130760000Y-151074300D03*
X130760000Y-155925700D03*
X133300000Y-151074300D03*
X133300000Y-155925700D03*
X135840000Y-151074300D03*
X135840000Y-155925700D03*
X138380000Y-151074300D03*
X138380000Y-155925700D03*
X140920000Y-151074300D03*
X140920000Y-155925700D03*
X143460000Y-151074300D03*
X143460000Y-155925700D03*
X146000000Y-151074300D03*
X146000000Y-155925700D03*
X148540000Y-151074300D03*
X148540000Y-155925700D03*
X151080000Y-151074300D03*
X151080000Y-155925700D03*
X153620000Y-151074300D03*
X153620000Y-155925700D03*
X156160000Y-151074300D03*
X156160000Y-155925700D03*
X158700000Y-151074300D03*
X158700000Y-155925700D03*
X161240000Y-151074300D03*
X161240000Y-155925700D03*
D13*
X163780000Y-151074300D03*
D12*
X163780000Y-155925700D03*
D11*
X103022000Y-180690000D03*
X100482000Y-180690000D03*
X97942000Y-180690000D03*
X95402000Y-180690000D03*
X92862000Y-180690000D03*
X90322000Y-180690000D03*
X87782000Y-180690000D03*
D14*
X165000000Y-111000000D03*
X158000000Y-111000000D03*
X109000000Y-128000000D03*
X109000000Y-137000000D03*
D13*
X102870000Y-151257000D03*
D12*
X100330000Y-151257000D03*
X97790000Y-151257000D03*
X95250000Y-151257000D03*
X92710000Y-151257000D03*
X90170000Y-151257000D03*
X87630000Y-151257000D03*
X102870000Y-154817000D03*
X100330000Y-154817000D03*
X97790000Y-154817000D03*
X95250000Y-154817000D03*
X92710000Y-154817000D03*
X90170000Y-154817000D03*
X87630000Y-154817000D03*
D15*
X159000000Y-120000000D03*
D16*
X159000000Y-122540000D03*
X159000000Y-125080000D03*
X159000000Y-127620000D03*
D17*
X139700000Y-99060000D03*
D18*
X142200000Y-99060000D03*
D17*
X139700000Y-48260000D03*
D18*
X142200000Y-48260000D03*
D17*
X139700000Y-73660000D03*
D18*
X142200000Y-73660000D03*
D19*
X88900000Y-120650000D03*
D20*
X91440000Y-120650000D03*
X93980000Y-120650000D03*
D21*
X109600000Y-85110000D03*
D22*
X110600000Y-83110000D03*
X111600000Y-85110000D03*
X112600000Y-83110000D03*
X113600000Y-85110000D03*
X114600000Y-83110000D03*
X115600000Y-85110000D03*
X116600000Y-83110000D03*
X117600000Y-85110000D03*
X118600000Y-83110000D03*
X119600000Y-85110000D03*
X109600000Y-87610000D03*
X110600000Y-89610000D03*
X111600000Y-87610000D03*
X112600000Y-89610000D03*
X113600000Y-87610000D03*
X114600000Y-89610000D03*
X115600000Y-87610000D03*
X116600000Y-89610000D03*
X117600000Y-87610000D03*
X118600000Y-89610000D03*
X119600000Y-87610000D03*
X122600000Y-83110000D03*
X123600000Y-85110000D03*
X124600000Y-83110000D03*
X125600000Y-85110000D03*
X126600000Y-83110000D03*
X127600000Y-85110000D03*
X128600000Y-83110000D03*
X129600000Y-85110000D03*
X130600000Y-83110000D03*
X131600000Y-85110000D03*
X132600000Y-83110000D03*
X133600000Y-85110000D03*
X134600000Y-83110000D03*
X135600000Y-85110000D03*
X136600000Y-83110000D03*
X137600000Y-85110000D03*
X138600000Y-83110000D03*
X139600000Y-85110000D03*
X140600000Y-83110000D03*
X141600000Y-85110000D03*
X142600000Y-83110000D03*
X122600000Y-89610000D03*
X123600000Y-87610000D03*
X124600000Y-89610000D03*
X125600000Y-87610000D03*
X126600000Y-89610000D03*
X127600000Y-87610000D03*
X128600000Y-89610000D03*
X129600000Y-87610000D03*
X130600000Y-89610000D03*
X131600000Y-87610000D03*
X132600000Y-89610000D03*
X133600000Y-87610000D03*
X134600000Y-89610000D03*
X135600000Y-87610000D03*
X136600000Y-89610000D03*
X137600000Y-87610000D03*
X138600000Y-89610000D03*
X139600000Y-87610000D03*
X140600000Y-89610000D03*
X141600000Y-87610000D03*
X142600000Y-89610000D03*
D21*
X109600000Y-59710000D03*
D22*
X110600000Y-57710000D03*
X111600000Y-59710000D03*
X112600000Y-57710000D03*
X113600000Y-59710000D03*
X114600000Y-57710000D03*
X115600000Y-59710000D03*
X116600000Y-57710000D03*
X117600000Y-59710000D03*
X118600000Y-57710000D03*
X119600000Y-59710000D03*
X109600000Y-62210000D03*
X110600000Y-64210000D03*
X111600000Y-62210000D03*
X112600000Y-64210000D03*
X113600000Y-62210000D03*
X114600000Y-64210000D03*
X115600000Y-62210000D03*
X116600000Y-64210000D03*
X117600000Y-62210000D03*
X118600000Y-64210000D03*
X119600000Y-62210000D03*
X122600000Y-57710000D03*
X123600000Y-59710000D03*
X124600000Y-57710000D03*
X125600000Y-59710000D03*
X126600000Y-57710000D03*
X127600000Y-59710000D03*
X128600000Y-57710000D03*
X129600000Y-59710000D03*
X130600000Y-57710000D03*
X131600000Y-59710000D03*
X132600000Y-57710000D03*
X133600000Y-59710000D03*
X134600000Y-57710000D03*
X135600000Y-59710000D03*
X136600000Y-57710000D03*
X137600000Y-59710000D03*
X138600000Y-57710000D03*
X139600000Y-59710000D03*
X140600000Y-57710000D03*
X141600000Y-59710000D03*
X142600000Y-57710000D03*
X122600000Y-64210000D03*
X123600000Y-62210000D03*
X124600000Y-64210000D03*
X125600000Y-62210000D03*
X126600000Y-64210000D03*
X127600000Y-62210000D03*
X128600000Y-64210000D03*
X129600000Y-62210000D03*
X130600000Y-64210000D03*
X131600000Y-62210000D03*
X132600000Y-64210000D03*
X133600000Y-62210000D03*
X134600000Y-64210000D03*
X135600000Y-62210000D03*
X136600000Y-64210000D03*
X137600000Y-62210000D03*
X138600000Y-64210000D03*
X139600000Y-62210000D03*
X140600000Y-64210000D03*
X141600000Y-62210000D03*
X142600000Y-64210000D03*
D21*
X109600000Y-34310000D03*
D22*
X110600000Y-32310000D03*
X111600000Y-34310000D03*
X112600000Y-32310000D03*
X113600000Y-34310000D03*
X114600000Y-32310000D03*
X115600000Y-34310000D03*
X116600000Y-32310000D03*
X117600000Y-34310000D03*
X118600000Y-32310000D03*
X119600000Y-34310000D03*
X109600000Y-36810000D03*
X110600000Y-38810000D03*
X111600000Y-36810000D03*
X112600000Y-38810000D03*
X113600000Y-36810000D03*
X114600000Y-38810000D03*
X115600000Y-36810000D03*
X116600000Y-38810000D03*
X117600000Y-36810000D03*
X118600000Y-38810000D03*
X119600000Y-36810000D03*
X122600000Y-32310000D03*
X123600000Y-34310000D03*
X124600000Y-32310000D03*
X125600000Y-34310000D03*
X126600000Y-32310000D03*
X127600000Y-34310000D03*
X128600000Y-32310000D03*
X129600000Y-34310000D03*
X130600000Y-32310000D03*
X131600000Y-34310000D03*
X132600000Y-32310000D03*
X133600000Y-34310000D03*
X134600000Y-32310000D03*
X135600000Y-34310000D03*
X136600000Y-32310000D03*
X137600000Y-34310000D03*
X138600000Y-32310000D03*
X139600000Y-34310000D03*
X140600000Y-32310000D03*
X141600000Y-34310000D03*
X142600000Y-32310000D03*
X122600000Y-38810000D03*
X123600000Y-36810000D03*
X124600000Y-38810000D03*
X125600000Y-36810000D03*
X126600000Y-38810000D03*
X127600000Y-36810000D03*
X128600000Y-38810000D03*
X129600000Y-36810000D03*
X130600000Y-38810000D03*
X131600000Y-36810000D03*
X132600000Y-38810000D03*
X133600000Y-36810000D03*
X134600000Y-38810000D03*
X135600000Y-36810000D03*
X136600000Y-38810000D03*
X137600000Y-36810000D03*
X138600000Y-38810000D03*
X139600000Y-36810000D03*
X140600000Y-38810000D03*
X141600000Y-36810000D03*
X142600000Y-38810000D03*
D23*
X140007500Y-149207300D03*
X134631600Y-176919500D03*
X154675000Y-141536500D03*
X129086000Y-141535700D03*
X164877500Y-143676100D03*
X125993300Y-138380700D03*
X109233500Y-115391600D03*
X153618600Y-144810700D03*
X150743700Y-143664700D03*
X157672700Y-149330500D03*
X156628800Y-152519400D03*
X138545600Y-145835900D03*
X149684000Y-176888700D03*
X139311600Y-147816600D03*
X147306500Y-177002100D03*
X140505800Y-176555300D03*
X146920800Y-145335600D03*
X137230000Y-177045000D03*
X149090900Y-144897400D03*
X152759800Y-141536500D03*
X156987500Y-149865100D03*
X155496700Y-153528300D03*
X135839600Y-148510900D03*
X133901500Y-152968800D03*
X135557700Y-153997200D03*
X130760000Y-153781200D03*
X127744400Y-153173000D03*
X153680800Y-141509200D03*
X152926800Y-145565800D03*
X150160600Y-141541800D03*
X96284200Y-149484500D03*
X94517100Y-147367600D03*
X93862600Y-176438700D03*
X93795100Y-146837300D03*
X125138400Y-145152400D03*
X125375000Y-144243200D03*
X123463400Y-143475300D03*
X92894600Y-140981700D03*
X102443100Y-128487700D03*
X105620900Y-48021200D03*
X114756700Y-53244800D03*
X106087900Y-92923500D03*
X142274900Y-49621800D03*
X141024600Y-74906500D03*
X142263700Y-78773400D03*
X121841700Y-51066600D03*
X102734600Y-47345800D03*
X104130400Y-92007700D03*
X152262100Y-113871600D03*
X116781900Y-52760700D03*
X115074600Y-47627600D03*
X110985200Y-66134600D03*
X116338300Y-81778400D03*
X141153600Y-109242000D03*
X104381400Y-83792800D03*
X103079200Y-51260500D03*
X101374500Y-93247100D03*
X94813400Y-135720600D03*
X123364000Y-52454300D03*
X103057500Y-52192800D03*
X106246500Y-71932100D03*
X103514200Y-83453500D03*
X140463300Y-75550600D03*
X140795200Y-79773900D03*
X139391900Y-30646800D03*
X141371900Y-79071900D03*
X148197100Y-37520900D03*
X149304800Y-48923400D03*
X150015300Y-88176400D03*
X148148100Y-61712300D03*
X147640900Y-87083300D03*
X137065000Y-79821600D03*
X143934900Y-72411100D03*
X147898000Y-66655000D03*
X151103500Y-86612400D03*
X102535500Y-52873500D03*
X102244000Y-65939000D03*
X107970500Y-74929800D03*
X99843800Y-91874300D03*
X93936300Y-137872600D03*
X105840200Y-67984500D03*
X105746200Y-69835500D03*
X106921800Y-74855500D03*
X123009900Y-115721400D03*
X130259200Y-123503600D03*
X106480800Y-68659800D03*
X106350000Y-46371500D03*
X109384500Y-98025400D03*
X129930700Y-113520900D03*
X107903800Y-75825200D03*
X103827500Y-56308500D03*
X100958400Y-90690500D03*
X131683800Y-113952400D03*
X108356500Y-92850300D03*
X113312500Y-52654600D03*
X136760400Y-109849100D03*
X117385000Y-47292700D03*
X114175400Y-52500200D03*
X119668400Y-93665000D03*
X137485000Y-111707000D03*
X118072700Y-47922600D03*
X105609000Y-64232600D03*
X135717000Y-106140900D03*
X113679900Y-68172200D03*
X121249500Y-39020500D03*
X138757100Y-104421300D03*
X128052700Y-73027500D03*
X140029700Y-102950200D03*
X140981000Y-102555500D03*
X153093000Y-112224800D03*
X105785100Y-88392200D03*
X103064800Y-53615300D03*
X104384800Y-55620800D03*
X108873700Y-69626700D03*
X109328100Y-48713300D03*
X116400400Y-94369300D03*
X101636000Y-82655200D03*
X114614800Y-66964000D03*
X107802200Y-62392700D03*
X117164100Y-46286000D03*
X104378400Y-62921000D03*
X114166500Y-69353700D03*
X111716800Y-66634900D03*
X131748600Y-73720200D03*
X147581000Y-97580400D03*
X144596400Y-71869900D03*
X146369100Y-82025500D03*
X148647000Y-95937000D03*
X149235400Y-68034800D03*
X144951200Y-88763600D03*
X154114500Y-97957500D03*
X145895000Y-72481700D03*
X149798900Y-81629000D03*
X146484300Y-75975300D03*
X146592300Y-77404700D03*
X153829500Y-94248500D03*
X154293100Y-93313200D03*
X147878600Y-75330300D03*
X155458400Y-91846000D03*
X156767600Y-91744300D03*
X148569200Y-74161300D03*
X149271100Y-74662200D03*
X156869300Y-85719500D03*
X157062200Y-82732800D03*
X150109200Y-73055700D03*
X143748800Y-41800900D03*
X147941700Y-48530500D03*
X150821900Y-73567100D03*
X155849600Y-80613600D03*
X100000000Y-113822600D03*
X150486800Y-83453700D03*
X145816000Y-43851100D03*
X143130900Y-44166100D03*
X150013000Y-53459800D03*
X150714300Y-84463700D03*
X144628200Y-43168200D03*
X103987700Y-114714100D03*
D24*
X138611800Y-149207300D02*
X140007500Y-149207300D01*
X136977400Y-150841700D02*
X138611800Y-149207300D01*
X136977400Y-151545500D02*
X136977400Y-150841700D01*
X136305300Y-152217600D02*
X136977400Y-151545500D01*
X134443300Y-152217600D02*
X136305300Y-152217600D01*
X133300000Y-151074300D02*
X134443300Y-152217600D01*
X133850000Y-180652000D02*
X133850000Y-177482700D01*
X134068400Y-177482700D02*
X134631600Y-176919500D01*
X133850000Y-177482700D02*
X134068400Y-177482700D01*
X87782000Y-180690000D02*
X87782000Y-177520700D01*
X87630000Y-152984700D02*
X87630000Y-151257000D01*
X88830100Y-154184800D02*
X87630000Y-152984700D01*
X88830100Y-176472600D02*
X88830100Y-154184800D01*
X87782000Y-177520700D02*
X88830100Y-176472600D01*
X101887000Y-137000000D02*
X109000000Y-137000000D01*
X87630000Y-151257000D02*
X101887000Y-137000000D01*
X109000000Y-137000000D02*
X110492900Y-137000000D01*
X129086000Y-141291700D02*
X129086000Y-141535700D01*
X114784600Y-141291700D02*
X129086000Y-141291700D01*
X110492900Y-137000000D02*
X114784600Y-141291700D01*
X153944000Y-140805500D02*
X154675000Y-141536500D01*
X129572200Y-140805500D02*
X153944000Y-140805500D01*
X129086000Y-141291700D02*
X129572200Y-140805500D01*
X162737900Y-141536500D02*
X154675000Y-141536500D01*
X164877500Y-143676100D02*
X162737900Y-141536500D01*
X118144300Y-34310000D02*
X117600000Y-34310000D01*
X119175100Y-33279200D02*
X118144300Y-34310000D01*
X121569200Y-33279200D02*
X119175100Y-33279200D01*
X122600000Y-34310000D02*
X121569200Y-33279200D01*
X123600000Y-34310000D02*
X122600000Y-34310000D01*
X114144300Y-34310000D02*
X113600000Y-34310000D01*
X115175100Y-33279200D02*
X114144300Y-34310000D01*
X116113500Y-33279200D02*
X115175100Y-33279200D01*
X117144300Y-34310000D02*
X116113500Y-33279200D01*
X117600000Y-34310000D02*
X117144300Y-34310000D01*
X110144300Y-34310000D02*
X109600000Y-34310000D01*
X111175100Y-33279200D02*
X110144300Y-34310000D01*
X112113500Y-33279200D02*
X111175100Y-33279200D01*
X113144300Y-34310000D02*
X112113500Y-33279200D01*
X113600000Y-34310000D02*
X113144300Y-34310000D01*
X132144300Y-59710000D02*
X131600000Y-59710000D01*
X133175100Y-58679200D02*
X132144300Y-59710000D01*
X134113500Y-58679200D02*
X133175100Y-58679200D01*
X135144300Y-59710000D02*
X134113500Y-58679200D01*
X135600000Y-59710000D02*
X135144300Y-59710000D01*
X128144300Y-59710000D02*
X127600000Y-59710000D01*
X129175100Y-58679200D02*
X128144300Y-59710000D01*
X130113500Y-58679200D02*
X129175100Y-58679200D01*
X131144300Y-59710000D02*
X130113500Y-58679200D01*
X131600000Y-59710000D02*
X131144300Y-59710000D01*
X110144300Y-59710000D02*
X109600000Y-59710000D01*
X111175100Y-58679200D02*
X110144300Y-59710000D01*
X112113500Y-58679200D02*
X111175100Y-58679200D01*
X113144300Y-59710000D02*
X112113500Y-58679200D01*
X113600000Y-59710000D02*
X113144300Y-59710000D01*
X128144300Y-85110000D02*
X127600000Y-85110000D01*
X129175100Y-84079200D02*
X128144300Y-85110000D01*
X130113500Y-84079200D02*
X129175100Y-84079200D01*
X131144300Y-85110000D02*
X130113500Y-84079200D01*
X131600000Y-85110000D02*
X131144300Y-85110000D01*
X140144300Y-85110000D02*
X139600000Y-85110000D01*
X142144300Y-83110000D02*
X140144300Y-85110000D01*
X142600000Y-83110000D02*
X142144300Y-83110000D01*
X142939000Y-74399000D02*
X142200000Y-73660000D01*
X142939000Y-82771000D02*
X142939000Y-74399000D01*
X142600000Y-83110000D02*
X142939000Y-82771000D01*
X108253600Y-128000000D02*
X107507100Y-128000000D01*
X108253600Y-128000000D02*
X109000000Y-128000000D01*
X109000000Y-128000000D02*
X110492900Y-128000000D01*
X135483500Y-120000000D02*
X125993300Y-129490200D01*
X159000000Y-120000000D02*
X135483500Y-120000000D01*
X111983100Y-129490200D02*
X110492900Y-128000000D01*
X125993300Y-129490200D02*
X111983100Y-129490200D01*
X124144300Y-34310000D02*
X123600000Y-34310000D01*
X125175100Y-33279200D02*
X124144300Y-34310000D01*
X126113500Y-33279200D02*
X125175100Y-33279200D01*
X127144300Y-34310000D02*
X126113500Y-33279200D01*
X127600000Y-34310000D02*
X127144300Y-34310000D01*
X125993300Y-129490200D02*
X125993300Y-138380700D01*
X136144300Y-59710000D02*
X135600000Y-59710000D01*
X137175100Y-58679200D02*
X136144300Y-59710000D01*
X138113500Y-58679200D02*
X137175100Y-58679200D01*
X139144300Y-59710000D02*
X138113500Y-58679200D01*
X139600000Y-59710000D02*
X139144300Y-59710000D01*
X140144300Y-59710000D02*
X139600000Y-59710000D01*
X142144300Y-57710000D02*
X140144300Y-59710000D01*
X142600000Y-57710000D02*
X142144300Y-57710000D01*
X118144300Y-85110000D02*
X117600000Y-85110000D01*
X119175100Y-84079200D02*
X118144300Y-85110000D01*
X121569200Y-84079200D02*
X119175100Y-84079200D01*
X122600000Y-85110000D02*
X121569200Y-84079200D01*
X123600000Y-85110000D02*
X122600000Y-85110000D01*
X131600000Y-35734200D02*
X131600000Y-36810000D01*
X128675800Y-35734200D02*
X127600000Y-36810000D01*
X131600000Y-35734200D02*
X128675800Y-35734200D01*
X127600000Y-34658400D02*
X127600000Y-34310000D01*
X128675800Y-35734200D02*
X127600000Y-34658400D01*
X131994500Y-35339700D02*
X131600000Y-35734200D01*
X131600000Y-34945200D02*
X131994500Y-35339700D01*
X131600000Y-34310000D02*
X131600000Y-34945200D01*
X131994500Y-35339700D02*
X135600000Y-35339700D01*
X135600000Y-35339700D02*
X135600000Y-34310000D01*
X135600000Y-36810000D02*
X135600000Y-35339700D01*
X140144300Y-34310000D02*
X139600000Y-34310000D01*
X142144300Y-32310000D02*
X140144300Y-34310000D01*
X142600000Y-32310000D02*
X142144300Y-32310000D01*
X138570300Y-35339700D02*
X135600000Y-35339700D01*
X139600000Y-34310000D02*
X138570300Y-35339700D01*
X114144300Y-85110000D02*
X113600000Y-85110000D01*
X115175100Y-84079200D02*
X114144300Y-85110000D01*
X116113500Y-84079200D02*
X115175100Y-84079200D01*
X117144300Y-85110000D02*
X116113500Y-84079200D01*
X117600000Y-85110000D02*
X117144300Y-85110000D01*
X110144300Y-85110000D02*
X109600000Y-85110000D01*
X111175100Y-84079200D02*
X110144300Y-85110000D01*
X112113500Y-84079200D02*
X111175100Y-84079200D01*
X113144300Y-85110000D02*
X112113500Y-84079200D01*
X113600000Y-85110000D02*
X113144300Y-85110000D01*
X118144300Y-59710000D02*
X117600000Y-59710000D01*
X119175100Y-58679200D02*
X118144300Y-59710000D01*
X121569200Y-58679200D02*
X119175100Y-58679200D01*
X122600000Y-59710000D02*
X121569200Y-58679200D01*
X123600000Y-59710000D02*
X122600000Y-59710000D01*
X114144300Y-59710000D02*
X113600000Y-59710000D01*
X115175100Y-58679200D02*
X114144300Y-59710000D01*
X116113500Y-58679200D02*
X115175100Y-58679200D01*
X117144300Y-59710000D02*
X116113500Y-58679200D01*
X117600000Y-59710000D02*
X117144300Y-59710000D01*
X142950300Y-57359700D02*
X142600000Y-57710000D01*
X142950300Y-49010300D02*
X142950300Y-57359700D01*
X142200000Y-48260000D02*
X142950300Y-49010300D01*
X98602400Y-127812400D02*
X91440000Y-120650000D01*
X107319500Y-127812400D02*
X98602400Y-127812400D01*
X107507100Y-128000000D02*
X107319500Y-127812400D01*
X93980000Y-120650000D02*
X95307800Y-120650000D01*
X100566200Y-115391600D02*
X109233500Y-115391600D01*
X95307800Y-120650000D02*
X100566200Y-115391600D01*
X154117000Y-144810700D02*
X153618600Y-144810700D01*
X159970000Y-150663700D02*
X154117000Y-144810700D01*
X159970000Y-151636600D02*
X159970000Y-150663700D01*
X163780000Y-155446600D02*
X159970000Y-151636600D01*
X163780000Y-155925700D02*
X163780000Y-155446600D01*
X163780000Y-151074300D02*
X162642700Y-151074300D01*
X164330000Y-180652000D02*
X164330000Y-177482700D01*
X163780000Y-151074300D02*
X163780000Y-152211600D01*
X165417600Y-153849200D02*
X163780000Y-152211600D01*
X165417600Y-176395100D02*
X165417600Y-153849200D01*
X164330000Y-177482700D02*
X165417600Y-176395100D01*
X162642700Y-150861100D02*
X162642700Y-151074300D01*
X155446300Y-143664700D02*
X162642700Y-150861100D01*
X150743700Y-143664700D02*
X155446300Y-143664700D01*
X161790000Y-159623300D02*
X161790000Y-180652000D01*
X164917300Y-156496000D02*
X161790000Y-159623300D01*
X164917300Y-154751600D02*
X164917300Y-156496000D01*
X161240000Y-151074300D02*
X164917300Y-154751600D01*
X158700000Y-150357800D02*
X158700000Y-151074300D01*
X157672700Y-149330500D02*
X158700000Y-150357800D01*
X159880000Y-176852700D02*
X159250000Y-177482700D01*
X159880000Y-152254300D02*
X159880000Y-176852700D01*
X158700000Y-151074300D02*
X159880000Y-152254300D01*
X159250000Y-180652000D02*
X159250000Y-177482700D01*
X157340000Y-176852700D02*
X156710000Y-177482700D01*
X157340000Y-152254300D02*
X157340000Y-176852700D01*
X156160000Y-151074300D02*
X157340000Y-152254300D01*
X156710000Y-180652000D02*
X156710000Y-177482700D01*
X154170000Y-180652000D02*
X154170000Y-177482700D01*
X154800000Y-152519400D02*
X156628800Y-152519400D01*
X154800000Y-176852700D02*
X154800000Y-152519400D01*
X154170000Y-177482700D02*
X154800000Y-176852700D01*
X154800000Y-152254300D02*
X153620000Y-151074300D01*
X154800000Y-152519400D02*
X154800000Y-152254300D01*
X152260000Y-176852700D02*
X151630000Y-177482700D01*
X152260000Y-152254300D02*
X152260000Y-176852700D01*
X151080000Y-151074300D02*
X152260000Y-152254300D01*
X151630000Y-180652000D02*
X151630000Y-177482700D01*
X149090000Y-180652000D02*
X149090000Y-177482700D01*
X143301600Y-145835900D02*
X138545600Y-145835900D01*
X148540000Y-151074300D02*
X143301600Y-145835900D01*
X149090000Y-177482700D02*
X149684000Y-176888700D01*
X146825900Y-177482700D02*
X147306500Y-177002100D01*
X146550000Y-177482700D02*
X146825900Y-177482700D01*
X146550000Y-180652000D02*
X146550000Y-177482700D01*
X142742300Y-147816600D02*
X139311600Y-147816600D01*
X146000000Y-151074300D02*
X142742300Y-147816600D01*
X144010000Y-171920600D02*
X144010000Y-180652000D01*
X149680800Y-166249800D02*
X144010000Y-171920600D01*
X149680800Y-155427000D02*
X149680800Y-166249800D01*
X146465500Y-152211700D02*
X149680800Y-155427000D01*
X144597400Y-152211700D02*
X146465500Y-152211700D01*
X143460000Y-151074300D02*
X144597400Y-152211700D01*
X141433200Y-177482700D02*
X141470000Y-177482700D01*
X140505800Y-176555300D02*
X141433200Y-177482700D01*
X141470000Y-180652000D02*
X141470000Y-177482700D01*
X138930000Y-180652000D02*
X138930000Y-177482700D01*
X139087600Y-151074300D02*
X138380000Y-151074300D01*
X141513400Y-153500100D02*
X139087600Y-151074300D01*
X145198200Y-153500100D02*
X141513400Y-153500100D01*
X147140500Y-155442400D02*
X145198200Y-153500100D01*
X147140500Y-158772600D02*
X147140500Y-155442400D01*
X138930000Y-166983100D02*
X147140500Y-158772600D01*
X138930000Y-177482700D02*
X138930000Y-166983100D01*
X135164300Y-150398600D02*
X135840000Y-151074300D01*
X135164300Y-148230900D02*
X135164300Y-150398600D01*
X138234700Y-145160500D02*
X135164300Y-148230900D01*
X146745700Y-145160500D02*
X138234700Y-145160500D01*
X146920800Y-145335600D02*
X146745700Y-145160500D01*
X136792300Y-177482700D02*
X137230000Y-177045000D01*
X136390000Y-177482700D02*
X136792300Y-177482700D01*
X136390000Y-180652000D02*
X136390000Y-177482700D01*
X130760000Y-151112400D02*
X130760000Y-151074300D01*
X127078800Y-154793600D02*
X130760000Y-151112400D01*
X127078800Y-162818000D02*
X127078800Y-154793600D01*
X131310000Y-167049200D02*
X127078800Y-162818000D01*
X131310000Y-180652000D02*
X131310000Y-167049200D01*
X148310700Y-144117200D02*
X149090900Y-144897400D01*
X137717100Y-144117200D02*
X148310700Y-144117200D01*
X130760000Y-151074300D02*
X137717100Y-144117200D01*
X137077200Y-142217100D02*
X128220000Y-151074300D01*
X152079200Y-142217100D02*
X137077200Y-142217100D01*
X152759800Y-141536500D02*
X152079200Y-142217100D01*
X126576200Y-175288900D02*
X128770000Y-177482700D01*
X126576200Y-152718100D02*
X126576200Y-175288900D01*
X128220000Y-151074300D02*
X126576200Y-152718100D01*
X128770000Y-180652000D02*
X128770000Y-177482700D01*
X158700000Y-152794700D02*
X158700000Y-155925700D01*
X157448200Y-151542900D02*
X158700000Y-152794700D01*
X157448200Y-150325800D02*
X157448200Y-151542900D01*
X156987500Y-149865100D02*
X157448200Y-150325800D01*
X156160000Y-154191600D02*
X155496700Y-153528300D01*
X156160000Y-155925700D02*
X156160000Y-154191600D01*
X140266200Y-148510900D02*
X135839600Y-148510900D01*
X142190000Y-150434700D02*
X140266200Y-148510900D01*
X142190000Y-151469200D02*
X142190000Y-150434700D01*
X143432900Y-152712100D02*
X142190000Y-151469200D01*
X145326400Y-152712100D02*
X143432900Y-152712100D01*
X148540000Y-155925700D02*
X145326400Y-152712100D01*
X144074800Y-154000500D02*
X146000000Y-155925700D01*
X141306200Y-154000500D02*
X144074800Y-154000500D01*
X140274500Y-152968800D02*
X141306200Y-154000500D01*
X133901500Y-152968800D02*
X140274500Y-152968800D01*
X142252000Y-154717700D02*
X143460000Y-155925700D01*
X136278200Y-154717700D02*
X142252000Y-154717700D01*
X135557700Y-153997200D02*
X136278200Y-154717700D01*
X133695500Y-153781200D02*
X135840000Y-155925700D01*
X130760000Y-153781200D02*
X133695500Y-153781200D01*
X153680800Y-141574800D02*
X153680800Y-141509200D01*
X152538200Y-142717400D02*
X153680800Y-141574800D01*
X137499100Y-142717400D02*
X152538200Y-142717400D01*
X129490000Y-150726500D02*
X137499100Y-142717400D01*
X129490000Y-151427400D02*
X129490000Y-150726500D01*
X127744400Y-153173000D02*
X129490000Y-151427400D01*
X152872300Y-145620300D02*
X152926800Y-145565800D01*
X148555000Y-145620300D02*
X152872300Y-145620300D01*
X147594900Y-144660200D02*
X148555000Y-145620300D01*
X138022500Y-144660200D02*
X147594900Y-144660200D01*
X132030000Y-150652700D02*
X138022500Y-144660200D01*
X132030000Y-151556200D02*
X132030000Y-150652700D01*
X128220000Y-155366200D02*
X132030000Y-151556200D01*
X128220000Y-155925700D02*
X128220000Y-155366200D01*
X130144300Y-62210000D02*
X129600000Y-62210000D01*
X131175100Y-63240800D02*
X130144300Y-62210000D01*
X132113500Y-63240800D02*
X131175100Y-63240800D01*
X133144300Y-62210000D02*
X132113500Y-63240800D01*
X133600000Y-62210000D02*
X133144300Y-62210000D01*
X139700000Y-73660000D02*
X140875300Y-73660000D01*
X116641800Y-86151800D02*
X115600000Y-85110000D01*
X118558200Y-86151800D02*
X116641800Y-86151800D01*
X119600000Y-85110000D02*
X118558200Y-86151800D01*
X111998000Y-85110000D02*
X111600000Y-85110000D01*
X113027400Y-86139400D02*
X111998000Y-85110000D01*
X114570600Y-86139400D02*
X113027400Y-86139400D01*
X115600000Y-85110000D02*
X114570600Y-86139400D01*
X136506300Y-86203700D02*
X137600000Y-85110000D01*
X133600000Y-86203700D02*
X136506300Y-86203700D01*
X133600000Y-85110000D02*
X133600000Y-86203700D01*
X130680300Y-86529700D02*
X129600000Y-87610000D01*
X133600000Y-86529700D02*
X130680300Y-86529700D01*
X133600000Y-86203700D02*
X133600000Y-86529700D01*
X133600000Y-86529700D02*
X133600000Y-87610000D01*
X116641800Y-60751800D02*
X115600000Y-59710000D01*
X118558200Y-60751800D02*
X116641800Y-60751800D01*
X119600000Y-59710000D02*
X118558200Y-60751800D01*
X112629400Y-60739400D02*
X111600000Y-59710000D01*
X114570600Y-60739400D02*
X112629400Y-60739400D01*
X115600000Y-59710000D02*
X114570600Y-60739400D01*
X116641000Y-35351000D02*
X115600000Y-34310000D01*
X118559000Y-35351000D02*
X116641000Y-35351000D01*
X119600000Y-34310000D02*
X118559000Y-35351000D01*
X142096300Y-85110000D02*
X141600000Y-85110000D01*
X143640300Y-83566000D02*
X142096300Y-85110000D01*
X143640300Y-73394000D02*
X143640300Y-83566000D01*
X142729500Y-72483200D02*
X143640300Y-73394000D01*
X141684800Y-72483200D02*
X142729500Y-72483200D01*
X140875300Y-73292700D02*
X141684800Y-72483200D01*
X140875300Y-73660000D02*
X140875300Y-73292700D01*
X142067600Y-59710000D02*
X141600000Y-59710000D01*
X143635800Y-58141800D02*
X142067600Y-59710000D01*
X143635800Y-47927600D02*
X143635800Y-58141800D01*
X142778100Y-47069900D02*
X143635800Y-47927600D01*
X141698100Y-47069900D02*
X142778100Y-47069900D01*
X140875300Y-47892700D02*
X141698100Y-47069900D01*
X140875300Y-48260000D02*
X140875300Y-47892700D01*
X139700000Y-48260000D02*
X140875300Y-48260000D01*
X137055800Y-34310000D02*
X137600000Y-34310000D01*
X136025000Y-33279200D02*
X137055800Y-34310000D01*
X135086600Y-33279200D02*
X136025000Y-33279200D01*
X134055800Y-34310000D02*
X135086600Y-33279200D01*
X133600000Y-34310000D02*
X134055800Y-34310000D01*
X102870000Y-151257000D02*
X102870000Y-151825600D01*
X104058400Y-176484300D02*
X103022000Y-177520700D01*
X104058400Y-151825600D02*
X104058400Y-176484300D01*
X102870000Y-151825600D02*
X104058400Y-151825600D01*
X134621100Y-141541800D02*
X150160600Y-141541800D01*
X124337300Y-151825600D02*
X134621100Y-141541800D01*
X104058400Y-151825600D02*
X124337300Y-151825600D01*
X103022000Y-180690000D02*
X103022000Y-177520700D01*
X101530100Y-176472600D02*
X100482000Y-177520700D01*
X101530100Y-152457100D02*
X101530100Y-176472600D01*
X100330000Y-151257000D02*
X101530100Y-152457100D01*
X100482000Y-180690000D02*
X100482000Y-177520700D01*
X98990100Y-176472600D02*
X97942000Y-177520700D01*
X98990100Y-152457100D02*
X98990100Y-176472600D01*
X97790000Y-151257000D02*
X98990100Y-152457100D01*
X97942000Y-180690000D02*
X97942000Y-177520700D01*
X95250000Y-150518700D02*
X96284200Y-149484500D01*
X95250000Y-151257000D02*
X95250000Y-150518700D01*
X95402000Y-176349300D02*
X95402000Y-180690000D01*
X94112600Y-175059900D02*
X95402000Y-176349300D01*
X94112600Y-152394400D02*
X94112600Y-175059900D01*
X95250000Y-151257000D02*
X94112600Y-152394400D01*
X92710000Y-149174700D02*
X94517100Y-147367600D01*
X92710000Y-151257000D02*
X92710000Y-149174700D01*
X92862000Y-177439300D02*
X93862600Y-176438700D01*
X92862000Y-180690000D02*
X92862000Y-177439300D01*
X90322000Y-180690000D02*
X90322000Y-177520700D01*
X91370100Y-152457100D02*
X90170000Y-151257000D01*
X91370100Y-176472600D02*
X91370100Y-152457100D01*
X90322000Y-177520700D02*
X91370100Y-176472600D01*
X90170000Y-150462400D02*
X93795100Y-146837300D01*
X90170000Y-151257000D02*
X90170000Y-150462400D01*
X102208700Y-145152400D02*
X125138400Y-145152400D01*
X96387400Y-150973700D02*
X102208700Y-145152400D01*
X96387400Y-153679600D02*
X96387400Y-150973700D01*
X95250000Y-154817000D02*
X96387400Y-153679600D01*
X100477100Y-144243200D02*
X125375000Y-144243200D01*
X93847400Y-150872900D02*
X100477100Y-144243200D01*
X93847400Y-151951900D02*
X93847400Y-150872900D01*
X92710000Y-153089300D02*
X93847400Y-151951900D01*
X92710000Y-154817000D02*
X92710000Y-153089300D01*
X89000100Y-153647100D02*
X90170000Y-154817000D01*
X89000100Y-150677300D02*
X89000100Y-153647100D01*
X96202100Y-143475300D02*
X89000100Y-150677300D01*
X123463400Y-143475300D02*
X96202100Y-143475300D01*
X102443100Y-131433200D02*
X102443100Y-128487700D01*
X92894600Y-140981700D02*
X102443100Y-131433200D01*
X110651500Y-48021200D02*
X105620900Y-48021200D01*
X114912300Y-52282000D02*
X110651500Y-48021200D01*
X114912300Y-53089200D02*
X114912300Y-52282000D01*
X114756700Y-53244800D02*
X114912300Y-53089200D01*
X106087900Y-92660000D02*
X106087900Y-92923500D01*
X99064900Y-85637000D02*
X106087900Y-92660000D01*
X99064900Y-51451300D02*
X99064900Y-85637000D01*
X102495000Y-48021200D02*
X99064900Y-51451300D01*
X105620900Y-48021200D02*
X102495000Y-48021200D01*
X142106600Y-78773400D02*
X142263700Y-78773400D01*
X142106600Y-81603400D02*
X142106600Y-78773400D01*
X140600000Y-83110000D02*
X142106600Y-81603400D01*
X142106600Y-75988500D02*
X141024600Y-74906500D01*
X142106600Y-78773400D02*
X142106600Y-75988500D01*
X142274900Y-56035100D02*
X140600000Y-57710000D01*
X142274900Y-49621800D02*
X142274900Y-56035100D01*
X119478300Y-51066600D02*
X121841700Y-51066600D01*
X107473300Y-39061600D02*
X119478300Y-51066600D01*
X107473300Y-33213900D02*
X107473300Y-39061600D01*
X109954300Y-30732900D02*
X107473300Y-33213900D01*
X125022900Y-30732900D02*
X109954300Y-30732900D01*
X126600000Y-32310000D02*
X125022900Y-30732900D01*
X111367000Y-47345800D02*
X102734600Y-47345800D01*
X116781900Y-52760700D02*
X111367000Y-47345800D01*
X104130400Y-91413800D02*
X104130400Y-92007700D01*
X98510100Y-85793500D02*
X104130400Y-91413800D01*
X98510100Y-51298400D02*
X98510100Y-85793500D01*
X102462700Y-47345800D02*
X98510100Y-51298400D01*
X102734600Y-47345800D02*
X102462700Y-47345800D01*
X133626000Y-113871600D02*
X152262100Y-113871600D01*
X117104200Y-97349800D02*
X133626000Y-113871600D01*
X109472500Y-97349800D02*
X117104200Y-97349800D01*
X104130400Y-92007700D02*
X109472500Y-97349800D01*
X106973000Y-39526000D02*
X115074600Y-47627600D01*
X106973000Y-33006600D02*
X106973000Y-39526000D01*
X109747000Y-30232600D02*
X106973000Y-33006600D01*
X126522600Y-30232600D02*
X109747000Y-30232600D01*
X128600000Y-32310000D02*
X126522600Y-30232600D01*
X127268400Y-81778400D02*
X128600000Y-83110000D01*
X116338300Y-81778400D02*
X127268400Y-81778400D01*
X110985200Y-69475300D02*
X110985200Y-66134600D01*
X116338300Y-74828400D02*
X110985200Y-69475300D01*
X116338300Y-81778400D02*
X116338300Y-74828400D01*
X103079200Y-51260500D02*
X103079200Y-51512100D01*
X119705100Y-54815100D02*
X122600000Y-57710000D01*
X111613500Y-54815100D02*
X119705100Y-54815100D01*
X108310500Y-51512100D02*
X111613500Y-54815100D01*
X103079200Y-51512100D02*
X108310500Y-51512100D01*
X104381400Y-78681100D02*
X104381400Y-83792800D01*
X101568700Y-75868400D02*
X104381400Y-78681100D01*
X101568700Y-52671200D02*
X101568700Y-75868400D01*
X102727800Y-51512100D02*
X101568700Y-52671200D01*
X103079200Y-51512100D02*
X102727800Y-51512100D01*
X104381400Y-88119400D02*
X104381400Y-83792800D01*
X108436900Y-92174900D02*
X104381400Y-88119400D01*
X108812900Y-92174900D02*
X108436900Y-92174900D01*
X109287900Y-92649900D02*
X108812900Y-92174900D01*
X118401400Y-92649900D02*
X109287900Y-92649900D01*
X118566900Y-92484400D02*
X118401400Y-92649900D01*
X120350800Y-92484400D02*
X118566900Y-92484400D01*
X137108400Y-109242000D02*
X120350800Y-92484400D01*
X141153600Y-109242000D02*
X137108400Y-109242000D01*
X128021100Y-29731100D02*
X130600000Y-32310000D01*
X109482000Y-29731100D02*
X128021100Y-29731100D01*
X106434000Y-32779100D02*
X109482000Y-29731100D01*
X106434000Y-43372700D02*
X106434000Y-32779100D01*
X118338100Y-52454300D02*
X123364000Y-52454300D01*
X109256500Y-43372700D02*
X118338100Y-52454300D01*
X106434000Y-43372700D02*
X109256500Y-43372700D01*
X101374500Y-105692300D02*
X101374500Y-93247100D01*
X87572200Y-119494600D02*
X101374500Y-105692300D01*
X87572200Y-128479400D02*
X87572200Y-119494600D01*
X94813400Y-135720600D02*
X87572200Y-128479400D01*
X101374500Y-92450000D02*
X101374500Y-93247100D01*
X97418400Y-88493900D02*
X101374500Y-92450000D01*
X97418400Y-50899800D02*
X97418400Y-88493900D01*
X104945500Y-43372700D02*
X97418400Y-50899800D01*
X106434000Y-43372700D02*
X104945500Y-43372700D01*
X115651100Y-81336700D02*
X106246500Y-71932100D01*
X115651100Y-82161100D02*
X115651100Y-81336700D01*
X116600000Y-83110000D02*
X115651100Y-82161100D01*
X114205400Y-55315400D02*
X116600000Y-57710000D01*
X111406200Y-55315400D02*
X114205400Y-55315400D01*
X108283600Y-52192800D02*
X111406200Y-55315400D01*
X103057500Y-52192800D02*
X108283600Y-52192800D01*
X124600000Y-54508800D02*
X124041100Y-53949900D01*
X124600000Y-57710000D02*
X124600000Y-54508800D01*
X123523300Y-31233300D02*
X124600000Y-32310000D01*
X110212700Y-31233300D02*
X123523300Y-31233300D01*
X108014500Y-33431500D02*
X110212700Y-31233300D01*
X108014500Y-38895100D02*
X108014500Y-33431500D01*
X119510700Y-50391300D02*
X108014500Y-38895100D01*
X122256100Y-50391300D02*
X119510700Y-50391300D01*
X124041100Y-52176300D02*
X122256100Y-50391300D01*
X124041100Y-53949900D02*
X124041100Y-52176300D01*
X103514200Y-78521600D02*
X103514200Y-83453500D01*
X101068400Y-76075800D02*
X103514200Y-78521600D01*
X101068400Y-52316400D02*
X101068400Y-76075800D01*
X102826100Y-50558700D02*
X101068400Y-52316400D01*
X108206600Y-50558700D02*
X102826100Y-50558700D01*
X111597800Y-53949900D02*
X108206600Y-50558700D01*
X124041100Y-53949900D02*
X111597800Y-53949900D01*
X140463300Y-75550600D02*
X140463300Y-79773900D01*
X139936100Y-79773900D02*
X140463300Y-79773900D01*
X136600000Y-83110000D02*
X139936100Y-79773900D01*
X140463300Y-79773900D02*
X140795200Y-79773900D01*
X143129600Y-30646800D02*
X139391900Y-30646800D01*
X146501700Y-34018900D02*
X143129600Y-30646800D01*
X146501700Y-37385100D02*
X146501700Y-34018900D01*
X136600000Y-47286800D02*
X146501700Y-37385100D01*
X136600000Y-57710000D02*
X136600000Y-47286800D01*
X141472000Y-79172000D02*
X141371900Y-79071900D01*
X141472000Y-80238000D02*
X141472000Y-79172000D01*
X138600000Y-83110000D02*
X141472000Y-80238000D01*
X147073700Y-37520900D02*
X148197100Y-37520900D01*
X138524600Y-46070000D02*
X147073700Y-37520900D01*
X138524600Y-57634600D02*
X138524600Y-46070000D01*
X138600000Y-57710000D02*
X138524600Y-57634600D01*
X150529800Y-88176400D02*
X150015300Y-88176400D01*
X153489800Y-85216400D02*
X150529800Y-88176400D01*
X153489800Y-75392300D02*
X153489800Y-85216400D01*
X153998700Y-74883400D02*
X153489800Y-75392300D01*
X153998700Y-59565900D02*
X153998700Y-74883400D01*
X149304800Y-54872000D02*
X153998700Y-59565900D01*
X149304800Y-48923400D02*
X149304800Y-54872000D01*
X135888400Y-79821600D02*
X137065000Y-79821600D01*
X132600000Y-83110000D02*
X135888400Y-79821600D01*
X148617100Y-61243300D02*
X148148100Y-61712300D01*
X148617100Y-38056000D02*
X148617100Y-61243300D01*
X148872400Y-37800700D02*
X148617100Y-38056000D01*
X148872400Y-35682000D02*
X148872400Y-37800700D01*
X143158200Y-29967800D02*
X148872400Y-35682000D01*
X134942200Y-29967800D02*
X143158200Y-29967800D01*
X132600000Y-32310000D02*
X134942200Y-29967800D01*
X148148100Y-65449900D02*
X148148100Y-61712300D01*
X147222700Y-66375300D02*
X148148100Y-65449900D01*
X147222700Y-66979700D02*
X147222700Y-66375300D01*
X152497800Y-72254800D02*
X147222700Y-66979700D01*
X152497800Y-74261500D02*
X152497800Y-72254800D01*
X151927200Y-74832100D02*
X152497800Y-74261500D01*
X151927200Y-84280700D02*
X151927200Y-74832100D01*
X151068900Y-85139000D02*
X151927200Y-84280700D01*
X149585200Y-85139000D02*
X151068900Y-85139000D01*
X147640900Y-87083300D02*
X149585200Y-85139000D01*
X134600000Y-48491500D02*
X134600000Y-57710000D01*
X146001300Y-37090200D02*
X134600000Y-48491500D01*
X146001300Y-34226200D02*
X146001300Y-37090200D01*
X143027900Y-31252800D02*
X146001300Y-34226200D01*
X139741100Y-31252800D02*
X143027900Y-31252800D01*
X139635500Y-31358400D02*
X139741100Y-31252800D01*
X139104200Y-31358400D02*
X139635500Y-31358400D01*
X138953200Y-31207400D02*
X139104200Y-31358400D01*
X135702600Y-31207400D02*
X138953200Y-31207400D01*
X134600000Y-32310000D02*
X135702600Y-31207400D01*
X143479000Y-71955200D02*
X143934900Y-72411100D01*
X139265000Y-71955200D02*
X143479000Y-71955200D01*
X138091300Y-73128900D02*
X139265000Y-71955200D01*
X138091300Y-79818600D02*
X138091300Y-73128900D01*
X134799900Y-83110000D02*
X138091300Y-79818600D01*
X134600000Y-83110000D02*
X134799900Y-83110000D01*
X148896700Y-66655000D02*
X147898000Y-66655000D01*
X153498400Y-71256700D02*
X148896700Y-66655000D01*
X153498400Y-74676100D02*
X153498400Y-71256700D01*
X152985000Y-75189500D02*
X153498400Y-74676100D01*
X152985000Y-84730900D02*
X152985000Y-75189500D01*
X151103500Y-86612400D02*
X152985000Y-84730900D01*
X114599900Y-81559200D02*
X107970500Y-74929800D01*
X114599900Y-83110000D02*
X114599900Y-81559200D01*
X114600000Y-83110000D02*
X114599900Y-83110000D01*
X112705700Y-55815700D02*
X114600000Y-57710000D01*
X111198900Y-55815700D02*
X112705700Y-55815700D01*
X108256700Y-52873500D02*
X111198900Y-55815700D01*
X102535500Y-52873500D02*
X108256700Y-52873500D01*
X102119100Y-65814100D02*
X102244000Y-65939000D01*
X102119100Y-53289900D02*
X102119100Y-65814100D01*
X102535500Y-52873500D02*
X102119100Y-53289900D01*
X87032700Y-130969000D02*
X93936300Y-137872600D01*
X87032700Y-104685400D02*
X87032700Y-130969000D01*
X99843800Y-91874300D02*
X87032700Y-104685400D01*
X109600000Y-62257600D02*
X109600000Y-62210000D01*
X108272500Y-63585100D02*
X109600000Y-62257600D01*
X108272500Y-65552200D02*
X108272500Y-63585100D01*
X105840200Y-67984500D02*
X108272500Y-65552200D01*
X105746200Y-68078500D02*
X105746200Y-69835500D01*
X105840200Y-67984500D02*
X105746200Y-68078500D01*
X106921800Y-75853700D02*
X106921800Y-74855500D01*
X108058600Y-76990500D02*
X106921800Y-75853700D01*
X108058600Y-86152200D02*
X108058600Y-76990500D01*
X109516400Y-87610000D02*
X108058600Y-86152200D01*
X109600000Y-87610000D02*
X109516400Y-87610000D01*
X123009900Y-116254300D02*
X130259200Y-123503600D01*
X123009900Y-115721400D02*
X123009900Y-116254300D01*
X108772800Y-66367800D02*
X106480800Y-68659800D01*
X108772800Y-64493000D02*
X108772800Y-66367800D01*
X111055800Y-62210000D02*
X108772800Y-64493000D01*
X111600000Y-62210000D02*
X111055800Y-62210000D01*
X114435200Y-98025400D02*
X129930700Y-113520900D01*
X109384500Y-98025400D02*
X114435200Y-98025400D01*
X109121200Y-98025400D02*
X109384500Y-98025400D01*
X101889500Y-90793700D02*
X109121200Y-98025400D01*
X101889500Y-90088300D02*
X101889500Y-90793700D01*
X97977300Y-86176100D02*
X101889500Y-90088300D01*
X97977300Y-51078500D02*
X97977300Y-86176100D01*
X102684300Y-46371500D02*
X97977300Y-51078500D01*
X106350000Y-46371500D02*
X102684300Y-46371500D01*
X108558900Y-76480300D02*
X107903800Y-75825200D01*
X108558900Y-85909800D02*
X108558900Y-76480300D01*
X108832100Y-86183000D02*
X108558900Y-85909800D01*
X112173000Y-86183000D02*
X108832100Y-86183000D01*
X113600000Y-87610000D02*
X112173000Y-86183000D01*
X108302000Y-60783000D02*
X103827500Y-56308500D01*
X111797100Y-60783000D02*
X108302000Y-60783000D01*
X113224100Y-62210000D02*
X111797100Y-60783000D01*
X113600000Y-62210000D02*
X113224100Y-62210000D01*
X121814600Y-111546700D02*
X100958400Y-90690500D01*
X126856000Y-111546700D02*
X121814600Y-111546700D01*
X129505600Y-114196300D02*
X126856000Y-111546700D01*
X131439900Y-114196300D02*
X129505600Y-114196300D01*
X131683800Y-113952400D02*
X131439900Y-114196300D01*
X136760400Y-109749100D02*
X136760400Y-109849100D01*
X119996100Y-92984800D02*
X136760400Y-109749100D01*
X119024000Y-92984800D02*
X119996100Y-92984800D01*
X118858500Y-93150300D02*
X119024000Y-92984800D01*
X108656500Y-93150300D02*
X118858500Y-93150300D01*
X108356500Y-92850300D02*
X108656500Y-93150300D01*
X117215500Y-47292700D02*
X117385000Y-47292700D01*
X108514900Y-38592100D02*
X117215500Y-47292700D01*
X108514900Y-36417500D02*
X108514900Y-38592100D01*
X109209600Y-35722800D02*
X108514900Y-36417500D01*
X114512800Y-35722800D02*
X109209600Y-35722800D01*
X115600000Y-36810000D02*
X114512800Y-35722800D01*
X110680300Y-50022400D02*
X113312500Y-52654600D01*
X102654700Y-50022400D02*
X110680300Y-50022400D01*
X100568000Y-52109100D02*
X102654700Y-50022400D01*
X100568000Y-78866800D02*
X100568000Y-52109100D01*
X102838900Y-81137700D02*
X100568000Y-78866800D01*
X102838900Y-87284500D02*
X102838900Y-81137700D01*
X108356500Y-92802100D02*
X102838900Y-87284500D01*
X108356500Y-92850300D02*
X108356500Y-92802100D01*
X119668400Y-93890400D02*
X137485000Y-111707000D01*
X119668400Y-93665000D02*
X119668400Y-93890400D01*
X119653600Y-46341700D02*
X118072700Y-47922600D01*
X119653600Y-38379700D02*
X119653600Y-46341700D01*
X118083900Y-36810000D02*
X119653600Y-38379700D01*
X117600000Y-36810000D02*
X118083900Y-36810000D01*
X111197200Y-49522000D02*
X114175400Y-52500200D01*
X102447500Y-49522000D02*
X111197200Y-49522000D01*
X100067600Y-51901900D02*
X102447500Y-49522000D01*
X100067600Y-79074100D02*
X100067600Y-51901900D01*
X102338600Y-81345100D02*
X100067600Y-79074100D01*
X102338600Y-87491800D02*
X102338600Y-81345100D01*
X107409900Y-92563100D02*
X102338600Y-87491800D01*
X107409900Y-92917000D02*
X107409900Y-92563100D01*
X108157900Y-93665000D02*
X107409900Y-92917000D01*
X119668400Y-93665000D02*
X108157900Y-93665000D01*
X119695700Y-87705700D02*
X119600000Y-87610000D01*
X119695700Y-90644000D02*
X119695700Y-87705700D01*
X120220100Y-90644000D02*
X135717000Y-106140900D01*
X119695700Y-90644000D02*
X120220100Y-90644000D01*
X119677300Y-62287300D02*
X119600000Y-62210000D01*
X119677300Y-64589500D02*
X119677300Y-62287300D01*
X116094600Y-68172200D02*
X119677300Y-64589500D01*
X113679900Y-68172200D02*
X116094600Y-68172200D01*
X103569900Y-66271700D02*
X105609000Y-64232600D01*
X103569900Y-76039800D02*
X103569900Y-66271700D01*
X105557100Y-78027000D02*
X103569900Y-76039800D01*
X105557100Y-87194700D02*
X105557100Y-78027000D01*
X106460400Y-88098000D02*
X105557100Y-87194700D01*
X106460400Y-88758600D02*
X106460400Y-88098000D01*
X108876100Y-91174300D02*
X106460400Y-88758600D01*
X109227500Y-91174300D02*
X108876100Y-91174300D01*
X109702500Y-91649300D02*
X109227500Y-91174300D01*
X117081600Y-91649300D02*
X109702500Y-91649300D01*
X118086900Y-90644000D02*
X117081600Y-91649300D01*
X119695700Y-90644000D02*
X118086900Y-90644000D01*
X121249500Y-38698000D02*
X121249500Y-39020500D01*
X123137500Y-36810000D02*
X121249500Y-38698000D01*
X123600000Y-36810000D02*
X123137500Y-36810000D01*
X135195400Y-104421300D02*
X138757100Y-104421300D01*
X120979500Y-90205400D02*
X135195400Y-104421300D01*
X120979500Y-89023300D02*
X120979500Y-90205400D01*
X122392800Y-87610000D02*
X120979500Y-89023300D01*
X123600000Y-87610000D02*
X122392800Y-87610000D01*
X121570600Y-66545400D02*
X128052700Y-73027500D01*
X121570600Y-63727600D02*
X121570600Y-66545400D01*
X123088200Y-62210000D02*
X121570600Y-63727600D01*
X123600000Y-62210000D02*
X123088200Y-62210000D01*
X140029700Y-103148700D02*
X138757100Y-104421300D01*
X140029700Y-102950200D02*
X140029700Y-103148700D01*
X125144300Y-87610000D02*
X125600000Y-87610000D01*
X124044800Y-88709500D02*
X125144300Y-87610000D01*
X123243800Y-88709500D02*
X124044800Y-88709500D01*
X123087800Y-88553500D02*
X123243800Y-88709500D01*
X122157000Y-88553500D02*
X123087800Y-88553500D01*
X121532100Y-89178400D02*
X122157000Y-88553500D01*
X121532100Y-90050300D02*
X121532100Y-89178400D01*
X133756700Y-102274900D02*
X121532100Y-90050300D01*
X140700400Y-102274900D02*
X133756700Y-102274900D01*
X140981000Y-102555500D02*
X140700400Y-102274900D01*
X103766500Y-54317000D02*
X103064800Y-53615300D01*
X103766500Y-54660500D02*
X103766500Y-54317000D01*
X112385600Y-57710000D02*
X112600000Y-57710000D01*
X109336100Y-54660500D02*
X112385600Y-57710000D01*
X103766500Y-54660500D02*
X109336100Y-54660500D01*
X105056700Y-87663800D02*
X105785100Y-88392200D01*
X105056700Y-78234200D02*
X105056700Y-87663800D01*
X103069600Y-76247100D02*
X105056700Y-78234200D01*
X103069600Y-57222600D02*
X103069600Y-76247100D01*
X102619400Y-56772400D02*
X103069600Y-57222600D01*
X102619400Y-55807600D02*
X102619400Y-56772400D01*
X103766500Y-54660500D02*
X102619400Y-55807600D01*
X105785100Y-88815500D02*
X105785100Y-88392200D01*
X108644200Y-91674600D02*
X105785100Y-88815500D01*
X109020200Y-91674600D02*
X108644200Y-91674600D01*
X109495200Y-92149600D02*
X109020200Y-91674600D01*
X117288900Y-92149600D02*
X109495200Y-92149600D01*
X117454400Y-91984100D02*
X117288900Y-92149600D01*
X120558100Y-91984100D02*
X117454400Y-91984100D01*
X135418900Y-106844900D02*
X120558100Y-91984100D01*
X147713100Y-106844900D02*
X135418900Y-106844900D01*
X153093000Y-112224800D02*
X147713100Y-106844900D01*
X103513900Y-55620800D02*
X104384800Y-55620800D01*
X103148500Y-55986200D02*
X103513900Y-55620800D01*
X103148500Y-56584700D02*
X103148500Y-55986200D01*
X108477500Y-61913700D02*
X103148500Y-56584700D01*
X108477500Y-62672500D02*
X108477500Y-61913700D01*
X107772200Y-63377800D02*
X108477500Y-62672500D01*
X107772200Y-65097500D02*
X107772200Y-63377800D01*
X105070800Y-67798900D02*
X107772200Y-65097500D01*
X105070800Y-70510800D02*
X105070800Y-67798900D01*
X105070800Y-75417900D02*
X105070800Y-70510800D01*
X107058000Y-77405100D02*
X105070800Y-75417900D01*
X107058000Y-86572700D02*
X107058000Y-77405100D01*
X107961300Y-87476000D02*
X107058000Y-86572700D01*
X107961300Y-88136700D02*
X107961300Y-87476000D01*
X109434600Y-89610000D02*
X107961300Y-88136700D01*
X110600000Y-89610000D02*
X109434600Y-89610000D01*
X106026000Y-70510800D02*
X105070800Y-70510800D01*
X109809600Y-66727200D02*
X106026000Y-70510800D01*
X109809600Y-65000400D02*
X109809600Y-66727200D01*
X110600000Y-64210000D02*
X109809600Y-65000400D01*
X107349600Y-71150800D02*
X108873700Y-69626700D01*
X106028800Y-71150800D02*
X107349600Y-71150800D01*
X105571100Y-71608500D02*
X106028800Y-71150800D01*
X105571100Y-75210600D02*
X105571100Y-71608500D01*
X107558300Y-77197800D02*
X105571100Y-75210600D01*
X107558300Y-86365400D02*
X107558300Y-77197800D01*
X108461600Y-87268700D02*
X107558300Y-86365400D01*
X108461600Y-87929200D02*
X108461600Y-87268700D01*
X109230500Y-88698100D02*
X108461600Y-87929200D01*
X110056200Y-88698100D02*
X109230500Y-88698100D01*
X110243800Y-88510500D02*
X110056200Y-88698100D01*
X111044800Y-88510500D02*
X110243800Y-88510500D01*
X112144300Y-89610000D02*
X111044800Y-88510500D01*
X112600000Y-89610000D02*
X112144300Y-89610000D01*
X110309900Y-68190500D02*
X108873700Y-69626700D01*
X110309900Y-65854900D02*
X110309900Y-68190500D01*
X110705500Y-65459300D02*
X110309900Y-65854900D01*
X111350700Y-65459300D02*
X110705500Y-65459300D01*
X112600000Y-64210000D02*
X111350700Y-65459300D01*
X114600000Y-66949200D02*
X114600000Y-64210000D01*
X114614800Y-66964000D02*
X114600000Y-66949200D01*
X102548500Y-48713300D02*
X109328100Y-48713300D01*
X99567200Y-51694600D02*
X102548500Y-48713300D01*
X99567200Y-80586400D02*
X99567200Y-51694600D01*
X101636000Y-82655200D02*
X99567200Y-80586400D01*
X101636000Y-87496900D02*
X101636000Y-82655200D01*
X106848600Y-92709500D02*
X101636000Y-87496900D01*
X106848600Y-93073600D02*
X106848600Y-92709500D01*
X108144300Y-94369300D02*
X106848600Y-93073600D01*
X116400400Y-94369300D02*
X108144300Y-94369300D01*
X107271900Y-62923000D02*
X107802200Y-62392700D01*
X107271900Y-64890200D02*
X107271900Y-62923000D01*
X104570500Y-67591600D02*
X107271900Y-64890200D01*
X104570500Y-75625200D02*
X104570500Y-67591600D01*
X106557700Y-77612400D02*
X104570500Y-75625200D01*
X106557700Y-86780000D02*
X106557700Y-77612400D01*
X107461000Y-87683300D02*
X106557700Y-86780000D01*
X107461000Y-88344000D02*
X107461000Y-87683300D01*
X109290700Y-90173700D02*
X107461000Y-88344000D01*
X109642000Y-90173700D02*
X109290700Y-90173700D01*
X110117000Y-90648700D02*
X109642000Y-90173700D01*
X115561300Y-90648700D02*
X110117000Y-90648700D01*
X116600000Y-89610000D02*
X115561300Y-90648700D01*
X117164100Y-39374100D02*
X117164100Y-46286000D01*
X116600000Y-38810000D02*
X117164100Y-39374100D01*
X105252500Y-62921000D02*
X104378400Y-62921000D01*
X106296900Y-63965400D02*
X105252500Y-62921000D01*
X106296900Y-64914800D02*
X106296900Y-63965400D01*
X104070200Y-67141500D02*
X106296900Y-64914800D01*
X104070200Y-75832500D02*
X104070200Y-67141500D01*
X106057400Y-77819700D02*
X104070200Y-75832500D01*
X106057400Y-86987400D02*
X106057400Y-77819700D01*
X106960700Y-87890700D02*
X106057400Y-86987400D01*
X106960700Y-88551300D02*
X106960700Y-87890700D01*
X109083400Y-90674000D02*
X106960700Y-88551300D01*
X109434800Y-90674000D02*
X109083400Y-90674000D01*
X109909800Y-91149000D02*
X109434800Y-90674000D01*
X116624000Y-91149000D02*
X109909800Y-91149000D01*
X118163000Y-89610000D02*
X116624000Y-91149000D01*
X118600000Y-89610000D02*
X118163000Y-89610000D01*
X113906400Y-69353700D02*
X114166500Y-69353700D01*
X113004600Y-68451900D02*
X113906400Y-69353700D01*
X113004600Y-67892500D02*
X113004600Y-68451900D01*
X113400200Y-67496900D02*
X113004600Y-67892500D01*
X113959700Y-67496900D02*
X113400200Y-67496900D01*
X114119800Y-67657000D02*
X113959700Y-67496900D01*
X115153000Y-67657000D02*
X114119800Y-67657000D01*
X118600000Y-64210000D02*
X115153000Y-67657000D01*
X130570400Y-97580400D02*
X147581000Y-97580400D01*
X122600000Y-89610000D02*
X130570400Y-97580400D01*
X117565300Y-73720200D02*
X131748600Y-73720200D01*
X111716800Y-67871700D02*
X117565300Y-73720200D01*
X111716800Y-66634900D02*
X111716800Y-67871700D01*
X130927000Y-95937000D02*
X148647000Y-95937000D01*
X124600000Y-89610000D02*
X130927000Y-95937000D01*
X144720200Y-80376600D02*
X146369100Y-82025500D01*
X144720200Y-71993700D02*
X144720200Y-80376600D01*
X144596400Y-71869900D02*
X144720200Y-71993700D01*
X144126200Y-71399700D02*
X144596400Y-71869900D01*
X131789700Y-71399700D02*
X144126200Y-71399700D01*
X124600000Y-64210000D02*
X131789700Y-71399700D01*
X152998100Y-71797500D02*
X149235400Y-68034800D01*
X152998100Y-74468800D02*
X152998100Y-71797500D01*
X152484700Y-74982200D02*
X152998100Y-74468800D01*
X152484700Y-84430800D02*
X152484700Y-74982200D01*
X151272000Y-85643500D02*
X152484700Y-84430800D01*
X150740500Y-85643500D02*
X151272000Y-85643500D01*
X147620400Y-88763600D02*
X150740500Y-85643500D01*
X144951200Y-88763600D02*
X147620400Y-88763600D01*
X134114400Y-95124400D02*
X128600000Y-89610000D01*
X151281400Y-95124400D02*
X134114400Y-95124400D01*
X154114500Y-97957500D02*
X151281400Y-95124400D01*
X145895000Y-72213300D02*
X145895000Y-72481700D01*
X144080700Y-70399000D02*
X145895000Y-72213300D01*
X134789000Y-70399000D02*
X144080700Y-70399000D01*
X128600000Y-64210000D02*
X134789000Y-70399000D01*
X149573300Y-81403400D02*
X149798900Y-81629000D01*
X149573200Y-81403400D02*
X149573300Y-81403400D01*
X149573200Y-78214000D02*
X149573200Y-81403400D01*
X147159700Y-75800500D02*
X149573200Y-78214000D01*
X147159700Y-73746400D02*
X147159700Y-75800500D01*
X145895000Y-72481700D02*
X147159700Y-73746400D01*
X146592300Y-76083300D02*
X146484300Y-75975300D01*
X146592300Y-77404700D02*
X146592300Y-76083300D01*
X135238500Y-94248500D02*
X153829500Y-94248500D01*
X130600000Y-89610000D02*
X135238500Y-94248500D01*
X136303200Y-93313200D02*
X154293100Y-93313200D01*
X132600000Y-89610000D02*
X136303200Y-93313200D01*
X155059700Y-92244700D02*
X155458400Y-91846000D01*
X137234700Y-92244700D02*
X155059700Y-92244700D01*
X134600000Y-89610000D02*
X137234700Y-92244700D01*
X147878600Y-73489300D02*
X147878600Y-75330300D01*
X143990500Y-69601200D02*
X147878600Y-73489300D01*
X139991200Y-69601200D02*
X143990500Y-69601200D01*
X134600000Y-64210000D02*
X139991200Y-69601200D01*
X138734300Y-91744300D02*
X136600000Y-89610000D01*
X152911000Y-91744300D02*
X138734300Y-91744300D01*
X153527300Y-91128000D02*
X152911000Y-91744300D01*
X156151300Y-91128000D02*
X153527300Y-91128000D01*
X156767600Y-91744300D02*
X156151300Y-91128000D01*
X148569200Y-73472300D02*
X148569200Y-74161300D01*
X144197800Y-69100900D02*
X148569200Y-73472300D01*
X141490900Y-69100900D02*
X144197800Y-69100900D01*
X136600000Y-64210000D02*
X141490900Y-69100900D01*
X140171200Y-91181200D02*
X138600000Y-89610000D01*
X151407600Y-91181200D02*
X140171200Y-91181200D01*
X156869300Y-85719500D02*
X151407600Y-91181200D01*
X149271100Y-73462200D02*
X149271100Y-74662200D01*
X144409500Y-68600600D02*
X149271100Y-73462200D01*
X142990600Y-68600600D02*
X144409500Y-68600600D01*
X138600000Y-64210000D02*
X142990600Y-68600600D01*
X157062200Y-83770500D02*
X157062200Y-82732800D01*
X150151900Y-90680800D02*
X157062200Y-83770500D01*
X141670800Y-90680800D02*
X150151900Y-90680800D01*
X140600000Y-89610000D02*
X141670800Y-90680800D01*
X149849100Y-73055700D02*
X150109200Y-73055700D01*
X141003400Y-64210000D02*
X149849100Y-73055700D01*
X140600000Y-64210000D02*
X141003400Y-64210000D01*
X142956500Y-89966500D02*
X142600000Y-89610000D01*
X150155100Y-89966500D02*
X142956500Y-89966500D01*
X155849600Y-84272000D02*
X150155100Y-89966500D01*
X155849600Y-80613600D02*
X155849600Y-84272000D01*
X145468200Y-41800900D02*
X143748800Y-41800900D01*
X147941700Y-44274400D02*
X145468200Y-41800900D01*
X147941700Y-48530500D02*
X147941700Y-44274400D01*
X142600000Y-64591500D02*
X142600000Y-64210000D01*
X150821900Y-72813400D02*
X142600000Y-64591500D01*
X150821900Y-73567100D02*
X150821900Y-72813400D01*
X158000000Y-111000000D02*
X156507100Y-111000000D01*
X152798800Y-114708300D02*
X156507100Y-111000000D01*
X128955100Y-114708300D02*
X152798800Y-114708300D01*
X128069400Y-113822600D02*
X128955100Y-114708300D01*
X100000000Y-113822600D02*
X128069400Y-113822600D01*
X144786900Y-83453700D02*
X150486800Y-83453700D01*
X141880600Y-86360000D02*
X144786900Y-83453700D01*
X138850000Y-86360000D02*
X141880600Y-86360000D01*
X137600000Y-87610000D02*
X138850000Y-86360000D01*
X143163500Y-63175400D02*
X143163500Y-63175500D01*
X145248700Y-63175400D02*
X143163500Y-63175400D01*
X146492700Y-61931400D02*
X145248700Y-63175400D01*
X146492700Y-44527800D02*
X146492700Y-61931400D01*
X145816000Y-43851100D02*
X146492700Y-44527800D01*
X138055800Y-62210000D02*
X137600000Y-62210000D01*
X139088800Y-63243000D02*
X138055800Y-62210000D01*
X140022800Y-63243000D02*
X139088800Y-63243000D01*
X140089300Y-63176500D02*
X140022800Y-63243000D01*
X141022300Y-63176500D02*
X140089300Y-63176500D01*
X141088300Y-63242500D02*
X141022300Y-63176500D01*
X142023300Y-63242500D02*
X141088300Y-63242500D01*
X142090300Y-63175500D02*
X142023300Y-63242500D01*
X143163500Y-63175500D02*
X142090300Y-63175500D01*
X144210100Y-64222100D02*
X143163500Y-63175500D01*
X144210100Y-65494100D02*
X144210100Y-64222100D01*
X151497200Y-72781200D02*
X144210100Y-65494100D01*
X151497200Y-73846900D02*
X151497200Y-72781200D01*
X150486800Y-74857300D02*
X151497200Y-73846900D01*
X150486800Y-83453700D02*
X150486800Y-74857300D01*
X159000000Y-125080000D02*
X159000000Y-123841100D01*
X156092600Y-79865200D02*
X155643000Y-79865200D01*
X166504700Y-90277300D02*
X156092600Y-79865200D01*
X166504700Y-117002200D02*
X166504700Y-90277300D01*
X159665800Y-123841100D02*
X166504700Y-117002200D01*
X159000000Y-123841100D02*
X159665800Y-123841100D01*
X140144300Y-87610000D02*
X139600000Y-87610000D01*
X141243800Y-88709500D02*
X140144300Y-87610000D01*
X142044800Y-88709500D02*
X141243800Y-88709500D01*
X142243800Y-88510500D02*
X142044800Y-88709500D01*
X143743100Y-88510500D02*
X142243800Y-88510500D01*
X144671500Y-89438900D02*
X143743100Y-88510500D01*
X149975100Y-89438900D02*
X144671500Y-89438900D01*
X154415000Y-84999000D02*
X149975100Y-89438900D01*
X154415000Y-81093200D02*
X154415000Y-84999000D01*
X155643000Y-79865200D02*
X154415000Y-81093200D01*
X155643000Y-59089800D02*
X150013000Y-53459800D01*
X155643000Y-79865200D02*
X155643000Y-59089800D01*
X144178800Y-45214000D02*
X143130900Y-44166100D01*
X144178800Y-58587000D02*
X144178800Y-45214000D01*
X141805800Y-60960000D02*
X144178800Y-58587000D01*
X140850000Y-60960000D02*
X141805800Y-60960000D01*
X139600000Y-62210000D02*
X140850000Y-60960000D01*
X141948800Y-62558800D02*
X141600000Y-62210000D01*
X145084300Y-62558800D02*
X141948800Y-62558800D01*
X145961300Y-61681800D02*
X145084300Y-62558800D01*
X145961300Y-45916300D02*
X145961300Y-61681800D01*
X144628200Y-44583200D02*
X145961300Y-45916300D01*
X144628200Y-43168200D02*
X144628200Y-44583200D01*
X148592700Y-84463700D02*
X150714300Y-84463700D01*
X145145500Y-87910900D02*
X148592700Y-84463700D01*
X141900900Y-87910900D02*
X145145500Y-87910900D01*
X141600000Y-87610000D02*
X141900900Y-87910900D01*
X146122200Y-43168200D02*
X144628200Y-43168200D01*
X146993000Y-44039000D02*
X146122200Y-43168200D01*
X146993000Y-65897400D02*
X146993000Y-44039000D01*
X146722400Y-66168000D02*
X146993000Y-65897400D01*
X146722400Y-67186900D02*
X146722400Y-66168000D01*
X151997500Y-72462000D02*
X146722400Y-67186900D01*
X151997500Y-74054200D02*
X151997500Y-72462000D01*
X151391000Y-74660700D02*
X151997500Y-74054200D01*
X151391000Y-83787000D02*
X151391000Y-74660700D01*
X150714300Y-84463700D02*
X151391000Y-83787000D01*
X165000000Y-111000000D02*
X163507100Y-111000000D01*
X159240100Y-115267000D02*
X163507100Y-111000000D01*
X128599000Y-115267000D02*
X159240100Y-115267000D01*
X128046100Y-114714100D02*
X128599000Y-115267000D01*
X103987700Y-114714100D02*
X128046100Y-114714100D01*
D25*
G36*
X194873000Y-108873000D02*
X169000000Y-108873000D01*
X168950590Y-108883006D01*
X168908965Y-108911447D01*
X168881685Y-108953841D01*
X168873000Y-109000000D01*
X168873000Y-157947394D01*
X166177600Y-160642794D01*
X166177600Y-153849200D01*
X166119748Y-153558361D01*
X165955001Y-153311799D01*
X164963110Y-152319908D01*
X164993441Y-152300390D01*
X165138431Y-152088190D01*
X165189440Y-151836300D01*
X165189440Y-150312300D01*
X165145162Y-150076983D01*
X165006090Y-149860859D01*
X164793890Y-149715869D01*
X164542000Y-149664860D01*
X163018000Y-149664860D01*
X162782683Y-149709138D01*
X162650559Y-149794157D01*
X155983701Y-143127299D01*
X155737139Y-142962552D01*
X155446300Y-142904700D01*
X153425702Y-142904700D01*
X153900174Y-142430228D01*
X154145290Y-142328948D01*
X154488201Y-142471338D01*
X154860167Y-142471662D01*
X155203943Y-142329617D01*
X155237118Y-142296500D01*
X162423098Y-142296500D01*
X163942378Y-143815780D01*
X163942338Y-143861267D01*
X164084383Y-144205043D01*
X164347173Y-144468292D01*
X164690701Y-144610938D01*
X165062667Y-144611262D01*
X165406443Y-144469217D01*
X165669692Y-144206427D01*
X165812338Y-143862899D01*
X165812662Y-143490933D01*
X165670617Y-143147157D01*
X165407827Y-142883908D01*
X165064299Y-142741262D01*
X165017423Y-142741221D01*
X163275301Y-140999099D01*
X163028739Y-140834352D01*
X162737900Y-140776500D01*
X155237463Y-140776500D01*
X155205327Y-140744308D01*
X154861799Y-140601662D01*
X154814923Y-140601621D01*
X154481401Y-140268099D01*
X154234839Y-140103352D01*
X153944000Y-140045500D01*
X129572200Y-140045500D01*
X129281361Y-140103352D01*
X129034799Y-140268099D01*
X128771198Y-140531700D01*
X115099402Y-140531700D01*
X111030301Y-136462599D01*
X110783739Y-136297852D01*
X110765040Y-136294133D01*
X110765040Y-135882400D01*
X110720762Y-135647083D01*
X110581690Y-135430959D01*
X110369490Y-135285969D01*
X110117600Y-135234960D01*
X107882400Y-135234960D01*
X107647083Y-135279238D01*
X107430959Y-135418310D01*
X107285969Y-135630510D01*
X107234960Y-135882400D01*
X107234960Y-136240000D01*
X101887000Y-136240000D01*
X101596161Y-136297852D01*
X101349599Y-136462599D01*
X87939381Y-149872817D01*
X87909100Y-149860243D01*
X87353339Y-149859758D01*
X86839697Y-150071990D01*
X86446371Y-150464630D01*
X86233243Y-150977900D01*
X86232758Y-151533661D01*
X86444990Y-152047303D01*
X86837630Y-152440629D01*
X86870000Y-152454070D01*
X86870000Y-152984700D01*
X86927852Y-153275539D01*
X87088544Y-153516032D01*
X86898857Y-153594603D01*
X86829392Y-153836787D01*
X87630000Y-154637395D01*
X87644143Y-154623253D01*
X87823748Y-154802858D01*
X87809605Y-154817000D01*
X87823748Y-154831143D01*
X87644143Y-155010748D01*
X87630000Y-154996605D01*
X86829392Y-155797213D01*
X86898857Y-156039397D01*
X87422302Y-156226144D01*
X87977368Y-156198362D01*
X88070100Y-156159951D01*
X88070100Y-176157798D01*
X87244599Y-176983299D01*
X87079852Y-177229861D01*
X87076133Y-177248560D01*
X86816800Y-177248560D01*
X86581483Y-177292838D01*
X86365359Y-177431910D01*
X86220369Y-177644110D01*
X86169360Y-177896000D01*
X86169360Y-182873000D01*
X86127000Y-182873000D01*
X86127000Y-160000000D01*
X86116994Y-159950590D01*
X86070447Y-159894330D01*
X83127000Y-157932032D01*
X83127000Y-154609302D01*
X86220856Y-154609302D01*
X86248638Y-155164368D01*
X86407603Y-155548143D01*
X86649787Y-155617608D01*
X87450395Y-154817000D01*
X86649787Y-154016392D01*
X86407603Y-154085857D01*
X86220856Y-154609302D01*
X83127000Y-154609302D01*
X83127000Y-108000000D01*
X83116994Y-107950590D01*
X83088553Y-107908965D01*
X83046159Y-107881685D01*
X83000000Y-107873000D01*
X54127000Y-107873000D01*
X54127000Y-104422815D01*
X55864630Y-104422815D01*
X56188980Y-105207800D01*
X56789041Y-105808909D01*
X57573459Y-106134628D01*
X58422815Y-106135370D01*
X59207800Y-105811020D01*
X59808909Y-105210959D01*
X60027140Y-104685400D01*
X86272700Y-104685400D01*
X86272700Y-130969000D01*
X86330552Y-131259839D01*
X86495299Y-131506401D01*
X93001178Y-138012280D01*
X93001138Y-138057767D01*
X93143183Y-138401543D01*
X93405973Y-138664792D01*
X93749501Y-138807438D01*
X93993847Y-138807651D01*
X92754920Y-140046578D01*
X92709433Y-140046538D01*
X92365657Y-140188583D01*
X92102408Y-140451373D01*
X91959762Y-140794901D01*
X91959438Y-141166867D01*
X92101483Y-141510643D01*
X92364273Y-141773892D01*
X92707801Y-141916538D01*
X93079767Y-141916862D01*
X93423543Y-141774817D01*
X93686792Y-141512027D01*
X93829438Y-141168499D01*
X93829479Y-141121623D01*
X102980501Y-131970601D01*
X103145248Y-131724040D01*
X103203100Y-131433200D01*
X103203100Y-129050163D01*
X103235292Y-129018027D01*
X103377938Y-128674499D01*
X103378262Y-128302533D01*
X103371328Y-128285750D01*
X107247400Y-128285750D01*
X107247400Y-129243910D01*
X107344073Y-129477299D01*
X107522702Y-129655927D01*
X107756091Y-129752600D01*
X108714250Y-129752600D01*
X108873000Y-129593850D01*
X108873000Y-128127000D01*
X109127000Y-128127000D01*
X109127000Y-129593850D01*
X109285750Y-129752600D01*
X110243909Y-129752600D01*
X110477298Y-129655927D01*
X110655927Y-129477299D01*
X110752600Y-129243910D01*
X110752600Y-128285750D01*
X110593850Y-128127000D01*
X109127000Y-128127000D01*
X108873000Y-128127000D01*
X107406150Y-128127000D01*
X107247400Y-128285750D01*
X103371328Y-128285750D01*
X103236217Y-127958757D01*
X102973427Y-127695508D01*
X102629899Y-127552862D01*
X102257933Y-127552538D01*
X101914157Y-127694583D01*
X101650908Y-127957373D01*
X101508262Y-128300901D01*
X101507938Y-128672867D01*
X101649983Y-129016643D01*
X101683100Y-129049818D01*
X101683100Y-131118398D01*
X94871250Y-137930248D01*
X94871462Y-137687433D01*
X94729417Y-137343657D01*
X94466627Y-137080408D01*
X94123099Y-136937762D01*
X94076223Y-136937721D01*
X87792700Y-130654198D01*
X87792700Y-129774702D01*
X93878278Y-135860280D01*
X93878238Y-135905767D01*
X94020283Y-136249543D01*
X94283073Y-136512792D01*
X94626601Y-136655438D01*
X94998567Y-136655762D01*
X95342343Y-136513717D01*
X95605592Y-136250927D01*
X95748238Y-135907399D01*
X95748562Y-135535433D01*
X95606517Y-135191657D01*
X95343727Y-134928408D01*
X95000199Y-134785762D01*
X94953323Y-134785721D01*
X88332200Y-128164598D01*
X88332200Y-126756090D01*
X107247400Y-126756090D01*
X107247400Y-127714250D01*
X107406150Y-127873000D01*
X108873000Y-127873000D01*
X108873000Y-126406150D01*
X109127000Y-126406150D01*
X109127000Y-127873000D01*
X110593850Y-127873000D01*
X110752600Y-127714250D01*
X110752600Y-126756090D01*
X110655927Y-126522701D01*
X110477298Y-126344073D01*
X110243909Y-126247400D01*
X109285750Y-126247400D01*
X109127000Y-126406150D01*
X108873000Y-126406150D01*
X108714250Y-126247400D01*
X107756091Y-126247400D01*
X107522702Y-126344073D01*
X107344073Y-126522701D01*
X107247400Y-126756090D01*
X88332200Y-126756090D01*
X88332200Y-122297440D01*
X89852500Y-122297440D01*
X90087817Y-122253162D01*
X90303941Y-122114090D01*
X90447863Y-121903453D01*
X90573076Y-122025973D01*
X91067020Y-122240563D01*
X91313000Y-122120594D01*
X91313000Y-120777000D01*
X91293000Y-120777000D01*
X91293000Y-120523000D01*
X91313000Y-120523000D01*
X91313000Y-119179406D01*
X91067020Y-119059437D01*
X90573076Y-119274027D01*
X90445488Y-119398872D01*
X90316590Y-119198559D01*
X90104390Y-119053569D01*
X89852500Y-119002560D01*
X89139042Y-119002560D01*
X101911901Y-106229701D01*
X102076648Y-105983139D01*
X102134500Y-105692300D01*
X102134500Y-93809563D01*
X102166692Y-93777427D01*
X102309338Y-93433899D01*
X102309614Y-93116516D01*
X121277199Y-112084101D01*
X121523761Y-112248848D01*
X121814600Y-112306700D01*
X126541198Y-112306700D01*
X127297098Y-113062600D01*
X100562463Y-113062600D01*
X100530327Y-113030408D01*
X100186799Y-112887762D01*
X99814833Y-112887438D01*
X99471057Y-113029483D01*
X99207808Y-113292273D01*
X99065162Y-113635801D01*
X99064838Y-114007767D01*
X99206883Y-114351543D01*
X99469673Y-114614792D01*
X99813201Y-114757438D01*
X100173143Y-114757752D01*
X100028799Y-114854199D01*
X95235725Y-119647273D01*
X95102532Y-119447936D01*
X94587510Y-119103809D01*
X93980000Y-118982968D01*
X93372490Y-119103809D01*
X92857468Y-119447936D01*
X92710081Y-119668516D01*
X92306924Y-119274027D01*
X91812980Y-119059437D01*
X91567000Y-119179406D01*
X91567000Y-120523000D01*
X91587000Y-120523000D01*
X91587000Y-120777000D01*
X91567000Y-120777000D01*
X91567000Y-122120594D01*
X91812980Y-122240563D01*
X92306924Y-122025973D01*
X92710081Y-121631484D01*
X92857468Y-121852064D01*
X93372490Y-122196191D01*
X93980000Y-122317032D01*
X94587510Y-122196191D01*
X95102532Y-121852064D01*
X95411722Y-121389328D01*
X95598639Y-121352148D01*
X95845201Y-121187401D01*
X100881002Y-116151600D01*
X108671037Y-116151600D01*
X108703173Y-116183792D01*
X109046701Y-116326438D01*
X109418667Y-116326762D01*
X109762443Y-116184717D01*
X110025692Y-115921927D01*
X110168338Y-115578399D01*
X110168429Y-115474100D01*
X122100184Y-115474100D01*
X122075062Y-115534601D01*
X122074738Y-115906567D01*
X122216783Y-116250343D01*
X122257158Y-116290789D01*
X122307752Y-116545139D01*
X122472499Y-116791701D01*
X129324078Y-123643280D01*
X129324038Y-123688767D01*
X129466083Y-124032543D01*
X129728873Y-124295792D01*
X130072401Y-124438438D01*
X130444367Y-124438762D01*
X130788143Y-124296717D01*
X131051392Y-124033927D01*
X131194038Y-123690399D01*
X131194362Y-123318433D01*
X131052317Y-122974657D01*
X130789527Y-122711408D01*
X130445999Y-122568762D01*
X130399123Y-122568721D01*
X126840492Y-119010090D01*
X157349000Y-119010090D01*
X157349000Y-119714250D01*
X157507750Y-119873000D01*
X158873000Y-119873000D01*
X158873000Y-118660150D01*
X159127000Y-118660150D01*
X159127000Y-119873000D01*
X160492250Y-119873000D01*
X160651000Y-119714250D01*
X160651000Y-119010090D01*
X160554327Y-118776701D01*
X160375698Y-118598073D01*
X160142309Y-118501400D01*
X159285750Y-118501400D01*
X159127000Y-118660150D01*
X158873000Y-118660150D01*
X158714250Y-118501400D01*
X157857691Y-118501400D01*
X157624302Y-118598073D01*
X157445673Y-118776701D01*
X157349000Y-119010090D01*
X126840492Y-119010090D01*
X123884256Y-116053854D01*
X123944738Y-115908199D01*
X123945062Y-115536233D01*
X123919389Y-115474100D01*
X127731298Y-115474100D01*
X128061599Y-115804401D01*
X128308161Y-115969148D01*
X128599000Y-116027000D01*
X159240100Y-116027000D01*
X159530939Y-115969148D01*
X159777501Y-115804401D01*
X163271280Y-112310622D01*
X163279238Y-112352917D01*
X163418310Y-112569041D01*
X163630510Y-112714031D01*
X163882400Y-112765040D01*
X165744700Y-112765040D01*
X165744700Y-116687398D01*
X160527741Y-121904357D01*
X160244415Y-121480330D01*
X160222220Y-121465500D01*
X160375698Y-121401927D01*
X160554327Y-121223299D01*
X160651000Y-120989910D01*
X160651000Y-120285750D01*
X160492250Y-120127000D01*
X159127000Y-120127000D01*
X159127000Y-120147000D01*
X158873000Y-120147000D01*
X158873000Y-120127000D01*
X157507750Y-120127000D01*
X157349000Y-120285750D01*
X157349000Y-120989910D01*
X157445673Y-121223299D01*
X157624302Y-121401927D01*
X157777780Y-121465500D01*
X157755585Y-121480330D01*
X157430729Y-121966511D01*
X157316655Y-122540000D01*
X157430729Y-123113489D01*
X157755585Y-123599670D01*
X158070366Y-123810000D01*
X157755585Y-124020330D01*
X157430729Y-124506511D01*
X157316655Y-125080000D01*
X157430729Y-125653489D01*
X157755585Y-126139670D01*
X158070366Y-126350000D01*
X157755585Y-126560330D01*
X157430729Y-127046511D01*
X157316655Y-127620000D01*
X157430729Y-128193489D01*
X157755585Y-128679670D01*
X158241766Y-129004526D01*
X158815255Y-129118600D01*
X159184745Y-129118600D01*
X159758234Y-129004526D01*
X160244415Y-128679670D01*
X160569271Y-128193489D01*
X160683345Y-127620000D01*
X160569271Y-127046511D01*
X160244415Y-126560330D01*
X159929634Y-126350000D01*
X160244415Y-126139670D01*
X160569271Y-125653489D01*
X160683345Y-125080000D01*
X160569271Y-124506511D01*
X160371370Y-124210332D01*
X167042101Y-117539601D01*
X167206848Y-117293039D01*
X167264700Y-117002200D01*
X167264700Y-105422815D01*
X188864630Y-105422815D01*
X189188980Y-106207800D01*
X189789041Y-106808909D01*
X190573459Y-107134628D01*
X191422815Y-107135370D01*
X192207800Y-106811020D01*
X192808909Y-106210959D01*
X193134628Y-105426541D01*
X193135370Y-104577185D01*
X192811020Y-103792200D01*
X192210959Y-103191091D01*
X191426541Y-102865372D01*
X190577185Y-102864630D01*
X189792200Y-103188980D01*
X189191091Y-103789041D01*
X188865372Y-104573459D01*
X188864630Y-105422815D01*
X167264700Y-105422815D01*
X167264700Y-90277300D01*
X167206848Y-89986461D01*
X167042101Y-89739899D01*
X156630001Y-79327799D01*
X156403000Y-79176122D01*
X156403000Y-59089800D01*
X156384894Y-58998776D01*
X156345148Y-58798960D01*
X156180401Y-58552399D01*
X150948122Y-53320120D01*
X150948162Y-53274633D01*
X150806117Y-52930857D01*
X150543327Y-52667608D01*
X150199799Y-52524962D01*
X150064800Y-52524844D01*
X150064800Y-49485863D01*
X150096992Y-49453727D01*
X150239638Y-49110199D01*
X150239962Y-48738233D01*
X150097917Y-48394457D01*
X149835127Y-48131208D01*
X149491599Y-47988562D01*
X149377100Y-47988462D01*
X149377100Y-38370802D01*
X149409801Y-38338101D01*
X149574548Y-38091539D01*
X149632400Y-37800700D01*
X149632400Y-35682000D01*
X149574548Y-35391161D01*
X149409801Y-35144599D01*
X143695601Y-29430399D01*
X143449039Y-29265652D01*
X143158200Y-29207800D01*
X134942200Y-29207800D01*
X134651361Y-29265652D01*
X134404799Y-29430399D01*
X132814012Y-31021186D01*
X132344727Y-31020777D01*
X131870794Y-31216602D01*
X131599845Y-31487078D01*
X131331113Y-31217876D01*
X130857523Y-31021224D01*
X130385615Y-31020813D01*
X128558501Y-29193699D01*
X128311939Y-29028952D01*
X128021100Y-28971100D01*
X109482000Y-28971100D01*
X109191161Y-29028952D01*
X108944599Y-29193699D01*
X105896599Y-32241699D01*
X105731852Y-32488261D01*
X105674000Y-32779100D01*
X105674000Y-42612700D01*
X104945500Y-42612700D01*
X104654661Y-42670552D01*
X104408099Y-42835299D01*
X96880999Y-50362399D01*
X96716252Y-50608961D01*
X96658400Y-50899800D01*
X96658400Y-88493900D01*
X96716252Y-88784739D01*
X96880999Y-89031301D01*
X99122701Y-91273003D01*
X99051608Y-91343973D01*
X98908962Y-91687501D01*
X98908921Y-91734377D01*
X86495299Y-104147999D01*
X86330552Y-104394561D01*
X86272700Y-104685400D01*
X60027140Y-104685400D01*
X60134628Y-104426541D01*
X60135370Y-103577185D01*
X59811020Y-102792200D01*
X59210959Y-102191091D01*
X58426541Y-101865372D01*
X57577185Y-101864630D01*
X56792200Y-102188980D01*
X56191091Y-102789041D01*
X55865372Y-103573459D01*
X55864630Y-104422815D01*
X54127000Y-104422815D01*
X54127000Y-27422815D01*
X55864630Y-27422815D01*
X56188980Y-28207800D01*
X56789041Y-28808909D01*
X57573459Y-29134628D01*
X58422815Y-29135370D01*
X59207800Y-28811020D01*
X59808909Y-28210959D01*
X60134628Y-27426541D01*
X60134631Y-27422815D01*
X188864630Y-27422815D01*
X189188980Y-28207800D01*
X189789041Y-28808909D01*
X190573459Y-29134628D01*
X191422815Y-29135370D01*
X192207800Y-28811020D01*
X192808909Y-28210959D01*
X193134628Y-27426541D01*
X193135370Y-26577185D01*
X192811020Y-25792200D01*
X192210959Y-25191091D01*
X191426541Y-24865372D01*
X190577185Y-24864630D01*
X189792200Y-25188980D01*
X189191091Y-25789041D01*
X188865372Y-26573459D01*
X188864630Y-27422815D01*
X60134631Y-27422815D01*
X60135370Y-26577185D01*
X59811020Y-25792200D01*
X59210959Y-25191091D01*
X58426541Y-24865372D01*
X57577185Y-24864630D01*
X56792200Y-25188980D01*
X56191091Y-25789041D01*
X55865372Y-26573459D01*
X55864630Y-27422815D01*
X54127000Y-27422815D01*
X54127000Y-23127000D01*
X194873000Y-23127000D01*
X194873000Y-108873000D01*
X194873000Y-108873000D01*
G37*
X194873000Y-108873000D02*
X169000000Y-108873000D01*
X168950590Y-108883006D01*
X168908965Y-108911447D01*
X168881685Y-108953841D01*
X168873000Y-109000000D01*
X168873000Y-157947394D01*
X166177600Y-160642794D01*
X166177600Y-153849200D01*
X166119748Y-153558361D01*
X165955001Y-153311799D01*
X164963110Y-152319908D01*
X164993441Y-152300390D01*
X165138431Y-152088190D01*
X165189440Y-151836300D01*
X165189440Y-150312300D01*
X165145162Y-150076983D01*
X165006090Y-149860859D01*
X164793890Y-149715869D01*
X164542000Y-149664860D01*
X163018000Y-149664860D01*
X162782683Y-149709138D01*
X162650559Y-149794157D01*
X155983701Y-143127299D01*
X155737139Y-142962552D01*
X155446300Y-142904700D01*
X153425702Y-142904700D01*
X153900174Y-142430228D01*
X154145290Y-142328948D01*
X154488201Y-142471338D01*
X154860167Y-142471662D01*
X155203943Y-142329617D01*
X155237118Y-142296500D01*
X162423098Y-142296500D01*
X163942378Y-143815780D01*
X163942338Y-143861267D01*
X164084383Y-144205043D01*
X164347173Y-144468292D01*
X164690701Y-144610938D01*
X165062667Y-144611262D01*
X165406443Y-144469217D01*
X165669692Y-144206427D01*
X165812338Y-143862899D01*
X165812662Y-143490933D01*
X165670617Y-143147157D01*
X165407827Y-142883908D01*
X165064299Y-142741262D01*
X165017423Y-142741221D01*
X163275301Y-140999099D01*
X163028739Y-140834352D01*
X162737900Y-140776500D01*
X155237463Y-140776500D01*
X155205327Y-140744308D01*
X154861799Y-140601662D01*
X154814923Y-140601621D01*
X154481401Y-140268099D01*
X154234839Y-140103352D01*
X153944000Y-140045500D01*
X129572200Y-140045500D01*
X129281361Y-140103352D01*
X129034799Y-140268099D01*
X128771198Y-140531700D01*
X115099402Y-140531700D01*
X111030301Y-136462599D01*
X110783739Y-136297852D01*
X110765040Y-136294133D01*
X110765040Y-135882400D01*
X110720762Y-135647083D01*
X110581690Y-135430959D01*
X110369490Y-135285969D01*
X110117600Y-135234960D01*
X107882400Y-135234960D01*
X107647083Y-135279238D01*
X107430959Y-135418310D01*
X107285969Y-135630510D01*
X107234960Y-135882400D01*
X107234960Y-136240000D01*
X101887000Y-136240000D01*
X101596161Y-136297852D01*
X101349599Y-136462599D01*
X87939381Y-149872817D01*
X87909100Y-149860243D01*
X87353339Y-149859758D01*
X86839697Y-150071990D01*
X86446371Y-150464630D01*
X86233243Y-150977900D01*
X86232758Y-151533661D01*
X86444990Y-152047303D01*
X86837630Y-152440629D01*
X86870000Y-152454070D01*
X86870000Y-152984700D01*
X86927852Y-153275539D01*
X87088544Y-153516032D01*
X86898857Y-153594603D01*
X86829392Y-153836787D01*
X87630000Y-154637395D01*
X87644143Y-154623253D01*
X87823748Y-154802858D01*
X87809605Y-154817000D01*
X87823748Y-154831143D01*
X87644143Y-155010748D01*
X87630000Y-154996605D01*
X86829392Y-155797213D01*
X86898857Y-156039397D01*
X87422302Y-156226144D01*
X87977368Y-156198362D01*
X88070100Y-156159951D01*
X88070100Y-176157798D01*
X87244599Y-176983299D01*
X87079852Y-177229861D01*
X87076133Y-177248560D01*
X86816800Y-177248560D01*
X86581483Y-177292838D01*
X86365359Y-177431910D01*
X86220369Y-177644110D01*
X86169360Y-177896000D01*
X86169360Y-182873000D01*
X86127000Y-182873000D01*
X86127000Y-160000000D01*
X86116994Y-159950590D01*
X86070447Y-159894330D01*
X83127000Y-157932032D01*
X83127000Y-154609302D01*
X86220856Y-154609302D01*
X86248638Y-155164368D01*
X86407603Y-155548143D01*
X86649787Y-155617608D01*
X87450395Y-154817000D01*
X86649787Y-154016392D01*
X86407603Y-154085857D01*
X86220856Y-154609302D01*
X83127000Y-154609302D01*
X83127000Y-108000000D01*
X83116994Y-107950590D01*
X83088553Y-107908965D01*
X83046159Y-107881685D01*
X83000000Y-107873000D01*
X54127000Y-107873000D01*
X54127000Y-104422815D01*
X55864630Y-104422815D01*
X56188980Y-105207800D01*
X56789041Y-105808909D01*
X57573459Y-106134628D01*
X58422815Y-106135370D01*
X59207800Y-105811020D01*
X59808909Y-105210959D01*
X60027140Y-104685400D01*
X86272700Y-104685400D01*
X86272700Y-130969000D01*
X86330552Y-131259839D01*
X86495299Y-131506401D01*
X93001178Y-138012280D01*
X93001138Y-138057767D01*
X93143183Y-138401543D01*
X93405973Y-138664792D01*
X93749501Y-138807438D01*
X93993847Y-138807651D01*
X92754920Y-140046578D01*
X92709433Y-140046538D01*
X92365657Y-140188583D01*
X92102408Y-140451373D01*
X91959762Y-140794901D01*
X91959438Y-141166867D01*
X92101483Y-141510643D01*
X92364273Y-141773892D01*
X92707801Y-141916538D01*
X93079767Y-141916862D01*
X93423543Y-141774817D01*
X93686792Y-141512027D01*
X93829438Y-141168499D01*
X93829479Y-141121623D01*
X102980501Y-131970601D01*
X103145248Y-131724040D01*
X103203100Y-131433200D01*
X103203100Y-129050163D01*
X103235292Y-129018027D01*
X103377938Y-128674499D01*
X103378262Y-128302533D01*
X103371328Y-128285750D01*
X107247400Y-128285750D01*
X107247400Y-129243910D01*
X107344073Y-129477299D01*
X107522702Y-129655927D01*
X107756091Y-129752600D01*
X108714250Y-129752600D01*
X108873000Y-129593850D01*
X108873000Y-128127000D01*
X109127000Y-128127000D01*
X109127000Y-129593850D01*
X109285750Y-129752600D01*
X110243909Y-129752600D01*
X110477298Y-129655927D01*
X110655927Y-129477299D01*
X110752600Y-129243910D01*
X110752600Y-128285750D01*
X110593850Y-128127000D01*
X109127000Y-128127000D01*
X108873000Y-128127000D01*
X107406150Y-128127000D01*
X107247400Y-128285750D01*
X103371328Y-128285750D01*
X103236217Y-127958757D01*
X102973427Y-127695508D01*
X102629899Y-127552862D01*
X102257933Y-127552538D01*
X101914157Y-127694583D01*
X101650908Y-127957373D01*
X101508262Y-128300901D01*
X101507938Y-128672867D01*
X101649983Y-129016643D01*
X101683100Y-129049818D01*
X101683100Y-131118398D01*
X94871250Y-137930248D01*
X94871462Y-137687433D01*
X94729417Y-137343657D01*
X94466627Y-137080408D01*
X94123099Y-136937762D01*
X94076223Y-136937721D01*
X87792700Y-130654198D01*
X87792700Y-129774702D01*
X93878278Y-135860280D01*
X93878238Y-135905767D01*
X94020283Y-136249543D01*
X94283073Y-136512792D01*
X94626601Y-136655438D01*
X94998567Y-136655762D01*
X95342343Y-136513717D01*
X95605592Y-136250927D01*
X95748238Y-135907399D01*
X95748562Y-135535433D01*
X95606517Y-135191657D01*
X95343727Y-134928408D01*
X95000199Y-134785762D01*
X94953323Y-134785721D01*
X88332200Y-128164598D01*
X88332200Y-126756090D01*
X107247400Y-126756090D01*
X107247400Y-127714250D01*
X107406150Y-127873000D01*
X108873000Y-127873000D01*
X108873000Y-126406150D01*
X109127000Y-126406150D01*
X109127000Y-127873000D01*
X110593850Y-127873000D01*
X110752600Y-127714250D01*
X110752600Y-126756090D01*
X110655927Y-126522701D01*
X110477298Y-126344073D01*
X110243909Y-126247400D01*
X109285750Y-126247400D01*
X109127000Y-126406150D01*
X108873000Y-126406150D01*
X108714250Y-126247400D01*
X107756091Y-126247400D01*
X107522702Y-126344073D01*
X107344073Y-126522701D01*
X107247400Y-126756090D01*
X88332200Y-126756090D01*
X88332200Y-122297440D01*
X89852500Y-122297440D01*
X90087817Y-122253162D01*
X90303941Y-122114090D01*
X90447863Y-121903453D01*
X90573076Y-122025973D01*
X91067020Y-122240563D01*
X91313000Y-122120594D01*
X91313000Y-120777000D01*
X91293000Y-120777000D01*
X91293000Y-120523000D01*
X91313000Y-120523000D01*
X91313000Y-119179406D01*
X91067020Y-119059437D01*
X90573076Y-119274027D01*
X90445488Y-119398872D01*
X90316590Y-119198559D01*
X90104390Y-119053569D01*
X89852500Y-119002560D01*
X89139042Y-119002560D01*
X101911901Y-106229701D01*
X102076648Y-105983139D01*
X102134500Y-105692300D01*
X102134500Y-93809563D01*
X102166692Y-93777427D01*
X102309338Y-93433899D01*
X102309614Y-93116516D01*
X121277199Y-112084101D01*
X121523761Y-112248848D01*
X121814600Y-112306700D01*
X126541198Y-112306700D01*
X127297098Y-113062600D01*
X100562463Y-113062600D01*
X100530327Y-113030408D01*
X100186799Y-112887762D01*
X99814833Y-112887438D01*
X99471057Y-113029483D01*
X99207808Y-113292273D01*
X99065162Y-113635801D01*
X99064838Y-114007767D01*
X99206883Y-114351543D01*
X99469673Y-114614792D01*
X99813201Y-114757438D01*
X100173143Y-114757752D01*
X100028799Y-114854199D01*
X95235725Y-119647273D01*
X95102532Y-119447936D01*
X94587510Y-119103809D01*
X93980000Y-118982968D01*
X93372490Y-119103809D01*
X92857468Y-119447936D01*
X92710081Y-119668516D01*
X92306924Y-119274027D01*
X91812980Y-119059437D01*
X91567000Y-119179406D01*
X91567000Y-120523000D01*
X91587000Y-120523000D01*
X91587000Y-120777000D01*
X91567000Y-120777000D01*
X91567000Y-122120594D01*
X91812980Y-122240563D01*
X92306924Y-122025973D01*
X92710081Y-121631484D01*
X92857468Y-121852064D01*
X93372490Y-122196191D01*
X93980000Y-122317032D01*
X94587510Y-122196191D01*
X95102532Y-121852064D01*
X95411722Y-121389328D01*
X95598639Y-121352148D01*
X95845201Y-121187401D01*
X100881002Y-116151600D01*
X108671037Y-116151600D01*
X108703173Y-116183792D01*
X109046701Y-116326438D01*
X109418667Y-116326762D01*
X109762443Y-116184717D01*
X110025692Y-115921927D01*
X110168338Y-115578399D01*
X110168429Y-115474100D01*
X122100184Y-115474100D01*
X122075062Y-115534601D01*
X122074738Y-115906567D01*
X122216783Y-116250343D01*
X122257158Y-116290789D01*
X122307752Y-116545139D01*
X122472499Y-116791701D01*
X129324078Y-123643280D01*
X129324038Y-123688767D01*
X129466083Y-124032543D01*
X129728873Y-124295792D01*
X130072401Y-124438438D01*
X130444367Y-124438762D01*
X130788143Y-124296717D01*
X131051392Y-124033927D01*
X131194038Y-123690399D01*
X131194362Y-123318433D01*
X131052317Y-122974657D01*
X130789527Y-122711408D01*
X130445999Y-122568762D01*
X130399123Y-122568721D01*
X126840492Y-119010090D01*
X157349000Y-119010090D01*
X157349000Y-119714250D01*
X157507750Y-119873000D01*
X158873000Y-119873000D01*
X158873000Y-118660150D01*
X159127000Y-118660150D01*
X159127000Y-119873000D01*
X160492250Y-119873000D01*
X160651000Y-119714250D01*
X160651000Y-119010090D01*
X160554327Y-118776701D01*
X160375698Y-118598073D01*
X160142309Y-118501400D01*
X159285750Y-118501400D01*
X159127000Y-118660150D01*
X158873000Y-118660150D01*
X158714250Y-118501400D01*
X157857691Y-118501400D01*
X157624302Y-118598073D01*
X157445673Y-118776701D01*
X157349000Y-119010090D01*
X126840492Y-119010090D01*
X123884256Y-116053854D01*
X123944738Y-115908199D01*
X123945062Y-115536233D01*
X123919389Y-115474100D01*
X127731298Y-115474100D01*
X128061599Y-115804401D01*
X128308161Y-115969148D01*
X128599000Y-116027000D01*
X159240100Y-116027000D01*
X159530939Y-115969148D01*
X159777501Y-115804401D01*
X163271280Y-112310622D01*
X163279238Y-112352917D01*
X163418310Y-112569041D01*
X163630510Y-112714031D01*
X163882400Y-112765040D01*
X165744700Y-112765040D01*
X165744700Y-116687398D01*
X160527741Y-121904357D01*
X160244415Y-121480330D01*
X160222220Y-121465500D01*
X160375698Y-121401927D01*
X160554327Y-121223299D01*
X160651000Y-120989910D01*
X160651000Y-120285750D01*
X160492250Y-120127000D01*
X159127000Y-120127000D01*
X159127000Y-120147000D01*
X158873000Y-120147000D01*
X158873000Y-120127000D01*
X157507750Y-120127000D01*
X157349000Y-120285750D01*
X157349000Y-120989910D01*
X157445673Y-121223299D01*
X157624302Y-121401927D01*
X157777780Y-121465500D01*
X157755585Y-121480330D01*
X157430729Y-121966511D01*
X157316655Y-122540000D01*
X157430729Y-123113489D01*
X157755585Y-123599670D01*
X158070366Y-123810000D01*
X157755585Y-124020330D01*
X157430729Y-124506511D01*
X157316655Y-125080000D01*
X157430729Y-125653489D01*
X157755585Y-126139670D01*
X158070366Y-126350000D01*
X157755585Y-126560330D01*
X157430729Y-127046511D01*
X157316655Y-127620000D01*
X157430729Y-128193489D01*
X157755585Y-128679670D01*
X158241766Y-129004526D01*
X158815255Y-129118600D01*
X159184745Y-129118600D01*
X159758234Y-129004526D01*
X160244415Y-128679670D01*
X160569271Y-128193489D01*
X160683345Y-127620000D01*
X160569271Y-127046511D01*
X160244415Y-126560330D01*
X159929634Y-126350000D01*
X160244415Y-126139670D01*
X160569271Y-125653489D01*
X160683345Y-125080000D01*
X160569271Y-124506511D01*
X160371370Y-124210332D01*
X167042101Y-117539601D01*
X167206848Y-117293039D01*
X167264700Y-117002200D01*
X167264700Y-105422815D01*
X188864630Y-105422815D01*
X189188980Y-106207800D01*
X189789041Y-106808909D01*
X190573459Y-107134628D01*
X191422815Y-107135370D01*
X192207800Y-106811020D01*
X192808909Y-106210959D01*
X193134628Y-105426541D01*
X193135370Y-104577185D01*
X192811020Y-103792200D01*
X192210959Y-103191091D01*
X191426541Y-102865372D01*
X190577185Y-102864630D01*
X189792200Y-103188980D01*
X189191091Y-103789041D01*
X188865372Y-104573459D01*
X188864630Y-105422815D01*
X167264700Y-105422815D01*
X167264700Y-90277300D01*
X167206848Y-89986461D01*
X167042101Y-89739899D01*
X156630001Y-79327799D01*
X156403000Y-79176122D01*
X156403000Y-59089800D01*
X156384894Y-58998776D01*
X156345148Y-58798960D01*
X156180401Y-58552399D01*
X150948122Y-53320120D01*
X150948162Y-53274633D01*
X150806117Y-52930857D01*
X150543327Y-52667608D01*
X150199799Y-52524962D01*
X150064800Y-52524844D01*
X150064800Y-49485863D01*
X150096992Y-49453727D01*
X150239638Y-49110199D01*
X150239962Y-48738233D01*
X150097917Y-48394457D01*
X149835127Y-48131208D01*
X149491599Y-47988562D01*
X149377100Y-47988462D01*
X149377100Y-38370802D01*
X149409801Y-38338101D01*
X149574548Y-38091539D01*
X149632400Y-37800700D01*
X149632400Y-35682000D01*
X149574548Y-35391161D01*
X149409801Y-35144599D01*
X143695601Y-29430399D01*
X143449039Y-29265652D01*
X143158200Y-29207800D01*
X134942200Y-29207800D01*
X134651361Y-29265652D01*
X134404799Y-29430399D01*
X132814012Y-31021186D01*
X132344727Y-31020777D01*
X131870794Y-31216602D01*
X131599845Y-31487078D01*
X131331113Y-31217876D01*
X130857523Y-31021224D01*
X130385615Y-31020813D01*
X128558501Y-29193699D01*
X128311939Y-29028952D01*
X128021100Y-28971100D01*
X109482000Y-28971100D01*
X109191161Y-29028952D01*
X108944599Y-29193699D01*
X105896599Y-32241699D01*
X105731852Y-32488261D01*
X105674000Y-32779100D01*
X105674000Y-42612700D01*
X104945500Y-42612700D01*
X104654661Y-42670552D01*
X104408099Y-42835299D01*
X96880999Y-50362399D01*
X96716252Y-50608961D01*
X96658400Y-50899800D01*
X96658400Y-88493900D01*
X96716252Y-88784739D01*
X96880999Y-89031301D01*
X99122701Y-91273003D01*
X99051608Y-91343973D01*
X98908962Y-91687501D01*
X98908921Y-91734377D01*
X86495299Y-104147999D01*
X86330552Y-104394561D01*
X86272700Y-104685400D01*
X60027140Y-104685400D01*
X60134628Y-104426541D01*
X60135370Y-103577185D01*
X59811020Y-102792200D01*
X59210959Y-102191091D01*
X58426541Y-101865372D01*
X57577185Y-101864630D01*
X56792200Y-102188980D01*
X56191091Y-102789041D01*
X55865372Y-103573459D01*
X55864630Y-104422815D01*
X54127000Y-104422815D01*
X54127000Y-27422815D01*
X55864630Y-27422815D01*
X56188980Y-28207800D01*
X56789041Y-28808909D01*
X57573459Y-29134628D01*
X58422815Y-29135370D01*
X59207800Y-28811020D01*
X59808909Y-28210959D01*
X60134628Y-27426541D01*
X60134631Y-27422815D01*
X188864630Y-27422815D01*
X189188980Y-28207800D01*
X189789041Y-28808909D01*
X190573459Y-29134628D01*
X191422815Y-29135370D01*
X192207800Y-28811020D01*
X192808909Y-28210959D01*
X193134628Y-27426541D01*
X193135370Y-26577185D01*
X192811020Y-25792200D01*
X192210959Y-25191091D01*
X191426541Y-24865372D01*
X190577185Y-24864630D01*
X189792200Y-25188980D01*
X189191091Y-25789041D01*
X188865372Y-26573459D01*
X188864630Y-27422815D01*
X60134631Y-27422815D01*
X60135370Y-26577185D01*
X59811020Y-25792200D01*
X59210959Y-25191091D01*
X58426541Y-24865372D01*
X57577185Y-24864630D01*
X56792200Y-25188980D01*
X56191091Y-25789041D01*
X55865372Y-26573459D01*
X55864630Y-27422815D01*
X54127000Y-27422815D01*
X54127000Y-23127000D01*
X194873000Y-23127000D01*
X194873000Y-108873000D01*
G36*
X165744700Y-90592102D02*
X165744700Y-109234960D01*
X163882400Y-109234960D01*
X163647083Y-109279238D01*
X163430959Y-109418310D01*
X163285969Y-109630510D01*
X163234960Y-109882400D01*
X163234960Y-110294132D01*
X163216260Y-110297852D01*
X162969699Y-110462599D01*
X158925298Y-114507000D01*
X154074902Y-114507000D01*
X156271280Y-112310622D01*
X156279238Y-112352917D01*
X156418310Y-112569041D01*
X156630510Y-112714031D01*
X156882400Y-112765040D01*
X159117600Y-112765040D01*
X159352917Y-112720762D01*
X159569041Y-112581690D01*
X159714031Y-112369490D01*
X159765040Y-112117600D01*
X159765040Y-109882400D01*
X159720762Y-109647083D01*
X159581690Y-109430959D01*
X159369490Y-109285969D01*
X159117600Y-109234960D01*
X156882400Y-109234960D01*
X156647083Y-109279238D01*
X156430959Y-109418310D01*
X156285969Y-109630510D01*
X156234960Y-109882400D01*
X156234960Y-110294133D01*
X156216261Y-110297852D01*
X155969699Y-110462599D01*
X154027844Y-112404454D01*
X154028162Y-112039633D01*
X153886117Y-111695857D01*
X153623327Y-111432608D01*
X153279799Y-111289962D01*
X153232923Y-111289921D01*
X148250501Y-106307499D01*
X148003939Y-106142752D01*
X147713100Y-106084900D01*
X136652049Y-106084900D01*
X136652162Y-105955733D01*
X136510117Y-105611957D01*
X136247327Y-105348708D01*
X135903799Y-105206062D01*
X135856923Y-105206021D01*
X135832202Y-105181300D01*
X138194637Y-105181300D01*
X138226773Y-105213492D01*
X138570301Y-105356138D01*
X138942267Y-105356462D01*
X139286043Y-105214417D01*
X139549292Y-104951627D01*
X139691938Y-104608099D01*
X139691979Y-104561223D01*
X140475553Y-103777649D01*
X140558643Y-103743317D01*
X140812048Y-103490354D01*
X141166167Y-103490662D01*
X141509943Y-103348617D01*
X141773192Y-103085827D01*
X141915838Y-102742299D01*
X141916162Y-102370333D01*
X141774117Y-102026557D01*
X141511327Y-101763308D01*
X141167799Y-101620662D01*
X141062805Y-101620571D01*
X140991239Y-101572752D01*
X140700400Y-101514900D01*
X134071502Y-101514900D01*
X130897002Y-98340400D01*
X138252560Y-98340400D01*
X138252560Y-99860000D01*
X138296838Y-100095317D01*
X138435910Y-100311441D01*
X138648110Y-100456431D01*
X138900000Y-100507440D01*
X140500000Y-100507440D01*
X140735317Y-100463162D01*
X140951441Y-100324090D01*
X141096431Y-100111890D01*
X141105370Y-100067745D01*
X141371861Y-100067745D01*
X141445995Y-100313864D01*
X141983223Y-100506965D01*
X142553454Y-100479778D01*
X142954005Y-100313864D01*
X143028139Y-100067745D01*
X142200000Y-99239605D01*
X141371861Y-100067745D01*
X141105370Y-100067745D01*
X141144646Y-99873799D01*
X141192255Y-99888139D01*
X142020395Y-99060000D01*
X142006252Y-99045858D01*
X142185858Y-98866252D01*
X142200000Y-98880395D01*
X142214142Y-98866252D01*
X142393748Y-99045858D01*
X142379605Y-99060000D01*
X143207745Y-99888139D01*
X143453864Y-99814005D01*
X143646965Y-99276777D01*
X143619778Y-98706546D01*
X143468115Y-98340400D01*
X147018537Y-98340400D01*
X147050673Y-98372592D01*
X147394201Y-98515238D01*
X147766167Y-98515562D01*
X148109943Y-98373517D01*
X148373192Y-98110727D01*
X148515838Y-97767199D01*
X148516162Y-97395233D01*
X148374117Y-97051457D01*
X148111327Y-96788208D01*
X147891675Y-96697000D01*
X148084537Y-96697000D01*
X148116673Y-96729192D01*
X148460201Y-96871838D01*
X148832167Y-96872162D01*
X149175943Y-96730117D01*
X149439192Y-96467327D01*
X149581838Y-96123799D01*
X149582047Y-95884400D01*
X150966598Y-95884400D01*
X153179378Y-98097180D01*
X153179338Y-98142667D01*
X153321383Y-98486443D01*
X153584173Y-98749692D01*
X153927701Y-98892338D01*
X154299667Y-98892662D01*
X154643443Y-98750617D01*
X154906692Y-98487827D01*
X155049338Y-98144299D01*
X155049662Y-97772333D01*
X154907617Y-97428557D01*
X154644827Y-97165308D01*
X154301299Y-97022662D01*
X154254423Y-97022621D01*
X152240302Y-95008500D01*
X153267037Y-95008500D01*
X153299173Y-95040692D01*
X153642701Y-95183338D01*
X154014667Y-95183662D01*
X154358443Y-95041617D01*
X154621692Y-94778827D01*
X154764338Y-94435299D01*
X154764604Y-94130050D01*
X154822043Y-94106317D01*
X155085292Y-93843527D01*
X155227938Y-93499999D01*
X155228262Y-93128033D01*
X155168370Y-92983084D01*
X155350539Y-92946848D01*
X155597101Y-92782101D01*
X155598080Y-92781122D01*
X155643567Y-92781162D01*
X155987343Y-92639117D01*
X156163839Y-92462929D01*
X156237273Y-92536492D01*
X156580801Y-92679138D01*
X156952767Y-92679462D01*
X157296543Y-92537417D01*
X157559792Y-92274627D01*
X157702438Y-91931099D01*
X157702762Y-91559133D01*
X157560717Y-91215357D01*
X157297927Y-90952108D01*
X156954399Y-90809462D01*
X156907523Y-90809421D01*
X156688701Y-90590599D01*
X156442139Y-90425852D01*
X156151300Y-90368000D01*
X153527300Y-90368000D01*
X153238070Y-90425532D01*
X157008980Y-86654622D01*
X157054467Y-86654662D01*
X157398243Y-86512617D01*
X157661492Y-86249827D01*
X157804138Y-85906299D01*
X157804462Y-85534333D01*
X157662417Y-85190557D01*
X157399627Y-84927308D01*
X157103258Y-84804244D01*
X157599601Y-84307901D01*
X157764348Y-84061339D01*
X157822200Y-83770500D01*
X157822200Y-83295263D01*
X157854392Y-83263127D01*
X157997038Y-82919599D01*
X157997103Y-82844505D01*
X165744700Y-90592102D01*
X165744700Y-90592102D01*
G37*
X165744700Y-90592102D02*
X165744700Y-109234960D01*
X163882400Y-109234960D01*
X163647083Y-109279238D01*
X163430959Y-109418310D01*
X163285969Y-109630510D01*
X163234960Y-109882400D01*
X163234960Y-110294132D01*
X163216260Y-110297852D01*
X162969699Y-110462599D01*
X158925298Y-114507000D01*
X154074902Y-114507000D01*
X156271280Y-112310622D01*
X156279238Y-112352917D01*
X156418310Y-112569041D01*
X156630510Y-112714031D01*
X156882400Y-112765040D01*
X159117600Y-112765040D01*
X159352917Y-112720762D01*
X159569041Y-112581690D01*
X159714031Y-112369490D01*
X159765040Y-112117600D01*
X159765040Y-109882400D01*
X159720762Y-109647083D01*
X159581690Y-109430959D01*
X159369490Y-109285969D01*
X159117600Y-109234960D01*
X156882400Y-109234960D01*
X156647083Y-109279238D01*
X156430959Y-109418310D01*
X156285969Y-109630510D01*
X156234960Y-109882400D01*
X156234960Y-110294133D01*
X156216261Y-110297852D01*
X155969699Y-110462599D01*
X154027844Y-112404454D01*
X154028162Y-112039633D01*
X153886117Y-111695857D01*
X153623327Y-111432608D01*
X153279799Y-111289962D01*
X153232923Y-111289921D01*
X148250501Y-106307499D01*
X148003939Y-106142752D01*
X147713100Y-106084900D01*
X136652049Y-106084900D01*
X136652162Y-105955733D01*
X136510117Y-105611957D01*
X136247327Y-105348708D01*
X135903799Y-105206062D01*
X135856923Y-105206021D01*
X135832202Y-105181300D01*
X138194637Y-105181300D01*
X138226773Y-105213492D01*
X138570301Y-105356138D01*
X138942267Y-105356462D01*
X139286043Y-105214417D01*
X139549292Y-104951627D01*
X139691938Y-104608099D01*
X139691979Y-104561223D01*
X140475553Y-103777649D01*
X140558643Y-103743317D01*
X140812048Y-103490354D01*
X141166167Y-103490662D01*
X141509943Y-103348617D01*
X141773192Y-103085827D01*
X141915838Y-102742299D01*
X141916162Y-102370333D01*
X141774117Y-102026557D01*
X141511327Y-101763308D01*
X141167799Y-101620662D01*
X141062805Y-101620571D01*
X140991239Y-101572752D01*
X140700400Y-101514900D01*
X134071502Y-101514900D01*
X130897002Y-98340400D01*
X138252560Y-98340400D01*
X138252560Y-99860000D01*
X138296838Y-100095317D01*
X138435910Y-100311441D01*
X138648110Y-100456431D01*
X138900000Y-100507440D01*
X140500000Y-100507440D01*
X140735317Y-100463162D01*
X140951441Y-100324090D01*
X141096431Y-100111890D01*
X141105370Y-100067745D01*
X141371861Y-100067745D01*
X141445995Y-100313864D01*
X141983223Y-100506965D01*
X142553454Y-100479778D01*
X142954005Y-100313864D01*
X143028139Y-100067745D01*
X142200000Y-99239605D01*
X141371861Y-100067745D01*
X141105370Y-100067745D01*
X141144646Y-99873799D01*
X141192255Y-99888139D01*
X142020395Y-99060000D01*
X142006252Y-99045858D01*
X142185858Y-98866252D01*
X142200000Y-98880395D01*
X142214142Y-98866252D01*
X142393748Y-99045858D01*
X142379605Y-99060000D01*
X143207745Y-99888139D01*
X143453864Y-99814005D01*
X143646965Y-99276777D01*
X143619778Y-98706546D01*
X143468115Y-98340400D01*
X147018537Y-98340400D01*
X147050673Y-98372592D01*
X147394201Y-98515238D01*
X147766167Y-98515562D01*
X148109943Y-98373517D01*
X148373192Y-98110727D01*
X148515838Y-97767199D01*
X148516162Y-97395233D01*
X148374117Y-97051457D01*
X148111327Y-96788208D01*
X147891675Y-96697000D01*
X148084537Y-96697000D01*
X148116673Y-96729192D01*
X148460201Y-96871838D01*
X148832167Y-96872162D01*
X149175943Y-96730117D01*
X149439192Y-96467327D01*
X149581838Y-96123799D01*
X149582047Y-95884400D01*
X150966598Y-95884400D01*
X153179378Y-98097180D01*
X153179338Y-98142667D01*
X153321383Y-98486443D01*
X153584173Y-98749692D01*
X153927701Y-98892338D01*
X154299667Y-98892662D01*
X154643443Y-98750617D01*
X154906692Y-98487827D01*
X155049338Y-98144299D01*
X155049662Y-97772333D01*
X154907617Y-97428557D01*
X154644827Y-97165308D01*
X154301299Y-97022662D01*
X154254423Y-97022621D01*
X152240302Y-95008500D01*
X153267037Y-95008500D01*
X153299173Y-95040692D01*
X153642701Y-95183338D01*
X154014667Y-95183662D01*
X154358443Y-95041617D01*
X154621692Y-94778827D01*
X154764338Y-94435299D01*
X154764604Y-94130050D01*
X154822043Y-94106317D01*
X155085292Y-93843527D01*
X155227938Y-93499999D01*
X155228262Y-93128033D01*
X155168370Y-92983084D01*
X155350539Y-92946848D01*
X155597101Y-92782101D01*
X155598080Y-92781122D01*
X155643567Y-92781162D01*
X155987343Y-92639117D01*
X156163839Y-92462929D01*
X156237273Y-92536492D01*
X156580801Y-92679138D01*
X156952767Y-92679462D01*
X157296543Y-92537417D01*
X157559792Y-92274627D01*
X157702438Y-91931099D01*
X157702762Y-91559133D01*
X157560717Y-91215357D01*
X157297927Y-90952108D01*
X156954399Y-90809462D01*
X156907523Y-90809421D01*
X156688701Y-90590599D01*
X156442139Y-90425852D01*
X156151300Y-90368000D01*
X153527300Y-90368000D01*
X153238070Y-90425532D01*
X157008980Y-86654622D01*
X157054467Y-86654662D01*
X157398243Y-86512617D01*
X157661492Y-86249827D01*
X157804138Y-85906299D01*
X157804462Y-85534333D01*
X157662417Y-85190557D01*
X157399627Y-84927308D01*
X157103258Y-84804244D01*
X157599601Y-84307901D01*
X157764348Y-84061339D01*
X157822200Y-83770500D01*
X157822200Y-83295263D01*
X157854392Y-83263127D01*
X157997038Y-82919599D01*
X157997103Y-82844505D01*
X165744700Y-90592102D01*
G36*
X135793748Y-87595858D02*
X135779605Y-87610000D01*
X135793748Y-87624143D01*
X135614143Y-87803748D01*
X135600000Y-87789605D01*
X135585858Y-87803748D01*
X135406253Y-87624143D01*
X135420395Y-87610000D01*
X135406253Y-87595858D01*
X135585858Y-87416253D01*
X135600000Y-87430395D01*
X135614143Y-87416253D01*
X135793748Y-87595858D01*
X135793748Y-87595858D01*
G37*
X135793748Y-87595858D02*
X135779605Y-87610000D01*
X135793748Y-87624143D01*
X135614143Y-87803748D01*
X135600000Y-87789605D01*
X135585858Y-87803748D01*
X135406253Y-87624143D01*
X135420395Y-87610000D01*
X135406253Y-87595858D01*
X135585858Y-87416253D01*
X135600000Y-87430395D01*
X135614143Y-87416253D01*
X135793748Y-87595858D01*
G36*
X131793748Y-87595858D02*
X131779605Y-87610000D01*
X131793748Y-87624143D01*
X131614143Y-87803748D01*
X131600000Y-87789605D01*
X131585858Y-87803748D01*
X131406253Y-87624143D01*
X131420395Y-87610000D01*
X131406253Y-87595858D01*
X131585858Y-87416253D01*
X131600000Y-87430395D01*
X131614143Y-87416253D01*
X131793748Y-87595858D01*
X131793748Y-87595858D01*
G37*
X131793748Y-87595858D02*
X131779605Y-87610000D01*
X131793748Y-87624143D01*
X131614143Y-87803748D01*
X131600000Y-87789605D01*
X131585858Y-87803748D01*
X131406253Y-87624143D01*
X131420395Y-87610000D01*
X131406253Y-87595858D01*
X131585858Y-87416253D01*
X131600000Y-87430395D01*
X131614143Y-87416253D01*
X131793748Y-87595858D01*
G36*
X127793748Y-85095858D02*
X127779605Y-85110000D01*
X128501917Y-85832312D01*
X128503586Y-85831906D01*
X128506602Y-85839206D01*
X128868887Y-86202124D01*
X129249446Y-86360146D01*
X128870794Y-86516602D01*
X128507876Y-86878887D01*
X128504010Y-86888197D01*
X128501917Y-86887688D01*
X127779605Y-87610000D01*
X127793748Y-87624143D01*
X127614143Y-87803748D01*
X127600000Y-87789605D01*
X127585858Y-87803748D01*
X127406253Y-87624143D01*
X127420395Y-87610000D01*
X126698083Y-86887688D01*
X126696414Y-86888094D01*
X126693398Y-86880794D01*
X126331113Y-86517876D01*
X125950554Y-86359854D01*
X126329206Y-86203398D01*
X126521021Y-86011917D01*
X126877688Y-86011917D01*
X126933862Y-86242926D01*
X127240925Y-86349885D01*
X126933862Y-86477074D01*
X126877688Y-86708083D01*
X127600000Y-87430395D01*
X128322312Y-86708083D01*
X128266138Y-86477074D01*
X127959075Y-86370115D01*
X128266138Y-86242926D01*
X128322312Y-86011917D01*
X127600000Y-85289605D01*
X126877688Y-86011917D01*
X126521021Y-86011917D01*
X126692124Y-85841113D01*
X126695990Y-85831803D01*
X126698083Y-85832312D01*
X127420395Y-85110000D01*
X127406253Y-85095858D01*
X127585858Y-84916253D01*
X127600000Y-84930395D01*
X127614143Y-84916253D01*
X127793748Y-85095858D01*
X127793748Y-85095858D01*
G37*
X127793748Y-85095858D02*
X127779605Y-85110000D01*
X128501917Y-85832312D01*
X128503586Y-85831906D01*
X128506602Y-85839206D01*
X128868887Y-86202124D01*
X129249446Y-86360146D01*
X128870794Y-86516602D01*
X128507876Y-86878887D01*
X128504010Y-86888197D01*
X128501917Y-86887688D01*
X127779605Y-87610000D01*
X127793748Y-87624143D01*
X127614143Y-87803748D01*
X127600000Y-87789605D01*
X127585858Y-87803748D01*
X127406253Y-87624143D01*
X127420395Y-87610000D01*
X126698083Y-86887688D01*
X126696414Y-86888094D01*
X126693398Y-86880794D01*
X126331113Y-86517876D01*
X125950554Y-86359854D01*
X126329206Y-86203398D01*
X126521021Y-86011917D01*
X126877688Y-86011917D01*
X126933862Y-86242926D01*
X127240925Y-86349885D01*
X126933862Y-86477074D01*
X126877688Y-86708083D01*
X127600000Y-87430395D01*
X128322312Y-86708083D01*
X128266138Y-86477074D01*
X127959075Y-86370115D01*
X128266138Y-86242926D01*
X128322312Y-86011917D01*
X127600000Y-85289605D01*
X126877688Y-86011917D01*
X126521021Y-86011917D01*
X126692124Y-85841113D01*
X126695990Y-85831803D01*
X126698083Y-85832312D01*
X127420395Y-85110000D01*
X127406253Y-85095858D01*
X127585858Y-84916253D01*
X127600000Y-84930395D01*
X127614143Y-84916253D01*
X127793748Y-85095858D01*
G36*
X123793748Y-85095858D02*
X123779605Y-85110000D01*
X124501917Y-85832312D01*
X124503586Y-85831906D01*
X124506602Y-85839206D01*
X124868887Y-86202124D01*
X125249446Y-86360146D01*
X124870794Y-86516602D01*
X124599845Y-86787078D01*
X124331113Y-86517876D01*
X123967181Y-86366758D01*
X124266138Y-86242926D01*
X124322312Y-86011917D01*
X123600000Y-85289605D01*
X123585858Y-85303748D01*
X123406253Y-85124143D01*
X123420395Y-85110000D01*
X123406253Y-85095858D01*
X123585858Y-84916253D01*
X123600000Y-84930395D01*
X123614143Y-84916253D01*
X123793748Y-85095858D01*
X123793748Y-85095858D01*
G37*
X123793748Y-85095858D02*
X123779605Y-85110000D01*
X124501917Y-85832312D01*
X124503586Y-85831906D01*
X124506602Y-85839206D01*
X124868887Y-86202124D01*
X125249446Y-86360146D01*
X124870794Y-86516602D01*
X124599845Y-86787078D01*
X124331113Y-86517876D01*
X123967181Y-86366758D01*
X124266138Y-86242926D01*
X124322312Y-86011917D01*
X123600000Y-85289605D01*
X123585858Y-85303748D01*
X123406253Y-85124143D01*
X123420395Y-85110000D01*
X123406253Y-85095858D01*
X123585858Y-84916253D01*
X123600000Y-84930395D01*
X123614143Y-84916253D01*
X123793748Y-85095858D01*
G36*
X135793748Y-85095858D02*
X135779605Y-85110000D01*
X135793748Y-85124143D01*
X135614143Y-85303748D01*
X135600000Y-85289605D01*
X135585858Y-85303748D01*
X135406253Y-85124143D01*
X135420395Y-85110000D01*
X135406253Y-85095858D01*
X135585858Y-84916253D01*
X135600000Y-84930395D01*
X135614143Y-84916253D01*
X135793748Y-85095858D01*
X135793748Y-85095858D01*
G37*
X135793748Y-85095858D02*
X135779605Y-85110000D01*
X135793748Y-85124143D01*
X135614143Y-85303748D01*
X135600000Y-85289605D01*
X135585858Y-85303748D01*
X135406253Y-85124143D01*
X135420395Y-85110000D01*
X135406253Y-85095858D01*
X135585858Y-84916253D01*
X135600000Y-84930395D01*
X135614143Y-84916253D01*
X135793748Y-85095858D01*
G36*
X113793748Y-85095858D02*
X113779605Y-85110000D01*
X113793748Y-85124143D01*
X113614143Y-85303748D01*
X113600000Y-85289605D01*
X113585858Y-85303748D01*
X113406253Y-85124143D01*
X113420395Y-85110000D01*
X113406253Y-85095858D01*
X113585858Y-84916253D01*
X113600000Y-84930395D01*
X113614143Y-84916253D01*
X113793748Y-85095858D01*
X113793748Y-85095858D01*
G37*
X113793748Y-85095858D02*
X113779605Y-85110000D01*
X113793748Y-85124143D01*
X113614143Y-85303748D01*
X113600000Y-85289605D01*
X113585858Y-85303748D01*
X113406253Y-85124143D01*
X113420395Y-85110000D01*
X113406253Y-85095858D01*
X113585858Y-84916253D01*
X113600000Y-84930395D01*
X113614143Y-84916253D01*
X113793748Y-85095858D01*
G36*
X117793748Y-85095858D02*
X117779605Y-85110000D01*
X117793748Y-85124143D01*
X117614143Y-85303748D01*
X117600000Y-85289605D01*
X117585858Y-85303748D01*
X117406253Y-85124143D01*
X117420395Y-85110000D01*
X117406253Y-85095858D01*
X117585858Y-84916253D01*
X117600000Y-84930395D01*
X117614143Y-84916253D01*
X117793748Y-85095858D01*
X117793748Y-85095858D01*
G37*
X117793748Y-85095858D02*
X117779605Y-85110000D01*
X117793748Y-85124143D01*
X117614143Y-85303748D01*
X117600000Y-85289605D01*
X117585858Y-85303748D01*
X117406253Y-85124143D01*
X117420395Y-85110000D01*
X117406253Y-85095858D01*
X117585858Y-84916253D01*
X117600000Y-84930395D01*
X117614143Y-84916253D01*
X117793748Y-85095858D01*
G36*
X131793748Y-85095858D02*
X131779605Y-85110000D01*
X131793748Y-85124143D01*
X131614143Y-85303748D01*
X131600000Y-85289605D01*
X131585858Y-85303748D01*
X131406253Y-85124143D01*
X131420395Y-85110000D01*
X131406253Y-85095858D01*
X131585858Y-84916253D01*
X131600000Y-84930395D01*
X131614143Y-84916253D01*
X131793748Y-85095858D01*
X131793748Y-85095858D01*
G37*
X131793748Y-85095858D02*
X131779605Y-85110000D01*
X131793748Y-85124143D01*
X131614143Y-85303748D01*
X131600000Y-85289605D01*
X131585858Y-85303748D01*
X131406253Y-85124143D01*
X131420395Y-85110000D01*
X131406253Y-85095858D01*
X131585858Y-84916253D01*
X131600000Y-84930395D01*
X131614143Y-84916253D01*
X131793748Y-85095858D01*
G36*
X139793748Y-85095858D02*
X139779605Y-85110000D01*
X139793748Y-85124143D01*
X139614143Y-85303748D01*
X139600000Y-85289605D01*
X139585858Y-85303748D01*
X139406253Y-85124143D01*
X139420395Y-85110000D01*
X139406253Y-85095858D01*
X139585858Y-84916253D01*
X139600000Y-84930395D01*
X139614143Y-84916253D01*
X139793748Y-85095858D01*
X139793748Y-85095858D01*
G37*
X139793748Y-85095858D02*
X139779605Y-85110000D01*
X139793748Y-85124143D01*
X139614143Y-85303748D01*
X139600000Y-85289605D01*
X139585858Y-85303748D01*
X139406253Y-85124143D01*
X139420395Y-85110000D01*
X139406253Y-85095858D01*
X139585858Y-84916253D01*
X139600000Y-84930395D01*
X139614143Y-84916253D01*
X139793748Y-85095858D01*
G36*
X109727000Y-84983000D02*
X109747000Y-84983000D01*
X109747000Y-85237000D01*
X109727000Y-85237000D01*
X109727000Y-85257000D01*
X109473000Y-85257000D01*
X109473000Y-85237000D01*
X109453000Y-85237000D01*
X109453000Y-84983000D01*
X109473000Y-84983000D01*
X109473000Y-84963000D01*
X109727000Y-84963000D01*
X109727000Y-84983000D01*
X109727000Y-84983000D01*
G37*
X109727000Y-84983000D02*
X109747000Y-84983000D01*
X109747000Y-85237000D01*
X109727000Y-85237000D01*
X109727000Y-85257000D01*
X109473000Y-85257000D01*
X109473000Y-85237000D01*
X109453000Y-85237000D01*
X109453000Y-84983000D01*
X109473000Y-84983000D01*
X109473000Y-84963000D01*
X109727000Y-84963000D01*
X109727000Y-84983000D01*
G36*
X121311224Y-82852477D02*
X121310777Y-83365273D01*
X121506602Y-83839206D01*
X121868887Y-84202124D01*
X122342477Y-84398776D01*
X122651378Y-84399045D01*
X122467074Y-84443862D01*
X122319015Y-84868919D01*
X122276621Y-84826451D01*
X121611611Y-84550315D01*
X120891548Y-84549686D01*
X120781902Y-84594991D01*
X120693398Y-84380794D01*
X120331113Y-84017876D01*
X119857523Y-83821224D01*
X119700440Y-83821087D01*
X119888776Y-83367523D01*
X119889223Y-82854727D01*
X119758519Y-82538400D01*
X121441640Y-82538400D01*
X121311224Y-82852477D01*
X121311224Y-82852477D01*
G37*
X121311224Y-82852477D02*
X121310777Y-83365273D01*
X121506602Y-83839206D01*
X121868887Y-84202124D01*
X122342477Y-84398776D01*
X122651378Y-84399045D01*
X122467074Y-84443862D01*
X122319015Y-84868919D01*
X122276621Y-84826451D01*
X121611611Y-84550315D01*
X120891548Y-84549686D01*
X120781902Y-84594991D01*
X120693398Y-84380794D01*
X120331113Y-84017876D01*
X119857523Y-83821224D01*
X119700440Y-83821087D01*
X119888776Y-83367523D01*
X119889223Y-82854727D01*
X119758519Y-82538400D01*
X121441640Y-82538400D01*
X121311224Y-82852477D01*
G36*
X142793748Y-83095858D02*
X142779605Y-83110000D01*
X142793748Y-83124143D01*
X142614143Y-83303748D01*
X142600000Y-83289605D01*
X142585858Y-83303748D01*
X142406253Y-83124143D01*
X142420395Y-83110000D01*
X142406253Y-83095858D01*
X142585858Y-82916253D01*
X142600000Y-82930395D01*
X142614143Y-82916253D01*
X142793748Y-83095858D01*
X142793748Y-83095858D01*
G37*
X142793748Y-83095858D02*
X142779605Y-83110000D01*
X142793748Y-83124143D01*
X142614143Y-83303748D01*
X142600000Y-83289605D01*
X142585858Y-83303748D01*
X142406253Y-83124143D01*
X142420395Y-83110000D01*
X142406253Y-83095858D01*
X142585858Y-82916253D01*
X142600000Y-82930395D01*
X142614143Y-82916253D01*
X142793748Y-83095858D01*
G36*
X142393748Y-73645858D02*
X142379605Y-73660000D01*
X142393748Y-73674142D01*
X142214142Y-73853748D01*
X142200000Y-73839605D01*
X142185858Y-73853748D01*
X142006253Y-73674143D01*
X142020395Y-73660000D01*
X142006252Y-73645858D01*
X142185858Y-73466252D01*
X142200000Y-73480395D01*
X142214142Y-73466252D01*
X142393748Y-73645858D01*
X142393748Y-73645858D01*
G37*
X142393748Y-73645858D02*
X142379605Y-73660000D01*
X142393748Y-73674142D01*
X142214142Y-73853748D01*
X142200000Y-73839605D01*
X142185858Y-73853748D01*
X142006253Y-73674143D01*
X142020395Y-73660000D01*
X142006252Y-73645858D01*
X142185858Y-73466252D01*
X142200000Y-73480395D01*
X142214142Y-73466252D01*
X142393748Y-73645858D01*
G36*
X131793748Y-59695858D02*
X131779605Y-59710000D01*
X132501917Y-60432312D01*
X132503586Y-60431906D01*
X132506602Y-60439206D01*
X132868887Y-60802124D01*
X133249446Y-60960146D01*
X132870794Y-61116602D01*
X132507876Y-61478887D01*
X132504010Y-61488197D01*
X132501917Y-61487688D01*
X131779605Y-62210000D01*
X131793748Y-62224143D01*
X131614143Y-62403748D01*
X131600000Y-62389605D01*
X131585858Y-62403748D01*
X131406253Y-62224143D01*
X131420395Y-62210000D01*
X130698083Y-61487688D01*
X130696414Y-61488094D01*
X130693398Y-61480794D01*
X130331113Y-61117876D01*
X129950554Y-60959854D01*
X130329206Y-60803398D01*
X130521021Y-60611917D01*
X130877688Y-60611917D01*
X130933862Y-60842926D01*
X131240925Y-60949885D01*
X130933862Y-61077074D01*
X130877688Y-61308083D01*
X131600000Y-62030395D01*
X132322312Y-61308083D01*
X132266138Y-61077074D01*
X131959075Y-60970115D01*
X132266138Y-60842926D01*
X132322312Y-60611917D01*
X131600000Y-59889605D01*
X130877688Y-60611917D01*
X130521021Y-60611917D01*
X130692124Y-60441113D01*
X130695990Y-60431803D01*
X130698083Y-60432312D01*
X131420395Y-59710000D01*
X131406253Y-59695858D01*
X131585858Y-59516253D01*
X131600000Y-59530395D01*
X131614143Y-59516253D01*
X131793748Y-59695858D01*
X131793748Y-59695858D01*
G37*
X131793748Y-59695858D02*
X131779605Y-59710000D01*
X132501917Y-60432312D01*
X132503586Y-60431906D01*
X132506602Y-60439206D01*
X132868887Y-60802124D01*
X133249446Y-60960146D01*
X132870794Y-61116602D01*
X132507876Y-61478887D01*
X132504010Y-61488197D01*
X132501917Y-61487688D01*
X131779605Y-62210000D01*
X131793748Y-62224143D01*
X131614143Y-62403748D01*
X131600000Y-62389605D01*
X131585858Y-62403748D01*
X131406253Y-62224143D01*
X131420395Y-62210000D01*
X130698083Y-61487688D01*
X130696414Y-61488094D01*
X130693398Y-61480794D01*
X130331113Y-61117876D01*
X129950554Y-60959854D01*
X130329206Y-60803398D01*
X130521021Y-60611917D01*
X130877688Y-60611917D01*
X130933862Y-60842926D01*
X131240925Y-60949885D01*
X130933862Y-61077074D01*
X130877688Y-61308083D01*
X131600000Y-62030395D01*
X132322312Y-61308083D01*
X132266138Y-61077074D01*
X131959075Y-60970115D01*
X132266138Y-60842926D01*
X132322312Y-60611917D01*
X131600000Y-59889605D01*
X130877688Y-60611917D01*
X130521021Y-60611917D01*
X130692124Y-60441113D01*
X130695990Y-60431803D01*
X130698083Y-60432312D01*
X131420395Y-59710000D01*
X131406253Y-59695858D01*
X131585858Y-59516253D01*
X131600000Y-59530395D01*
X131614143Y-59516253D01*
X131793748Y-59695858D01*
G36*
X135793748Y-59695858D02*
X135779605Y-59710000D01*
X136501917Y-60432312D01*
X136503586Y-60431906D01*
X136506602Y-60439206D01*
X136868887Y-60802124D01*
X137249446Y-60960146D01*
X136870794Y-61116602D01*
X136507876Y-61478887D01*
X136504010Y-61488197D01*
X136501917Y-61487688D01*
X135779605Y-62210000D01*
X135793748Y-62224143D01*
X135614143Y-62403748D01*
X135600000Y-62389605D01*
X135585858Y-62403748D01*
X135406253Y-62224143D01*
X135420395Y-62210000D01*
X134698083Y-61487688D01*
X134696414Y-61488094D01*
X134693398Y-61480794D01*
X134331113Y-61117876D01*
X133950554Y-60959854D01*
X134329206Y-60803398D01*
X134521021Y-60611917D01*
X134877688Y-60611917D01*
X134933862Y-60842926D01*
X135240925Y-60949885D01*
X134933862Y-61077074D01*
X134877688Y-61308083D01*
X135600000Y-62030395D01*
X136322312Y-61308083D01*
X136266138Y-61077074D01*
X135959075Y-60970115D01*
X136266138Y-60842926D01*
X136322312Y-60611917D01*
X135600000Y-59889605D01*
X134877688Y-60611917D01*
X134521021Y-60611917D01*
X134692124Y-60441113D01*
X134695990Y-60431803D01*
X134698083Y-60432312D01*
X135420395Y-59710000D01*
X135406253Y-59695858D01*
X135585858Y-59516253D01*
X135600000Y-59530395D01*
X135614143Y-59516253D01*
X135793748Y-59695858D01*
X135793748Y-59695858D01*
G37*
X135793748Y-59695858D02*
X135779605Y-59710000D01*
X136501917Y-60432312D01*
X136503586Y-60431906D01*
X136506602Y-60439206D01*
X136868887Y-60802124D01*
X137249446Y-60960146D01*
X136870794Y-61116602D01*
X136507876Y-61478887D01*
X136504010Y-61488197D01*
X136501917Y-61487688D01*
X135779605Y-62210000D01*
X135793748Y-62224143D01*
X135614143Y-62403748D01*
X135600000Y-62389605D01*
X135585858Y-62403748D01*
X135406253Y-62224143D01*
X135420395Y-62210000D01*
X134698083Y-61487688D01*
X134696414Y-61488094D01*
X134693398Y-61480794D01*
X134331113Y-61117876D01*
X133950554Y-60959854D01*
X134329206Y-60803398D01*
X134521021Y-60611917D01*
X134877688Y-60611917D01*
X134933862Y-60842926D01*
X135240925Y-60949885D01*
X134933862Y-61077074D01*
X134877688Y-61308083D01*
X135600000Y-62030395D01*
X136322312Y-61308083D01*
X136266138Y-61077074D01*
X135959075Y-60970115D01*
X136266138Y-60842926D01*
X136322312Y-60611917D01*
X135600000Y-59889605D01*
X134877688Y-60611917D01*
X134521021Y-60611917D01*
X134692124Y-60441113D01*
X134695990Y-60431803D01*
X134698083Y-60432312D01*
X135420395Y-59710000D01*
X135406253Y-59695858D01*
X135585858Y-59516253D01*
X135600000Y-59530395D01*
X135614143Y-59516253D01*
X135793748Y-59695858D01*
G36*
X127793748Y-59695858D02*
X127779605Y-59710000D01*
X128501917Y-60432312D01*
X128503586Y-60431906D01*
X128506602Y-60439206D01*
X128868887Y-60802124D01*
X129249446Y-60960146D01*
X128870794Y-61116602D01*
X128507876Y-61478887D01*
X128504010Y-61488197D01*
X128501917Y-61487688D01*
X127779605Y-62210000D01*
X127793748Y-62224143D01*
X127614143Y-62403748D01*
X127600000Y-62389605D01*
X127585858Y-62403748D01*
X127406253Y-62224143D01*
X127420395Y-62210000D01*
X126698083Y-61487688D01*
X126696414Y-61488094D01*
X126693398Y-61480794D01*
X126331113Y-61117876D01*
X125950554Y-60959854D01*
X126329206Y-60803398D01*
X126521021Y-60611917D01*
X126877688Y-60611917D01*
X126933862Y-60842926D01*
X127240925Y-60949885D01*
X126933862Y-61077074D01*
X126877688Y-61308083D01*
X127600000Y-62030395D01*
X128322312Y-61308083D01*
X128266138Y-61077074D01*
X127959075Y-60970115D01*
X128266138Y-60842926D01*
X128322312Y-60611917D01*
X127600000Y-59889605D01*
X126877688Y-60611917D01*
X126521021Y-60611917D01*
X126692124Y-60441113D01*
X126695990Y-60431803D01*
X126698083Y-60432312D01*
X127420395Y-59710000D01*
X127406253Y-59695858D01*
X127585858Y-59516253D01*
X127600000Y-59530395D01*
X127614143Y-59516253D01*
X127793748Y-59695858D01*
X127793748Y-59695858D01*
G37*
X127793748Y-59695858D02*
X127779605Y-59710000D01*
X128501917Y-60432312D01*
X128503586Y-60431906D01*
X128506602Y-60439206D01*
X128868887Y-60802124D01*
X129249446Y-60960146D01*
X128870794Y-61116602D01*
X128507876Y-61478887D01*
X128504010Y-61488197D01*
X128501917Y-61487688D01*
X127779605Y-62210000D01*
X127793748Y-62224143D01*
X127614143Y-62403748D01*
X127600000Y-62389605D01*
X127585858Y-62403748D01*
X127406253Y-62224143D01*
X127420395Y-62210000D01*
X126698083Y-61487688D01*
X126696414Y-61488094D01*
X126693398Y-61480794D01*
X126331113Y-61117876D01*
X125950554Y-60959854D01*
X126329206Y-60803398D01*
X126521021Y-60611917D01*
X126877688Y-60611917D01*
X126933862Y-60842926D01*
X127240925Y-60949885D01*
X126933862Y-61077074D01*
X126877688Y-61308083D01*
X127600000Y-62030395D01*
X128322312Y-61308083D01*
X128266138Y-61077074D01*
X127959075Y-60970115D01*
X128266138Y-60842926D01*
X128322312Y-60611917D01*
X127600000Y-59889605D01*
X126877688Y-60611917D01*
X126521021Y-60611917D01*
X126692124Y-60441113D01*
X126695990Y-60431803D01*
X126698083Y-60432312D01*
X127420395Y-59710000D01*
X127406253Y-59695858D01*
X127585858Y-59516253D01*
X127600000Y-59530395D01*
X127614143Y-59516253D01*
X127793748Y-59695858D01*
G36*
X139793748Y-59695858D02*
X139779605Y-59710000D01*
X139793748Y-59724143D01*
X139614143Y-59903748D01*
X139600000Y-59889605D01*
X138877688Y-60611917D01*
X138933862Y-60842926D01*
X139259024Y-60956189D01*
X138870794Y-61116602D01*
X138599845Y-61387078D01*
X138331113Y-61117876D01*
X137950554Y-60959854D01*
X138329206Y-60803398D01*
X138692124Y-60441113D01*
X138695990Y-60431803D01*
X138698083Y-60432312D01*
X139420395Y-59710000D01*
X139406253Y-59695858D01*
X139585858Y-59516253D01*
X139600000Y-59530395D01*
X139614143Y-59516253D01*
X139793748Y-59695858D01*
X139793748Y-59695858D01*
G37*
X139793748Y-59695858D02*
X139779605Y-59710000D01*
X139793748Y-59724143D01*
X139614143Y-59903748D01*
X139600000Y-59889605D01*
X138877688Y-60611917D01*
X138933862Y-60842926D01*
X139259024Y-60956189D01*
X138870794Y-61116602D01*
X138599845Y-61387078D01*
X138331113Y-61117876D01*
X137950554Y-60959854D01*
X138329206Y-60803398D01*
X138692124Y-60441113D01*
X138695990Y-60431803D01*
X138698083Y-60432312D01*
X139420395Y-59710000D01*
X139406253Y-59695858D01*
X139585858Y-59516253D01*
X139600000Y-59530395D01*
X139614143Y-59516253D01*
X139793748Y-59695858D01*
G36*
X123793748Y-59695858D02*
X123779605Y-59710000D01*
X124501917Y-60432312D01*
X124503586Y-60431906D01*
X124506602Y-60439206D01*
X124868887Y-60802124D01*
X125249446Y-60960146D01*
X124870794Y-61116602D01*
X124599845Y-61387078D01*
X124331113Y-61117876D01*
X123967181Y-60966758D01*
X124266138Y-60842926D01*
X124322312Y-60611917D01*
X123600000Y-59889605D01*
X123585858Y-59903748D01*
X123406253Y-59724143D01*
X123420395Y-59710000D01*
X123406253Y-59695858D01*
X123585858Y-59516253D01*
X123600000Y-59530395D01*
X123614143Y-59516253D01*
X123793748Y-59695858D01*
X123793748Y-59695858D01*
G37*
X123793748Y-59695858D02*
X123779605Y-59710000D01*
X124501917Y-60432312D01*
X124503586Y-60431906D01*
X124506602Y-60439206D01*
X124868887Y-60802124D01*
X125249446Y-60960146D01*
X124870794Y-61116602D01*
X124599845Y-61387078D01*
X124331113Y-61117876D01*
X123967181Y-60966758D01*
X124266138Y-60842926D01*
X124322312Y-60611917D01*
X123600000Y-59889605D01*
X123585858Y-59903748D01*
X123406253Y-59724143D01*
X123420395Y-59710000D01*
X123406253Y-59695858D01*
X123585858Y-59516253D01*
X123600000Y-59530395D01*
X123614143Y-59516253D01*
X123793748Y-59695858D01*
G36*
X117793748Y-59695858D02*
X117779605Y-59710000D01*
X117793748Y-59724143D01*
X117614143Y-59903748D01*
X117600000Y-59889605D01*
X117585858Y-59903748D01*
X117406253Y-59724143D01*
X117420395Y-59710000D01*
X117406253Y-59695858D01*
X117585858Y-59516253D01*
X117600000Y-59530395D01*
X117614143Y-59516253D01*
X117793748Y-59695858D01*
X117793748Y-59695858D01*
G37*
X117793748Y-59695858D02*
X117779605Y-59710000D01*
X117793748Y-59724143D01*
X117614143Y-59903748D01*
X117600000Y-59889605D01*
X117585858Y-59903748D01*
X117406253Y-59724143D01*
X117420395Y-59710000D01*
X117406253Y-59695858D01*
X117585858Y-59516253D01*
X117600000Y-59530395D01*
X117614143Y-59516253D01*
X117793748Y-59695858D01*
G36*
X113793748Y-59695858D02*
X113779605Y-59710000D01*
X113793748Y-59724143D01*
X113614143Y-59903748D01*
X113600000Y-59889605D01*
X113585858Y-59903748D01*
X113406253Y-59724143D01*
X113420395Y-59710000D01*
X113406253Y-59695858D01*
X113585858Y-59516253D01*
X113600000Y-59530395D01*
X113614143Y-59516253D01*
X113793748Y-59695858D01*
X113793748Y-59695858D01*
G37*
X113793748Y-59695858D02*
X113779605Y-59710000D01*
X113793748Y-59724143D01*
X113614143Y-59903748D01*
X113600000Y-59889605D01*
X113585858Y-59903748D01*
X113406253Y-59724143D01*
X113420395Y-59710000D01*
X113406253Y-59695858D01*
X113585858Y-59516253D01*
X113600000Y-59530395D01*
X113614143Y-59516253D01*
X113793748Y-59695858D01*
G36*
X110116059Y-56515261D02*
X109870794Y-56616602D01*
X109507876Y-56978887D01*
X109311224Y-57452477D01*
X109310777Y-57965273D01*
X109499079Y-58421000D01*
X109472998Y-58421000D01*
X109472998Y-58579748D01*
X109314250Y-58421000D01*
X108819691Y-58421000D01*
X108586302Y-58517673D01*
X108407673Y-58696301D01*
X108311000Y-58929690D01*
X108311000Y-59424250D01*
X108469750Y-59583000D01*
X109473000Y-59583000D01*
X109473000Y-59563000D01*
X109727000Y-59563000D01*
X109727000Y-59583000D01*
X109747000Y-59583000D01*
X109747000Y-59837000D01*
X109727000Y-59837000D01*
X109727000Y-59857000D01*
X109473000Y-59857000D01*
X109473000Y-59837000D01*
X108469750Y-59837000D01*
X108450276Y-59856474D01*
X104960772Y-56366970D01*
X105176992Y-56151127D01*
X105319638Y-55807599D01*
X105319962Y-55435633D01*
X105313709Y-55420500D01*
X109021298Y-55420500D01*
X110116059Y-56515261D01*
X110116059Y-56515261D01*
G37*
X110116059Y-56515261D02*
X109870794Y-56616602D01*
X109507876Y-56978887D01*
X109311224Y-57452477D01*
X109310777Y-57965273D01*
X109499079Y-58421000D01*
X109472998Y-58421000D01*
X109472998Y-58579748D01*
X109314250Y-58421000D01*
X108819691Y-58421000D01*
X108586302Y-58517673D01*
X108407673Y-58696301D01*
X108311000Y-58929690D01*
X108311000Y-59424250D01*
X108469750Y-59583000D01*
X109473000Y-59583000D01*
X109473000Y-59563000D01*
X109727000Y-59563000D01*
X109727000Y-59583000D01*
X109747000Y-59583000D01*
X109747000Y-59837000D01*
X109727000Y-59837000D01*
X109727000Y-59857000D01*
X109473000Y-59857000D01*
X109473000Y-59837000D01*
X108469750Y-59837000D01*
X108450276Y-59856474D01*
X104960772Y-56366970D01*
X105176992Y-56151127D01*
X105319638Y-55807599D01*
X105319962Y-55435633D01*
X105313709Y-55420500D01*
X109021298Y-55420500D01*
X110116059Y-56515261D01*
G36*
X121311186Y-57495988D02*
X121310777Y-57965273D01*
X121506602Y-58439206D01*
X121868887Y-58802124D01*
X122342477Y-58998776D01*
X122651378Y-58999045D01*
X122467074Y-59043862D01*
X122319015Y-59468919D01*
X122276621Y-59426451D01*
X121611611Y-59150315D01*
X120891548Y-59149686D01*
X120781902Y-59194991D01*
X120693398Y-58980794D01*
X120331113Y-58617876D01*
X119857523Y-58421224D01*
X119700440Y-58421087D01*
X119888776Y-57967523D01*
X119889223Y-57454727D01*
X119693398Y-56980794D01*
X119331113Y-56617876D01*
X118857523Y-56421224D01*
X118344727Y-56420777D01*
X117870794Y-56616602D01*
X117599845Y-56887078D01*
X117331113Y-56617876D01*
X116857523Y-56421224D01*
X116385615Y-56420813D01*
X115539902Y-55575100D01*
X119390298Y-55575100D01*
X121311186Y-57495988D01*
X121311186Y-57495988D01*
G37*
X121311186Y-57495988D02*
X121310777Y-57965273D01*
X121506602Y-58439206D01*
X121868887Y-58802124D01*
X122342477Y-58998776D01*
X122651378Y-58999045D01*
X122467074Y-59043862D01*
X122319015Y-59468919D01*
X122276621Y-59426451D01*
X121611611Y-59150315D01*
X120891548Y-59149686D01*
X120781902Y-59194991D01*
X120693398Y-58980794D01*
X120331113Y-58617876D01*
X119857523Y-58421224D01*
X119700440Y-58421087D01*
X119888776Y-57967523D01*
X119889223Y-57454727D01*
X119693398Y-56980794D01*
X119331113Y-56617876D01*
X118857523Y-56421224D01*
X118344727Y-56420777D01*
X117870794Y-56616602D01*
X117599845Y-56887078D01*
X117331113Y-56617876D01*
X116857523Y-56421224D01*
X116385615Y-56420813D01*
X115539902Y-55575100D01*
X119390298Y-55575100D01*
X121311186Y-57495988D01*
G36*
X142793748Y-57695858D02*
X142779605Y-57710000D01*
X142793748Y-57724143D01*
X142614143Y-57903748D01*
X142600000Y-57889605D01*
X142585858Y-57903748D01*
X142406253Y-57724143D01*
X142420395Y-57710000D01*
X142406253Y-57695858D01*
X142585858Y-57516253D01*
X142600000Y-57530395D01*
X142614143Y-57516253D01*
X142793748Y-57695858D01*
X142793748Y-57695858D01*
G37*
X142793748Y-57695858D02*
X142779605Y-57710000D01*
X142793748Y-57724143D01*
X142614143Y-57903748D01*
X142600000Y-57889605D01*
X142585858Y-57903748D01*
X142406253Y-57724143D01*
X142420395Y-57710000D01*
X142406253Y-57695858D01*
X142585858Y-57516253D01*
X142600000Y-57530395D01*
X142614143Y-57516253D01*
X142793748Y-57695858D01*
G36*
X142200000Y-48080395D02*
X142214143Y-48066253D01*
X142393748Y-48245858D01*
X142379605Y-48260000D01*
X142393748Y-48274142D01*
X142214143Y-48453748D01*
X142200000Y-48439605D01*
X141856667Y-48782939D01*
X141745957Y-48828683D01*
X141482708Y-49091473D01*
X141436250Y-49203356D01*
X141371861Y-49267745D01*
X141387691Y-49320299D01*
X141340062Y-49435001D01*
X141339738Y-49806967D01*
X141481783Y-50150743D01*
X141514900Y-50183918D01*
X141514900Y-55720298D01*
X140814012Y-56421186D01*
X140344727Y-56420777D01*
X139870794Y-56616602D01*
X139599845Y-56887078D01*
X139331113Y-56617876D01*
X139284600Y-56598562D01*
X139284600Y-49707440D01*
X140500000Y-49707440D01*
X140735317Y-49663162D01*
X140951441Y-49524090D01*
X141096431Y-49311890D01*
X141144646Y-49073799D01*
X141192255Y-49088139D01*
X142020395Y-48260000D01*
X142006252Y-48245858D01*
X142185858Y-48066252D01*
X142200000Y-48080395D01*
X142200000Y-48080395D01*
G37*
X142200000Y-48080395D02*
X142214143Y-48066253D01*
X142393748Y-48245858D01*
X142379605Y-48260000D01*
X142393748Y-48274142D01*
X142214143Y-48453748D01*
X142200000Y-48439605D01*
X141856667Y-48782939D01*
X141745957Y-48828683D01*
X141482708Y-49091473D01*
X141436250Y-49203356D01*
X141371861Y-49267745D01*
X141387691Y-49320299D01*
X141340062Y-49435001D01*
X141339738Y-49806967D01*
X141481783Y-50150743D01*
X141514900Y-50183918D01*
X141514900Y-55720298D01*
X140814012Y-56421186D01*
X140344727Y-56420777D01*
X139870794Y-56616602D01*
X139599845Y-56887078D01*
X139331113Y-56617876D01*
X139284600Y-56598562D01*
X139284600Y-49707440D01*
X140500000Y-49707440D01*
X140735317Y-49663162D01*
X140951441Y-49524090D01*
X141096431Y-49311890D01*
X141144646Y-49073799D01*
X141192255Y-49088139D01*
X142020395Y-48260000D01*
X142006252Y-48245858D01*
X142185858Y-48066252D01*
X142200000Y-48080395D01*
G36*
X127793748Y-34295858D02*
X127779605Y-34310000D01*
X128501917Y-35032312D01*
X128503586Y-35031906D01*
X128506602Y-35039206D01*
X128868887Y-35402124D01*
X129249446Y-35560146D01*
X128870794Y-35716602D01*
X128507876Y-36078887D01*
X128504010Y-36088197D01*
X128501917Y-36087688D01*
X127779605Y-36810000D01*
X127793748Y-36824143D01*
X127614143Y-37003748D01*
X127600000Y-36989605D01*
X127585858Y-37003748D01*
X127406253Y-36824143D01*
X127420395Y-36810000D01*
X126698083Y-36087688D01*
X126696414Y-36088094D01*
X126693398Y-36080794D01*
X126331113Y-35717876D01*
X125950554Y-35559854D01*
X126329206Y-35403398D01*
X126521021Y-35211917D01*
X126877688Y-35211917D01*
X126933862Y-35442926D01*
X127240925Y-35549885D01*
X126933862Y-35677074D01*
X126877688Y-35908083D01*
X127600000Y-36630395D01*
X128322312Y-35908083D01*
X128266138Y-35677074D01*
X127959075Y-35570115D01*
X128266138Y-35442926D01*
X128322312Y-35211917D01*
X127600000Y-34489605D01*
X126877688Y-35211917D01*
X126521021Y-35211917D01*
X126692124Y-35041113D01*
X126695990Y-35031803D01*
X126698083Y-35032312D01*
X127420395Y-34310000D01*
X127406253Y-34295858D01*
X127585858Y-34116253D01*
X127600000Y-34130395D01*
X127614143Y-34116253D01*
X127793748Y-34295858D01*
X127793748Y-34295858D01*
G37*
X127793748Y-34295858D02*
X127779605Y-34310000D01*
X128501917Y-35032312D01*
X128503586Y-35031906D01*
X128506602Y-35039206D01*
X128868887Y-35402124D01*
X129249446Y-35560146D01*
X128870794Y-35716602D01*
X128507876Y-36078887D01*
X128504010Y-36088197D01*
X128501917Y-36087688D01*
X127779605Y-36810000D01*
X127793748Y-36824143D01*
X127614143Y-37003748D01*
X127600000Y-36989605D01*
X127585858Y-37003748D01*
X127406253Y-36824143D01*
X127420395Y-36810000D01*
X126698083Y-36087688D01*
X126696414Y-36088094D01*
X126693398Y-36080794D01*
X126331113Y-35717876D01*
X125950554Y-35559854D01*
X126329206Y-35403398D01*
X126521021Y-35211917D01*
X126877688Y-35211917D01*
X126933862Y-35442926D01*
X127240925Y-35549885D01*
X126933862Y-35677074D01*
X126877688Y-35908083D01*
X127600000Y-36630395D01*
X128322312Y-35908083D01*
X128266138Y-35677074D01*
X127959075Y-35570115D01*
X128266138Y-35442926D01*
X128322312Y-35211917D01*
X127600000Y-34489605D01*
X126877688Y-35211917D01*
X126521021Y-35211917D01*
X126692124Y-35041113D01*
X126695990Y-35031803D01*
X126698083Y-35032312D01*
X127420395Y-34310000D01*
X127406253Y-34295858D01*
X127585858Y-34116253D01*
X127600000Y-34130395D01*
X127614143Y-34116253D01*
X127793748Y-34295858D01*
G36*
X135793748Y-34295858D02*
X135779605Y-34310000D01*
X136501917Y-35032312D01*
X136503586Y-35031906D01*
X136506602Y-35039206D01*
X136868887Y-35402124D01*
X137249446Y-35560146D01*
X136870794Y-35716602D01*
X136507876Y-36078887D01*
X136504010Y-36088197D01*
X136501917Y-36087688D01*
X135779605Y-36810000D01*
X135793748Y-36824143D01*
X135614143Y-37003748D01*
X135600000Y-36989605D01*
X135585858Y-37003748D01*
X135406253Y-36824143D01*
X135420395Y-36810000D01*
X134698083Y-36087688D01*
X134696414Y-36088094D01*
X134693398Y-36080794D01*
X134331113Y-35717876D01*
X133950554Y-35559854D01*
X134329206Y-35403398D01*
X134521021Y-35211917D01*
X134877688Y-35211917D01*
X134933862Y-35442926D01*
X135240925Y-35549885D01*
X134933862Y-35677074D01*
X134877688Y-35908083D01*
X135600000Y-36630395D01*
X136322312Y-35908083D01*
X136266138Y-35677074D01*
X135959075Y-35570115D01*
X136266138Y-35442926D01*
X136322312Y-35211917D01*
X135600000Y-34489605D01*
X134877688Y-35211917D01*
X134521021Y-35211917D01*
X134692124Y-35041113D01*
X134695990Y-35031803D01*
X134698083Y-35032312D01*
X135420395Y-34310000D01*
X135406253Y-34295858D01*
X135585858Y-34116253D01*
X135600000Y-34130395D01*
X135614143Y-34116253D01*
X135793748Y-34295858D01*
X135793748Y-34295858D01*
G37*
X135793748Y-34295858D02*
X135779605Y-34310000D01*
X136501917Y-35032312D01*
X136503586Y-35031906D01*
X136506602Y-35039206D01*
X136868887Y-35402124D01*
X137249446Y-35560146D01*
X136870794Y-35716602D01*
X136507876Y-36078887D01*
X136504010Y-36088197D01*
X136501917Y-36087688D01*
X135779605Y-36810000D01*
X135793748Y-36824143D01*
X135614143Y-37003748D01*
X135600000Y-36989605D01*
X135585858Y-37003748D01*
X135406253Y-36824143D01*
X135420395Y-36810000D01*
X134698083Y-36087688D01*
X134696414Y-36088094D01*
X134693398Y-36080794D01*
X134331113Y-35717876D01*
X133950554Y-35559854D01*
X134329206Y-35403398D01*
X134521021Y-35211917D01*
X134877688Y-35211917D01*
X134933862Y-35442926D01*
X135240925Y-35549885D01*
X134933862Y-35677074D01*
X134877688Y-35908083D01*
X135600000Y-36630395D01*
X136322312Y-35908083D01*
X136266138Y-35677074D01*
X135959075Y-35570115D01*
X136266138Y-35442926D01*
X136322312Y-35211917D01*
X135600000Y-34489605D01*
X134877688Y-35211917D01*
X134521021Y-35211917D01*
X134692124Y-35041113D01*
X134695990Y-35031803D01*
X134698083Y-35032312D01*
X135420395Y-34310000D01*
X135406253Y-34295858D01*
X135585858Y-34116253D01*
X135600000Y-34130395D01*
X135614143Y-34116253D01*
X135793748Y-34295858D01*
G36*
X131793748Y-34295858D02*
X131779605Y-34310000D01*
X132501917Y-35032312D01*
X132503586Y-35031906D01*
X132506602Y-35039206D01*
X132868887Y-35402124D01*
X133249446Y-35560146D01*
X132870794Y-35716602D01*
X132507876Y-36078887D01*
X132504010Y-36088197D01*
X132501917Y-36087688D01*
X131779605Y-36810000D01*
X131793748Y-36824143D01*
X131614143Y-37003748D01*
X131600000Y-36989605D01*
X131585858Y-37003748D01*
X131406253Y-36824143D01*
X131420395Y-36810000D01*
X130698083Y-36087688D01*
X130696414Y-36088094D01*
X130693398Y-36080794D01*
X130331113Y-35717876D01*
X129950554Y-35559854D01*
X130329206Y-35403398D01*
X130521021Y-35211917D01*
X130877688Y-35211917D01*
X130933862Y-35442926D01*
X131240925Y-35549885D01*
X130933862Y-35677074D01*
X130877688Y-35908083D01*
X131600000Y-36630395D01*
X132322312Y-35908083D01*
X132266138Y-35677074D01*
X131959075Y-35570115D01*
X132266138Y-35442926D01*
X132322312Y-35211917D01*
X131600000Y-34489605D01*
X130877688Y-35211917D01*
X130521021Y-35211917D01*
X130692124Y-35041113D01*
X130695990Y-35031803D01*
X130698083Y-35032312D01*
X131420395Y-34310000D01*
X131406253Y-34295858D01*
X131585858Y-34116253D01*
X131600000Y-34130395D01*
X131614143Y-34116253D01*
X131793748Y-34295858D01*
X131793748Y-34295858D01*
G37*
X131793748Y-34295858D02*
X131779605Y-34310000D01*
X132501917Y-35032312D01*
X132503586Y-35031906D01*
X132506602Y-35039206D01*
X132868887Y-35402124D01*
X133249446Y-35560146D01*
X132870794Y-35716602D01*
X132507876Y-36078887D01*
X132504010Y-36088197D01*
X132501917Y-36087688D01*
X131779605Y-36810000D01*
X131793748Y-36824143D01*
X131614143Y-37003748D01*
X131600000Y-36989605D01*
X131585858Y-37003748D01*
X131406253Y-36824143D01*
X131420395Y-36810000D01*
X130698083Y-36087688D01*
X130696414Y-36088094D01*
X130693398Y-36080794D01*
X130331113Y-35717876D01*
X129950554Y-35559854D01*
X130329206Y-35403398D01*
X130521021Y-35211917D01*
X130877688Y-35211917D01*
X130933862Y-35442926D01*
X131240925Y-35549885D01*
X130933862Y-35677074D01*
X130877688Y-35908083D01*
X131600000Y-36630395D01*
X132322312Y-35908083D01*
X132266138Y-35677074D01*
X131959075Y-35570115D01*
X132266138Y-35442926D01*
X132322312Y-35211917D01*
X131600000Y-34489605D01*
X130877688Y-35211917D01*
X130521021Y-35211917D01*
X130692124Y-35041113D01*
X130695990Y-35031803D01*
X130698083Y-35032312D01*
X131420395Y-34310000D01*
X131406253Y-34295858D01*
X131585858Y-34116253D01*
X131600000Y-34130395D01*
X131614143Y-34116253D01*
X131793748Y-34295858D01*
G36*
X139793748Y-34295858D02*
X139779605Y-34310000D01*
X140501917Y-35032312D01*
X140503586Y-35031906D01*
X140506602Y-35039206D01*
X140868887Y-35402124D01*
X141249446Y-35560146D01*
X140870794Y-35716602D01*
X140599845Y-35987078D01*
X140331113Y-35717876D01*
X139967181Y-35566758D01*
X140266138Y-35442926D01*
X140322312Y-35211917D01*
X139600000Y-34489605D01*
X138877688Y-35211917D01*
X138933862Y-35442926D01*
X139259024Y-35556189D01*
X138870794Y-35716602D01*
X138599845Y-35987078D01*
X138331113Y-35717876D01*
X137950554Y-35559854D01*
X138329206Y-35403398D01*
X138692124Y-35041113D01*
X138695990Y-35031803D01*
X138698083Y-35032312D01*
X139420395Y-34310000D01*
X139406253Y-34295858D01*
X139585858Y-34116253D01*
X139600000Y-34130395D01*
X139614143Y-34116253D01*
X139793748Y-34295858D01*
X139793748Y-34295858D01*
G37*
X139793748Y-34295858D02*
X139779605Y-34310000D01*
X140501917Y-35032312D01*
X140503586Y-35031906D01*
X140506602Y-35039206D01*
X140868887Y-35402124D01*
X141249446Y-35560146D01*
X140870794Y-35716602D01*
X140599845Y-35987078D01*
X140331113Y-35717876D01*
X139967181Y-35566758D01*
X140266138Y-35442926D01*
X140322312Y-35211917D01*
X139600000Y-34489605D01*
X138877688Y-35211917D01*
X138933862Y-35442926D01*
X139259024Y-35556189D01*
X138870794Y-35716602D01*
X138599845Y-35987078D01*
X138331113Y-35717876D01*
X137950554Y-35559854D01*
X138329206Y-35403398D01*
X138692124Y-35041113D01*
X138695990Y-35031803D01*
X138698083Y-35032312D01*
X139420395Y-34310000D01*
X139406253Y-34295858D01*
X139585858Y-34116253D01*
X139600000Y-34130395D01*
X139614143Y-34116253D01*
X139793748Y-34295858D01*
G36*
X123793748Y-34295858D02*
X123779605Y-34310000D01*
X124501917Y-35032312D01*
X124503586Y-35031906D01*
X124506602Y-35039206D01*
X124868887Y-35402124D01*
X125249446Y-35560146D01*
X124870794Y-35716602D01*
X124599845Y-35987078D01*
X124331113Y-35717876D01*
X123967181Y-35566758D01*
X124266138Y-35442926D01*
X124322312Y-35211917D01*
X123600000Y-34489605D01*
X123585858Y-34503748D01*
X123406253Y-34324143D01*
X123420395Y-34310000D01*
X123406253Y-34295858D01*
X123585858Y-34116253D01*
X123600000Y-34130395D01*
X123614143Y-34116253D01*
X123793748Y-34295858D01*
X123793748Y-34295858D01*
G37*
X123793748Y-34295858D02*
X123779605Y-34310000D01*
X124501917Y-35032312D01*
X124503586Y-35031906D01*
X124506602Y-35039206D01*
X124868887Y-35402124D01*
X125249446Y-35560146D01*
X124870794Y-35716602D01*
X124599845Y-35987078D01*
X124331113Y-35717876D01*
X123967181Y-35566758D01*
X124266138Y-35442926D01*
X124322312Y-35211917D01*
X123600000Y-34489605D01*
X123585858Y-34503748D01*
X123406253Y-34324143D01*
X123420395Y-34310000D01*
X123406253Y-34295858D01*
X123585858Y-34116253D01*
X123600000Y-34130395D01*
X123614143Y-34116253D01*
X123793748Y-34295858D01*
G36*
X142793748Y-32295858D02*
X142779605Y-32310000D01*
X143501917Y-33032312D01*
X143687486Y-32987188D01*
X144450341Y-33750043D01*
X144041548Y-33749686D01*
X143376057Y-34024662D01*
X142888825Y-34511044D01*
X142889223Y-34054727D01*
X142699437Y-33595409D01*
X142930069Y-33582130D01*
X143266138Y-33442926D01*
X143322312Y-33211917D01*
X142600000Y-32489605D01*
X142585858Y-32503748D01*
X142406253Y-32324143D01*
X142420395Y-32310000D01*
X142406253Y-32295858D01*
X142585858Y-32116253D01*
X142600000Y-32130395D01*
X142614143Y-32116253D01*
X142793748Y-32295858D01*
X142793748Y-32295858D01*
G37*
X142793748Y-32295858D02*
X142779605Y-32310000D01*
X143501917Y-33032312D01*
X143687486Y-32987188D01*
X144450341Y-33750043D01*
X144041548Y-33749686D01*
X143376057Y-34024662D01*
X142888825Y-34511044D01*
X142889223Y-34054727D01*
X142699437Y-33595409D01*
X142930069Y-33582130D01*
X143266138Y-33442926D01*
X143322312Y-33211917D01*
X142600000Y-32489605D01*
X142585858Y-32503748D01*
X142406253Y-32324143D01*
X142420395Y-32310000D01*
X142406253Y-32295858D01*
X142585858Y-32116253D01*
X142600000Y-32130395D01*
X142614143Y-32116253D01*
X142793748Y-32295858D01*
G36*
X113793748Y-34295858D02*
X113779605Y-34310000D01*
X113793748Y-34324143D01*
X113614143Y-34503748D01*
X113600000Y-34489605D01*
X113585858Y-34503748D01*
X113406253Y-34324143D01*
X113420395Y-34310000D01*
X113406253Y-34295858D01*
X113585858Y-34116253D01*
X113600000Y-34130395D01*
X113614143Y-34116253D01*
X113793748Y-34295858D01*
X113793748Y-34295858D01*
G37*
X113793748Y-34295858D02*
X113779605Y-34310000D01*
X113793748Y-34324143D01*
X113614143Y-34503748D01*
X113600000Y-34489605D01*
X113585858Y-34503748D01*
X113406253Y-34324143D01*
X113420395Y-34310000D01*
X113406253Y-34295858D01*
X113585858Y-34116253D01*
X113600000Y-34130395D01*
X113614143Y-34116253D01*
X113793748Y-34295858D01*
G36*
X117793748Y-34295858D02*
X117779605Y-34310000D01*
X117793748Y-34324143D01*
X117614143Y-34503748D01*
X117600000Y-34489605D01*
X117585858Y-34503748D01*
X117406253Y-34324143D01*
X117420395Y-34310000D01*
X117406253Y-34295858D01*
X117585858Y-34116253D01*
X117600000Y-34130395D01*
X117614143Y-34116253D01*
X117793748Y-34295858D01*
X117793748Y-34295858D01*
G37*
X117793748Y-34295858D02*
X117779605Y-34310000D01*
X117793748Y-34324143D01*
X117614143Y-34503748D01*
X117600000Y-34489605D01*
X117585858Y-34503748D01*
X117406253Y-34324143D01*
X117420395Y-34310000D01*
X117406253Y-34295858D01*
X117585858Y-34116253D01*
X117600000Y-34130395D01*
X117614143Y-34116253D01*
X117793748Y-34295858D01*
G36*
X109727000Y-34183000D02*
X109747000Y-34183000D01*
X109747000Y-34437000D01*
X109727000Y-34437000D01*
X109727000Y-34457000D01*
X109473000Y-34457000D01*
X109473000Y-34437000D01*
X109453000Y-34437000D01*
X109453000Y-34183000D01*
X109473000Y-34183000D01*
X109473000Y-34163000D01*
X109727000Y-34163000D01*
X109727000Y-34183000D01*
X109727000Y-34183000D01*
G37*
X109727000Y-34183000D02*
X109747000Y-34183000D01*
X109747000Y-34437000D01*
X109727000Y-34437000D01*
X109727000Y-34457000D01*
X109473000Y-34457000D01*
X109473000Y-34437000D01*
X109453000Y-34437000D01*
X109453000Y-34183000D01*
X109473000Y-34183000D01*
X109473000Y-34163000D01*
X109727000Y-34163000D01*
X109727000Y-34183000D01*
G36*
X121311224Y-32052477D02*
X121310777Y-32565273D01*
X121506602Y-33039206D01*
X121868887Y-33402124D01*
X122342477Y-33598776D01*
X122651378Y-33599045D01*
X122467074Y-33643862D01*
X122319015Y-34068919D01*
X122276621Y-34026451D01*
X121611611Y-33750315D01*
X120891548Y-33749686D01*
X120781902Y-33794991D01*
X120693398Y-33580794D01*
X120331113Y-33217876D01*
X119857523Y-33021224D01*
X119700440Y-33021087D01*
X119888776Y-32567523D01*
X119889223Y-32054727D01*
X119863842Y-31993300D01*
X121335796Y-31993300D01*
X121311224Y-32052477D01*
X121311224Y-32052477D01*
G37*
X121311224Y-32052477D02*
X121310777Y-32565273D01*
X121506602Y-33039206D01*
X121868887Y-33402124D01*
X122342477Y-33598776D01*
X122651378Y-33599045D01*
X122467074Y-33643862D01*
X122319015Y-34068919D01*
X122276621Y-34026451D01*
X121611611Y-33750315D01*
X120891548Y-33749686D01*
X120781902Y-33794991D01*
X120693398Y-33580794D01*
X120331113Y-33217876D01*
X119857523Y-33021224D01*
X119700440Y-33021087D01*
X119888776Y-32567523D01*
X119889223Y-32054727D01*
X119863842Y-31993300D01*
X121335796Y-31993300D01*
X121311224Y-32052477D01*
G36*
X161433748Y-155911558D02*
X161419605Y-155925700D01*
X162220213Y-156726308D01*
X162462397Y-156656843D01*
X162512509Y-156516382D01*
X162594990Y-156716003D01*
X162987630Y-157109329D01*
X163158301Y-157180197D01*
X161252599Y-159085899D01*
X161087852Y-159332461D01*
X161030000Y-159623300D01*
X161030000Y-177210560D01*
X160824800Y-177210560D01*
X160589483Y-177254838D01*
X160521378Y-177298662D01*
X160491939Y-177278547D01*
X160582148Y-177143539D01*
X160640000Y-176852700D01*
X160640000Y-157194884D01*
X161032302Y-157334844D01*
X161587368Y-157307062D01*
X161971143Y-157148097D01*
X162040608Y-156905913D01*
X161240000Y-156105305D01*
X161225858Y-156119448D01*
X161046253Y-155939843D01*
X161060395Y-155925700D01*
X161046253Y-155911558D01*
X161225858Y-155731953D01*
X161240000Y-155746095D01*
X161254143Y-155731953D01*
X161433748Y-155911558D01*
X161433748Y-155911558D01*
G37*
X161433748Y-155911558D02*
X161419605Y-155925700D01*
X162220213Y-156726308D01*
X162462397Y-156656843D01*
X162512509Y-156516382D01*
X162594990Y-156716003D01*
X162987630Y-157109329D01*
X163158301Y-157180197D01*
X161252599Y-159085899D01*
X161087852Y-159332461D01*
X161030000Y-159623300D01*
X161030000Y-177210560D01*
X160824800Y-177210560D01*
X160589483Y-177254838D01*
X160521378Y-177298662D01*
X160491939Y-177278547D01*
X160582148Y-177143539D01*
X160640000Y-176852700D01*
X160640000Y-157194884D01*
X161032302Y-157334844D01*
X161587368Y-157307062D01*
X161971143Y-157148097D01*
X162040608Y-156905913D01*
X161240000Y-156105305D01*
X161225858Y-156119448D01*
X161046253Y-155939843D01*
X161060395Y-155925700D01*
X161046253Y-155911558D01*
X161225858Y-155731953D01*
X161240000Y-155746095D01*
X161254143Y-155731953D01*
X161433748Y-155911558D01*
M02*
