%TF.GenerationSoftware,KiCad,Pcbnew,4.0.2+dfsg1-stable*%
%TF.CreationDate,2019-06-07T12:13:31+02:00*%
%TF.ProjectId,abex,616265782E6B696361645F7063620000,rev?*%
%TF.FileFunction,Copper,L1,Top,Signal*%
%FSLAX46Y46*%
G04 Gerber Fmt 4.6, Leading zero omitted, Abs format (unit mm)*
G04 Created by KiCad (PCBNEW 4.0.2+dfsg1-stable) date ven 07 giu 2019 12:13:31 CEST*
%MOMM*%
G01*
G04 APERTURE LIST*
%ADD10C,0.100000*%
%ADD11R,2.000000X1.600000*%
%ADD12R,1.501140X2.999740*%
%ADD13R,1.930400X5.588000*%
%ADD14C,1.524000*%
%ADD15R,1.524000X1.524000*%
%ADD16R,1.800860X1.597660*%
%ADD17R,2.000000X2.500000*%
%ADD18R,0.400000X1.000000*%
%ADD19R,2.235200X2.235200*%
%ADD20R,2.032000X1.727200*%
%ADD21O,2.032000X1.727200*%
%ADD22R,1.600000X1.600000*%
%ADD23C,1.600000*%
%ADD24R,1.905000X2.000000*%
%ADD25O,1.905000X2.000000*%
%ADD26R,1.308000X1.308000*%
%ADD27C,1.308000*%
%ADD28C,0.600000*%
%ADD29C,0.250000*%
%ADD30C,0.254000*%
G04 APERTURE END LIST*
D10*
D11*
X85630000Y-127000000D03*
X89630000Y-127000000D03*
X95980000Y-132080000D03*
X91980000Y-132080000D03*
D12*
X99060000Y-122461020D03*
X99060000Y-126458980D03*
D13*
X164330000Y-180652000D03*
X161790000Y-180652000D03*
X159250000Y-180652000D03*
X156710000Y-180652000D03*
X154170000Y-180652000D03*
X151630000Y-180652000D03*
X149090000Y-180652000D03*
X146550000Y-180652000D03*
X144010000Y-180652000D03*
X141470000Y-180652000D03*
X138930000Y-180652000D03*
X136390000Y-180652000D03*
X133850000Y-180652000D03*
X131310000Y-180652000D03*
X128770000Y-180652000D03*
D14*
X128220000Y-151074300D03*
X128220000Y-155925700D03*
X130760000Y-151074300D03*
X130760000Y-155925700D03*
X133300000Y-151074300D03*
X133300000Y-155925700D03*
X135840000Y-151074300D03*
X135840000Y-155925700D03*
X138380000Y-151074300D03*
X138380000Y-155925700D03*
X140920000Y-151074300D03*
X140920000Y-155925700D03*
X143460000Y-151074300D03*
X143460000Y-155925700D03*
X146000000Y-151074300D03*
X146000000Y-155925700D03*
X148540000Y-151074300D03*
X148540000Y-155925700D03*
X151080000Y-151074300D03*
X151080000Y-155925700D03*
X153620000Y-151074300D03*
X153620000Y-155925700D03*
X156160000Y-151074300D03*
X156160000Y-155925700D03*
X158700000Y-151074300D03*
X158700000Y-155925700D03*
X161240000Y-151074300D03*
X161240000Y-155925700D03*
D15*
X163780000Y-151074300D03*
D14*
X163780000Y-155925700D03*
D16*
X119000000Y-113580140D03*
X119000000Y-116419860D03*
D13*
X103022000Y-180690000D03*
X100482000Y-180690000D03*
X97942000Y-180690000D03*
X95402000Y-180690000D03*
X92862000Y-180690000D03*
X90322000Y-180690000D03*
X87782000Y-180690000D03*
D17*
X114000000Y-118000000D03*
X110000000Y-118000000D03*
X110000000Y-112000000D03*
X114000000Y-112000000D03*
X100000000Y-112000000D03*
X104000000Y-112000000D03*
D18*
X165485000Y-136800000D03*
X164835000Y-136800000D03*
X164185000Y-136800000D03*
X163535000Y-136800000D03*
X162885000Y-136800000D03*
X162235000Y-136800000D03*
X161585000Y-136800000D03*
X160935000Y-136800000D03*
X160285000Y-136800000D03*
X159635000Y-136800000D03*
X159635000Y-142600000D03*
X160285000Y-142600000D03*
X160935000Y-142600000D03*
X161585000Y-142600000D03*
X162235000Y-142600000D03*
X162885000Y-142600000D03*
X163535000Y-142600000D03*
X164185000Y-142600000D03*
X164835000Y-142600000D03*
X165485000Y-142600000D03*
X129925000Y-136800000D03*
X129275000Y-136800000D03*
X128625000Y-136800000D03*
X127975000Y-136800000D03*
X127325000Y-136800000D03*
X126675000Y-136800000D03*
X126025000Y-136800000D03*
X125375000Y-136800000D03*
X124725000Y-136800000D03*
X124075000Y-136800000D03*
X124075000Y-142600000D03*
X124725000Y-142600000D03*
X125375000Y-142600000D03*
X126025000Y-142600000D03*
X126675000Y-142600000D03*
X127325000Y-142600000D03*
X127975000Y-142600000D03*
X128625000Y-142600000D03*
X129275000Y-142600000D03*
X129925000Y-142600000D03*
X140085000Y-136800000D03*
X139435000Y-136800000D03*
X138785000Y-136800000D03*
X138135000Y-136800000D03*
X137485000Y-136800000D03*
X136835000Y-136800000D03*
X136185000Y-136800000D03*
X135535000Y-136800000D03*
X134885000Y-136800000D03*
X134235000Y-136800000D03*
X134235000Y-142600000D03*
X134885000Y-142600000D03*
X135535000Y-142600000D03*
X136185000Y-142600000D03*
X136835000Y-142600000D03*
X137485000Y-142600000D03*
X138135000Y-142600000D03*
X138785000Y-142600000D03*
X139435000Y-142600000D03*
X140085000Y-142600000D03*
X155325000Y-136800000D03*
X154675000Y-136800000D03*
X154025000Y-136800000D03*
X153375000Y-136800000D03*
X152725000Y-136800000D03*
X152075000Y-136800000D03*
X151425000Y-136800000D03*
X150775000Y-136800000D03*
X150125000Y-136800000D03*
X149475000Y-136800000D03*
X149475000Y-142600000D03*
X150125000Y-142600000D03*
X150775000Y-142600000D03*
X151425000Y-142600000D03*
X152075000Y-142600000D03*
X152725000Y-142600000D03*
X153375000Y-142600000D03*
X154025000Y-142600000D03*
X154675000Y-142600000D03*
X155325000Y-142600000D03*
D19*
X165000000Y-111000000D03*
X158000000Y-111000000D03*
X109000000Y-128000000D03*
X109000000Y-137000000D03*
D15*
X102870000Y-151257000D03*
D14*
X100330000Y-151257000D03*
X97790000Y-151257000D03*
X95250000Y-151257000D03*
X92710000Y-151257000D03*
X90170000Y-151257000D03*
X87630000Y-151257000D03*
X102870000Y-154817000D03*
X100330000Y-154817000D03*
X97790000Y-154817000D03*
X95250000Y-154817000D03*
X92710000Y-154817000D03*
X90170000Y-154817000D03*
X87630000Y-154817000D03*
D20*
X159000000Y-120000000D03*
D21*
X159000000Y-122540000D03*
X159000000Y-125080000D03*
X159000000Y-127620000D03*
D22*
X139700000Y-99060000D03*
D23*
X142200000Y-99060000D03*
D22*
X139700000Y-48260000D03*
D23*
X142200000Y-48260000D03*
D22*
X139700000Y-73660000D03*
D23*
X142200000Y-73660000D03*
D17*
X103600000Y-118110000D03*
X99600000Y-118110000D03*
D24*
X88900000Y-120650000D03*
D25*
X91440000Y-120650000D03*
X93980000Y-120650000D03*
D18*
X96905000Y-136800000D03*
X96255000Y-136800000D03*
X95605000Y-136800000D03*
X94955000Y-136800000D03*
X94305000Y-136800000D03*
X93655000Y-136800000D03*
X93005000Y-136800000D03*
X92355000Y-136800000D03*
X91705000Y-136800000D03*
X91055000Y-136800000D03*
X91055000Y-142600000D03*
X91705000Y-142600000D03*
X92355000Y-142600000D03*
X93005000Y-142600000D03*
X93655000Y-142600000D03*
X94305000Y-142600000D03*
X94955000Y-142600000D03*
X95605000Y-142600000D03*
X96255000Y-142600000D03*
X96905000Y-142600000D03*
D26*
X109600000Y-85110000D03*
D27*
X110600000Y-83110000D03*
X111600000Y-85110000D03*
X112600000Y-83110000D03*
X113600000Y-85110000D03*
X114600000Y-83110000D03*
X115600000Y-85110000D03*
X116600000Y-83110000D03*
X117600000Y-85110000D03*
X118600000Y-83110000D03*
X119600000Y-85110000D03*
X109600000Y-87610000D03*
X110600000Y-89610000D03*
X111600000Y-87610000D03*
X112600000Y-89610000D03*
X113600000Y-87610000D03*
X114600000Y-89610000D03*
X115600000Y-87610000D03*
X116600000Y-89610000D03*
X117600000Y-87610000D03*
X118600000Y-89610000D03*
X119600000Y-87610000D03*
X122600000Y-83110000D03*
X123600000Y-85110000D03*
X124600000Y-83110000D03*
X125600000Y-85110000D03*
X126600000Y-83110000D03*
X127600000Y-85110000D03*
X128600000Y-83110000D03*
X129600000Y-85110000D03*
X130600000Y-83110000D03*
X131600000Y-85110000D03*
X132600000Y-83110000D03*
X133600000Y-85110000D03*
X134600000Y-83110000D03*
X135600000Y-85110000D03*
X136600000Y-83110000D03*
X137600000Y-85110000D03*
X138600000Y-83110000D03*
X139600000Y-85110000D03*
X140600000Y-83110000D03*
X141600000Y-85110000D03*
X142600000Y-83110000D03*
X122600000Y-89610000D03*
X123600000Y-87610000D03*
X124600000Y-89610000D03*
X125600000Y-87610000D03*
X126600000Y-89610000D03*
X127600000Y-87610000D03*
X128600000Y-89610000D03*
X129600000Y-87610000D03*
X130600000Y-89610000D03*
X131600000Y-87610000D03*
X132600000Y-89610000D03*
X133600000Y-87610000D03*
X134600000Y-89610000D03*
X135600000Y-87610000D03*
X136600000Y-89610000D03*
X137600000Y-87610000D03*
X138600000Y-89610000D03*
X139600000Y-87610000D03*
X140600000Y-89610000D03*
X141600000Y-87610000D03*
X142600000Y-89610000D03*
D26*
X109600000Y-59710000D03*
D27*
X110600000Y-57710000D03*
X111600000Y-59710000D03*
X112600000Y-57710000D03*
X113600000Y-59710000D03*
X114600000Y-57710000D03*
X115600000Y-59710000D03*
X116600000Y-57710000D03*
X117600000Y-59710000D03*
X118600000Y-57710000D03*
X119600000Y-59710000D03*
X109600000Y-62210000D03*
X110600000Y-64210000D03*
X111600000Y-62210000D03*
X112600000Y-64210000D03*
X113600000Y-62210000D03*
X114600000Y-64210000D03*
X115600000Y-62210000D03*
X116600000Y-64210000D03*
X117600000Y-62210000D03*
X118600000Y-64210000D03*
X119600000Y-62210000D03*
X122600000Y-57710000D03*
X123600000Y-59710000D03*
X124600000Y-57710000D03*
X125600000Y-59710000D03*
X126600000Y-57710000D03*
X127600000Y-59710000D03*
X128600000Y-57710000D03*
X129600000Y-59710000D03*
X130600000Y-57710000D03*
X131600000Y-59710000D03*
X132600000Y-57710000D03*
X133600000Y-59710000D03*
X134600000Y-57710000D03*
X135600000Y-59710000D03*
X136600000Y-57710000D03*
X137600000Y-59710000D03*
X138600000Y-57710000D03*
X139600000Y-59710000D03*
X140600000Y-57710000D03*
X141600000Y-59710000D03*
X142600000Y-57710000D03*
X122600000Y-64210000D03*
X123600000Y-62210000D03*
X124600000Y-64210000D03*
X125600000Y-62210000D03*
X126600000Y-64210000D03*
X127600000Y-62210000D03*
X128600000Y-64210000D03*
X129600000Y-62210000D03*
X130600000Y-64210000D03*
X131600000Y-62210000D03*
X132600000Y-64210000D03*
X133600000Y-62210000D03*
X134600000Y-64210000D03*
X135600000Y-62210000D03*
X136600000Y-64210000D03*
X137600000Y-62210000D03*
X138600000Y-64210000D03*
X139600000Y-62210000D03*
X140600000Y-64210000D03*
X141600000Y-62210000D03*
X142600000Y-64210000D03*
D26*
X109600000Y-34310000D03*
D27*
X110600000Y-32310000D03*
X111600000Y-34310000D03*
X112600000Y-32310000D03*
X113600000Y-34310000D03*
X114600000Y-32310000D03*
X115600000Y-34310000D03*
X116600000Y-32310000D03*
X117600000Y-34310000D03*
X118600000Y-32310000D03*
X119600000Y-34310000D03*
X109600000Y-36810000D03*
X110600000Y-38810000D03*
X111600000Y-36810000D03*
X112600000Y-38810000D03*
X113600000Y-36810000D03*
X114600000Y-38810000D03*
X115600000Y-36810000D03*
X116600000Y-38810000D03*
X117600000Y-36810000D03*
X118600000Y-38810000D03*
X119600000Y-36810000D03*
X122600000Y-32310000D03*
X123600000Y-34310000D03*
X124600000Y-32310000D03*
X125600000Y-34310000D03*
X126600000Y-32310000D03*
X127600000Y-34310000D03*
X128600000Y-32310000D03*
X129600000Y-34310000D03*
X130600000Y-32310000D03*
X131600000Y-34310000D03*
X132600000Y-32310000D03*
X133600000Y-34310000D03*
X134600000Y-32310000D03*
X135600000Y-34310000D03*
X136600000Y-32310000D03*
X137600000Y-34310000D03*
X138600000Y-32310000D03*
X139600000Y-34310000D03*
X140600000Y-32310000D03*
X141600000Y-34310000D03*
X142600000Y-32310000D03*
X122600000Y-38810000D03*
X123600000Y-36810000D03*
X124600000Y-38810000D03*
X125600000Y-36810000D03*
X126600000Y-38810000D03*
X127600000Y-36810000D03*
X128600000Y-38810000D03*
X129600000Y-36810000D03*
X130600000Y-38810000D03*
X131600000Y-36810000D03*
X132600000Y-38810000D03*
X133600000Y-36810000D03*
X134600000Y-38810000D03*
X135600000Y-36810000D03*
X136600000Y-38810000D03*
X137600000Y-36810000D03*
X138600000Y-38810000D03*
X139600000Y-36810000D03*
X140600000Y-38810000D03*
X141600000Y-36810000D03*
X142600000Y-38810000D03*
D28*
X140007500Y-149207300D03*
X134631600Y-176919500D03*
X154675000Y-141536500D03*
X129086000Y-141535700D03*
X164877500Y-143676100D03*
X125993300Y-138380700D03*
X109233500Y-115391600D03*
X153618600Y-144810700D03*
X150743700Y-143664700D03*
X157672700Y-149330500D03*
X156628800Y-152519400D03*
X138545600Y-145835900D03*
X149684000Y-176888700D03*
X139311600Y-147816600D03*
X147306500Y-177002100D03*
X140505800Y-176555300D03*
X146920800Y-145335600D03*
X137230000Y-177045000D03*
X149090900Y-144897400D03*
X152759800Y-141536500D03*
X156987500Y-149865100D03*
X155496700Y-153528300D03*
X135839600Y-148510900D03*
X133901500Y-152968800D03*
X135557700Y-153997200D03*
X130760000Y-153781200D03*
X127744400Y-153173000D03*
X153680800Y-141509200D03*
X152926800Y-145565800D03*
X150160600Y-141541800D03*
X96284200Y-149484500D03*
X94517100Y-147367600D03*
X93862600Y-176438700D03*
X93795100Y-146837300D03*
X125138400Y-145152400D03*
X125375000Y-144243200D03*
X123463400Y-143475300D03*
X92894600Y-140981700D03*
X102443100Y-128487700D03*
X105620900Y-48021200D03*
X114756700Y-53244800D03*
X106087900Y-92923500D03*
X142274900Y-49621800D03*
X141024600Y-74906500D03*
X142263700Y-78773400D03*
X121841700Y-51066600D03*
X102734600Y-47345800D03*
X104130400Y-92007700D03*
X152262100Y-113871600D03*
X116781900Y-52760700D03*
X115074600Y-47627600D03*
X110985200Y-66134600D03*
X116338300Y-81778400D03*
X141153600Y-109242000D03*
X104381400Y-83792800D03*
X103079200Y-51260500D03*
X101374500Y-93247100D03*
X94813400Y-135720600D03*
X123364000Y-52454300D03*
X103057500Y-52192800D03*
X106246500Y-71932100D03*
X103514200Y-83453500D03*
X140463300Y-75550600D03*
X140795200Y-79773900D03*
X139391900Y-30646800D03*
X141371900Y-79071900D03*
X148197100Y-37520900D03*
X149304800Y-48923400D03*
X150015300Y-88176400D03*
X148148100Y-61712300D03*
X147640900Y-87083300D03*
X137065000Y-79821600D03*
X143934900Y-72411100D03*
X147898000Y-66655000D03*
X151103500Y-86612400D03*
X102535500Y-52873500D03*
X102244000Y-65939000D03*
X107970500Y-74929800D03*
X99843800Y-91874300D03*
X93936300Y-137872600D03*
X105840200Y-67984500D03*
X105746200Y-69835500D03*
X106921800Y-74855500D03*
X123009900Y-115721400D03*
X130259200Y-123503600D03*
X106480800Y-68659800D03*
X106350000Y-46371500D03*
X109384500Y-98025400D03*
X129930700Y-113520900D03*
X107903800Y-75825200D03*
X103827500Y-56308500D03*
X100958400Y-90690500D03*
X131683800Y-113952400D03*
X108356500Y-92850300D03*
X113312500Y-52654600D03*
X136760400Y-109849100D03*
X117385000Y-47292700D03*
X114175400Y-52500200D03*
X119668400Y-93665000D03*
X137485000Y-111707000D03*
X118072700Y-47922600D03*
X105609000Y-64232600D03*
X135717000Y-106140900D03*
X113679900Y-68172200D03*
X121249500Y-39020500D03*
X138757100Y-104421300D03*
X128052700Y-73027500D03*
X140029700Y-102950200D03*
X140981000Y-102555500D03*
X153093000Y-112224800D03*
X105785100Y-88392200D03*
X103064800Y-53615300D03*
X104384800Y-55620800D03*
X108873700Y-69626700D03*
X109328100Y-48713300D03*
X116400400Y-94369300D03*
X101636000Y-82655200D03*
X114614800Y-66964000D03*
X107802200Y-62392700D03*
X117164100Y-46286000D03*
X104378400Y-62921000D03*
X114166500Y-69353700D03*
X111716800Y-66634900D03*
X131748600Y-73720200D03*
X147581000Y-97580400D03*
X144596400Y-71869900D03*
X146369100Y-82025500D03*
X148647000Y-95937000D03*
X149235400Y-68034800D03*
X144951200Y-88763600D03*
X154114500Y-97957500D03*
X145895000Y-72481700D03*
X149798900Y-81629000D03*
X146484300Y-75975300D03*
X146592300Y-77404700D03*
X153829500Y-94248500D03*
X154293100Y-93313200D03*
X147878600Y-75330300D03*
X155458400Y-91846000D03*
X156767600Y-91744300D03*
X148569200Y-74161300D03*
X149271100Y-74662200D03*
X156869300Y-85719500D03*
X157062200Y-82732800D03*
X150109200Y-73055700D03*
X143748800Y-41800900D03*
X147941700Y-48530500D03*
X150821900Y-73567100D03*
X155849600Y-80613600D03*
X100000000Y-113822600D03*
X150486800Y-83453700D03*
X145816000Y-43851100D03*
X143130900Y-44166100D03*
X150013000Y-53459800D03*
X150714300Y-84463700D03*
X144628200Y-43168200D03*
X103987700Y-114714100D03*
D29*
X139435000Y-143911200D02*
X139435000Y-142600000D01*
X140007500Y-144483700D02*
X139435000Y-143911200D01*
X140007500Y-149207300D02*
X140007500Y-144483700D01*
X87572200Y-123882500D02*
X85630000Y-125824700D01*
X87572200Y-120650000D02*
X87572200Y-123882500D01*
X88900000Y-120650000D02*
X87572200Y-120650000D01*
X85630000Y-127000000D02*
X85630000Y-125824700D01*
X85630000Y-149257000D02*
X87630000Y-151257000D01*
X85630000Y-127000000D02*
X85630000Y-149257000D01*
X102782400Y-141724700D02*
X96255000Y-141724700D01*
X107507100Y-137000000D02*
X102782400Y-141724700D01*
X96255000Y-142600000D02*
X96255000Y-141724700D01*
X109000000Y-137000000D02*
X107507100Y-137000000D01*
X129275000Y-147049300D02*
X129275000Y-142600000D01*
X133300000Y-151074300D02*
X129275000Y-147049300D01*
X154675000Y-142600000D02*
X154675000Y-141724700D01*
X154675000Y-141724700D02*
X154675000Y-141536500D01*
X133300000Y-151412300D02*
X133300000Y-151074300D01*
X134631600Y-152743900D02*
X133300000Y-151412300D01*
X134631600Y-176919500D02*
X134631600Y-152743900D01*
X129275000Y-142600000D02*
X129275000Y-141724700D01*
X129086000Y-141535700D02*
X129275000Y-141724700D01*
X164835000Y-143633600D02*
X164835000Y-142600000D01*
X164877500Y-143676100D02*
X164835000Y-143633600D01*
X135600000Y-62210000D02*
X135600000Y-59710000D01*
X89630000Y-127000000D02*
X89630000Y-125824700D01*
X89630000Y-127000000D02*
X89630000Y-128175300D01*
X131600000Y-62210000D02*
X131600000Y-59710000D01*
X91055000Y-142600000D02*
X91055000Y-141724700D01*
X91980000Y-132080000D02*
X90453400Y-132080000D01*
X89630000Y-131256600D02*
X89630000Y-128175300D01*
X90453400Y-132080000D02*
X89630000Y-131256600D01*
X91055000Y-142600000D02*
X91055000Y-143475300D01*
X87782000Y-154969000D02*
X87630000Y-154817000D01*
X87782000Y-180690000D02*
X87782000Y-154969000D01*
X88900000Y-145630300D02*
X91055000Y-143475300D01*
X88900000Y-153547000D02*
X88900000Y-145630300D01*
X87630000Y-154817000D02*
X88900000Y-153547000D01*
X90453400Y-141123100D02*
X91055000Y-141724700D01*
X90453400Y-132080000D02*
X90453400Y-141123100D01*
X99060000Y-122461000D02*
X97934100Y-122461000D01*
X91440000Y-124014700D02*
X89630000Y-125824700D01*
X91440000Y-120650000D02*
X91440000Y-124014700D01*
X94715000Y-119241900D02*
X97934100Y-122461000D01*
X92848100Y-119241900D02*
X94715000Y-119241900D01*
X91440000Y-120650000D02*
X92848100Y-119241900D01*
X110000000Y-118000000D02*
X109312400Y-118000000D01*
X109312400Y-126194700D02*
X109000000Y-126507100D01*
X109312400Y-118000000D02*
X109312400Y-126194700D01*
X109000000Y-128000000D02*
X109000000Y-126507100D01*
X124693700Y-86203700D02*
X123600000Y-85110000D01*
X127600000Y-86203700D02*
X124693700Y-86203700D01*
X127600000Y-87610000D02*
X127600000Y-86203700D01*
X127600000Y-86203700D02*
X127600000Y-85110000D01*
X124693700Y-60803700D02*
X123600000Y-59710000D01*
X127600000Y-60803700D02*
X124693700Y-60803700D01*
X127600000Y-62210000D02*
X127600000Y-60803700D01*
X127600000Y-60803700D02*
X127600000Y-59710000D01*
X134235000Y-142600000D02*
X134235000Y-141724700D01*
X149475000Y-142600000D02*
X149475000Y-141724700D01*
X159635000Y-142600000D02*
X159635000Y-141724700D01*
X124075000Y-142600000D02*
X124075000Y-141724700D01*
X149779500Y-140833900D02*
X149475000Y-141138400D01*
X158744200Y-140833900D02*
X149779500Y-140833900D01*
X159635000Y-141724700D02*
X158744200Y-140833900D01*
X149475000Y-141724700D02*
X149475000Y-141138400D01*
X135786600Y-140173100D02*
X134235000Y-141724700D01*
X148509700Y-140173100D02*
X135786600Y-140173100D01*
X149475000Y-141138400D02*
X148509700Y-140173100D01*
X107681200Y-116368800D02*
X109312400Y-118000000D01*
X107681200Y-87028800D02*
X107681200Y-116368800D01*
X109600000Y-85110000D02*
X107681200Y-87028800D01*
X132823600Y-140313300D02*
X125993300Y-140313300D01*
X134235000Y-141724700D02*
X132823600Y-140313300D01*
X125486400Y-140313300D02*
X124075000Y-141724700D01*
X125993300Y-140313300D02*
X125486400Y-140313300D01*
X132692700Y-86517300D02*
X131600000Y-87610000D01*
X131600000Y-85424600D02*
X131600000Y-85110000D01*
X132692700Y-86517300D02*
X131600000Y-85424600D01*
X135600000Y-87610000D02*
X135600000Y-86517300D01*
X135600000Y-86517300D02*
X132692700Y-86517300D01*
X138544500Y-86165500D02*
X135600000Y-86165500D01*
X139600000Y-85110000D02*
X138544500Y-86165500D01*
X135600000Y-86517300D02*
X135600000Y-86165500D01*
X135600000Y-86165500D02*
X135600000Y-85110000D01*
X125993300Y-140313300D02*
X125993300Y-138380700D01*
X160658400Y-140701300D02*
X159635000Y-141724700D01*
X166308100Y-140701300D02*
X160658400Y-140701300D01*
X167120100Y-141513300D02*
X166308100Y-140701300D01*
X167120100Y-150045600D02*
X167120100Y-141513300D01*
X161240000Y-155925700D02*
X167120100Y-150045600D01*
X161790000Y-156475700D02*
X161790000Y-180652000D01*
X161240000Y-155925700D02*
X161790000Y-156475700D01*
X143362700Y-83110000D02*
X142600000Y-83110000D01*
X145964900Y-85712200D02*
X143362700Y-83110000D01*
X145964900Y-87853800D02*
X145964900Y-85712200D01*
X146126800Y-88015700D02*
X145964900Y-87853800D01*
X146126800Y-89250700D02*
X146126800Y-88015700D01*
X142200000Y-93177500D02*
X146126800Y-89250700D01*
X142200000Y-99060000D02*
X142200000Y-93177500D01*
X144783300Y-32310000D02*
X142600000Y-32310000D01*
X147021400Y-34548100D02*
X144783300Y-32310000D01*
X147021400Y-44308400D02*
X147021400Y-34548100D01*
X143069800Y-48260000D02*
X147021400Y-44308400D01*
X142200000Y-48260000D02*
X143069800Y-48260000D01*
X142200000Y-70578500D02*
X142200000Y-73660000D01*
X146458800Y-66319700D02*
X142200000Y-70578500D01*
X146458800Y-60074200D02*
X146458800Y-66319700D01*
X144094600Y-57710000D02*
X146458800Y-60074200D01*
X142600000Y-57710000D02*
X144094600Y-57710000D01*
X110000000Y-112000000D02*
X110000000Y-113625300D01*
X97934100Y-128950600D02*
X95980000Y-130904700D01*
X97934100Y-126459000D02*
X97934100Y-128950600D01*
X95980000Y-132080000D02*
X95980000Y-130904700D01*
X99060000Y-126459000D02*
X98059200Y-126459000D01*
X98059200Y-126459000D02*
X97934100Y-126459000D01*
X93980000Y-122504900D02*
X93980000Y-120650000D01*
X97934100Y-126459000D02*
X93980000Y-122504900D01*
X109233500Y-114391800D02*
X110000000Y-113625300D01*
X109233500Y-115391600D02*
X109233500Y-114391800D01*
X164330000Y-156475700D02*
X164330000Y-180652000D01*
X163780000Y-155925700D02*
X164330000Y-156475700D01*
X153375000Y-144567100D02*
X153618600Y-144810700D01*
X153375000Y-143475300D02*
X153375000Y-144567100D01*
X153375000Y-142600000D02*
X153375000Y-143475300D01*
X150775000Y-142600000D02*
X150775000Y-143475300D01*
X150775000Y-143633400D02*
X150743700Y-143664700D01*
X150775000Y-143475300D02*
X150775000Y-143633400D01*
X162885000Y-142600000D02*
X162885000Y-141724700D01*
X161240000Y-150119600D02*
X161240000Y-151074300D01*
X166084800Y-145274800D02*
X161240000Y-150119600D01*
X166084800Y-141964700D02*
X166084800Y-145274800D01*
X165844800Y-141724700D02*
X166084800Y-141964700D01*
X162885000Y-141724700D02*
X165844800Y-141724700D01*
X163535000Y-142600000D02*
X163535000Y-143475300D01*
X157679800Y-149330500D02*
X163535000Y-143475300D01*
X157672700Y-149330500D02*
X157679800Y-149330500D01*
X164185000Y-142600000D02*
X164185000Y-143475300D01*
X164185000Y-143773300D02*
X164185000Y-143475300D01*
X156884000Y-151074300D02*
X164185000Y-143773300D01*
X156160000Y-151074300D02*
X156884000Y-151074300D01*
X158907900Y-152519400D02*
X156628800Y-152519400D01*
X160102600Y-151324700D02*
X158907900Y-152519400D01*
X160102600Y-150437500D02*
X160102600Y-151324700D01*
X165569900Y-144970200D02*
X160102600Y-150437500D01*
X165569900Y-142684900D02*
X165569900Y-144970200D01*
X165485000Y-142600000D02*
X165569900Y-142684900D01*
X151080000Y-150948700D02*
X151080000Y-151074300D01*
X140805100Y-140673800D02*
X151080000Y-150948700D01*
X137781500Y-140673800D02*
X140805100Y-140673800D01*
X136835000Y-141620300D02*
X137781500Y-140673800D01*
X136835000Y-142600000D02*
X136835000Y-141620300D01*
X136185000Y-142600000D02*
X136185000Y-143475300D01*
X138545600Y-145835900D02*
X136185000Y-143475300D01*
X149684000Y-152218300D02*
X149684000Y-176888700D01*
X148540000Y-151074300D02*
X149684000Y-152218300D01*
X138135000Y-142600000D02*
X138135000Y-143475300D01*
X147306500Y-152380800D02*
X147306500Y-177002100D01*
X146000000Y-151074300D02*
X147306500Y-152380800D01*
X139311600Y-144651900D02*
X139311600Y-147816600D01*
X138135000Y-143475300D02*
X139311600Y-144651900D01*
X143460000Y-144744100D02*
X143460000Y-151074300D01*
X140440600Y-141724700D02*
X143460000Y-144744100D01*
X138785000Y-141724700D02*
X140440600Y-141724700D01*
X138785000Y-142600000D02*
X138785000Y-141724700D01*
X140085000Y-142600000D02*
X140085000Y-143475300D01*
X140920000Y-144310300D02*
X140920000Y-151074300D01*
X140085000Y-143475300D02*
X140920000Y-144310300D01*
X139782700Y-175832200D02*
X140505800Y-176555300D01*
X139782700Y-152211600D02*
X139782700Y-175832200D01*
X140920000Y-151074300D02*
X139782700Y-152211600D01*
X138380000Y-147547600D02*
X138380000Y-151074300D01*
X135535000Y-144702600D02*
X138380000Y-147547600D01*
X135535000Y-142600000D02*
X135535000Y-144702600D01*
X148058400Y-144198000D02*
X146920800Y-145335600D01*
X149378000Y-144198000D02*
X148058400Y-144198000D01*
X149533000Y-144353000D02*
X149378000Y-144198000D01*
X151010500Y-144353000D02*
X149533000Y-144353000D01*
X151425000Y-143938500D02*
X151010500Y-144353000D01*
X151425000Y-142600000D02*
X151425000Y-143938500D01*
X137230000Y-155483400D02*
X137230000Y-177045000D01*
X136233100Y-154486500D02*
X137230000Y-155483400D01*
X136233100Y-151467400D02*
X136233100Y-154486500D01*
X135840000Y-151074300D02*
X136233100Y-151467400D01*
X152075000Y-142600000D02*
X152075000Y-143475300D01*
X151216800Y-144897400D02*
X149090900Y-144897400D01*
X152075000Y-144039200D02*
X151216800Y-144897400D01*
X152075000Y-143475300D02*
X152075000Y-144039200D01*
X152725000Y-142600000D02*
X152725000Y-141724700D01*
X152759800Y-141689900D02*
X152759800Y-141536500D01*
X152725000Y-141724700D02*
X152759800Y-141689900D01*
X156987500Y-148780400D02*
X156987500Y-149865100D01*
X162235000Y-143532900D02*
X156987500Y-148780400D01*
X162235000Y-142600000D02*
X162235000Y-143532900D01*
X159250000Y-156475700D02*
X159250000Y-180652000D01*
X158700000Y-155925700D02*
X159250000Y-156475700D01*
X156710000Y-156475700D02*
X156160000Y-155925700D01*
X156710000Y-180652000D02*
X156710000Y-156475700D01*
X161585000Y-142600000D02*
X161585000Y-143475300D01*
X155022600Y-153054200D02*
X155496700Y-153528300D01*
X155022600Y-150037700D02*
X155022600Y-153054200D01*
X161585000Y-143475300D02*
X155022600Y-150037700D01*
X160935000Y-142600000D02*
X160935000Y-141724700D01*
X154170000Y-156475700D02*
X154046300Y-156352000D01*
X154170000Y-180652000D02*
X154170000Y-156475700D01*
X154046300Y-156352000D02*
X153620000Y-155925700D01*
X156697300Y-153701000D02*
X154046300Y-156352000D01*
X160223600Y-153701000D02*
X156697300Y-153701000D01*
X162642600Y-151282000D02*
X160223600Y-153701000D01*
X162642600Y-149676900D02*
X162642600Y-151282000D01*
X166599800Y-145719700D02*
X162642600Y-149676900D01*
X166599800Y-141731000D02*
X166599800Y-145719700D01*
X166084400Y-141215600D02*
X166599800Y-141731000D01*
X161444100Y-141215600D02*
X166084400Y-141215600D01*
X160935000Y-141724700D02*
X161444100Y-141215600D01*
X160285000Y-142600000D02*
X160285000Y-143475300D01*
X151630000Y-180652000D02*
X151630000Y-177482700D01*
X151401400Y-155925700D02*
X151080000Y-155925700D01*
X152350000Y-154977100D02*
X151401400Y-155925700D01*
X152350000Y-150676000D02*
X152350000Y-154977100D01*
X159550700Y-143475300D02*
X152350000Y-150676000D01*
X160285000Y-143475300D02*
X159550700Y-143475300D01*
X151401400Y-177254100D02*
X151630000Y-177482700D01*
X151401400Y-155925700D02*
X151401400Y-177254100D01*
X129925000Y-142600000D02*
X129925000Y-143475300D01*
X130804000Y-143475300D02*
X135839600Y-148510900D01*
X129925000Y-143475300D02*
X130804000Y-143475300D01*
X148540000Y-176932700D02*
X149090000Y-177482700D01*
X148540000Y-155925700D02*
X148540000Y-176932700D01*
X149090000Y-180652000D02*
X149090000Y-177482700D01*
X146000000Y-176932700D02*
X146550000Y-177482700D01*
X146000000Y-155925700D02*
X146000000Y-176932700D01*
X146550000Y-180652000D02*
X146550000Y-177482700D01*
X133533300Y-152968800D02*
X133901500Y-152968800D01*
X132162600Y-151598100D02*
X133533300Y-152968800D01*
X132162600Y-150644600D02*
X132162600Y-151598100D01*
X128625000Y-147107000D02*
X132162600Y-150644600D01*
X128625000Y-142600000D02*
X128625000Y-147107000D01*
X126675000Y-142600000D02*
X126675000Y-141724700D01*
X135557700Y-152637400D02*
X135557700Y-153997200D01*
X134694000Y-151773700D02*
X135557700Y-152637400D01*
X134694000Y-150611600D02*
X134694000Y-151773700D01*
X136569100Y-148736500D02*
X134694000Y-150611600D01*
X136569100Y-148006800D02*
X136569100Y-148736500D01*
X129408700Y-140846400D02*
X136569100Y-148006800D01*
X127553300Y-140846400D02*
X129408700Y-140846400D01*
X126675000Y-141724700D02*
X127553300Y-140846400D01*
X144010000Y-156475700D02*
X144010000Y-180652000D01*
X143460000Y-155925700D02*
X144010000Y-156475700D01*
X137485000Y-142600000D02*
X137485000Y-141724700D01*
X141470000Y-180652000D02*
X141470000Y-177482700D01*
X141241400Y-155925700D02*
X140920000Y-155925700D01*
X141241400Y-177254100D02*
X141470000Y-177482700D01*
X141241400Y-155925700D02*
X141241400Y-177254100D01*
X144607600Y-152559500D02*
X141241400Y-155925700D01*
X144607600Y-145184000D02*
X144607600Y-152559500D01*
X140625800Y-141202200D02*
X144607600Y-145184000D01*
X138007500Y-141202200D02*
X140625800Y-141202200D01*
X137485000Y-141724700D02*
X138007500Y-141202200D01*
X138380000Y-176932700D02*
X138380000Y-155925700D01*
X138930000Y-177482700D02*
X138380000Y-176932700D01*
X138930000Y-180652000D02*
X138930000Y-177482700D01*
X137208200Y-154753900D02*
X138380000Y-155925700D01*
X137208200Y-147509100D02*
X137208200Y-154753900D01*
X134885000Y-145185900D02*
X137208200Y-147509100D01*
X134885000Y-142600000D02*
X134885000Y-145185900D01*
X135840000Y-176932700D02*
X136390000Y-177482700D01*
X135840000Y-155925700D02*
X135840000Y-176932700D01*
X136390000Y-180652000D02*
X136390000Y-177482700D01*
X127325000Y-143475400D02*
X127325000Y-142600000D01*
X127016400Y-143784000D02*
X127325000Y-143475400D01*
X127016400Y-151490000D02*
X127016400Y-143784000D01*
X129307600Y-153781200D02*
X127016400Y-151490000D01*
X130760000Y-153781200D02*
X129307600Y-153781200D01*
X129490000Y-151462500D02*
X133300000Y-155272500D01*
X129490000Y-149457400D02*
X129490000Y-151462500D01*
X127975000Y-147942400D02*
X129490000Y-149457400D01*
X127975000Y-142600000D02*
X127975000Y-147942400D01*
X133300000Y-155272500D02*
X133300000Y-155925700D01*
X133300000Y-176932700D02*
X133850000Y-177482700D01*
X133300000Y-155925700D02*
X133300000Y-176932700D01*
X133850000Y-180652000D02*
X133850000Y-177482700D01*
X154025000Y-141853400D02*
X153680800Y-141509200D01*
X154025000Y-142600000D02*
X154025000Y-141853400D01*
X130497100Y-155925700D02*
X127744400Y-153173000D01*
X130760000Y-155925700D02*
X130497100Y-155925700D01*
X130760000Y-176932700D02*
X131310000Y-177482700D01*
X130760000Y-155925700D02*
X130760000Y-176932700D01*
X131310000Y-180652000D02*
X131310000Y-177482700D01*
X152926800Y-145565700D02*
X152926800Y-145565800D01*
X153844000Y-145565700D02*
X152926800Y-145565700D01*
X155325000Y-144084700D02*
X153844000Y-145565700D01*
X155325000Y-142600000D02*
X155325000Y-144084700D01*
X128770000Y-156475700D02*
X128770000Y-180652000D01*
X128220000Y-155925700D02*
X128770000Y-156475700D01*
X133600000Y-62210000D02*
X133600000Y-59710000D01*
X139700000Y-99060000D02*
X139700000Y-100235300D01*
X125144300Y-34310000D02*
X125600000Y-34310000D01*
X124109200Y-33274900D02*
X125144300Y-34310000D01*
X123179400Y-33274900D02*
X124109200Y-33274900D01*
X123114900Y-33339400D02*
X123179400Y-33274900D01*
X120570600Y-33339400D02*
X123114900Y-33339400D01*
X119600000Y-34310000D02*
X120570600Y-33339400D01*
X129600000Y-62210000D02*
X129600000Y-59710000D01*
X120570600Y-84139400D02*
X119600000Y-85110000D01*
X123114900Y-84139400D02*
X120570600Y-84139400D01*
X123179400Y-84074900D02*
X123114900Y-84139400D01*
X124109200Y-84074900D02*
X123179400Y-84074900D01*
X125144300Y-85110000D02*
X124109200Y-84074900D01*
X125600000Y-85110000D02*
X125144300Y-85110000D01*
X141144300Y-85110000D02*
X141600000Y-85110000D01*
X140113500Y-84079200D02*
X141144300Y-85110000D01*
X139175100Y-84079200D02*
X140113500Y-84079200D01*
X138144300Y-85110000D02*
X139175100Y-84079200D01*
X137600000Y-85110000D02*
X138144300Y-85110000D01*
X139700000Y-99060000D02*
X139700000Y-97884700D01*
X114000000Y-112000000D02*
X115375300Y-112000000D01*
X116490100Y-113114800D02*
X115375300Y-112000000D01*
X119000000Y-113114800D02*
X116490100Y-113114800D01*
X119000000Y-113580100D02*
X119000000Y-113114800D01*
X139700000Y-73660000D02*
X139700000Y-72484700D01*
X134144300Y-59710000D02*
X133600000Y-59710000D01*
X135175100Y-58679200D02*
X134144300Y-59710000D01*
X136113500Y-58679200D02*
X135175100Y-58679200D01*
X137144300Y-59710000D02*
X136113500Y-58679200D01*
X137600000Y-59710000D02*
X137144300Y-59710000D01*
X138693700Y-60803700D02*
X137600000Y-59710000D01*
X141600000Y-60803700D02*
X138693700Y-60803700D01*
X141600000Y-60803700D02*
X141600000Y-59710000D01*
X139435000Y-136362300D02*
X139435000Y-135924700D01*
X139435000Y-136362300D02*
X139435000Y-136800000D01*
X139435000Y-136800000D02*
X139435000Y-137675300D01*
X119000000Y-113580100D02*
X119000000Y-114754200D01*
X129275000Y-136800000D02*
X129275000Y-137675300D01*
X124075000Y-136800000D02*
X124075000Y-137675300D01*
X134235000Y-136800000D02*
X134235000Y-137675300D01*
X124075000Y-137675300D02*
X129275000Y-137675300D01*
X129275000Y-137675300D02*
X134235000Y-137675300D01*
X141721800Y-60803700D02*
X141600000Y-60803700D01*
X144141600Y-63223500D02*
X141721800Y-60803700D01*
X144141600Y-65181700D02*
X144141600Y-63223500D01*
X139700000Y-69623300D02*
X144141600Y-65181700D01*
X139700000Y-72484700D02*
X139700000Y-69623300D01*
X96255000Y-136800000D02*
X96255000Y-137675300D01*
X119587000Y-114754200D02*
X119000000Y-114754200D01*
X120321600Y-115488800D02*
X119587000Y-114754200D01*
X120321600Y-133584500D02*
X120321600Y-115488800D01*
X122661800Y-135924700D02*
X120321600Y-133584500D01*
X124075000Y-135924700D02*
X122661800Y-135924700D01*
X101979300Y-137675300D02*
X96255000Y-137675300D01*
X106070100Y-133584500D02*
X101979300Y-137675300D01*
X120321600Y-133584500D02*
X106070100Y-133584500D01*
X91055000Y-136800000D02*
X91055000Y-137675300D01*
X124075000Y-136800000D02*
X124075000Y-135924700D01*
X126629400Y-35339400D02*
X129600000Y-35339400D01*
X125600000Y-34310000D02*
X126629400Y-35339400D01*
X129600000Y-35339400D02*
X129600000Y-34310000D01*
X133600000Y-36810000D02*
X133600000Y-35560000D01*
X129600000Y-35560000D02*
X133600000Y-35560000D01*
X129600000Y-36810000D02*
X129600000Y-35560000D01*
X129600000Y-35560000D02*
X129600000Y-35339400D01*
X133600000Y-35560000D02*
X133600000Y-34310000D01*
X159635000Y-136800000D02*
X159635000Y-137550200D01*
X164835000Y-136800000D02*
X164835000Y-137675300D01*
X126144300Y-59710000D02*
X125600000Y-59710000D01*
X127175100Y-58679200D02*
X126144300Y-59710000D01*
X128113500Y-58679200D02*
X127175100Y-58679200D01*
X129144300Y-59710000D02*
X128113500Y-58679200D01*
X129600000Y-59710000D02*
X129144300Y-59710000D01*
X120570600Y-58739400D02*
X119600000Y-59710000D01*
X123114900Y-58739400D02*
X120570600Y-58739400D01*
X123179400Y-58674900D02*
X123114900Y-58739400D01*
X124109200Y-58674900D02*
X123179400Y-58674900D01*
X125144300Y-59710000D02*
X124109200Y-58674900D01*
X125600000Y-59710000D02*
X125144300Y-59710000D01*
X95360000Y-138570300D02*
X96255000Y-137675300D01*
X91950000Y-138570300D02*
X95360000Y-138570300D01*
X91055000Y-137675300D02*
X91950000Y-138570300D01*
X129600000Y-87610000D02*
X129600000Y-85110000D01*
X126144300Y-85110000D02*
X125600000Y-85110000D01*
X127175100Y-84079200D02*
X126144300Y-85110000D01*
X128113500Y-84079200D02*
X127175100Y-84079200D01*
X129144300Y-85110000D02*
X128113500Y-84079200D01*
X129600000Y-85110000D02*
X129144300Y-85110000D01*
X134235000Y-137675300D02*
X139435000Y-137675300D01*
X139435000Y-137675300D02*
X149475000Y-137675300D01*
X149475000Y-136800000D02*
X149475000Y-137550200D01*
X149475000Y-137550200D02*
X149475000Y-137675300D01*
X149475000Y-137675300D02*
X154675000Y-137675300D01*
X154675000Y-136800000D02*
X154675000Y-137550200D01*
X154675000Y-137550200D02*
X154675000Y-137675300D01*
X154675000Y-137675300D02*
X159635000Y-137675300D01*
X159635000Y-137550200D02*
X159635000Y-137675300D01*
X159635000Y-137675300D02*
X164835000Y-137675300D01*
X112144300Y-34310000D02*
X111600000Y-34310000D01*
X113175100Y-33279200D02*
X112144300Y-34310000D01*
X114113500Y-33279200D02*
X113175100Y-33279200D01*
X115144300Y-34310000D02*
X114113500Y-33279200D01*
X115600000Y-34310000D02*
X115144300Y-34310000D01*
X141600000Y-85752400D02*
X141600000Y-85110000D01*
X143757900Y-87910300D02*
X141600000Y-85752400D01*
X145054400Y-87910300D02*
X143757900Y-87910300D01*
X145626500Y-88482400D02*
X145054400Y-87910300D01*
X145626500Y-89043400D02*
X145626500Y-88482400D01*
X139700000Y-94969900D02*
X145626500Y-89043400D01*
X139700000Y-97884700D02*
X139700000Y-94969900D01*
X139435000Y-103310500D02*
X139435000Y-135924700D01*
X139354400Y-103229900D02*
X139435000Y-103310500D01*
X139354400Y-100580900D02*
X139354400Y-103229900D01*
X139700000Y-100235300D02*
X139354400Y-100580900D01*
X141144300Y-34310000D02*
X141600000Y-34310000D01*
X140113500Y-33279200D02*
X141144300Y-34310000D01*
X139175100Y-33279200D02*
X140113500Y-33279200D01*
X138144300Y-34310000D02*
X139175100Y-33279200D01*
X137600000Y-34310000D02*
X138144300Y-34310000D01*
X139700000Y-48260000D02*
X140875300Y-48260000D01*
X142408000Y-33502000D02*
X141600000Y-34310000D01*
X145267700Y-33502000D02*
X142408000Y-33502000D01*
X146491300Y-34725600D02*
X145267700Y-33502000D01*
X146491300Y-44130900D02*
X146491300Y-34725600D01*
X146095800Y-44526400D02*
X146491300Y-44130900D01*
X144241500Y-44526400D02*
X146095800Y-44526400D01*
X140875300Y-47892600D02*
X144241500Y-44526400D01*
X140875300Y-48260000D02*
X140875300Y-47892600D01*
X118594000Y-118000000D02*
X119000000Y-117594000D01*
X114000000Y-118000000D02*
X118594000Y-118000000D01*
X119000000Y-116419900D02*
X119000000Y-117594000D01*
X103022000Y-154969000D02*
X103022000Y-180690000D01*
X102870000Y-154817000D02*
X103022000Y-154969000D01*
X150125000Y-142600000D02*
X150125000Y-141724700D01*
X150125000Y-141577400D02*
X150160600Y-141541800D01*
X150125000Y-141724700D02*
X150125000Y-141577400D01*
X100330000Y-146900300D02*
X96905000Y-143475300D01*
X100330000Y-151257000D02*
X100330000Y-146900300D01*
X96905000Y-142600000D02*
X96905000Y-143475300D01*
X95605000Y-144527700D02*
X95605000Y-142600000D01*
X97790000Y-146712700D02*
X95605000Y-144527700D01*
X97790000Y-151257000D02*
X97790000Y-146712700D01*
X96284200Y-146687500D02*
X96284200Y-149484500D01*
X94955000Y-145358300D02*
X96284200Y-146687500D01*
X94955000Y-142600000D02*
X94955000Y-145358300D01*
X94305000Y-142600000D02*
X94305000Y-143475300D01*
X94305000Y-146348200D02*
X94305000Y-143475300D01*
X94517100Y-146560300D02*
X94305000Y-146348200D01*
X94517100Y-147367600D02*
X94517100Y-146560300D01*
X93862600Y-152409600D02*
X93862600Y-176438700D01*
X92710000Y-151257000D02*
X93862600Y-152409600D01*
X93655000Y-146697200D02*
X93655000Y-142600000D01*
X93795100Y-146837300D02*
X93655000Y-146697200D01*
X93005000Y-142600000D02*
X93005000Y-143475300D01*
X93005000Y-147009500D02*
X93005000Y-143475300D01*
X94500600Y-148505100D02*
X93005000Y-147009500D01*
X94500600Y-148690000D02*
X94500600Y-148505100D01*
X96520000Y-150709400D02*
X94500600Y-148690000D01*
X96520000Y-151652800D02*
X96520000Y-150709400D01*
X99684200Y-154817000D02*
X96520000Y-151652800D01*
X100330000Y-154817000D02*
X99684200Y-154817000D01*
X100330000Y-177368700D02*
X100482000Y-177520700D01*
X100330000Y-154817000D02*
X100330000Y-177368700D01*
X100482000Y-180690000D02*
X100482000Y-177520700D01*
X92355000Y-147067100D02*
X92355000Y-142600000D01*
X94000300Y-148712400D02*
X92355000Y-147067100D01*
X94000300Y-151633900D02*
X94000300Y-148712400D01*
X97183400Y-154817000D02*
X94000300Y-151633900D01*
X97790000Y-154817000D02*
X97183400Y-154817000D01*
X97790000Y-177368700D02*
X97942000Y-177520700D01*
X97790000Y-154817000D02*
X97790000Y-177368700D01*
X97942000Y-180690000D02*
X97942000Y-177520700D01*
X126099600Y-143549900D02*
X126025000Y-143475300D01*
X126099600Y-144555400D02*
X126099600Y-143549900D01*
X125502600Y-145152400D02*
X126099600Y-144555400D01*
X125138400Y-145152400D02*
X125502600Y-145152400D01*
X126025000Y-142600000D02*
X126025000Y-143475300D01*
X95250000Y-177368700D02*
X95402000Y-177520700D01*
X95250000Y-154817000D02*
X95250000Y-177368700D01*
X95402000Y-180690000D02*
X95402000Y-177520700D01*
X125375000Y-144243200D02*
X125375000Y-142600000D01*
X92710000Y-177368700D02*
X92862000Y-177520700D01*
X92710000Y-154817000D02*
X92710000Y-177368700D01*
X92862000Y-180690000D02*
X92862000Y-177520700D01*
X124725000Y-142600000D02*
X124725000Y-143475300D01*
X123463400Y-143475300D02*
X124725000Y-143475300D01*
X90322000Y-154969000D02*
X90322000Y-180690000D01*
X90170000Y-154817000D02*
X90322000Y-154969000D01*
X92151600Y-141724700D02*
X92894600Y-140981700D01*
X91705000Y-141724700D02*
X92151600Y-141724700D01*
X104000000Y-112000000D02*
X104000000Y-113625300D01*
X91705000Y-142600000D02*
X91705000Y-141724700D01*
X102182500Y-115442800D02*
X104000000Y-113625300D01*
X102182500Y-128227100D02*
X102182500Y-115442800D01*
X102443100Y-128487700D02*
X102182500Y-128227100D01*
X110600000Y-57401500D02*
X114756700Y-53244800D01*
X110600000Y-57710000D02*
X110600000Y-57401500D01*
X105620900Y-36346700D02*
X105620900Y-48021200D01*
X109657600Y-32310000D02*
X105620900Y-36346700D01*
X110600000Y-32310000D02*
X109657600Y-32310000D01*
X106460500Y-92550900D02*
X106087900Y-92923500D01*
X106460500Y-86358300D02*
X106460500Y-92550900D01*
X109708800Y-83110000D02*
X106460500Y-86358300D01*
X110600000Y-83110000D02*
X109708800Y-83110000D01*
X97209600Y-136800000D02*
X96905000Y-136800000D01*
X106405200Y-127604400D02*
X97209600Y-136800000D01*
X106405200Y-93240800D02*
X106405200Y-127604400D01*
X106087900Y-92923500D02*
X106405200Y-93240800D01*
X141643300Y-31266700D02*
X140600000Y-32310000D01*
X144447600Y-31266700D02*
X141643300Y-31266700D01*
X147521700Y-34340800D02*
X144447600Y-31266700D01*
X147521700Y-44625300D02*
X147521700Y-34340800D01*
X142525200Y-49621800D02*
X147521700Y-44625300D01*
X142274900Y-49621800D02*
X142525200Y-49621800D01*
X141024600Y-70717000D02*
X141024600Y-74906500D01*
X145958500Y-65783100D02*
X141024600Y-70717000D01*
X145958500Y-60308100D02*
X145958500Y-65783100D01*
X144753700Y-59103300D02*
X145958500Y-60308100D01*
X142449100Y-59103300D02*
X144753700Y-59103300D01*
X141055800Y-57710000D02*
X142449100Y-59103300D01*
X140600000Y-57710000D02*
X141055800Y-57710000D01*
X152725000Y-129403700D02*
X152725000Y-136800000D01*
X150690700Y-127369400D02*
X152725000Y-129403700D01*
X150690700Y-87154700D02*
X150690700Y-127369400D01*
X150403900Y-86867900D02*
X150690700Y-87154700D01*
X150403900Y-85108200D02*
X150403900Y-86867900D01*
X150039000Y-84743300D02*
X150403900Y-85108200D01*
X150039000Y-83960900D02*
X150039000Y-84743300D01*
X148188100Y-82110000D02*
X150039000Y-83960900D01*
X148188100Y-81474100D02*
X148188100Y-82110000D01*
X145487400Y-78773400D02*
X148188100Y-81474100D01*
X142263700Y-78773400D02*
X145487400Y-78773400D01*
X121841700Y-52951700D02*
X126600000Y-57710000D01*
X121841700Y-51066600D02*
X121841700Y-52951700D01*
X99168500Y-92154000D02*
X101299500Y-94285000D01*
X99168500Y-38547500D02*
X99168500Y-92154000D01*
X109015400Y-28700600D02*
X99168500Y-38547500D01*
X122990600Y-28700600D02*
X109015400Y-28700600D01*
X126600000Y-32310000D02*
X122990600Y-28700600D01*
X122501600Y-79011600D02*
X126600000Y-83110000D01*
X106962900Y-79011600D02*
X122501600Y-79011600D01*
X102209500Y-83765000D02*
X106962900Y-79011600D01*
X102209500Y-93375000D02*
X102209500Y-83765000D01*
X101299500Y-94285000D02*
X102209500Y-93375000D01*
X92355000Y-135685500D02*
X92355000Y-136800000D01*
X94231800Y-133808700D02*
X92355000Y-135685500D01*
X97291900Y-133808700D02*
X94231800Y-133808700D01*
X99740600Y-131360000D02*
X97291900Y-133808700D01*
X99740600Y-130730300D02*
X99740600Y-131360000D01*
X100994400Y-129476500D02*
X99740600Y-130730300D01*
X100994400Y-114907700D02*
X100994400Y-129476500D01*
X101381000Y-114521100D02*
X100994400Y-114907700D01*
X101381000Y-94366500D02*
X101381000Y-114521100D01*
X101299500Y-94285000D02*
X101381000Y-94366500D01*
X154025000Y-136800000D02*
X154025000Y-135924700D01*
X116781900Y-55891900D02*
X118600000Y-57710000D01*
X116781900Y-52760700D02*
X116781900Y-55891900D01*
X116038200Y-29748200D02*
X118600000Y-32310000D01*
X109388900Y-29748200D02*
X116038200Y-29748200D01*
X102734600Y-36402500D02*
X109388900Y-29748200D01*
X102734600Y-47345800D02*
X102734600Y-36402500D01*
X152262100Y-123703400D02*
X152262100Y-113871600D01*
X154025000Y-125466300D02*
X152262100Y-123703400D01*
X154025000Y-135924700D02*
X154025000Y-125466300D01*
X104130400Y-86434400D02*
X104130400Y-92007700D01*
X109521800Y-81043000D02*
X104130400Y-86434400D01*
X116558000Y-81043000D02*
X109521800Y-81043000D01*
X118600000Y-83085000D02*
X116558000Y-81043000D01*
X118600000Y-83110000D02*
X118600000Y-83085000D01*
X124052600Y-53162600D02*
X128600000Y-57710000D01*
X123114900Y-53162600D02*
X124052600Y-53162600D01*
X122688700Y-52736400D02*
X123114900Y-53162600D01*
X122688700Y-50855500D02*
X122688700Y-52736400D01*
X117443900Y-45610700D02*
X122688700Y-50855500D01*
X116884400Y-45610700D02*
X117443900Y-45610700D01*
X115074600Y-47420500D02*
X116884400Y-45610700D01*
X115074600Y-47627600D02*
X115074600Y-47420500D01*
X95605000Y-136800000D02*
X95605000Y-135924700D01*
X115074600Y-48988500D02*
X115074600Y-47627600D01*
X111894900Y-52168200D02*
X115074600Y-48988500D01*
X111894900Y-52816300D02*
X111894900Y-52168200D01*
X108061900Y-56649300D02*
X111894900Y-52816300D01*
X108061900Y-57274800D02*
X108061900Y-56649300D01*
X107054900Y-58281800D02*
X108061900Y-57274800D01*
X107054900Y-62600600D02*
X107054900Y-58281800D01*
X108272500Y-63818200D02*
X107054900Y-62600600D01*
X108272500Y-64063000D02*
X108272500Y-63818200D01*
X110344100Y-66134600D02*
X108272500Y-64063000D01*
X110985200Y-66134600D02*
X110344100Y-66134600D01*
X97376600Y-135924700D02*
X95605000Y-135924700D01*
X101241500Y-132059800D02*
X97376600Y-135924700D01*
X101241500Y-131352200D02*
X101241500Y-132059800D01*
X105697500Y-126896200D02*
X101241500Y-131352200D01*
X105904800Y-126896200D02*
X105697500Y-126896200D01*
X105904800Y-94090500D02*
X105904800Y-126896200D01*
X105107400Y-93293100D02*
X105904800Y-94090500D01*
X105107400Y-86234300D02*
X105107400Y-93293100D01*
X109798300Y-81543400D02*
X105107400Y-86234300D01*
X116103300Y-81543400D02*
X109798300Y-81543400D01*
X116338300Y-81778400D02*
X116103300Y-81543400D01*
X141153600Y-125162500D02*
X141153600Y-109242000D01*
X150125000Y-134133900D02*
X141153600Y-125162500D01*
X150125000Y-136800000D02*
X150125000Y-134133900D01*
X102016600Y-50197900D02*
X103079200Y-51260500D01*
X102016600Y-36407000D02*
X102016600Y-50197900D01*
X109222700Y-29200900D02*
X102016600Y-36407000D01*
X119490900Y-29200900D02*
X109222700Y-29200900D01*
X122600000Y-32310000D02*
X119490900Y-29200900D01*
X108153700Y-80020500D02*
X104381400Y-83792800D01*
X119510500Y-80020500D02*
X108153700Y-80020500D01*
X122600000Y-83110000D02*
X119510500Y-80020500D01*
X94955000Y-135862200D02*
X94955000Y-136800000D01*
X94813400Y-135720600D02*
X94955000Y-135862200D01*
X125344300Y-52454300D02*
X130600000Y-57710000D01*
X123364000Y-52454300D02*
X125344300Y-52454300D01*
X126001300Y-78511300D02*
X130600000Y-83110000D01*
X106748100Y-78511300D02*
X126001300Y-78511300D01*
X101633800Y-83625600D02*
X106748100Y-78511300D01*
X101633800Y-92987800D02*
X101633800Y-83625600D01*
X101374500Y-93247100D02*
X101633800Y-92987800D01*
X93655000Y-136800000D02*
X93655000Y-135924700D01*
X114556800Y-30266800D02*
X116600000Y-32310000D01*
X109577900Y-30266800D02*
X114556800Y-30266800D01*
X103838900Y-36005800D02*
X109577900Y-30266800D01*
X103838900Y-51455900D02*
X103838900Y-36005800D01*
X103102000Y-52192800D02*
X103838900Y-51455900D01*
X103057500Y-52192800D02*
X103102000Y-52192800D01*
X101568700Y-67254300D02*
X106246500Y-71932100D01*
X101568700Y-52869200D02*
X101568700Y-67254300D01*
X102245100Y-52192800D02*
X101568700Y-52869200D01*
X103057500Y-52192800D02*
X102245100Y-52192800D01*
X93655000Y-135806500D02*
X93655000Y-135924700D01*
X94478800Y-134982700D02*
X93655000Y-135806500D01*
X97604800Y-134982700D02*
X94478800Y-134982700D01*
X100741200Y-131846300D02*
X97604800Y-134982700D01*
X100741200Y-131144900D02*
X100741200Y-131846300D01*
X105396500Y-126489600D02*
X100741200Y-131144900D01*
X105396500Y-95949600D02*
X105396500Y-126489600D01*
X103455100Y-94008200D02*
X105396500Y-95949600D01*
X103455100Y-86337000D02*
X103455100Y-94008200D01*
X109249500Y-80542600D02*
X103455100Y-86337000D01*
X117556600Y-80542600D02*
X109249500Y-80542600D01*
X119629500Y-82615500D02*
X117556600Y-80542600D01*
X119629500Y-83536300D02*
X119629500Y-82615500D01*
X118956300Y-84209500D02*
X119629500Y-83536300D01*
X118155300Y-84209500D02*
X118956300Y-84209500D01*
X117055800Y-83110000D02*
X118155300Y-84209500D01*
X116600000Y-83110000D02*
X117055800Y-83110000D01*
X107455700Y-79512000D02*
X103514200Y-83453500D01*
X121002000Y-79512000D02*
X107455700Y-79512000D01*
X124600000Y-83110000D02*
X121002000Y-79512000D01*
X93005000Y-135743200D02*
X93005000Y-136800000D01*
X94439200Y-134309000D02*
X93005000Y-135743200D01*
X97570800Y-134309000D02*
X94439200Y-134309000D01*
X100240900Y-131638900D02*
X97570800Y-134309000D01*
X100240900Y-130937600D02*
X100240900Y-131638900D01*
X101641200Y-129537300D02*
X100240900Y-130937600D01*
X101641200Y-114968500D02*
X101641200Y-129537300D01*
X101994900Y-114614800D02*
X101641200Y-114968500D01*
X101994900Y-94997300D02*
X101994900Y-114614800D01*
X102709800Y-94282400D02*
X101994900Y-94997300D01*
X102709800Y-84257900D02*
X102709800Y-94282400D01*
X103514200Y-83453500D02*
X102709800Y-84257900D01*
X138263200Y-30646800D02*
X139391900Y-30646800D01*
X136600000Y-32310000D02*
X138263200Y-30646800D01*
X151425000Y-131152000D02*
X151425000Y-136800000D01*
X149340000Y-129067000D02*
X151425000Y-131152000D01*
X149340000Y-85459600D02*
X149340000Y-129067000D01*
X149038400Y-85158000D02*
X149340000Y-85459600D01*
X149038400Y-84375500D02*
X149038400Y-85158000D01*
X147047200Y-82384300D02*
X149038400Y-84375500D01*
X147047200Y-81748400D02*
X147047200Y-82384300D01*
X145247800Y-79949000D02*
X147047200Y-81748400D01*
X140970300Y-79949000D02*
X145247800Y-79949000D01*
X140795200Y-79773900D02*
X140970300Y-79949000D01*
X140494600Y-75581900D02*
X140463300Y-75550600D01*
X141971600Y-75581900D02*
X140494600Y-75581900D01*
X143381500Y-74172000D02*
X141971600Y-75581900D01*
X143381500Y-72812700D02*
X143381500Y-74172000D01*
X143259600Y-72690800D02*
X143381500Y-72812700D01*
X143259600Y-70436900D02*
X143259600Y-72690800D01*
X146959100Y-66737400D02*
X143259600Y-70436900D01*
X146959100Y-59843100D02*
X146959100Y-66737400D01*
X143779900Y-56663900D02*
X146959100Y-59843100D01*
X137646100Y-56663900D02*
X143779900Y-56663900D01*
X136600000Y-57710000D02*
X137646100Y-56663900D01*
X139121900Y-32310000D02*
X138600000Y-32310000D01*
X140665600Y-30766300D02*
X139121900Y-32310000D01*
X144654800Y-30766300D02*
X140665600Y-30766300D01*
X148197100Y-34308600D02*
X144654800Y-30766300D01*
X148197100Y-37520900D02*
X148197100Y-34308600D01*
X148197100Y-47815700D02*
X148197100Y-37520900D01*
X149304800Y-48923400D02*
X148197100Y-47815700D01*
X150015300Y-128552200D02*
X150015300Y-88176400D01*
X152075000Y-130611900D02*
X150015300Y-128552200D01*
X152075000Y-136800000D02*
X152075000Y-130611900D01*
X149840300Y-88001400D02*
X150015300Y-88176400D01*
X149840300Y-85252300D02*
X149840300Y-88001400D01*
X149538700Y-84950700D02*
X149840300Y-85252300D01*
X149538700Y-84168200D02*
X149538700Y-84950700D01*
X147687800Y-82317300D02*
X149538700Y-84168200D01*
X147687800Y-81681400D02*
X147687800Y-82317300D01*
X145455100Y-79448700D02*
X147687800Y-81681400D01*
X141748700Y-79448700D02*
X145455100Y-79448700D01*
X141371900Y-79071900D02*
X141748700Y-79448700D01*
X147627700Y-87083300D02*
X147640900Y-87083300D01*
X150775000Y-132342700D02*
X150775000Y-136800000D01*
X146893100Y-128460800D02*
X150775000Y-132342700D01*
X146893100Y-90607200D02*
X146893100Y-128460800D01*
X147627700Y-89872600D02*
X146893100Y-90607200D01*
X147627700Y-87083300D02*
X147627700Y-89872600D01*
X147537500Y-86993100D02*
X147627700Y-87083300D01*
X147537500Y-85103300D02*
X147537500Y-86993100D01*
X143483100Y-81048900D02*
X147537500Y-85103300D01*
X138292300Y-81048900D02*
X143483100Y-81048900D01*
X137065000Y-79821600D02*
X138292300Y-81048900D01*
X148148100Y-59589100D02*
X148148100Y-61712300D01*
X144222100Y-55663100D02*
X148148100Y-59589100D01*
X134646900Y-55663100D02*
X144222100Y-55663100D01*
X132600000Y-57710000D02*
X134646900Y-55663100D01*
X151191000Y-86699900D02*
X151103500Y-86612400D01*
X151191000Y-125933000D02*
X151191000Y-86699900D01*
X153375000Y-128117000D02*
X151191000Y-125933000D01*
X153375000Y-136800000D02*
X153375000Y-128117000D01*
X147459500Y-66655000D02*
X147898000Y-66655000D01*
X147459500Y-59608200D02*
X147459500Y-66655000D01*
X144014800Y-56163500D02*
X147459500Y-59608200D01*
X136146500Y-56163500D02*
X144014800Y-56163500D01*
X134600000Y-57710000D02*
X136146500Y-56163500D01*
X143921100Y-72397300D02*
X143934900Y-72411100D01*
X143921100Y-70786900D02*
X143921100Y-72397300D01*
X147459500Y-67248500D02*
X143921100Y-70786900D01*
X147459500Y-66655000D02*
X147459500Y-67248500D01*
X113057100Y-30767100D02*
X114600000Y-32310000D01*
X109785300Y-30767100D02*
X113057100Y-30767100D01*
X104339200Y-36213200D02*
X109785300Y-30767100D01*
X104339200Y-51866200D02*
X104339200Y-36213200D01*
X103331900Y-52873500D02*
X104339200Y-51866200D01*
X102535500Y-52873500D02*
X103331900Y-52873500D01*
X94133600Y-137675300D02*
X94305000Y-137675300D01*
X93936300Y-137872600D02*
X94133600Y-137675300D01*
X94305000Y-136800000D02*
X94305000Y-137675300D01*
X102244000Y-66182500D02*
X102244000Y-65939000D01*
X105221600Y-69160100D02*
X102244000Y-66182500D01*
X106025900Y-69160100D02*
X105221600Y-69160100D01*
X107970500Y-71104700D02*
X106025900Y-69160100D01*
X107970500Y-74929800D02*
X107970500Y-71104700D01*
X99843800Y-82675300D02*
X99843800Y-91874300D01*
X101337000Y-81182100D02*
X99843800Y-82675300D01*
X101550400Y-81182100D02*
X101337000Y-81182100D01*
X107802700Y-74929800D02*
X101550400Y-81182100D01*
X107970500Y-74929800D02*
X107802700Y-74929800D01*
X106921800Y-71011100D02*
X105746200Y-69835500D01*
X106921800Y-74855500D02*
X106921800Y-71011100D01*
X134885000Y-128129400D02*
X134885000Y-136800000D01*
X130259200Y-123503600D02*
X134885000Y-128129400D01*
X123009900Y-112979200D02*
X123009900Y-115721400D01*
X108709200Y-98678500D02*
X123009900Y-112979200D01*
X108709200Y-97745700D02*
X108709200Y-98678500D01*
X109059400Y-97395500D02*
X108709200Y-97745700D01*
X109059400Y-88150600D02*
X109059400Y-97395500D01*
X109600000Y-87610000D02*
X109059400Y-88150600D01*
X105432100Y-67576400D02*
X105840200Y-67984500D01*
X105432000Y-67576400D02*
X105432100Y-67576400D01*
X105432000Y-67409000D02*
X105432000Y-67576400D01*
X102702500Y-64679500D02*
X105432000Y-67409000D01*
X102702500Y-55640300D02*
X102702500Y-64679500D01*
X107125200Y-51217600D02*
X102702500Y-55640300D01*
X107125200Y-39284800D02*
X107125200Y-51217600D01*
X109600000Y-36810000D02*
X107125200Y-39284800D01*
X111055800Y-87610000D02*
X111600000Y-87610000D01*
X109559800Y-89106000D02*
X111055800Y-87610000D01*
X109559800Y-97850100D02*
X109559800Y-89106000D01*
X109384500Y-98025400D02*
X109559800Y-97850100D01*
X106350000Y-38598000D02*
X106350000Y-46371500D01*
X109170700Y-35777300D02*
X106350000Y-38598000D01*
X110567300Y-35777300D02*
X109170700Y-35777300D01*
X111600000Y-36810000D02*
X110567300Y-35777300D01*
X135535000Y-127475100D02*
X135535000Y-136800000D01*
X129930700Y-121870800D02*
X135535000Y-127475100D01*
X129930700Y-113520900D02*
X129930700Y-121870800D01*
X105504600Y-68659800D02*
X106480800Y-68659800D01*
X104764600Y-67919800D02*
X105504600Y-68659800D01*
X104764600Y-67449200D02*
X104764600Y-67919800D01*
X102202200Y-64886800D02*
X104764600Y-67449200D01*
X102202200Y-55432900D02*
X102202200Y-64886800D01*
X106350000Y-51285100D02*
X102202200Y-55432900D01*
X106350000Y-46371500D02*
X106350000Y-51285100D01*
X103644600Y-56308500D02*
X103827500Y-56308500D01*
X103644600Y-55405800D02*
X103644600Y-56308500D01*
X107625500Y-51424900D02*
X103644600Y-55405800D01*
X107625500Y-40328800D02*
X107625500Y-51424900D01*
X110243800Y-37710500D02*
X107625500Y-40328800D01*
X111044800Y-37710500D02*
X110243800Y-37710500D01*
X111243800Y-37909500D02*
X111044800Y-37710500D01*
X112044800Y-37909500D02*
X111243800Y-37909500D01*
X113144300Y-36810000D02*
X112044800Y-37909500D01*
X113600000Y-36810000D02*
X113144300Y-36810000D01*
X136185000Y-118453600D02*
X136185000Y-136800000D01*
X131683800Y-113952400D02*
X136185000Y-118453600D01*
X108061400Y-75825200D02*
X107903800Y-75825200D01*
X108662900Y-75223700D02*
X108061400Y-75825200D01*
X108662900Y-70370900D02*
X108662900Y-75223700D01*
X107203500Y-68911500D02*
X108662900Y-70370900D01*
X107203500Y-68392800D02*
X107203500Y-68911500D01*
X103202800Y-64392100D02*
X107203500Y-68392800D01*
X103202800Y-56750300D02*
X103202800Y-64392100D01*
X103644600Y-56308500D02*
X103202800Y-56750300D01*
X100958400Y-82329100D02*
X100958400Y-90690500D01*
X101313500Y-81974000D02*
X100958400Y-82329100D01*
X101526500Y-81974000D02*
X101313500Y-81974000D01*
X107675300Y-75825200D02*
X101526500Y-81974000D01*
X107903800Y-75825200D02*
X107675300Y-75825200D01*
X108356500Y-87379600D02*
X108356500Y-92850300D01*
X109189300Y-86546800D02*
X108356500Y-87379600D01*
X114536800Y-86546800D02*
X109189300Y-86546800D01*
X115600000Y-87610000D02*
X114536800Y-86546800D01*
X136835000Y-136800000D02*
X136835000Y-135924700D01*
X136760400Y-135850100D02*
X136835000Y-135924700D01*
X136760400Y-109849100D02*
X136760400Y-135850100D01*
X113312500Y-52813900D02*
X113312500Y-52654600D01*
X109062500Y-57063900D02*
X113312500Y-52813900D01*
X109062500Y-57689400D02*
X109062500Y-57063900D01*
X108064800Y-58687100D02*
X109062500Y-57689400D01*
X108064800Y-61180800D02*
X108064800Y-58687100D01*
X108565200Y-61681200D02*
X108064800Y-61180800D01*
X108565200Y-62688400D02*
X108565200Y-61681200D01*
X109186300Y-63309500D02*
X108565200Y-62688400D01*
X109956300Y-63309500D02*
X109186300Y-63309500D01*
X110155300Y-63110500D02*
X109956300Y-63309500D01*
X110956300Y-63110500D02*
X110155300Y-63110500D01*
X111155300Y-63309500D02*
X110956300Y-63110500D01*
X111956300Y-63309500D02*
X111155300Y-63309500D01*
X112155300Y-63110500D02*
X111956300Y-63309500D01*
X112956300Y-63110500D02*
X112155300Y-63110500D01*
X113155300Y-63309500D02*
X112956300Y-63110500D01*
X113956300Y-63309500D02*
X113155300Y-63309500D01*
X115055800Y-62210000D02*
X113956300Y-63309500D01*
X115600000Y-62210000D02*
X115055800Y-62210000D01*
X113312500Y-52335500D02*
X113312500Y-52654600D01*
X117385000Y-48263000D02*
X113312500Y-52335500D01*
X117385000Y-47292700D02*
X117385000Y-48263000D01*
X119668400Y-89134100D02*
X119668400Y-93665000D01*
X118144300Y-87610000D02*
X119668400Y-89134100D01*
X117600000Y-87610000D02*
X118144300Y-87610000D01*
X137485000Y-111707000D02*
X137485000Y-136800000D01*
X114175400Y-52748000D02*
X114175400Y-52500200D01*
X113593500Y-53329900D02*
X114175400Y-52748000D01*
X113515800Y-53329900D02*
X113593500Y-53329900D01*
X109562800Y-57282900D02*
X113515800Y-53329900D01*
X109562800Y-57896700D02*
X109562800Y-57282900D01*
X108570600Y-58888900D02*
X109562800Y-57896700D01*
X108570600Y-60522500D02*
X108570600Y-58888900D01*
X109027000Y-60978900D02*
X108570600Y-60522500D01*
X116368900Y-60978900D02*
X109027000Y-60978900D01*
X117600000Y-62210000D02*
X116368900Y-60978900D01*
X118072700Y-48602900D02*
X118072700Y-47922600D01*
X114175400Y-52500200D02*
X118072700Y-48602900D01*
X138135000Y-136800000D02*
X138135000Y-135924700D01*
X138199300Y-108623200D02*
X135717000Y-106140900D01*
X138199300Y-135860400D02*
X138199300Y-108623200D01*
X138135000Y-135924700D02*
X138199300Y-135860400D01*
X105053700Y-63677300D02*
X105609000Y-64232600D01*
X105053700Y-57452600D02*
X105053700Y-63677300D01*
X106060700Y-56445600D02*
X105053700Y-57452600D01*
X106060700Y-55820100D02*
X106060700Y-56445600D01*
X109893700Y-51987100D02*
X106060700Y-55820100D01*
X109893700Y-51339000D02*
X109893700Y-51987100D01*
X111791700Y-49441000D02*
X109893700Y-51339000D01*
X111791700Y-47186100D02*
X111791700Y-49441000D01*
X119636900Y-39340900D02*
X111791700Y-47186100D01*
X119636900Y-36846900D02*
X119636900Y-39340900D01*
X119600000Y-36810000D02*
X119636900Y-36846900D01*
X113443300Y-68408800D02*
X113679900Y-68172200D01*
X109751200Y-68408800D02*
X113443300Y-68408800D01*
X105609000Y-64266600D02*
X109751200Y-68408800D01*
X105609000Y-64232600D02*
X105609000Y-64266600D01*
X138785000Y-104449200D02*
X138757100Y-104421300D01*
X138785000Y-136800000D02*
X138785000Y-104449200D01*
X140029700Y-102493300D02*
X140029700Y-102950200D01*
X142090100Y-100432900D02*
X140029700Y-102493300D01*
X142502100Y-100432900D02*
X142090100Y-100432900D01*
X143769500Y-99165500D02*
X142502100Y-100432900D01*
X143769500Y-92315600D02*
X143769500Y-99165500D01*
X146627100Y-89458000D02*
X143769500Y-92315600D01*
X146627100Y-87808400D02*
X146627100Y-89458000D01*
X146465200Y-87646500D02*
X146627100Y-87808400D01*
X146465200Y-85446200D02*
X146465200Y-87646500D01*
X143068500Y-82049500D02*
X146465200Y-85446200D01*
X137074700Y-82049500D02*
X143068500Y-82049500D01*
X128052700Y-73027500D02*
X137074700Y-82049500D01*
X121249500Y-39412400D02*
X121249500Y-39020500D01*
X112792300Y-47869600D02*
X121249500Y-39412400D01*
X112792300Y-49855600D02*
X112792300Y-47869600D01*
X110894300Y-51753600D02*
X112792300Y-49855600D01*
X110894300Y-52401700D02*
X110894300Y-51753600D01*
X107061300Y-56234700D02*
X110894300Y-52401700D01*
X107061300Y-56860200D02*
X107061300Y-56234700D01*
X106054300Y-57867200D02*
X107061300Y-56860200D01*
X106054300Y-63015300D02*
X106054300Y-57867200D01*
X107271900Y-64232900D02*
X106054300Y-63015300D01*
X107271900Y-64514300D02*
X107271900Y-64232900D01*
X110067900Y-67310300D02*
X107271900Y-64514300D01*
X112066300Y-67310300D02*
X110067900Y-67310300D01*
X113635900Y-65740700D02*
X112066300Y-67310300D01*
X118662000Y-65740700D02*
X113635900Y-65740700D01*
X122192700Y-62210000D02*
X118662000Y-65740700D01*
X123600000Y-62210000D02*
X122192700Y-62210000D01*
X140981000Y-102954000D02*
X140981000Y-102555500D01*
X140085000Y-103850000D02*
X140981000Y-102954000D01*
X140085000Y-136800000D02*
X140085000Y-103850000D01*
X125055800Y-62210000D02*
X125600000Y-62210000D01*
X123956300Y-63309500D02*
X125055800Y-62210000D01*
X123155300Y-63309500D02*
X123956300Y-63309500D01*
X122956300Y-63110500D02*
X123155300Y-63309500D01*
X122175500Y-63110500D02*
X122956300Y-63110500D01*
X121365900Y-63920100D02*
X122175500Y-63110500D01*
X121365900Y-65385600D02*
X121365900Y-63920100D01*
X137529500Y-81549200D02*
X121365900Y-65385600D01*
X143275800Y-81549200D02*
X137529500Y-81549200D01*
X146965500Y-85238900D02*
X143275800Y-81549200D01*
X146965500Y-87439200D02*
X146965500Y-85238900D01*
X147127400Y-87601100D02*
X146965500Y-87439200D01*
X147127400Y-89665300D02*
X147127400Y-87601100D01*
X144269800Y-92522900D02*
X147127400Y-89665300D01*
X144269800Y-99443600D02*
X144269800Y-92522900D01*
X141157900Y-102555500D02*
X144269800Y-99443600D01*
X140981000Y-102555500D02*
X141157900Y-102555500D01*
X125144300Y-36810000D02*
X125600000Y-36810000D01*
X124044800Y-37909500D02*
X125144300Y-36810000D01*
X123243800Y-37909500D02*
X124044800Y-37909500D01*
X123063900Y-37729600D02*
X123243800Y-37909500D01*
X121585400Y-37729600D02*
X123063900Y-37729600D01*
X120574200Y-38740800D02*
X121585400Y-37729600D01*
X120574200Y-39339700D02*
X120574200Y-38740800D01*
X112292000Y-47621900D02*
X120574200Y-39339700D01*
X112292000Y-49648300D02*
X112292000Y-47621900D01*
X110394000Y-51546300D02*
X112292000Y-49648300D01*
X110394000Y-52194400D02*
X110394000Y-51546300D01*
X106561000Y-56027400D02*
X110394000Y-52194400D01*
X106561000Y-56652900D02*
X106561000Y-56027400D01*
X105554000Y-57659900D02*
X106561000Y-56652900D01*
X105554000Y-63222600D02*
X105554000Y-57659900D01*
X106771600Y-64440200D02*
X105554000Y-63222600D01*
X106771600Y-64721600D02*
X106771600Y-64440200D01*
X109899800Y-67849800D02*
X106771600Y-64721600D01*
X112774100Y-67849800D02*
X109899800Y-67849800D01*
X114335200Y-66288700D02*
X112774100Y-67849800D01*
X120462800Y-66288700D02*
X114335200Y-66288700D01*
X121365900Y-65385600D02*
X120462800Y-66288700D01*
X111557400Y-31267400D02*
X112600000Y-32310000D01*
X109992600Y-31267400D02*
X111557400Y-31267400D01*
X104839500Y-36420500D02*
X109992600Y-31267400D01*
X104839500Y-52073500D02*
X104839500Y-36420500D01*
X103297700Y-53615300D02*
X104839500Y-52073500D01*
X103064800Y-53615300D02*
X103297700Y-53615300D01*
X153093000Y-123473000D02*
X153093000Y-112224800D01*
X155325000Y-125705000D02*
X153093000Y-123473000D01*
X155325000Y-136800000D02*
X155325000Y-125705000D01*
X105785100Y-86326000D02*
X105785100Y-88392200D01*
X110030500Y-82080600D02*
X105785100Y-86326000D01*
X111570600Y-82080600D02*
X110030500Y-82080600D01*
X112600000Y-83110000D02*
X111570600Y-82080600D01*
X124725000Y-112168800D02*
X124725000Y-136800000D01*
X110600000Y-98043800D02*
X124725000Y-112168800D01*
X110600000Y-89610000D02*
X110600000Y-98043800D01*
X104384800Y-55373200D02*
X104384800Y-55620800D01*
X108125800Y-51632200D02*
X104384800Y-55373200D01*
X108125800Y-41284200D02*
X108125800Y-51632200D01*
X110600000Y-38810000D02*
X108125800Y-41284200D01*
X125375000Y-104314200D02*
X125375000Y-136800000D01*
X112600000Y-91539200D02*
X125375000Y-104314200D01*
X112600000Y-89610000D02*
X112600000Y-91539200D01*
X108873700Y-69355400D02*
X108873700Y-69626700D01*
X103703100Y-64184800D02*
X108873700Y-69355400D01*
X103703100Y-57388000D02*
X103703100Y-64184800D01*
X105060100Y-56031000D02*
X103703100Y-57388000D01*
X105060100Y-55405500D02*
X105060100Y-56031000D01*
X108626100Y-51839500D02*
X105060100Y-55405500D01*
X108626100Y-42783900D02*
X108626100Y-51839500D01*
X112600000Y-38810000D02*
X108626100Y-42783900D01*
X114600000Y-92568900D02*
X116400400Y-94369300D01*
X114600000Y-89610000D02*
X114600000Y-92568900D01*
X126025000Y-103993900D02*
X126025000Y-136800000D01*
X116400400Y-94369300D02*
X126025000Y-103993900D01*
X109328100Y-44081900D02*
X109328100Y-48713300D01*
X114600000Y-38810000D02*
X109328100Y-44081900D01*
X106773300Y-77517900D02*
X101636000Y-82655200D01*
X107238100Y-77517900D02*
X106773300Y-77517900D01*
X114893900Y-69862100D02*
X107238100Y-77517900D01*
X114893900Y-67243100D02*
X114893900Y-69862100D01*
X114614800Y-66964000D02*
X114893900Y-67243100D01*
X126675000Y-136800000D02*
X126675000Y-135924700D01*
X107802200Y-62640300D02*
X107802200Y-62392700D01*
X108772800Y-63610900D02*
X107802200Y-62640300D01*
X108772800Y-63838300D02*
X108772800Y-63610900D01*
X110174900Y-65240400D02*
X108772800Y-63838300D01*
X115569600Y-65240400D02*
X110174900Y-65240400D01*
X116600000Y-64210000D02*
X115569600Y-65240400D01*
X107555200Y-62145700D02*
X107802200Y-62392700D01*
X107555200Y-58489100D02*
X107555200Y-62145700D01*
X108562200Y-57482100D02*
X107555200Y-58489100D01*
X108562200Y-56856600D02*
X108562200Y-57482100D01*
X112395200Y-53023600D02*
X108562200Y-56856600D01*
X112395200Y-52375500D02*
X112395200Y-53023600D01*
X115774400Y-48996300D02*
X112395200Y-52375500D01*
X115774400Y-47675700D02*
X115774400Y-48996300D01*
X117164100Y-46286000D02*
X115774400Y-47675700D01*
X126675000Y-103075600D02*
X126675000Y-135924700D01*
X116600000Y-93000600D02*
X126675000Y-103075600D01*
X116600000Y-89610000D02*
X116600000Y-93000600D01*
X127325000Y-102342000D02*
X127325000Y-136800000D01*
X118600000Y-93617000D02*
X127325000Y-102342000D01*
X118600000Y-89610000D02*
X118600000Y-93617000D01*
X104378400Y-62921000D02*
X104425300Y-62921000D01*
X111075500Y-46334500D02*
X118600000Y-38810000D01*
X111075500Y-49449600D02*
X111075500Y-46334500D01*
X109393400Y-51131700D02*
X111075500Y-49449600D01*
X109393400Y-51779800D02*
X109393400Y-51131700D01*
X105560400Y-55612800D02*
X109393400Y-51779800D01*
X105560400Y-56238300D02*
X105560400Y-55612800D01*
X104425300Y-57373400D02*
X105560400Y-56238300D01*
X104425300Y-62921000D02*
X104425300Y-57373400D01*
X109752900Y-69353700D02*
X114166500Y-69353700D01*
X104425300Y-64026100D02*
X109752900Y-69353700D01*
X104425300Y-62921000D02*
X104425300Y-64026100D01*
X127975000Y-94985000D02*
X122600000Y-89610000D01*
X127975000Y-136800000D02*
X127975000Y-94985000D01*
X131748600Y-73358600D02*
X122600000Y-64210000D01*
X131748600Y-73720200D02*
X131748600Y-73358600D01*
X113469400Y-47940600D02*
X122600000Y-38810000D01*
X113469400Y-49886100D02*
X113469400Y-47940600D01*
X111394600Y-51960900D02*
X113469400Y-49886100D01*
X111394600Y-52609000D02*
X111394600Y-51960900D01*
X107561600Y-56442000D02*
X111394600Y-52609000D01*
X107561600Y-57067500D02*
X107561600Y-56442000D01*
X106554600Y-58074500D02*
X107561600Y-57067500D01*
X106554600Y-62808000D02*
X106554600Y-58074500D01*
X107772200Y-64025600D02*
X106554600Y-62808000D01*
X107772200Y-64288000D02*
X107772200Y-64025600D01*
X110294200Y-66810000D02*
X107772200Y-64288000D01*
X111541700Y-66810000D02*
X110294200Y-66810000D01*
X111716800Y-66634900D02*
X111541700Y-66810000D01*
X147581000Y-96048000D02*
X147581000Y-97580400D01*
X148316200Y-95312800D02*
X147581000Y-96048000D01*
X148316200Y-85851000D02*
X148316200Y-95312800D01*
X148037800Y-85572600D02*
X148316200Y-85851000D01*
X148037800Y-84896000D02*
X148037800Y-85572600D01*
X143690400Y-80548600D02*
X148037800Y-84896000D01*
X138747100Y-80548600D02*
X143690400Y-80548600D01*
X131918700Y-73720200D02*
X138747100Y-80548600D01*
X131748600Y-73720200D02*
X131918700Y-73720200D01*
X128625000Y-136800000D02*
X128625000Y-135924700D01*
X128625000Y-93635000D02*
X124600000Y-89610000D01*
X128625000Y-135924700D02*
X128625000Y-93635000D01*
X148839700Y-95744300D02*
X148647000Y-95937000D01*
X148839700Y-85666900D02*
X148839700Y-95744300D01*
X148538100Y-85365300D02*
X148839700Y-85666900D01*
X148538100Y-84582800D02*
X148538100Y-85365300D01*
X146369100Y-82413800D02*
X148538100Y-84582800D01*
X146369100Y-82025500D02*
X146369100Y-82413800D01*
X144596400Y-71390700D02*
X144596400Y-71869900D01*
X148823500Y-67163600D02*
X144596400Y-71390700D01*
X148823500Y-59545700D02*
X148823500Y-67163600D01*
X144342400Y-55064600D02*
X148823500Y-59545700D01*
X137942200Y-55064600D02*
X144342400Y-55064600D01*
X124600000Y-41722400D02*
X137942200Y-55064600D01*
X124600000Y-38810000D02*
X124600000Y-41722400D01*
X141411800Y-92303000D02*
X129293000Y-92303000D01*
X144951200Y-88763600D02*
X141411800Y-92303000D01*
X126600000Y-89610000D02*
X129293000Y-92303000D01*
X129925000Y-124124400D02*
X129925000Y-136800000D01*
X129255400Y-123454800D02*
X129925000Y-124124400D01*
X129255400Y-92340600D02*
X129255400Y-123454800D01*
X129293000Y-92303000D02*
X129255400Y-92340600D01*
X149323800Y-67946400D02*
X149235400Y-68034800D01*
X149323800Y-59338300D02*
X149323800Y-67946400D01*
X144424000Y-54438500D02*
X149323800Y-59338300D01*
X138023700Y-54438500D02*
X144424000Y-54438500D01*
X126600000Y-43014800D02*
X138023700Y-54438500D01*
X126600000Y-38810000D02*
X126600000Y-43014800D01*
X127144300Y-64210000D02*
X126600000Y-64210000D01*
X128243800Y-63110500D02*
X127144300Y-64210000D01*
X129044800Y-63110500D02*
X128243800Y-63110500D01*
X129243800Y-63309500D02*
X129044800Y-63110500D01*
X130044800Y-63309500D02*
X129243800Y-63309500D01*
X130243800Y-63110500D02*
X130044800Y-63309500D01*
X131044800Y-63110500D02*
X130243800Y-63110500D01*
X131243800Y-63309500D02*
X131044800Y-63110500D01*
X132044800Y-63309500D02*
X131243800Y-63309500D01*
X132243800Y-63110500D02*
X132044800Y-63309500D01*
X133044800Y-63110500D02*
X132243800Y-63110500D01*
X133243800Y-63309500D02*
X133044800Y-63110500D01*
X134044800Y-63309500D02*
X133243800Y-63309500D01*
X134243800Y-63110500D02*
X134044800Y-63309500D01*
X135044800Y-63110500D02*
X134243800Y-63110500D01*
X135243800Y-63309500D02*
X135044800Y-63110500D01*
X136044800Y-63309500D02*
X135243800Y-63309500D01*
X136243800Y-63110500D02*
X136044800Y-63309500D01*
X137044800Y-63110500D02*
X136243800Y-63110500D01*
X137243800Y-63309500D02*
X137044800Y-63110500D01*
X138044800Y-63309500D02*
X137243800Y-63309500D01*
X138243800Y-63110500D02*
X138044800Y-63309500D01*
X139044800Y-63110500D02*
X138243800Y-63110500D01*
X139243800Y-63309500D02*
X139044800Y-63110500D01*
X140044800Y-63309500D02*
X139243800Y-63309500D01*
X140243800Y-63110500D02*
X140044800Y-63309500D01*
X141044800Y-63110500D02*
X140243800Y-63110500D01*
X141243800Y-63309500D02*
X141044800Y-63110500D01*
X142044800Y-63309500D02*
X141243800Y-63309500D01*
X142243800Y-63110500D02*
X142044800Y-63309500D01*
X142975700Y-63110500D02*
X142243800Y-63110500D01*
X143641300Y-63776100D02*
X142975700Y-63110500D01*
X143641300Y-64931600D02*
X143641300Y-63776100D01*
X138521600Y-70051300D02*
X143641300Y-64931600D01*
X138521600Y-74670100D02*
X138521600Y-70051300D01*
X140096700Y-76245200D02*
X138521600Y-74670100D01*
X142071500Y-76245200D02*
X140096700Y-76245200D01*
X145116100Y-73200600D02*
X142071500Y-76245200D01*
X145116100Y-72305300D02*
X145116100Y-73200600D01*
X149235400Y-68186000D02*
X145116100Y-72305300D01*
X149235400Y-68034800D02*
X149235400Y-68186000D01*
X154114500Y-109903300D02*
X154114500Y-97957500D01*
X156927300Y-112716100D02*
X154114500Y-109903300D01*
X156927300Y-115296900D02*
X156927300Y-112716100D01*
X160391400Y-118761000D02*
X156927300Y-115296900D01*
X160391400Y-128133200D02*
X160391400Y-118761000D01*
X160285000Y-128239600D02*
X160391400Y-128133200D01*
X160285000Y-136800000D02*
X160285000Y-128239600D01*
X149953700Y-68423000D02*
X145895000Y-72481700D01*
X149953700Y-59257700D02*
X149953700Y-68423000D01*
X144634200Y-53938200D02*
X149953700Y-59257700D01*
X138231000Y-53938200D02*
X144634200Y-53938200D01*
X128600000Y-44307200D02*
X138231000Y-53938200D01*
X128600000Y-38810000D02*
X128600000Y-44307200D01*
X153052600Y-96895600D02*
X154114500Y-97957500D01*
X153052600Y-84882700D02*
X153052600Y-96895600D01*
X149798900Y-81629000D02*
X153052600Y-84882700D01*
X146680700Y-75778900D02*
X146484300Y-75975300D01*
X146680700Y-72403700D02*
X146680700Y-75778900D01*
X150454000Y-68630400D02*
X146680700Y-72403700D01*
X150454000Y-59031700D02*
X150454000Y-68630400D01*
X144850700Y-53428400D02*
X150454000Y-59031700D01*
X138428800Y-53428400D02*
X144850700Y-53428400D01*
X130600000Y-45599600D02*
X138428800Y-53428400D01*
X130600000Y-38810000D02*
X130600000Y-45599600D01*
X139793700Y-77404700D02*
X146592300Y-77404700D01*
X130600000Y-68211000D02*
X139793700Y-77404700D01*
X130600000Y-64210000D02*
X130600000Y-68211000D01*
X160935000Y-117664800D02*
X160935000Y-136800000D01*
X159493000Y-116222800D02*
X160935000Y-117664800D01*
X159493000Y-99912000D02*
X159493000Y-116222800D01*
X153829500Y-94248500D02*
X159493000Y-99912000D01*
X153579400Y-93998400D02*
X153829500Y-94248500D01*
X153579400Y-84391800D02*
X153579400Y-93998400D01*
X146592300Y-77404700D02*
X153579400Y-84391800D01*
X147181000Y-76570400D02*
X147022000Y-76729400D01*
X147181000Y-72660500D02*
X147181000Y-76570400D01*
X150954300Y-68887200D02*
X147181000Y-72660500D01*
X150954300Y-58824300D02*
X150954300Y-68887200D01*
X144942000Y-52812000D02*
X150954300Y-58824300D01*
X138543300Y-52812000D02*
X144942000Y-52812000D01*
X132600000Y-46868700D02*
X138543300Y-52812000D01*
X132600000Y-38810000D02*
X132600000Y-46868700D01*
X132600000Y-69472300D02*
X132600000Y-64210000D01*
X139879800Y-76752100D02*
X132600000Y-69472300D01*
X146289900Y-76752100D02*
X139879800Y-76752100D01*
X146312600Y-76729400D02*
X146289900Y-76752100D01*
X147022000Y-76729400D02*
X146312600Y-76729400D01*
X161585000Y-115495000D02*
X161585000Y-136800000D01*
X159993400Y-113903400D02*
X161585000Y-115495000D01*
X159993400Y-99013500D02*
X159993400Y-113903400D01*
X154293100Y-93313200D02*
X159993400Y-99013500D01*
X154293100Y-84000500D02*
X147022000Y-76729400D01*
X154293100Y-93313200D02*
X154293100Y-84000500D01*
X147878600Y-72670500D02*
X147878600Y-75330300D01*
X151454600Y-69094500D02*
X147878600Y-72670500D01*
X151454600Y-58617000D02*
X151454600Y-69094500D01*
X145149200Y-52311600D02*
X151454600Y-58617000D01*
X138750500Y-52311600D02*
X145149200Y-52311600D01*
X134600000Y-48161100D02*
X138750500Y-52311600D01*
X134600000Y-38810000D02*
X134600000Y-48161100D01*
X147878600Y-76170800D02*
X147878600Y-75330300D01*
X155458400Y-83750600D02*
X147878600Y-76170800D01*
X155458400Y-91846000D02*
X155458400Y-83750600D01*
X160701000Y-97088600D02*
X155458400Y-91846000D01*
X160701100Y-97088600D02*
X160701000Y-97088600D01*
X160701100Y-113702200D02*
X160701100Y-97088600D01*
X162235000Y-115236100D02*
X160701100Y-113702200D01*
X162235000Y-136800000D02*
X162235000Y-115236100D01*
X162885000Y-115053900D02*
X162885000Y-136800000D01*
X161683900Y-113852800D02*
X162885000Y-115053900D01*
X161683900Y-96660600D02*
X161683900Y-113852800D01*
X156767600Y-91744300D02*
X161683900Y-96660600D01*
X148569200Y-72687400D02*
X148569200Y-74161300D01*
X151954900Y-69301700D02*
X148569200Y-72687400D01*
X151954900Y-58409700D02*
X151954900Y-69301700D01*
X145356500Y-51811300D02*
X151954900Y-58409700D01*
X138957800Y-51811300D02*
X145356500Y-51811300D01*
X136600000Y-49453500D02*
X138957800Y-51811300D01*
X136600000Y-38810000D02*
X136600000Y-49453500D01*
X148569200Y-76153800D02*
X148569200Y-74161300D01*
X156194000Y-83778600D02*
X148569200Y-76153800D01*
X156194000Y-91170700D02*
X156194000Y-83778600D01*
X156767600Y-91744300D02*
X156194000Y-91170700D01*
X163535000Y-114996300D02*
X163535000Y-136800000D01*
X162244900Y-113706200D02*
X163535000Y-114996300D01*
X162244900Y-91095100D02*
X162244900Y-113706200D01*
X156869300Y-85719500D02*
X162244900Y-91095100D01*
X149271100Y-72693100D02*
X149271100Y-74662200D01*
X152455200Y-69509000D02*
X149271100Y-72693100D01*
X152455200Y-58202400D02*
X152455200Y-69509000D01*
X145563700Y-51310900D02*
X152455200Y-58202400D01*
X139165000Y-51310900D02*
X145563700Y-51310900D01*
X137457700Y-49603600D02*
X139165000Y-51310900D01*
X137457700Y-39952300D02*
X137457700Y-49603600D01*
X138600000Y-38810000D02*
X137457700Y-39952300D01*
X149271100Y-76148100D02*
X149271100Y-74662200D01*
X156869300Y-83746300D02*
X149271100Y-76148100D01*
X156869300Y-85719500D02*
X156869300Y-83746300D01*
X164185000Y-114938800D02*
X164185000Y-136800000D01*
X162840000Y-113593800D02*
X164185000Y-114938800D01*
X162840000Y-88510600D02*
X162840000Y-113593800D01*
X157062200Y-82732800D02*
X162840000Y-88510600D01*
X137958100Y-41451900D02*
X140600000Y-38810000D01*
X137958100Y-49396300D02*
X137958100Y-41451900D01*
X139372200Y-50810400D02*
X137958100Y-49396300D01*
X145770900Y-50810400D02*
X139372200Y-50810400D01*
X152955500Y-57995000D02*
X145770900Y-50810400D01*
X152955500Y-70209500D02*
X152955500Y-57995000D01*
X150109300Y-73055700D02*
X152955500Y-70209500D01*
X156990900Y-82732800D02*
X157062200Y-82732800D01*
X150109300Y-75851200D02*
X156990900Y-82732800D01*
X150109300Y-73055700D02*
X150109300Y-75851200D01*
X150109200Y-73055700D02*
X150109300Y-73055700D01*
X142600000Y-40652100D02*
X143748800Y-41800900D01*
X142600000Y-38810000D02*
X142600000Y-40652100D01*
X165485000Y-115177500D02*
X165485000Y-136800000D01*
X163340300Y-113032800D02*
X165485000Y-115177500D01*
X163340300Y-87990500D02*
X163340300Y-113032800D01*
X155963400Y-80613600D02*
X163340300Y-87990500D01*
X155849600Y-80613600D02*
X155963400Y-80613600D01*
X155849600Y-78594800D02*
X150821900Y-73567100D01*
X155849600Y-80613600D02*
X155849600Y-78594800D01*
X153455800Y-54044600D02*
X147941700Y-48530500D01*
X153455800Y-70933200D02*
X153455800Y-54044600D01*
X150821900Y-73567100D02*
X153455800Y-70933200D01*
X100000000Y-112000000D02*
X100000000Y-113625300D01*
X100000000Y-113625300D02*
X100000000Y-113822600D01*
X159000000Y-122540000D02*
X159000000Y-121301100D01*
X145959700Y-43707400D02*
X145816000Y-43851100D01*
X145959700Y-34901700D02*
X145959700Y-43707400D01*
X145060400Y-34002400D02*
X145959700Y-34901700D01*
X143482400Y-34002400D02*
X145060400Y-34002400D01*
X142026100Y-35458700D02*
X143482400Y-34002400D01*
X138951300Y-35458700D02*
X142026100Y-35458700D01*
X137600000Y-36810000D02*
X138951300Y-35458700D01*
X157832700Y-121301100D02*
X159000000Y-121301100D01*
X156426900Y-119895300D02*
X157832700Y-121301100D01*
X156426900Y-113093300D02*
X156426900Y-119895300D01*
X152552300Y-109218700D02*
X156426900Y-113093300D01*
X152552300Y-85271500D02*
X152552300Y-109218700D01*
X150734500Y-83453700D02*
X152552300Y-85271500D01*
X150486800Y-83453700D02*
X150734500Y-83453700D01*
X143130900Y-43373900D02*
X143130900Y-44166100D01*
X144424100Y-42080700D02*
X143130900Y-43373900D01*
X144424100Y-39159900D02*
X144424100Y-42080700D01*
X143013600Y-37749400D02*
X144424100Y-39159900D01*
X142204900Y-37749400D02*
X143013600Y-37749400D01*
X142044800Y-37909500D02*
X142204900Y-37749400D01*
X141243800Y-37909500D02*
X142044800Y-37909500D01*
X140144300Y-36810000D02*
X141243800Y-37909500D01*
X139600000Y-36810000D02*
X140144300Y-36810000D01*
X141620900Y-44166100D02*
X143130900Y-44166100D01*
X138524600Y-47262400D02*
X141620900Y-44166100D01*
X138524600Y-49255100D02*
X138524600Y-47262400D01*
X139566600Y-50297100D02*
X138524600Y-49255100D01*
X143382900Y-50297100D02*
X139566600Y-50297100D01*
X143430200Y-50249800D02*
X143382900Y-50297100D01*
X146803000Y-50249800D02*
X143430200Y-50249800D01*
X150013000Y-53459800D02*
X146803000Y-50249800D01*
X159000000Y-127620000D02*
X159000000Y-126381100D01*
X144924400Y-42872000D02*
X144628200Y-43168200D01*
X144924400Y-38905700D02*
X144924400Y-42872000D01*
X142828700Y-36810000D02*
X144924400Y-38905700D01*
X141600000Y-36810000D02*
X142828700Y-36810000D01*
X158334300Y-126381100D02*
X159000000Y-126381100D01*
X155245000Y-123291800D02*
X158334300Y-126381100D01*
X155245000Y-113242300D02*
X155245000Y-123291800D01*
X151950500Y-109947800D02*
X155245000Y-113242300D01*
X151950500Y-85699900D02*
X151950500Y-109947800D01*
X150714300Y-84463700D02*
X151950500Y-85699900D01*
X103600000Y-118110000D02*
X103600000Y-116484700D01*
X103987700Y-116097000D02*
X103987700Y-114714100D01*
X103600000Y-116484700D02*
X103987700Y-116097000D01*
X99600000Y-118110000D02*
X99600000Y-119735300D01*
X91705000Y-136800000D02*
X91705000Y-135924700D01*
X91705000Y-135548100D02*
X91705000Y-135924700D01*
X93945000Y-133308100D02*
X91705000Y-135548100D01*
X97084400Y-133308100D02*
X93945000Y-133308100D01*
X99240300Y-131152200D02*
X97084400Y-133308100D01*
X99240300Y-130523000D02*
X99240300Y-131152200D01*
X100186000Y-129577300D02*
X99240300Y-130523000D01*
X100186000Y-120321300D02*
X100186000Y-129577300D01*
X99600000Y-119735300D02*
X100186000Y-120321300D01*
D30*
G36*
X194873000Y-108873000D02*
X169000000Y-108873000D01*
X168950590Y-108883006D01*
X168908965Y-108911447D01*
X168881685Y-108953841D01*
X168873000Y-109000000D01*
X168873000Y-157947394D01*
X165910197Y-160910197D01*
X165882334Y-160952211D01*
X165873000Y-161000000D01*
X165873000Y-177583269D01*
X165759290Y-177406559D01*
X165547090Y-177261569D01*
X165295200Y-177210560D01*
X165090000Y-177210560D01*
X165090000Y-156475700D01*
X165081666Y-156433804D01*
X165176757Y-156204800D01*
X165177242Y-155649039D01*
X164965010Y-155135397D01*
X164572370Y-154742071D01*
X164059100Y-154528943D01*
X163503339Y-154528458D01*
X162989697Y-154740690D01*
X162596371Y-155133330D01*
X162516605Y-155325427D01*
X162462397Y-155194557D01*
X162220213Y-155125092D01*
X161419605Y-155925700D01*
X162220213Y-156726308D01*
X162462397Y-156656843D01*
X162512509Y-156516382D01*
X162594990Y-156716003D01*
X162987630Y-157109329D01*
X163500900Y-157322457D01*
X163570000Y-157322517D01*
X163570000Y-177210560D01*
X163364800Y-177210560D01*
X163129483Y-177254838D01*
X163062473Y-177297958D01*
X162881510Y-177223000D01*
X162075750Y-177223000D01*
X161917000Y-177381750D01*
X161917000Y-180525000D01*
X161937000Y-180525000D01*
X161937000Y-180779000D01*
X161917000Y-180779000D01*
X161917000Y-180799000D01*
X161663000Y-180799000D01*
X161663000Y-180779000D01*
X161643000Y-180779000D01*
X161643000Y-180525000D01*
X161663000Y-180525000D01*
X161663000Y-177381750D01*
X161504250Y-177223000D01*
X160698490Y-177223000D01*
X160519282Y-177297230D01*
X160467090Y-177261569D01*
X160215200Y-177210560D01*
X160010000Y-177210560D01*
X160010000Y-156905913D01*
X160439392Y-156905913D01*
X160508857Y-157148097D01*
X161032302Y-157334844D01*
X161587368Y-157307062D01*
X161971143Y-157148097D01*
X162040608Y-156905913D01*
X161240000Y-156105305D01*
X160439392Y-156905913D01*
X160010000Y-156905913D01*
X160010000Y-156638488D01*
X160017603Y-156656843D01*
X160259787Y-156726308D01*
X161060395Y-155925700D01*
X160259787Y-155125092D01*
X160017603Y-155194557D01*
X159967491Y-155335018D01*
X159885010Y-155135397D01*
X159695432Y-154945487D01*
X160439392Y-154945487D01*
X161240000Y-155746095D01*
X162040608Y-154945487D01*
X161971143Y-154703303D01*
X161447698Y-154516556D01*
X160892632Y-154544338D01*
X160508857Y-154703303D01*
X160439392Y-154945487D01*
X159695432Y-154945487D01*
X159492370Y-154742071D01*
X158979100Y-154528943D01*
X158423339Y-154528458D01*
X157909697Y-154740690D01*
X157516371Y-155133330D01*
X157430051Y-155341212D01*
X157345010Y-155135397D01*
X156952370Y-154742071D01*
X156795973Y-154677129D01*
X157012102Y-154461000D01*
X160223600Y-154461000D01*
X160514439Y-154403148D01*
X160761001Y-154238401D01*
X162647627Y-152351775D01*
X162766110Y-152432731D01*
X163018000Y-152483740D01*
X164542000Y-152483740D01*
X164777317Y-152439462D01*
X164993441Y-152300390D01*
X165138431Y-152088190D01*
X165189440Y-151836300D01*
X165189440Y-150312300D01*
X165145162Y-150076983D01*
X165006090Y-149860859D01*
X164793890Y-149715869D01*
X164542000Y-149664860D01*
X163729442Y-149664860D01*
X167137201Y-146257101D01*
X167301948Y-146010539D01*
X167359800Y-145719700D01*
X167359800Y-141731000D01*
X167301948Y-141440161D01*
X167137201Y-141193599D01*
X166621801Y-140678199D01*
X166375239Y-140513452D01*
X166084400Y-140455600D01*
X161444100Y-140455600D01*
X161153261Y-140513452D01*
X160906699Y-140678199D01*
X160397599Y-141187299D01*
X160232852Y-141433861D01*
X160229133Y-141452560D01*
X160085000Y-141452560D01*
X159979295Y-141472450D01*
X159961310Y-141465000D01*
X159893750Y-141465000D01*
X159864746Y-141494004D01*
X159849683Y-141496838D01*
X159633559Y-141635910D01*
X159535000Y-141780156D01*
X159535000Y-141623750D01*
X159376250Y-141465000D01*
X159308690Y-141465000D01*
X159075301Y-141561673D01*
X158896673Y-141740302D01*
X158800000Y-141973691D01*
X158800000Y-142314250D01*
X158958750Y-142473000D01*
X159437560Y-142473000D01*
X159437560Y-142727000D01*
X158958750Y-142727000D01*
X158800000Y-142885750D01*
X158800000Y-143151198D01*
X151966366Y-149984832D01*
X151872370Y-149890671D01*
X151359100Y-149677543D01*
X150883230Y-149677128D01*
X147368421Y-146162319D01*
X147449743Y-146128717D01*
X147712992Y-145865927D01*
X147855638Y-145522399D01*
X147855679Y-145475523D01*
X148182899Y-145148303D01*
X148297783Y-145426343D01*
X148560573Y-145689592D01*
X148904101Y-145832238D01*
X149276067Y-145832562D01*
X149619843Y-145690517D01*
X149653018Y-145657400D01*
X151216800Y-145657400D01*
X151507639Y-145599548D01*
X151754201Y-145434801D01*
X152121172Y-145067830D01*
X151991962Y-145379001D01*
X151991638Y-145750967D01*
X152133683Y-146094743D01*
X152396473Y-146357992D01*
X152740001Y-146500638D01*
X153111967Y-146500962D01*
X153455743Y-146358917D01*
X153489018Y-146325700D01*
X153844000Y-146325700D01*
X154134839Y-146267848D01*
X154381401Y-146103101D01*
X155862401Y-144622101D01*
X156027148Y-144375540D01*
X156085000Y-144084700D01*
X156085000Y-143405209D01*
X156121431Y-143351890D01*
X156172440Y-143100000D01*
X156172440Y-142100000D01*
X156128162Y-141864683D01*
X155989090Y-141648559D01*
X155776890Y-141503569D01*
X155610059Y-141469785D01*
X155610162Y-141351333D01*
X155468117Y-141007557D01*
X155205327Y-140744308D01*
X154861799Y-140601662D01*
X154489833Y-140601338D01*
X154210510Y-140716752D01*
X153867599Y-140574362D01*
X153495633Y-140574038D01*
X153187092Y-140701524D01*
X152946599Y-140601662D01*
X152574633Y-140601338D01*
X152230857Y-140743383D01*
X151967608Y-141006173D01*
X151824962Y-141349701D01*
X151824864Y-141461994D01*
X151745411Y-141476944D01*
X151625000Y-141452560D01*
X151225000Y-141452560D01*
X151095657Y-141476898D01*
X151095762Y-141356633D01*
X150953717Y-141012857D01*
X150690927Y-140749608D01*
X150347399Y-140606962D01*
X149975433Y-140606638D01*
X149631657Y-140748683D01*
X149368408Y-141011473D01*
X149225762Y-141355001D01*
X149225658Y-141474408D01*
X149216250Y-141465000D01*
X149148690Y-141465000D01*
X148915301Y-141561673D01*
X148736673Y-141740302D01*
X148640000Y-141973691D01*
X148640000Y-142314250D01*
X148798750Y-142473000D01*
X149277560Y-142473000D01*
X149277560Y-142727000D01*
X148798750Y-142727000D01*
X148640000Y-142885750D01*
X148640000Y-143226309D01*
X148727685Y-143438000D01*
X148058400Y-143438000D01*
X147767560Y-143495852D01*
X147520999Y-143660599D01*
X146781120Y-144400478D01*
X146735633Y-144400438D01*
X146391857Y-144542483D01*
X146128608Y-144805273D01*
X146094211Y-144888109D01*
X141342501Y-140136399D01*
X141095939Y-139971652D01*
X140805100Y-139913800D01*
X137781500Y-139913800D01*
X137490661Y-139971652D01*
X137244099Y-140136399D01*
X136297599Y-141082899D01*
X136132852Y-141329461D01*
X136108366Y-141452560D01*
X135985000Y-141452560D01*
X135855411Y-141476944D01*
X135735000Y-141452560D01*
X135335000Y-141452560D01*
X135205411Y-141476944D01*
X135085000Y-141452560D01*
X134685000Y-141452560D01*
X134579295Y-141472450D01*
X134561310Y-141465000D01*
X134493750Y-141465000D01*
X134464746Y-141494004D01*
X134449683Y-141496838D01*
X134233559Y-141635910D01*
X134135000Y-141780156D01*
X134135000Y-141623750D01*
X133976250Y-141465000D01*
X133908690Y-141465000D01*
X133675301Y-141561673D01*
X133496673Y-141740302D01*
X133400000Y-141973691D01*
X133400000Y-142314250D01*
X133558750Y-142473000D01*
X134037560Y-142473000D01*
X134037560Y-142727000D01*
X133558750Y-142727000D01*
X133400000Y-142885750D01*
X133400000Y-143226309D01*
X133496673Y-143459698D01*
X133675301Y-143638327D01*
X133908690Y-143735000D01*
X133976250Y-143735000D01*
X134107998Y-143603252D01*
X134107998Y-143735000D01*
X134125000Y-143735000D01*
X134125000Y-144487898D01*
X129946101Y-140308999D01*
X129699539Y-140144252D01*
X129408700Y-140086400D01*
X127553300Y-140086400D01*
X127262461Y-140144252D01*
X127015899Y-140308999D01*
X126137599Y-141187299D01*
X125972852Y-141433861D01*
X125969133Y-141452560D01*
X125825000Y-141452560D01*
X125695411Y-141476944D01*
X125575000Y-141452560D01*
X125175000Y-141452560D01*
X125045411Y-141476944D01*
X124925000Y-141452560D01*
X124525000Y-141452560D01*
X124419295Y-141472450D01*
X124401310Y-141465000D01*
X124333750Y-141465000D01*
X124304746Y-141494004D01*
X124289683Y-141496838D01*
X124073559Y-141635910D01*
X123975000Y-141780156D01*
X123975000Y-141623750D01*
X123816250Y-141465000D01*
X123748690Y-141465000D01*
X123515301Y-141561673D01*
X123336673Y-141740302D01*
X123240000Y-141973691D01*
X123240000Y-142314250D01*
X123398748Y-142472998D01*
X123240000Y-142472998D01*
X123240000Y-142555936D01*
X122934457Y-142682183D01*
X122671208Y-142944973D01*
X122528562Y-143288501D01*
X122528238Y-143660467D01*
X122670283Y-144004243D01*
X122933073Y-144267492D01*
X123276601Y-144410138D01*
X123648567Y-144410462D01*
X123992343Y-144268417D01*
X124025518Y-144235300D01*
X124440006Y-144235300D01*
X124439838Y-144428367D01*
X124469161Y-144499334D01*
X124346208Y-144622073D01*
X124203562Y-144965601D01*
X124203238Y-145337567D01*
X124345283Y-145681343D01*
X124608073Y-145944592D01*
X124951601Y-146087238D01*
X125323567Y-146087562D01*
X125667343Y-145945517D01*
X125749769Y-145863235D01*
X125793439Y-145854548D01*
X126040001Y-145689801D01*
X126256400Y-145473402D01*
X126256400Y-151490000D01*
X126314252Y-151780839D01*
X126478999Y-152027401D01*
X127023301Y-152571703D01*
X126952208Y-152642673D01*
X126809562Y-152986201D01*
X126809238Y-153358167D01*
X126951283Y-153701943D01*
X127214073Y-153965192D01*
X127557601Y-154107838D01*
X127604477Y-154107879D01*
X128025127Y-154528529D01*
X127943339Y-154528458D01*
X127429697Y-154740690D01*
X127036371Y-155133330D01*
X126823243Y-155646600D01*
X126822758Y-156202361D01*
X127034990Y-156716003D01*
X127427630Y-157109329D01*
X127940900Y-157322457D01*
X128010000Y-157322517D01*
X128010000Y-177210560D01*
X127804800Y-177210560D01*
X127569483Y-177254838D01*
X127353359Y-177393910D01*
X127208369Y-177606110D01*
X127157360Y-177858000D01*
X127157360Y-182873000D01*
X127127000Y-182873000D01*
X127127000Y-163000000D01*
X127116994Y-162950590D01*
X127088553Y-162908965D01*
X127046159Y-162881685D01*
X127000000Y-162873000D01*
X105000000Y-162873000D01*
X104950590Y-162883006D01*
X104908965Y-162911447D01*
X104881685Y-162953841D01*
X104873000Y-163000000D01*
X104873000Y-182873000D01*
X104634640Y-182873000D01*
X104634640Y-177896000D01*
X104590362Y-177660683D01*
X104451290Y-177444559D01*
X104239090Y-177299569D01*
X103987200Y-177248560D01*
X103782000Y-177248560D01*
X103782000Y-155880525D01*
X104053629Y-155609370D01*
X104266757Y-155096100D01*
X104267242Y-154540339D01*
X104055010Y-154026697D01*
X103662370Y-153633371D01*
X103149100Y-153420243D01*
X102593339Y-153419758D01*
X102079697Y-153631990D01*
X101686371Y-154024630D01*
X101600051Y-154232512D01*
X101515010Y-154026697D01*
X101122370Y-153633371D01*
X100609100Y-153420243D01*
X100053339Y-153419758D01*
X99563965Y-153621963D01*
X98441404Y-152499402D01*
X98580303Y-152442010D01*
X98973629Y-152049370D01*
X99059949Y-151841488D01*
X99144990Y-152047303D01*
X99537630Y-152440629D01*
X100050900Y-152653757D01*
X100606661Y-152654242D01*
X101120303Y-152442010D01*
X101473763Y-152089167D01*
X101504838Y-152254317D01*
X101643910Y-152470441D01*
X101856110Y-152615431D01*
X102108000Y-152666440D01*
X103632000Y-152666440D01*
X103867317Y-152622162D01*
X104083441Y-152483090D01*
X104228431Y-152270890D01*
X104279440Y-152019000D01*
X104279440Y-150495000D01*
X104235162Y-150259683D01*
X104096090Y-150043559D01*
X103883890Y-149898569D01*
X103632000Y-149847560D01*
X102108000Y-149847560D01*
X101872683Y-149891838D01*
X101656559Y-150030910D01*
X101511569Y-150243110D01*
X101474508Y-150426124D01*
X101122370Y-150073371D01*
X101090000Y-150059930D01*
X101090000Y-146900300D01*
X101040311Y-146650501D01*
X101032148Y-146609460D01*
X100867401Y-146362899D01*
X97727527Y-143223025D01*
X97752440Y-143100000D01*
X97752440Y-142484700D01*
X102782400Y-142484700D01*
X103073239Y-142426848D01*
X103319801Y-142262101D01*
X107271280Y-138310622D01*
X107279238Y-138352917D01*
X107418310Y-138569041D01*
X107630510Y-138714031D01*
X107882400Y-138765040D01*
X110117600Y-138765040D01*
X110352917Y-138720762D01*
X110569041Y-138581690D01*
X110714031Y-138369490D01*
X110765040Y-138117600D01*
X110765040Y-135882400D01*
X110720762Y-135647083D01*
X110581690Y-135430959D01*
X110369490Y-135285969D01*
X110117600Y-135234960D01*
X107882400Y-135234960D01*
X107647083Y-135279238D01*
X107430959Y-135418310D01*
X107285969Y-135630510D01*
X107234960Y-135882400D01*
X107234960Y-136294133D01*
X107216261Y-136297852D01*
X106969699Y-136462599D01*
X102467598Y-140964700D01*
X96255000Y-140964700D01*
X95964161Y-141022552D01*
X95717599Y-141187299D01*
X95552852Y-141433861D01*
X95549133Y-141452560D01*
X95405000Y-141452560D01*
X95275411Y-141476944D01*
X95155000Y-141452560D01*
X94755000Y-141452560D01*
X94625411Y-141476944D01*
X94505000Y-141452560D01*
X94105000Y-141452560D01*
X93975411Y-141476944D01*
X93855000Y-141452560D01*
X93711485Y-141452560D01*
X93829438Y-141168499D01*
X93829762Y-140796533D01*
X93687717Y-140452757D01*
X93424927Y-140189508D01*
X93081399Y-140046862D01*
X92709433Y-140046538D01*
X92365657Y-140188583D01*
X92102408Y-140451373D01*
X91959762Y-140794901D01*
X91959721Y-140841777D01*
X91836798Y-140964700D01*
X91705000Y-140964700D01*
X91414161Y-141022552D01*
X91167599Y-141187299D01*
X91002852Y-141433861D01*
X90996658Y-141465000D01*
X90927998Y-141465000D01*
X90927998Y-141596748D01*
X90796250Y-141465000D01*
X90728690Y-141465000D01*
X90495301Y-141561673D01*
X90316673Y-141740302D01*
X90220000Y-141973691D01*
X90220000Y-142314250D01*
X90378750Y-142473000D01*
X90857560Y-142473000D01*
X90857560Y-142727000D01*
X90378750Y-142727000D01*
X90220000Y-142885750D01*
X90220000Y-143226309D01*
X90316673Y-143459698D01*
X90495301Y-143638327D01*
X90728690Y-143735000D01*
X90796250Y-143735000D01*
X90955000Y-143576250D01*
X90955000Y-143417933D01*
X91040910Y-143551441D01*
X91253110Y-143696431D01*
X91280785Y-143702035D01*
X91313750Y-143735000D01*
X91381310Y-143735000D01*
X91401753Y-143726532D01*
X91505000Y-143747440D01*
X91595000Y-143747440D01*
X91595000Y-147067100D01*
X91652852Y-147357939D01*
X91817599Y-147604501D01*
X93240300Y-149027202D01*
X93240300Y-149964550D01*
X92989100Y-149860243D01*
X92433339Y-149859758D01*
X91919697Y-150071990D01*
X91526371Y-150464630D01*
X91440051Y-150672512D01*
X91355010Y-150466697D01*
X90962370Y-150073371D01*
X90449100Y-149860243D01*
X89893339Y-149859758D01*
X89379697Y-150071990D01*
X88986371Y-150464630D01*
X88900051Y-150672512D01*
X88815010Y-150466697D01*
X88422370Y-150073371D01*
X87909100Y-149860243D01*
X87353339Y-149859758D01*
X87320945Y-149873143D01*
X86390000Y-148942198D01*
X86390000Y-136300000D01*
X90207560Y-136300000D01*
X90207560Y-137300000D01*
X90251838Y-137535317D01*
X90295000Y-137602393D01*
X90295000Y-137675300D01*
X90352852Y-137966139D01*
X90517599Y-138212701D01*
X91412599Y-139107701D01*
X91659161Y-139272448D01*
X91950000Y-139330300D01*
X95360000Y-139330300D01*
X95650839Y-139272448D01*
X95897401Y-139107701D01*
X96569802Y-138435300D01*
X101979300Y-138435300D01*
X102270139Y-138377448D01*
X102516701Y-138212701D01*
X106384902Y-134344500D01*
X120006798Y-134344500D01*
X122124399Y-136462101D01*
X122370961Y-136626848D01*
X122661800Y-136684700D01*
X123227560Y-136684700D01*
X123227560Y-137300000D01*
X123271838Y-137535317D01*
X123315000Y-137602393D01*
X123315000Y-137675300D01*
X123372852Y-137966139D01*
X123537599Y-138212701D01*
X123784161Y-138377448D01*
X124075000Y-138435300D01*
X164835000Y-138435300D01*
X165125839Y-138377448D01*
X165372401Y-138212701D01*
X165537148Y-137966139D01*
X165540867Y-137947440D01*
X165685000Y-137947440D01*
X165920317Y-137903162D01*
X166136441Y-137764090D01*
X166281431Y-137551890D01*
X166332440Y-137300000D01*
X166332440Y-136300000D01*
X166288162Y-136064683D01*
X166245000Y-135997607D01*
X166245000Y-115177500D01*
X166187148Y-114886661D01*
X166022401Y-114640099D01*
X164147342Y-112765040D01*
X166117600Y-112765040D01*
X166352917Y-112720762D01*
X166569041Y-112581690D01*
X166714031Y-112369490D01*
X166765040Y-112117600D01*
X166765040Y-109882400D01*
X166720762Y-109647083D01*
X166581690Y-109430959D01*
X166369490Y-109285969D01*
X166117600Y-109234960D01*
X164100300Y-109234960D01*
X164100300Y-105422815D01*
X188864630Y-105422815D01*
X189188980Y-106207800D01*
X189789041Y-106808909D01*
X190573459Y-107134628D01*
X191422815Y-107135370D01*
X192207800Y-106811020D01*
X192808909Y-106210959D01*
X193134628Y-105426541D01*
X193135370Y-104577185D01*
X192811020Y-103792200D01*
X192210959Y-103191091D01*
X191426541Y-102865372D01*
X190577185Y-102864630D01*
X189792200Y-103188980D01*
X189191091Y-103789041D01*
X188865372Y-104573459D01*
X188864630Y-105422815D01*
X164100300Y-105422815D01*
X164100300Y-87990500D01*
X164042448Y-87699661D01*
X163877701Y-87453099D01*
X156736689Y-80312087D01*
X156642717Y-80084657D01*
X156609600Y-80051482D01*
X156609600Y-78594800D01*
X156551748Y-78303961D01*
X156387001Y-78057399D01*
X151896702Y-73567100D01*
X153993201Y-71470601D01*
X154157948Y-71224039D01*
X154215800Y-70933200D01*
X154215800Y-54044600D01*
X154157948Y-53753761D01*
X153993201Y-53507199D01*
X150018292Y-49532290D01*
X150096992Y-49453727D01*
X150239638Y-49110199D01*
X150239962Y-48738233D01*
X150097917Y-48394457D01*
X149835127Y-48131208D01*
X149491599Y-47988562D01*
X149444723Y-47988521D01*
X148957100Y-47500898D01*
X148957100Y-38083363D01*
X148989292Y-38051227D01*
X149131938Y-37707699D01*
X149132262Y-37335733D01*
X148990217Y-36991957D01*
X148957100Y-36958782D01*
X148957100Y-34308600D01*
X148899248Y-34017761D01*
X148734501Y-33771199D01*
X145192201Y-30228899D01*
X144945639Y-30064152D01*
X144654800Y-30006300D01*
X140665600Y-30006300D01*
X140423014Y-30054554D01*
X140374760Y-30064152D01*
X140208679Y-30175124D01*
X140185017Y-30117857D01*
X139922227Y-29854608D01*
X139578699Y-29711962D01*
X139206733Y-29711638D01*
X138862957Y-29853683D01*
X138829782Y-29886800D01*
X138263200Y-29886800D01*
X137972361Y-29944652D01*
X137725799Y-30109399D01*
X136814012Y-31021186D01*
X136344727Y-31020777D01*
X135870794Y-31216602D01*
X135599845Y-31487078D01*
X135331113Y-31217876D01*
X134857523Y-31021224D01*
X134344727Y-31020777D01*
X133870794Y-31216602D01*
X133599845Y-31487078D01*
X133331113Y-31217876D01*
X132857523Y-31021224D01*
X132344727Y-31020777D01*
X131870794Y-31216602D01*
X131599845Y-31487078D01*
X131331113Y-31217876D01*
X130857523Y-31021224D01*
X130344727Y-31020777D01*
X129870794Y-31216602D01*
X129599845Y-31487078D01*
X129331113Y-31217876D01*
X128857523Y-31021224D01*
X128344727Y-31020777D01*
X127870794Y-31216602D01*
X127599845Y-31487078D01*
X127331113Y-31217876D01*
X126857523Y-31021224D01*
X126385615Y-31020813D01*
X123528001Y-28163199D01*
X123281439Y-27998452D01*
X122990600Y-27940600D01*
X109015400Y-27940600D01*
X108724561Y-27998452D01*
X108477999Y-28163199D01*
X98631099Y-38010099D01*
X98466352Y-38256661D01*
X98408500Y-38547500D01*
X98408500Y-92154000D01*
X98466352Y-92444839D01*
X98631099Y-92691401D01*
X100621000Y-94681302D01*
X100621000Y-110102560D01*
X99000000Y-110102560D01*
X98764683Y-110146838D01*
X98548559Y-110285910D01*
X98403569Y-110498110D01*
X98352560Y-110750000D01*
X98352560Y-113250000D01*
X98396838Y-113485317D01*
X98535910Y-113701441D01*
X98748110Y-113846431D01*
X99000000Y-113897440D01*
X99064934Y-113897440D01*
X99064838Y-114007767D01*
X99206883Y-114351543D01*
X99469673Y-114614792D01*
X99813201Y-114757438D01*
X100185167Y-114757762D01*
X100271304Y-114722171D01*
X100234400Y-114907700D01*
X100234400Y-116212560D01*
X98600000Y-116212560D01*
X98364683Y-116256838D01*
X98148559Y-116395910D01*
X98003569Y-116608110D01*
X97952560Y-116860000D01*
X97952560Y-119360000D01*
X97996838Y-119595317D01*
X98135910Y-119811441D01*
X98348110Y-119956431D01*
X98600000Y-120007440D01*
X98894133Y-120007440D01*
X98897852Y-120026139D01*
X99062599Y-120272701D01*
X99230899Y-120441001D01*
X99187000Y-120484900D01*
X99187000Y-122334020D01*
X99207000Y-122334020D01*
X99207000Y-122588020D01*
X99187000Y-122588020D01*
X99187000Y-122608020D01*
X98933000Y-122608020D01*
X98933000Y-122588020D01*
X97833180Y-122588020D01*
X97674430Y-122746770D01*
X97674430Y-124087199D01*
X97771103Y-124320588D01*
X97911257Y-124460743D01*
X97857989Y-124495020D01*
X97712999Y-124707220D01*
X97661990Y-124959110D01*
X97661990Y-125112088D01*
X94740000Y-122190098D01*
X94740000Y-122094300D01*
X95102532Y-121852064D01*
X95446659Y-121337042D01*
X95546552Y-120834841D01*
X97674430Y-120834841D01*
X97674430Y-122175270D01*
X97833180Y-122334020D01*
X98933000Y-122334020D01*
X98933000Y-120484900D01*
X98774250Y-120326150D01*
X98183120Y-120326150D01*
X97949731Y-120422823D01*
X97771103Y-120601452D01*
X97674430Y-120834841D01*
X95546552Y-120834841D01*
X95567500Y-120729532D01*
X95567500Y-120570468D01*
X95446659Y-119962958D01*
X95102532Y-119447936D01*
X94587510Y-119103809D01*
X93980000Y-118982968D01*
X93372490Y-119103809D01*
X92857468Y-119447936D01*
X92710081Y-119668516D01*
X92306924Y-119274027D01*
X91812980Y-119059437D01*
X91567000Y-119179406D01*
X91567000Y-120523000D01*
X91587000Y-120523000D01*
X91587000Y-120777000D01*
X91567000Y-120777000D01*
X91567000Y-122120594D01*
X91812980Y-122240563D01*
X92306924Y-122025973D01*
X92710081Y-121631484D01*
X92857468Y-121852064D01*
X93220000Y-122094300D01*
X93220000Y-122504900D01*
X93277852Y-122795739D01*
X93442599Y-123042301D01*
X97174100Y-126773802D01*
X97174100Y-128635798D01*
X95442599Y-130367299D01*
X95277852Y-130613861D01*
X95274133Y-130632560D01*
X94980000Y-130632560D01*
X94744683Y-130676838D01*
X94528559Y-130815910D01*
X94383569Y-131028110D01*
X94332560Y-131280000D01*
X94332560Y-132548100D01*
X93945000Y-132548100D01*
X93654160Y-132605952D01*
X93615000Y-132632118D01*
X93615000Y-132365750D01*
X93456250Y-132207000D01*
X92107000Y-132207000D01*
X92107000Y-133356250D01*
X92265750Y-133515000D01*
X92663298Y-133515000D01*
X91167599Y-135010699D01*
X91002852Y-135257261D01*
X90945000Y-135548100D01*
X90945000Y-135652560D01*
X90855000Y-135652560D01*
X90619683Y-135696838D01*
X90403559Y-135835910D01*
X90258569Y-136048110D01*
X90207560Y-136300000D01*
X86390000Y-136300000D01*
X86390000Y-132365750D01*
X90345000Y-132365750D01*
X90345000Y-133006310D01*
X90441673Y-133239699D01*
X90620302Y-133418327D01*
X90853691Y-133515000D01*
X91694250Y-133515000D01*
X91853000Y-133356250D01*
X91853000Y-132207000D01*
X90503750Y-132207000D01*
X90345000Y-132365750D01*
X86390000Y-132365750D01*
X86390000Y-131153690D01*
X90345000Y-131153690D01*
X90345000Y-131794250D01*
X90503750Y-131953000D01*
X91853000Y-131953000D01*
X91853000Y-130803750D01*
X92107000Y-130803750D01*
X92107000Y-131953000D01*
X93456250Y-131953000D01*
X93615000Y-131794250D01*
X93615000Y-131153690D01*
X93518327Y-130920301D01*
X93339698Y-130741673D01*
X93106309Y-130645000D01*
X92265750Y-130645000D01*
X92107000Y-130803750D01*
X91853000Y-130803750D01*
X91694250Y-130645000D01*
X90853691Y-130645000D01*
X90620302Y-130741673D01*
X90441673Y-130920301D01*
X90345000Y-131153690D01*
X86390000Y-131153690D01*
X86390000Y-128447440D01*
X86630000Y-128447440D01*
X86865317Y-128403162D01*
X87081441Y-128264090D01*
X87226431Y-128051890D01*
X87277440Y-127800000D01*
X87277440Y-127285750D01*
X87995000Y-127285750D01*
X87995000Y-127926310D01*
X88091673Y-128159699D01*
X88270302Y-128338327D01*
X88503691Y-128435000D01*
X89344250Y-128435000D01*
X89503000Y-128276250D01*
X89503000Y-127127000D01*
X89757000Y-127127000D01*
X89757000Y-128276250D01*
X89915750Y-128435000D01*
X90756309Y-128435000D01*
X90989698Y-128338327D01*
X91168327Y-128159699D01*
X91265000Y-127926310D01*
X91265000Y-127285750D01*
X91106250Y-127127000D01*
X89757000Y-127127000D01*
X89503000Y-127127000D01*
X88153750Y-127127000D01*
X87995000Y-127285750D01*
X87277440Y-127285750D01*
X87277440Y-126200000D01*
X87253674Y-126073690D01*
X87995000Y-126073690D01*
X87995000Y-126714250D01*
X88153750Y-126873000D01*
X89503000Y-126873000D01*
X89503000Y-125723750D01*
X89757000Y-125723750D01*
X89757000Y-126873000D01*
X91106250Y-126873000D01*
X91265000Y-126714250D01*
X91265000Y-126073690D01*
X91168327Y-125840301D01*
X90989698Y-125661673D01*
X90756309Y-125565000D01*
X89915750Y-125565000D01*
X89757000Y-125723750D01*
X89503000Y-125723750D01*
X89344250Y-125565000D01*
X88503691Y-125565000D01*
X88270302Y-125661673D01*
X88091673Y-125840301D01*
X87995000Y-126073690D01*
X87253674Y-126073690D01*
X87233162Y-125964683D01*
X87094090Y-125748559D01*
X86908055Y-125621447D01*
X88109601Y-124419901D01*
X88274348Y-124173339D01*
X88332200Y-123882500D01*
X88332200Y-122297440D01*
X89852500Y-122297440D01*
X90087817Y-122253162D01*
X90303941Y-122114090D01*
X90447863Y-121903453D01*
X90573076Y-122025973D01*
X91067020Y-122240563D01*
X91313000Y-122120594D01*
X91313000Y-120777000D01*
X91293000Y-120777000D01*
X91293000Y-120523000D01*
X91313000Y-120523000D01*
X91313000Y-119179406D01*
X91067020Y-119059437D01*
X90573076Y-119274027D01*
X90445488Y-119398872D01*
X90316590Y-119198559D01*
X90104390Y-119053569D01*
X89852500Y-119002560D01*
X87947500Y-119002560D01*
X87712183Y-119046838D01*
X87496059Y-119185910D01*
X87351069Y-119398110D01*
X87300060Y-119650000D01*
X87300060Y-119944133D01*
X87281361Y-119947852D01*
X87034799Y-120112599D01*
X86870052Y-120359161D01*
X86812200Y-120650000D01*
X86812200Y-123567698D01*
X85092599Y-125287299D01*
X84927852Y-125533861D01*
X84924133Y-125552560D01*
X84630000Y-125552560D01*
X84394683Y-125596838D01*
X84178559Y-125735910D01*
X84033569Y-125948110D01*
X83982560Y-126200000D01*
X83982560Y-127800000D01*
X84026838Y-128035317D01*
X84165910Y-128251441D01*
X84378110Y-128396431D01*
X84630000Y-128447440D01*
X84870000Y-128447440D01*
X84870000Y-149257000D01*
X84927852Y-149547839D01*
X85092599Y-149794401D01*
X86245817Y-150947619D01*
X86233243Y-150977900D01*
X86232758Y-151533661D01*
X86444990Y-152047303D01*
X86837630Y-152440629D01*
X87350900Y-152653757D01*
X87906661Y-152654242D01*
X88420303Y-152442010D01*
X88813629Y-152049370D01*
X88899949Y-151841488D01*
X88984990Y-152047303D01*
X89377630Y-152440629D01*
X89890900Y-152653757D01*
X90446661Y-152654242D01*
X90960303Y-152442010D01*
X91353629Y-152049370D01*
X91439949Y-151841488D01*
X91524990Y-152047303D01*
X91917630Y-152440629D01*
X92430900Y-152653757D01*
X92986661Y-152654242D01*
X93019055Y-152640857D01*
X93102600Y-152724402D01*
X93102600Y-153467372D01*
X92989100Y-153420243D01*
X92433339Y-153419758D01*
X91919697Y-153631990D01*
X91526371Y-154024630D01*
X91440051Y-154232512D01*
X91355010Y-154026697D01*
X90962370Y-153633371D01*
X90449100Y-153420243D01*
X89893339Y-153419758D01*
X89379697Y-153631990D01*
X88986371Y-154024630D01*
X88906605Y-154216727D01*
X88852397Y-154085857D01*
X88610213Y-154016392D01*
X87809605Y-154817000D01*
X88610213Y-155617608D01*
X88852397Y-155548143D01*
X88902509Y-155407682D01*
X88984990Y-155607303D01*
X89377630Y-156000629D01*
X89562000Y-156077186D01*
X89562000Y-177248560D01*
X89356800Y-177248560D01*
X89121483Y-177292838D01*
X89054473Y-177335958D01*
X88873510Y-177261000D01*
X88067750Y-177261000D01*
X87909000Y-177419750D01*
X87909000Y-180563000D01*
X87929000Y-180563000D01*
X87929000Y-180817000D01*
X87909000Y-180817000D01*
X87909000Y-180837000D01*
X87655000Y-180837000D01*
X87655000Y-180817000D01*
X86340550Y-180817000D01*
X86181800Y-180975750D01*
X86181800Y-182873000D01*
X86127000Y-182873000D01*
X86127000Y-177769691D01*
X86181800Y-177769691D01*
X86181800Y-180404250D01*
X86340550Y-180563000D01*
X87655000Y-180563000D01*
X87655000Y-177419750D01*
X87496250Y-177261000D01*
X86690490Y-177261000D01*
X86457101Y-177357673D01*
X86278473Y-177536302D01*
X86181800Y-177769691D01*
X86127000Y-177769691D01*
X86127000Y-160000000D01*
X86116994Y-159950590D01*
X86070447Y-159894330D01*
X83127000Y-157932032D01*
X83127000Y-155797213D01*
X86829392Y-155797213D01*
X86898857Y-156039397D01*
X87422302Y-156226144D01*
X87977368Y-156198362D01*
X88361143Y-156039397D01*
X88430608Y-155797213D01*
X87630000Y-154996605D01*
X86829392Y-155797213D01*
X83127000Y-155797213D01*
X83127000Y-154609302D01*
X86220856Y-154609302D01*
X86248638Y-155164368D01*
X86407603Y-155548143D01*
X86649787Y-155617608D01*
X87450395Y-154817000D01*
X86649787Y-154016392D01*
X86407603Y-154085857D01*
X86220856Y-154609302D01*
X83127000Y-154609302D01*
X83127000Y-153836787D01*
X86829392Y-153836787D01*
X87630000Y-154637395D01*
X88430608Y-153836787D01*
X88361143Y-153594603D01*
X87837698Y-153407856D01*
X87282632Y-153435638D01*
X86898857Y-153594603D01*
X86829392Y-153836787D01*
X83127000Y-153836787D01*
X83127000Y-108000000D01*
X83116994Y-107950590D01*
X83088553Y-107908965D01*
X83046159Y-107881685D01*
X83000000Y-107873000D01*
X54127000Y-107873000D01*
X54127000Y-104422815D01*
X55864630Y-104422815D01*
X56188980Y-105207800D01*
X56789041Y-105808909D01*
X57573459Y-106134628D01*
X58422815Y-106135370D01*
X59207800Y-105811020D01*
X59808909Y-105210959D01*
X60134628Y-104426541D01*
X60135009Y-103990000D01*
X89008275Y-103990000D01*
X89189822Y-104902700D01*
X89706825Y-105676450D01*
X90480575Y-106193453D01*
X91393275Y-106375000D01*
X91486725Y-106375000D01*
X92399425Y-106193453D01*
X93173175Y-105676450D01*
X93690178Y-104902700D01*
X93871725Y-103990000D01*
X93690178Y-103077300D01*
X93173175Y-102303550D01*
X92399425Y-101786547D01*
X91486725Y-101605000D01*
X91393275Y-101605000D01*
X90480575Y-101786547D01*
X89706825Y-102303550D01*
X89189822Y-103077300D01*
X89008275Y-103990000D01*
X60135009Y-103990000D01*
X60135370Y-103577185D01*
X59811020Y-102792200D01*
X59210959Y-102191091D01*
X58426541Y-101865372D01*
X57577185Y-101864630D01*
X56792200Y-102188980D01*
X56191091Y-102789041D01*
X55865372Y-103573459D01*
X55864630Y-104422815D01*
X54127000Y-104422815D01*
X54127000Y-27422815D01*
X55864630Y-27422815D01*
X56188980Y-28207800D01*
X56789041Y-28808909D01*
X57573459Y-29134628D01*
X58422815Y-29135370D01*
X59207800Y-28811020D01*
X59808909Y-28210959D01*
X60134628Y-27426541D01*
X60134631Y-27422815D01*
X188864630Y-27422815D01*
X189188980Y-28207800D01*
X189789041Y-28808909D01*
X190573459Y-29134628D01*
X191422815Y-29135370D01*
X192207800Y-28811020D01*
X192808909Y-28210959D01*
X193134628Y-27426541D01*
X193135370Y-26577185D01*
X192811020Y-25792200D01*
X192210959Y-25191091D01*
X191426541Y-24865372D01*
X190577185Y-24864630D01*
X189792200Y-25188980D01*
X189191091Y-25789041D01*
X188865372Y-26573459D01*
X188864630Y-27422815D01*
X60134631Y-27422815D01*
X60135370Y-26577185D01*
X59811020Y-25792200D01*
X59210959Y-25191091D01*
X58426541Y-24865372D01*
X57577185Y-24864630D01*
X56792200Y-25188980D01*
X56191091Y-25789041D01*
X55865372Y-26573459D01*
X55864630Y-27422815D01*
X54127000Y-27422815D01*
X54127000Y-23127000D01*
X194873000Y-23127000D01*
X194873000Y-108873000D01*
X194873000Y-108873000D01*
G37*
X194873000Y-108873000D02*
X169000000Y-108873000D01*
X168950590Y-108883006D01*
X168908965Y-108911447D01*
X168881685Y-108953841D01*
X168873000Y-109000000D01*
X168873000Y-157947394D01*
X165910197Y-160910197D01*
X165882334Y-160952211D01*
X165873000Y-161000000D01*
X165873000Y-177583269D01*
X165759290Y-177406559D01*
X165547090Y-177261569D01*
X165295200Y-177210560D01*
X165090000Y-177210560D01*
X165090000Y-156475700D01*
X165081666Y-156433804D01*
X165176757Y-156204800D01*
X165177242Y-155649039D01*
X164965010Y-155135397D01*
X164572370Y-154742071D01*
X164059100Y-154528943D01*
X163503339Y-154528458D01*
X162989697Y-154740690D01*
X162596371Y-155133330D01*
X162516605Y-155325427D01*
X162462397Y-155194557D01*
X162220213Y-155125092D01*
X161419605Y-155925700D01*
X162220213Y-156726308D01*
X162462397Y-156656843D01*
X162512509Y-156516382D01*
X162594990Y-156716003D01*
X162987630Y-157109329D01*
X163500900Y-157322457D01*
X163570000Y-157322517D01*
X163570000Y-177210560D01*
X163364800Y-177210560D01*
X163129483Y-177254838D01*
X163062473Y-177297958D01*
X162881510Y-177223000D01*
X162075750Y-177223000D01*
X161917000Y-177381750D01*
X161917000Y-180525000D01*
X161937000Y-180525000D01*
X161937000Y-180779000D01*
X161917000Y-180779000D01*
X161917000Y-180799000D01*
X161663000Y-180799000D01*
X161663000Y-180779000D01*
X161643000Y-180779000D01*
X161643000Y-180525000D01*
X161663000Y-180525000D01*
X161663000Y-177381750D01*
X161504250Y-177223000D01*
X160698490Y-177223000D01*
X160519282Y-177297230D01*
X160467090Y-177261569D01*
X160215200Y-177210560D01*
X160010000Y-177210560D01*
X160010000Y-156905913D01*
X160439392Y-156905913D01*
X160508857Y-157148097D01*
X161032302Y-157334844D01*
X161587368Y-157307062D01*
X161971143Y-157148097D01*
X162040608Y-156905913D01*
X161240000Y-156105305D01*
X160439392Y-156905913D01*
X160010000Y-156905913D01*
X160010000Y-156638488D01*
X160017603Y-156656843D01*
X160259787Y-156726308D01*
X161060395Y-155925700D01*
X160259787Y-155125092D01*
X160017603Y-155194557D01*
X159967491Y-155335018D01*
X159885010Y-155135397D01*
X159695432Y-154945487D01*
X160439392Y-154945487D01*
X161240000Y-155746095D01*
X162040608Y-154945487D01*
X161971143Y-154703303D01*
X161447698Y-154516556D01*
X160892632Y-154544338D01*
X160508857Y-154703303D01*
X160439392Y-154945487D01*
X159695432Y-154945487D01*
X159492370Y-154742071D01*
X158979100Y-154528943D01*
X158423339Y-154528458D01*
X157909697Y-154740690D01*
X157516371Y-155133330D01*
X157430051Y-155341212D01*
X157345010Y-155135397D01*
X156952370Y-154742071D01*
X156795973Y-154677129D01*
X157012102Y-154461000D01*
X160223600Y-154461000D01*
X160514439Y-154403148D01*
X160761001Y-154238401D01*
X162647627Y-152351775D01*
X162766110Y-152432731D01*
X163018000Y-152483740D01*
X164542000Y-152483740D01*
X164777317Y-152439462D01*
X164993441Y-152300390D01*
X165138431Y-152088190D01*
X165189440Y-151836300D01*
X165189440Y-150312300D01*
X165145162Y-150076983D01*
X165006090Y-149860859D01*
X164793890Y-149715869D01*
X164542000Y-149664860D01*
X163729442Y-149664860D01*
X167137201Y-146257101D01*
X167301948Y-146010539D01*
X167359800Y-145719700D01*
X167359800Y-141731000D01*
X167301948Y-141440161D01*
X167137201Y-141193599D01*
X166621801Y-140678199D01*
X166375239Y-140513452D01*
X166084400Y-140455600D01*
X161444100Y-140455600D01*
X161153261Y-140513452D01*
X160906699Y-140678199D01*
X160397599Y-141187299D01*
X160232852Y-141433861D01*
X160229133Y-141452560D01*
X160085000Y-141452560D01*
X159979295Y-141472450D01*
X159961310Y-141465000D01*
X159893750Y-141465000D01*
X159864746Y-141494004D01*
X159849683Y-141496838D01*
X159633559Y-141635910D01*
X159535000Y-141780156D01*
X159535000Y-141623750D01*
X159376250Y-141465000D01*
X159308690Y-141465000D01*
X159075301Y-141561673D01*
X158896673Y-141740302D01*
X158800000Y-141973691D01*
X158800000Y-142314250D01*
X158958750Y-142473000D01*
X159437560Y-142473000D01*
X159437560Y-142727000D01*
X158958750Y-142727000D01*
X158800000Y-142885750D01*
X158800000Y-143151198D01*
X151966366Y-149984832D01*
X151872370Y-149890671D01*
X151359100Y-149677543D01*
X150883230Y-149677128D01*
X147368421Y-146162319D01*
X147449743Y-146128717D01*
X147712992Y-145865927D01*
X147855638Y-145522399D01*
X147855679Y-145475523D01*
X148182899Y-145148303D01*
X148297783Y-145426343D01*
X148560573Y-145689592D01*
X148904101Y-145832238D01*
X149276067Y-145832562D01*
X149619843Y-145690517D01*
X149653018Y-145657400D01*
X151216800Y-145657400D01*
X151507639Y-145599548D01*
X151754201Y-145434801D01*
X152121172Y-145067830D01*
X151991962Y-145379001D01*
X151991638Y-145750967D01*
X152133683Y-146094743D01*
X152396473Y-146357992D01*
X152740001Y-146500638D01*
X153111967Y-146500962D01*
X153455743Y-146358917D01*
X153489018Y-146325700D01*
X153844000Y-146325700D01*
X154134839Y-146267848D01*
X154381401Y-146103101D01*
X155862401Y-144622101D01*
X156027148Y-144375540D01*
X156085000Y-144084700D01*
X156085000Y-143405209D01*
X156121431Y-143351890D01*
X156172440Y-143100000D01*
X156172440Y-142100000D01*
X156128162Y-141864683D01*
X155989090Y-141648559D01*
X155776890Y-141503569D01*
X155610059Y-141469785D01*
X155610162Y-141351333D01*
X155468117Y-141007557D01*
X155205327Y-140744308D01*
X154861799Y-140601662D01*
X154489833Y-140601338D01*
X154210510Y-140716752D01*
X153867599Y-140574362D01*
X153495633Y-140574038D01*
X153187092Y-140701524D01*
X152946599Y-140601662D01*
X152574633Y-140601338D01*
X152230857Y-140743383D01*
X151967608Y-141006173D01*
X151824962Y-141349701D01*
X151824864Y-141461994D01*
X151745411Y-141476944D01*
X151625000Y-141452560D01*
X151225000Y-141452560D01*
X151095657Y-141476898D01*
X151095762Y-141356633D01*
X150953717Y-141012857D01*
X150690927Y-140749608D01*
X150347399Y-140606962D01*
X149975433Y-140606638D01*
X149631657Y-140748683D01*
X149368408Y-141011473D01*
X149225762Y-141355001D01*
X149225658Y-141474408D01*
X149216250Y-141465000D01*
X149148690Y-141465000D01*
X148915301Y-141561673D01*
X148736673Y-141740302D01*
X148640000Y-141973691D01*
X148640000Y-142314250D01*
X148798750Y-142473000D01*
X149277560Y-142473000D01*
X149277560Y-142727000D01*
X148798750Y-142727000D01*
X148640000Y-142885750D01*
X148640000Y-143226309D01*
X148727685Y-143438000D01*
X148058400Y-143438000D01*
X147767560Y-143495852D01*
X147520999Y-143660599D01*
X146781120Y-144400478D01*
X146735633Y-144400438D01*
X146391857Y-144542483D01*
X146128608Y-144805273D01*
X146094211Y-144888109D01*
X141342501Y-140136399D01*
X141095939Y-139971652D01*
X140805100Y-139913800D01*
X137781500Y-139913800D01*
X137490661Y-139971652D01*
X137244099Y-140136399D01*
X136297599Y-141082899D01*
X136132852Y-141329461D01*
X136108366Y-141452560D01*
X135985000Y-141452560D01*
X135855411Y-141476944D01*
X135735000Y-141452560D01*
X135335000Y-141452560D01*
X135205411Y-141476944D01*
X135085000Y-141452560D01*
X134685000Y-141452560D01*
X134579295Y-141472450D01*
X134561310Y-141465000D01*
X134493750Y-141465000D01*
X134464746Y-141494004D01*
X134449683Y-141496838D01*
X134233559Y-141635910D01*
X134135000Y-141780156D01*
X134135000Y-141623750D01*
X133976250Y-141465000D01*
X133908690Y-141465000D01*
X133675301Y-141561673D01*
X133496673Y-141740302D01*
X133400000Y-141973691D01*
X133400000Y-142314250D01*
X133558750Y-142473000D01*
X134037560Y-142473000D01*
X134037560Y-142727000D01*
X133558750Y-142727000D01*
X133400000Y-142885750D01*
X133400000Y-143226309D01*
X133496673Y-143459698D01*
X133675301Y-143638327D01*
X133908690Y-143735000D01*
X133976250Y-143735000D01*
X134107998Y-143603252D01*
X134107998Y-143735000D01*
X134125000Y-143735000D01*
X134125000Y-144487898D01*
X129946101Y-140308999D01*
X129699539Y-140144252D01*
X129408700Y-140086400D01*
X127553300Y-140086400D01*
X127262461Y-140144252D01*
X127015899Y-140308999D01*
X126137599Y-141187299D01*
X125972852Y-141433861D01*
X125969133Y-141452560D01*
X125825000Y-141452560D01*
X125695411Y-141476944D01*
X125575000Y-141452560D01*
X125175000Y-141452560D01*
X125045411Y-141476944D01*
X124925000Y-141452560D01*
X124525000Y-141452560D01*
X124419295Y-141472450D01*
X124401310Y-141465000D01*
X124333750Y-141465000D01*
X124304746Y-141494004D01*
X124289683Y-141496838D01*
X124073559Y-141635910D01*
X123975000Y-141780156D01*
X123975000Y-141623750D01*
X123816250Y-141465000D01*
X123748690Y-141465000D01*
X123515301Y-141561673D01*
X123336673Y-141740302D01*
X123240000Y-141973691D01*
X123240000Y-142314250D01*
X123398748Y-142472998D01*
X123240000Y-142472998D01*
X123240000Y-142555936D01*
X122934457Y-142682183D01*
X122671208Y-142944973D01*
X122528562Y-143288501D01*
X122528238Y-143660467D01*
X122670283Y-144004243D01*
X122933073Y-144267492D01*
X123276601Y-144410138D01*
X123648567Y-144410462D01*
X123992343Y-144268417D01*
X124025518Y-144235300D01*
X124440006Y-144235300D01*
X124439838Y-144428367D01*
X124469161Y-144499334D01*
X124346208Y-144622073D01*
X124203562Y-144965601D01*
X124203238Y-145337567D01*
X124345283Y-145681343D01*
X124608073Y-145944592D01*
X124951601Y-146087238D01*
X125323567Y-146087562D01*
X125667343Y-145945517D01*
X125749769Y-145863235D01*
X125793439Y-145854548D01*
X126040001Y-145689801D01*
X126256400Y-145473402D01*
X126256400Y-151490000D01*
X126314252Y-151780839D01*
X126478999Y-152027401D01*
X127023301Y-152571703D01*
X126952208Y-152642673D01*
X126809562Y-152986201D01*
X126809238Y-153358167D01*
X126951283Y-153701943D01*
X127214073Y-153965192D01*
X127557601Y-154107838D01*
X127604477Y-154107879D01*
X128025127Y-154528529D01*
X127943339Y-154528458D01*
X127429697Y-154740690D01*
X127036371Y-155133330D01*
X126823243Y-155646600D01*
X126822758Y-156202361D01*
X127034990Y-156716003D01*
X127427630Y-157109329D01*
X127940900Y-157322457D01*
X128010000Y-157322517D01*
X128010000Y-177210560D01*
X127804800Y-177210560D01*
X127569483Y-177254838D01*
X127353359Y-177393910D01*
X127208369Y-177606110D01*
X127157360Y-177858000D01*
X127157360Y-182873000D01*
X127127000Y-182873000D01*
X127127000Y-163000000D01*
X127116994Y-162950590D01*
X127088553Y-162908965D01*
X127046159Y-162881685D01*
X127000000Y-162873000D01*
X105000000Y-162873000D01*
X104950590Y-162883006D01*
X104908965Y-162911447D01*
X104881685Y-162953841D01*
X104873000Y-163000000D01*
X104873000Y-182873000D01*
X104634640Y-182873000D01*
X104634640Y-177896000D01*
X104590362Y-177660683D01*
X104451290Y-177444559D01*
X104239090Y-177299569D01*
X103987200Y-177248560D01*
X103782000Y-177248560D01*
X103782000Y-155880525D01*
X104053629Y-155609370D01*
X104266757Y-155096100D01*
X104267242Y-154540339D01*
X104055010Y-154026697D01*
X103662370Y-153633371D01*
X103149100Y-153420243D01*
X102593339Y-153419758D01*
X102079697Y-153631990D01*
X101686371Y-154024630D01*
X101600051Y-154232512D01*
X101515010Y-154026697D01*
X101122370Y-153633371D01*
X100609100Y-153420243D01*
X100053339Y-153419758D01*
X99563965Y-153621963D01*
X98441404Y-152499402D01*
X98580303Y-152442010D01*
X98973629Y-152049370D01*
X99059949Y-151841488D01*
X99144990Y-152047303D01*
X99537630Y-152440629D01*
X100050900Y-152653757D01*
X100606661Y-152654242D01*
X101120303Y-152442010D01*
X101473763Y-152089167D01*
X101504838Y-152254317D01*
X101643910Y-152470441D01*
X101856110Y-152615431D01*
X102108000Y-152666440D01*
X103632000Y-152666440D01*
X103867317Y-152622162D01*
X104083441Y-152483090D01*
X104228431Y-152270890D01*
X104279440Y-152019000D01*
X104279440Y-150495000D01*
X104235162Y-150259683D01*
X104096090Y-150043559D01*
X103883890Y-149898569D01*
X103632000Y-149847560D01*
X102108000Y-149847560D01*
X101872683Y-149891838D01*
X101656559Y-150030910D01*
X101511569Y-150243110D01*
X101474508Y-150426124D01*
X101122370Y-150073371D01*
X101090000Y-150059930D01*
X101090000Y-146900300D01*
X101040311Y-146650501D01*
X101032148Y-146609460D01*
X100867401Y-146362899D01*
X97727527Y-143223025D01*
X97752440Y-143100000D01*
X97752440Y-142484700D01*
X102782400Y-142484700D01*
X103073239Y-142426848D01*
X103319801Y-142262101D01*
X107271280Y-138310622D01*
X107279238Y-138352917D01*
X107418310Y-138569041D01*
X107630510Y-138714031D01*
X107882400Y-138765040D01*
X110117600Y-138765040D01*
X110352917Y-138720762D01*
X110569041Y-138581690D01*
X110714031Y-138369490D01*
X110765040Y-138117600D01*
X110765040Y-135882400D01*
X110720762Y-135647083D01*
X110581690Y-135430959D01*
X110369490Y-135285969D01*
X110117600Y-135234960D01*
X107882400Y-135234960D01*
X107647083Y-135279238D01*
X107430959Y-135418310D01*
X107285969Y-135630510D01*
X107234960Y-135882400D01*
X107234960Y-136294133D01*
X107216261Y-136297852D01*
X106969699Y-136462599D01*
X102467598Y-140964700D01*
X96255000Y-140964700D01*
X95964161Y-141022552D01*
X95717599Y-141187299D01*
X95552852Y-141433861D01*
X95549133Y-141452560D01*
X95405000Y-141452560D01*
X95275411Y-141476944D01*
X95155000Y-141452560D01*
X94755000Y-141452560D01*
X94625411Y-141476944D01*
X94505000Y-141452560D01*
X94105000Y-141452560D01*
X93975411Y-141476944D01*
X93855000Y-141452560D01*
X93711485Y-141452560D01*
X93829438Y-141168499D01*
X93829762Y-140796533D01*
X93687717Y-140452757D01*
X93424927Y-140189508D01*
X93081399Y-140046862D01*
X92709433Y-140046538D01*
X92365657Y-140188583D01*
X92102408Y-140451373D01*
X91959762Y-140794901D01*
X91959721Y-140841777D01*
X91836798Y-140964700D01*
X91705000Y-140964700D01*
X91414161Y-141022552D01*
X91167599Y-141187299D01*
X91002852Y-141433861D01*
X90996658Y-141465000D01*
X90927998Y-141465000D01*
X90927998Y-141596748D01*
X90796250Y-141465000D01*
X90728690Y-141465000D01*
X90495301Y-141561673D01*
X90316673Y-141740302D01*
X90220000Y-141973691D01*
X90220000Y-142314250D01*
X90378750Y-142473000D01*
X90857560Y-142473000D01*
X90857560Y-142727000D01*
X90378750Y-142727000D01*
X90220000Y-142885750D01*
X90220000Y-143226309D01*
X90316673Y-143459698D01*
X90495301Y-143638327D01*
X90728690Y-143735000D01*
X90796250Y-143735000D01*
X90955000Y-143576250D01*
X90955000Y-143417933D01*
X91040910Y-143551441D01*
X91253110Y-143696431D01*
X91280785Y-143702035D01*
X91313750Y-143735000D01*
X91381310Y-143735000D01*
X91401753Y-143726532D01*
X91505000Y-143747440D01*
X91595000Y-143747440D01*
X91595000Y-147067100D01*
X91652852Y-147357939D01*
X91817599Y-147604501D01*
X93240300Y-149027202D01*
X93240300Y-149964550D01*
X92989100Y-149860243D01*
X92433339Y-149859758D01*
X91919697Y-150071990D01*
X91526371Y-150464630D01*
X91440051Y-150672512D01*
X91355010Y-150466697D01*
X90962370Y-150073371D01*
X90449100Y-149860243D01*
X89893339Y-149859758D01*
X89379697Y-150071990D01*
X88986371Y-150464630D01*
X88900051Y-150672512D01*
X88815010Y-150466697D01*
X88422370Y-150073371D01*
X87909100Y-149860243D01*
X87353339Y-149859758D01*
X87320945Y-149873143D01*
X86390000Y-148942198D01*
X86390000Y-136300000D01*
X90207560Y-136300000D01*
X90207560Y-137300000D01*
X90251838Y-137535317D01*
X90295000Y-137602393D01*
X90295000Y-137675300D01*
X90352852Y-137966139D01*
X90517599Y-138212701D01*
X91412599Y-139107701D01*
X91659161Y-139272448D01*
X91950000Y-139330300D01*
X95360000Y-139330300D01*
X95650839Y-139272448D01*
X95897401Y-139107701D01*
X96569802Y-138435300D01*
X101979300Y-138435300D01*
X102270139Y-138377448D01*
X102516701Y-138212701D01*
X106384902Y-134344500D01*
X120006798Y-134344500D01*
X122124399Y-136462101D01*
X122370961Y-136626848D01*
X122661800Y-136684700D01*
X123227560Y-136684700D01*
X123227560Y-137300000D01*
X123271838Y-137535317D01*
X123315000Y-137602393D01*
X123315000Y-137675300D01*
X123372852Y-137966139D01*
X123537599Y-138212701D01*
X123784161Y-138377448D01*
X124075000Y-138435300D01*
X164835000Y-138435300D01*
X165125839Y-138377448D01*
X165372401Y-138212701D01*
X165537148Y-137966139D01*
X165540867Y-137947440D01*
X165685000Y-137947440D01*
X165920317Y-137903162D01*
X166136441Y-137764090D01*
X166281431Y-137551890D01*
X166332440Y-137300000D01*
X166332440Y-136300000D01*
X166288162Y-136064683D01*
X166245000Y-135997607D01*
X166245000Y-115177500D01*
X166187148Y-114886661D01*
X166022401Y-114640099D01*
X164147342Y-112765040D01*
X166117600Y-112765040D01*
X166352917Y-112720762D01*
X166569041Y-112581690D01*
X166714031Y-112369490D01*
X166765040Y-112117600D01*
X166765040Y-109882400D01*
X166720762Y-109647083D01*
X166581690Y-109430959D01*
X166369490Y-109285969D01*
X166117600Y-109234960D01*
X164100300Y-109234960D01*
X164100300Y-105422815D01*
X188864630Y-105422815D01*
X189188980Y-106207800D01*
X189789041Y-106808909D01*
X190573459Y-107134628D01*
X191422815Y-107135370D01*
X192207800Y-106811020D01*
X192808909Y-106210959D01*
X193134628Y-105426541D01*
X193135370Y-104577185D01*
X192811020Y-103792200D01*
X192210959Y-103191091D01*
X191426541Y-102865372D01*
X190577185Y-102864630D01*
X189792200Y-103188980D01*
X189191091Y-103789041D01*
X188865372Y-104573459D01*
X188864630Y-105422815D01*
X164100300Y-105422815D01*
X164100300Y-87990500D01*
X164042448Y-87699661D01*
X163877701Y-87453099D01*
X156736689Y-80312087D01*
X156642717Y-80084657D01*
X156609600Y-80051482D01*
X156609600Y-78594800D01*
X156551748Y-78303961D01*
X156387001Y-78057399D01*
X151896702Y-73567100D01*
X153993201Y-71470601D01*
X154157948Y-71224039D01*
X154215800Y-70933200D01*
X154215800Y-54044600D01*
X154157948Y-53753761D01*
X153993201Y-53507199D01*
X150018292Y-49532290D01*
X150096992Y-49453727D01*
X150239638Y-49110199D01*
X150239962Y-48738233D01*
X150097917Y-48394457D01*
X149835127Y-48131208D01*
X149491599Y-47988562D01*
X149444723Y-47988521D01*
X148957100Y-47500898D01*
X148957100Y-38083363D01*
X148989292Y-38051227D01*
X149131938Y-37707699D01*
X149132262Y-37335733D01*
X148990217Y-36991957D01*
X148957100Y-36958782D01*
X148957100Y-34308600D01*
X148899248Y-34017761D01*
X148734501Y-33771199D01*
X145192201Y-30228899D01*
X144945639Y-30064152D01*
X144654800Y-30006300D01*
X140665600Y-30006300D01*
X140423014Y-30054554D01*
X140374760Y-30064152D01*
X140208679Y-30175124D01*
X140185017Y-30117857D01*
X139922227Y-29854608D01*
X139578699Y-29711962D01*
X139206733Y-29711638D01*
X138862957Y-29853683D01*
X138829782Y-29886800D01*
X138263200Y-29886800D01*
X137972361Y-29944652D01*
X137725799Y-30109399D01*
X136814012Y-31021186D01*
X136344727Y-31020777D01*
X135870794Y-31216602D01*
X135599845Y-31487078D01*
X135331113Y-31217876D01*
X134857523Y-31021224D01*
X134344727Y-31020777D01*
X133870794Y-31216602D01*
X133599845Y-31487078D01*
X133331113Y-31217876D01*
X132857523Y-31021224D01*
X132344727Y-31020777D01*
X131870794Y-31216602D01*
X131599845Y-31487078D01*
X131331113Y-31217876D01*
X130857523Y-31021224D01*
X130344727Y-31020777D01*
X129870794Y-31216602D01*
X129599845Y-31487078D01*
X129331113Y-31217876D01*
X128857523Y-31021224D01*
X128344727Y-31020777D01*
X127870794Y-31216602D01*
X127599845Y-31487078D01*
X127331113Y-31217876D01*
X126857523Y-31021224D01*
X126385615Y-31020813D01*
X123528001Y-28163199D01*
X123281439Y-27998452D01*
X122990600Y-27940600D01*
X109015400Y-27940600D01*
X108724561Y-27998452D01*
X108477999Y-28163199D01*
X98631099Y-38010099D01*
X98466352Y-38256661D01*
X98408500Y-38547500D01*
X98408500Y-92154000D01*
X98466352Y-92444839D01*
X98631099Y-92691401D01*
X100621000Y-94681302D01*
X100621000Y-110102560D01*
X99000000Y-110102560D01*
X98764683Y-110146838D01*
X98548559Y-110285910D01*
X98403569Y-110498110D01*
X98352560Y-110750000D01*
X98352560Y-113250000D01*
X98396838Y-113485317D01*
X98535910Y-113701441D01*
X98748110Y-113846431D01*
X99000000Y-113897440D01*
X99064934Y-113897440D01*
X99064838Y-114007767D01*
X99206883Y-114351543D01*
X99469673Y-114614792D01*
X99813201Y-114757438D01*
X100185167Y-114757762D01*
X100271304Y-114722171D01*
X100234400Y-114907700D01*
X100234400Y-116212560D01*
X98600000Y-116212560D01*
X98364683Y-116256838D01*
X98148559Y-116395910D01*
X98003569Y-116608110D01*
X97952560Y-116860000D01*
X97952560Y-119360000D01*
X97996838Y-119595317D01*
X98135910Y-119811441D01*
X98348110Y-119956431D01*
X98600000Y-120007440D01*
X98894133Y-120007440D01*
X98897852Y-120026139D01*
X99062599Y-120272701D01*
X99230899Y-120441001D01*
X99187000Y-120484900D01*
X99187000Y-122334020D01*
X99207000Y-122334020D01*
X99207000Y-122588020D01*
X99187000Y-122588020D01*
X99187000Y-122608020D01*
X98933000Y-122608020D01*
X98933000Y-122588020D01*
X97833180Y-122588020D01*
X97674430Y-122746770D01*
X97674430Y-124087199D01*
X97771103Y-124320588D01*
X97911257Y-124460743D01*
X97857989Y-124495020D01*
X97712999Y-124707220D01*
X97661990Y-124959110D01*
X97661990Y-125112088D01*
X94740000Y-122190098D01*
X94740000Y-122094300D01*
X95102532Y-121852064D01*
X95446659Y-121337042D01*
X95546552Y-120834841D01*
X97674430Y-120834841D01*
X97674430Y-122175270D01*
X97833180Y-122334020D01*
X98933000Y-122334020D01*
X98933000Y-120484900D01*
X98774250Y-120326150D01*
X98183120Y-120326150D01*
X97949731Y-120422823D01*
X97771103Y-120601452D01*
X97674430Y-120834841D01*
X95546552Y-120834841D01*
X95567500Y-120729532D01*
X95567500Y-120570468D01*
X95446659Y-119962958D01*
X95102532Y-119447936D01*
X94587510Y-119103809D01*
X93980000Y-118982968D01*
X93372490Y-119103809D01*
X92857468Y-119447936D01*
X92710081Y-119668516D01*
X92306924Y-119274027D01*
X91812980Y-119059437D01*
X91567000Y-119179406D01*
X91567000Y-120523000D01*
X91587000Y-120523000D01*
X91587000Y-120777000D01*
X91567000Y-120777000D01*
X91567000Y-122120594D01*
X91812980Y-122240563D01*
X92306924Y-122025973D01*
X92710081Y-121631484D01*
X92857468Y-121852064D01*
X93220000Y-122094300D01*
X93220000Y-122504900D01*
X93277852Y-122795739D01*
X93442599Y-123042301D01*
X97174100Y-126773802D01*
X97174100Y-128635798D01*
X95442599Y-130367299D01*
X95277852Y-130613861D01*
X95274133Y-130632560D01*
X94980000Y-130632560D01*
X94744683Y-130676838D01*
X94528559Y-130815910D01*
X94383569Y-131028110D01*
X94332560Y-131280000D01*
X94332560Y-132548100D01*
X93945000Y-132548100D01*
X93654160Y-132605952D01*
X93615000Y-132632118D01*
X93615000Y-132365750D01*
X93456250Y-132207000D01*
X92107000Y-132207000D01*
X92107000Y-133356250D01*
X92265750Y-133515000D01*
X92663298Y-133515000D01*
X91167599Y-135010699D01*
X91002852Y-135257261D01*
X90945000Y-135548100D01*
X90945000Y-135652560D01*
X90855000Y-135652560D01*
X90619683Y-135696838D01*
X90403559Y-135835910D01*
X90258569Y-136048110D01*
X90207560Y-136300000D01*
X86390000Y-136300000D01*
X86390000Y-132365750D01*
X90345000Y-132365750D01*
X90345000Y-133006310D01*
X90441673Y-133239699D01*
X90620302Y-133418327D01*
X90853691Y-133515000D01*
X91694250Y-133515000D01*
X91853000Y-133356250D01*
X91853000Y-132207000D01*
X90503750Y-132207000D01*
X90345000Y-132365750D01*
X86390000Y-132365750D01*
X86390000Y-131153690D01*
X90345000Y-131153690D01*
X90345000Y-131794250D01*
X90503750Y-131953000D01*
X91853000Y-131953000D01*
X91853000Y-130803750D01*
X92107000Y-130803750D01*
X92107000Y-131953000D01*
X93456250Y-131953000D01*
X93615000Y-131794250D01*
X93615000Y-131153690D01*
X93518327Y-130920301D01*
X93339698Y-130741673D01*
X93106309Y-130645000D01*
X92265750Y-130645000D01*
X92107000Y-130803750D01*
X91853000Y-130803750D01*
X91694250Y-130645000D01*
X90853691Y-130645000D01*
X90620302Y-130741673D01*
X90441673Y-130920301D01*
X90345000Y-131153690D01*
X86390000Y-131153690D01*
X86390000Y-128447440D01*
X86630000Y-128447440D01*
X86865317Y-128403162D01*
X87081441Y-128264090D01*
X87226431Y-128051890D01*
X87277440Y-127800000D01*
X87277440Y-127285750D01*
X87995000Y-127285750D01*
X87995000Y-127926310D01*
X88091673Y-128159699D01*
X88270302Y-128338327D01*
X88503691Y-128435000D01*
X89344250Y-128435000D01*
X89503000Y-128276250D01*
X89503000Y-127127000D01*
X89757000Y-127127000D01*
X89757000Y-128276250D01*
X89915750Y-128435000D01*
X90756309Y-128435000D01*
X90989698Y-128338327D01*
X91168327Y-128159699D01*
X91265000Y-127926310D01*
X91265000Y-127285750D01*
X91106250Y-127127000D01*
X89757000Y-127127000D01*
X89503000Y-127127000D01*
X88153750Y-127127000D01*
X87995000Y-127285750D01*
X87277440Y-127285750D01*
X87277440Y-126200000D01*
X87253674Y-126073690D01*
X87995000Y-126073690D01*
X87995000Y-126714250D01*
X88153750Y-126873000D01*
X89503000Y-126873000D01*
X89503000Y-125723750D01*
X89757000Y-125723750D01*
X89757000Y-126873000D01*
X91106250Y-126873000D01*
X91265000Y-126714250D01*
X91265000Y-126073690D01*
X91168327Y-125840301D01*
X90989698Y-125661673D01*
X90756309Y-125565000D01*
X89915750Y-125565000D01*
X89757000Y-125723750D01*
X89503000Y-125723750D01*
X89344250Y-125565000D01*
X88503691Y-125565000D01*
X88270302Y-125661673D01*
X88091673Y-125840301D01*
X87995000Y-126073690D01*
X87253674Y-126073690D01*
X87233162Y-125964683D01*
X87094090Y-125748559D01*
X86908055Y-125621447D01*
X88109601Y-124419901D01*
X88274348Y-124173339D01*
X88332200Y-123882500D01*
X88332200Y-122297440D01*
X89852500Y-122297440D01*
X90087817Y-122253162D01*
X90303941Y-122114090D01*
X90447863Y-121903453D01*
X90573076Y-122025973D01*
X91067020Y-122240563D01*
X91313000Y-122120594D01*
X91313000Y-120777000D01*
X91293000Y-120777000D01*
X91293000Y-120523000D01*
X91313000Y-120523000D01*
X91313000Y-119179406D01*
X91067020Y-119059437D01*
X90573076Y-119274027D01*
X90445488Y-119398872D01*
X90316590Y-119198559D01*
X90104390Y-119053569D01*
X89852500Y-119002560D01*
X87947500Y-119002560D01*
X87712183Y-119046838D01*
X87496059Y-119185910D01*
X87351069Y-119398110D01*
X87300060Y-119650000D01*
X87300060Y-119944133D01*
X87281361Y-119947852D01*
X87034799Y-120112599D01*
X86870052Y-120359161D01*
X86812200Y-120650000D01*
X86812200Y-123567698D01*
X85092599Y-125287299D01*
X84927852Y-125533861D01*
X84924133Y-125552560D01*
X84630000Y-125552560D01*
X84394683Y-125596838D01*
X84178559Y-125735910D01*
X84033569Y-125948110D01*
X83982560Y-126200000D01*
X83982560Y-127800000D01*
X84026838Y-128035317D01*
X84165910Y-128251441D01*
X84378110Y-128396431D01*
X84630000Y-128447440D01*
X84870000Y-128447440D01*
X84870000Y-149257000D01*
X84927852Y-149547839D01*
X85092599Y-149794401D01*
X86245817Y-150947619D01*
X86233243Y-150977900D01*
X86232758Y-151533661D01*
X86444990Y-152047303D01*
X86837630Y-152440629D01*
X87350900Y-152653757D01*
X87906661Y-152654242D01*
X88420303Y-152442010D01*
X88813629Y-152049370D01*
X88899949Y-151841488D01*
X88984990Y-152047303D01*
X89377630Y-152440629D01*
X89890900Y-152653757D01*
X90446661Y-152654242D01*
X90960303Y-152442010D01*
X91353629Y-152049370D01*
X91439949Y-151841488D01*
X91524990Y-152047303D01*
X91917630Y-152440629D01*
X92430900Y-152653757D01*
X92986661Y-152654242D01*
X93019055Y-152640857D01*
X93102600Y-152724402D01*
X93102600Y-153467372D01*
X92989100Y-153420243D01*
X92433339Y-153419758D01*
X91919697Y-153631990D01*
X91526371Y-154024630D01*
X91440051Y-154232512D01*
X91355010Y-154026697D01*
X90962370Y-153633371D01*
X90449100Y-153420243D01*
X89893339Y-153419758D01*
X89379697Y-153631990D01*
X88986371Y-154024630D01*
X88906605Y-154216727D01*
X88852397Y-154085857D01*
X88610213Y-154016392D01*
X87809605Y-154817000D01*
X88610213Y-155617608D01*
X88852397Y-155548143D01*
X88902509Y-155407682D01*
X88984990Y-155607303D01*
X89377630Y-156000629D01*
X89562000Y-156077186D01*
X89562000Y-177248560D01*
X89356800Y-177248560D01*
X89121483Y-177292838D01*
X89054473Y-177335958D01*
X88873510Y-177261000D01*
X88067750Y-177261000D01*
X87909000Y-177419750D01*
X87909000Y-180563000D01*
X87929000Y-180563000D01*
X87929000Y-180817000D01*
X87909000Y-180817000D01*
X87909000Y-180837000D01*
X87655000Y-180837000D01*
X87655000Y-180817000D01*
X86340550Y-180817000D01*
X86181800Y-180975750D01*
X86181800Y-182873000D01*
X86127000Y-182873000D01*
X86127000Y-177769691D01*
X86181800Y-177769691D01*
X86181800Y-180404250D01*
X86340550Y-180563000D01*
X87655000Y-180563000D01*
X87655000Y-177419750D01*
X87496250Y-177261000D01*
X86690490Y-177261000D01*
X86457101Y-177357673D01*
X86278473Y-177536302D01*
X86181800Y-177769691D01*
X86127000Y-177769691D01*
X86127000Y-160000000D01*
X86116994Y-159950590D01*
X86070447Y-159894330D01*
X83127000Y-157932032D01*
X83127000Y-155797213D01*
X86829392Y-155797213D01*
X86898857Y-156039397D01*
X87422302Y-156226144D01*
X87977368Y-156198362D01*
X88361143Y-156039397D01*
X88430608Y-155797213D01*
X87630000Y-154996605D01*
X86829392Y-155797213D01*
X83127000Y-155797213D01*
X83127000Y-154609302D01*
X86220856Y-154609302D01*
X86248638Y-155164368D01*
X86407603Y-155548143D01*
X86649787Y-155617608D01*
X87450395Y-154817000D01*
X86649787Y-154016392D01*
X86407603Y-154085857D01*
X86220856Y-154609302D01*
X83127000Y-154609302D01*
X83127000Y-153836787D01*
X86829392Y-153836787D01*
X87630000Y-154637395D01*
X88430608Y-153836787D01*
X88361143Y-153594603D01*
X87837698Y-153407856D01*
X87282632Y-153435638D01*
X86898857Y-153594603D01*
X86829392Y-153836787D01*
X83127000Y-153836787D01*
X83127000Y-108000000D01*
X83116994Y-107950590D01*
X83088553Y-107908965D01*
X83046159Y-107881685D01*
X83000000Y-107873000D01*
X54127000Y-107873000D01*
X54127000Y-104422815D01*
X55864630Y-104422815D01*
X56188980Y-105207800D01*
X56789041Y-105808909D01*
X57573459Y-106134628D01*
X58422815Y-106135370D01*
X59207800Y-105811020D01*
X59808909Y-105210959D01*
X60134628Y-104426541D01*
X60135009Y-103990000D01*
X89008275Y-103990000D01*
X89189822Y-104902700D01*
X89706825Y-105676450D01*
X90480575Y-106193453D01*
X91393275Y-106375000D01*
X91486725Y-106375000D01*
X92399425Y-106193453D01*
X93173175Y-105676450D01*
X93690178Y-104902700D01*
X93871725Y-103990000D01*
X93690178Y-103077300D01*
X93173175Y-102303550D01*
X92399425Y-101786547D01*
X91486725Y-101605000D01*
X91393275Y-101605000D01*
X90480575Y-101786547D01*
X89706825Y-102303550D01*
X89189822Y-103077300D01*
X89008275Y-103990000D01*
X60135009Y-103990000D01*
X60135370Y-103577185D01*
X59811020Y-102792200D01*
X59210959Y-102191091D01*
X58426541Y-101865372D01*
X57577185Y-101864630D01*
X56792200Y-102188980D01*
X56191091Y-102789041D01*
X55865372Y-103573459D01*
X55864630Y-104422815D01*
X54127000Y-104422815D01*
X54127000Y-27422815D01*
X55864630Y-27422815D01*
X56188980Y-28207800D01*
X56789041Y-28808909D01*
X57573459Y-29134628D01*
X58422815Y-29135370D01*
X59207800Y-28811020D01*
X59808909Y-28210959D01*
X60134628Y-27426541D01*
X60134631Y-27422815D01*
X188864630Y-27422815D01*
X189188980Y-28207800D01*
X189789041Y-28808909D01*
X190573459Y-29134628D01*
X191422815Y-29135370D01*
X192207800Y-28811020D01*
X192808909Y-28210959D01*
X193134628Y-27426541D01*
X193135370Y-26577185D01*
X192811020Y-25792200D01*
X192210959Y-25191091D01*
X191426541Y-24865372D01*
X190577185Y-24864630D01*
X189792200Y-25188980D01*
X189191091Y-25789041D01*
X188865372Y-26573459D01*
X188864630Y-27422815D01*
X60134631Y-27422815D01*
X60135370Y-26577185D01*
X59811020Y-25792200D01*
X59210959Y-25191091D01*
X58426541Y-24865372D01*
X57577185Y-24864630D01*
X56792200Y-25188980D01*
X56191091Y-25789041D01*
X55865372Y-26573459D01*
X55864630Y-27422815D01*
X54127000Y-27422815D01*
X54127000Y-23127000D01*
X194873000Y-23127000D01*
X194873000Y-108873000D01*
G36*
X108311000Y-85890310D02*
X108407673Y-86123699D01*
X108472636Y-86188662D01*
X107819099Y-86842199D01*
X107654352Y-87088761D01*
X107596500Y-87379600D01*
X107596500Y-92287837D01*
X107564308Y-92319973D01*
X107421662Y-92663501D01*
X107421338Y-93035467D01*
X107563383Y-93379243D01*
X107826173Y-93642492D01*
X108169701Y-93785138D01*
X108299400Y-93785251D01*
X108299400Y-97080698D01*
X108171799Y-97208299D01*
X108007052Y-97454861D01*
X107949200Y-97745700D01*
X107949200Y-98678500D01*
X108007052Y-98969339D01*
X108171799Y-99215901D01*
X122249900Y-113294002D01*
X122249900Y-115158937D01*
X122217708Y-115191073D01*
X122075062Y-115534601D01*
X122074738Y-115906567D01*
X122216783Y-116250343D01*
X122479573Y-116513592D01*
X122823101Y-116656238D01*
X123195067Y-116656562D01*
X123538843Y-116514517D01*
X123802092Y-116251727D01*
X123944738Y-115908199D01*
X123945062Y-115536233D01*
X123803017Y-115192457D01*
X123769900Y-115159282D01*
X123769900Y-112979200D01*
X123712048Y-112688361D01*
X123547301Y-112441799D01*
X109918736Y-98813234D01*
X110106848Y-98625450D01*
X123965000Y-112483602D01*
X123965000Y-135164700D01*
X122976602Y-135164700D01*
X121081600Y-133269698D01*
X121081600Y-115488800D01*
X121047416Y-115316948D01*
X121023748Y-115197960D01*
X120859001Y-114951399D01*
X120503867Y-114596265D01*
X120547870Y-114378970D01*
X120547870Y-112781310D01*
X120503592Y-112545993D01*
X120364520Y-112329869D01*
X120152320Y-112184879D01*
X119900430Y-112133870D01*
X118099570Y-112133870D01*
X117864253Y-112178148D01*
X117648129Y-112317220D01*
X117622452Y-112354800D01*
X116804902Y-112354800D01*
X115912701Y-111462599D01*
X115666139Y-111297852D01*
X115647440Y-111294133D01*
X115647440Y-110750000D01*
X115603162Y-110514683D01*
X115464090Y-110298559D01*
X115251890Y-110153569D01*
X115000000Y-110102560D01*
X113000000Y-110102560D01*
X112764683Y-110146838D01*
X112548559Y-110285910D01*
X112403569Y-110498110D01*
X112352560Y-110750000D01*
X112352560Y-113250000D01*
X112396838Y-113485317D01*
X112535910Y-113701441D01*
X112748110Y-113846431D01*
X113000000Y-113897440D01*
X115000000Y-113897440D01*
X115235317Y-113853162D01*
X115451441Y-113714090D01*
X115596431Y-113501890D01*
X115631115Y-113330617D01*
X115952699Y-113652201D01*
X116199260Y-113816948D01*
X116490100Y-113874800D01*
X117452130Y-113874800D01*
X117452130Y-114378970D01*
X117496408Y-114614287D01*
X117635480Y-114830411D01*
X117847680Y-114975401D01*
X117964366Y-114999030D01*
X117864253Y-115017868D01*
X117648129Y-115156940D01*
X117503139Y-115369140D01*
X117452130Y-115621030D01*
X117452130Y-117218690D01*
X117456140Y-117240000D01*
X115647440Y-117240000D01*
X115647440Y-116750000D01*
X115603162Y-116514683D01*
X115464090Y-116298559D01*
X115251890Y-116153569D01*
X115000000Y-116102560D01*
X113000000Y-116102560D01*
X112764683Y-116146838D01*
X112548559Y-116285910D01*
X112403569Y-116498110D01*
X112352560Y-116750000D01*
X112352560Y-119250000D01*
X112396838Y-119485317D01*
X112535910Y-119701441D01*
X112748110Y-119846431D01*
X113000000Y-119897440D01*
X115000000Y-119897440D01*
X115235317Y-119853162D01*
X115451441Y-119714090D01*
X115596431Y-119501890D01*
X115647440Y-119250000D01*
X115647440Y-118760000D01*
X118594000Y-118760000D01*
X118884839Y-118702148D01*
X119131401Y-118537401D01*
X119537401Y-118131401D01*
X119561600Y-118095185D01*
X119561600Y-132824500D01*
X106070100Y-132824500D01*
X105779261Y-132882352D01*
X105532699Y-133047099D01*
X101664498Y-136915300D01*
X98169102Y-136915300D01*
X106798652Y-128285750D01*
X107247400Y-128285750D01*
X107247400Y-129243910D01*
X107344073Y-129477299D01*
X107522702Y-129655927D01*
X107756091Y-129752600D01*
X108714250Y-129752600D01*
X108873000Y-129593850D01*
X108873000Y-128127000D01*
X109127000Y-128127000D01*
X109127000Y-129593850D01*
X109285750Y-129752600D01*
X110243909Y-129752600D01*
X110477298Y-129655927D01*
X110655927Y-129477299D01*
X110752600Y-129243910D01*
X110752600Y-128285750D01*
X110593850Y-128127000D01*
X109127000Y-128127000D01*
X108873000Y-128127000D01*
X107406150Y-128127000D01*
X107247400Y-128285750D01*
X106798652Y-128285750D01*
X106942601Y-128141801D01*
X107107348Y-127895240D01*
X107165200Y-127604400D01*
X107165200Y-126756090D01*
X107247400Y-126756090D01*
X107247400Y-127714250D01*
X107406150Y-127873000D01*
X108873000Y-127873000D01*
X108873000Y-126406150D01*
X109127000Y-126406150D01*
X109127000Y-127873000D01*
X110593850Y-127873000D01*
X110752600Y-127714250D01*
X110752600Y-126756090D01*
X110655927Y-126522701D01*
X110477298Y-126344073D01*
X110243909Y-126247400D01*
X109285750Y-126247400D01*
X109127000Y-126406150D01*
X108873000Y-126406150D01*
X108714250Y-126247400D01*
X107756091Y-126247400D01*
X107522702Y-126344073D01*
X107344073Y-126522701D01*
X107247400Y-126756090D01*
X107165200Y-126756090D01*
X107165200Y-118285750D01*
X108365000Y-118285750D01*
X108365000Y-119376310D01*
X108461673Y-119609699D01*
X108640302Y-119788327D01*
X108873691Y-119885000D01*
X109714250Y-119885000D01*
X109873000Y-119726250D01*
X109873000Y-118127000D01*
X110127000Y-118127000D01*
X110127000Y-119726250D01*
X110285750Y-119885000D01*
X111126309Y-119885000D01*
X111359698Y-119788327D01*
X111538327Y-119609699D01*
X111635000Y-119376310D01*
X111635000Y-118285750D01*
X111476250Y-118127000D01*
X110127000Y-118127000D01*
X109873000Y-118127000D01*
X108523750Y-118127000D01*
X108365000Y-118285750D01*
X107165200Y-118285750D01*
X107165200Y-115576767D01*
X108298338Y-115576767D01*
X108440383Y-115920543D01*
X108703173Y-116183792D01*
X108705390Y-116184713D01*
X108640302Y-116211673D01*
X108461673Y-116390301D01*
X108365000Y-116623690D01*
X108365000Y-117714250D01*
X108523750Y-117873000D01*
X109873000Y-117873000D01*
X109873000Y-116273750D01*
X110127000Y-116273750D01*
X110127000Y-117873000D01*
X111476250Y-117873000D01*
X111635000Y-117714250D01*
X111635000Y-116623690D01*
X111538327Y-116390301D01*
X111359698Y-116211673D01*
X111126309Y-116115000D01*
X110285750Y-116115000D01*
X110127000Y-116273750D01*
X109873000Y-116273750D01*
X109773214Y-116173964D01*
X110025692Y-115921927D01*
X110168338Y-115578399D01*
X110168662Y-115206433D01*
X110026617Y-114862657D01*
X109993500Y-114829482D01*
X109993500Y-114706602D01*
X110537401Y-114162701D01*
X110702148Y-113916139D01*
X110705867Y-113897440D01*
X111000000Y-113897440D01*
X111235317Y-113853162D01*
X111451441Y-113714090D01*
X111596431Y-113501890D01*
X111647440Y-113250000D01*
X111647440Y-110750000D01*
X111603162Y-110514683D01*
X111464090Y-110298559D01*
X111251890Y-110153569D01*
X111000000Y-110102560D01*
X109000000Y-110102560D01*
X108764683Y-110146838D01*
X108548559Y-110285910D01*
X108403569Y-110498110D01*
X108352560Y-110750000D01*
X108352560Y-113250000D01*
X108396838Y-113485317D01*
X108535910Y-113701441D01*
X108721945Y-113828553D01*
X108696099Y-113854399D01*
X108531352Y-114100961D01*
X108473500Y-114391800D01*
X108473500Y-114829137D01*
X108441308Y-114861273D01*
X108298662Y-115204801D01*
X108298338Y-115576767D01*
X107165200Y-115576767D01*
X107165200Y-93240800D01*
X107107348Y-92949961D01*
X107098842Y-92937231D01*
X107162648Y-92841739D01*
X107220500Y-92550900D01*
X107220500Y-86673102D01*
X108311000Y-85582602D01*
X108311000Y-85890310D01*
X108311000Y-85890310D01*
G37*
X108311000Y-85890310D02*
X108407673Y-86123699D01*
X108472636Y-86188662D01*
X107819099Y-86842199D01*
X107654352Y-87088761D01*
X107596500Y-87379600D01*
X107596500Y-92287837D01*
X107564308Y-92319973D01*
X107421662Y-92663501D01*
X107421338Y-93035467D01*
X107563383Y-93379243D01*
X107826173Y-93642492D01*
X108169701Y-93785138D01*
X108299400Y-93785251D01*
X108299400Y-97080698D01*
X108171799Y-97208299D01*
X108007052Y-97454861D01*
X107949200Y-97745700D01*
X107949200Y-98678500D01*
X108007052Y-98969339D01*
X108171799Y-99215901D01*
X122249900Y-113294002D01*
X122249900Y-115158937D01*
X122217708Y-115191073D01*
X122075062Y-115534601D01*
X122074738Y-115906567D01*
X122216783Y-116250343D01*
X122479573Y-116513592D01*
X122823101Y-116656238D01*
X123195067Y-116656562D01*
X123538843Y-116514517D01*
X123802092Y-116251727D01*
X123944738Y-115908199D01*
X123945062Y-115536233D01*
X123803017Y-115192457D01*
X123769900Y-115159282D01*
X123769900Y-112979200D01*
X123712048Y-112688361D01*
X123547301Y-112441799D01*
X109918736Y-98813234D01*
X110106848Y-98625450D01*
X123965000Y-112483602D01*
X123965000Y-135164700D01*
X122976602Y-135164700D01*
X121081600Y-133269698D01*
X121081600Y-115488800D01*
X121047416Y-115316948D01*
X121023748Y-115197960D01*
X120859001Y-114951399D01*
X120503867Y-114596265D01*
X120547870Y-114378970D01*
X120547870Y-112781310D01*
X120503592Y-112545993D01*
X120364520Y-112329869D01*
X120152320Y-112184879D01*
X119900430Y-112133870D01*
X118099570Y-112133870D01*
X117864253Y-112178148D01*
X117648129Y-112317220D01*
X117622452Y-112354800D01*
X116804902Y-112354800D01*
X115912701Y-111462599D01*
X115666139Y-111297852D01*
X115647440Y-111294133D01*
X115647440Y-110750000D01*
X115603162Y-110514683D01*
X115464090Y-110298559D01*
X115251890Y-110153569D01*
X115000000Y-110102560D01*
X113000000Y-110102560D01*
X112764683Y-110146838D01*
X112548559Y-110285910D01*
X112403569Y-110498110D01*
X112352560Y-110750000D01*
X112352560Y-113250000D01*
X112396838Y-113485317D01*
X112535910Y-113701441D01*
X112748110Y-113846431D01*
X113000000Y-113897440D01*
X115000000Y-113897440D01*
X115235317Y-113853162D01*
X115451441Y-113714090D01*
X115596431Y-113501890D01*
X115631115Y-113330617D01*
X115952699Y-113652201D01*
X116199260Y-113816948D01*
X116490100Y-113874800D01*
X117452130Y-113874800D01*
X117452130Y-114378970D01*
X117496408Y-114614287D01*
X117635480Y-114830411D01*
X117847680Y-114975401D01*
X117964366Y-114999030D01*
X117864253Y-115017868D01*
X117648129Y-115156940D01*
X117503139Y-115369140D01*
X117452130Y-115621030D01*
X117452130Y-117218690D01*
X117456140Y-117240000D01*
X115647440Y-117240000D01*
X115647440Y-116750000D01*
X115603162Y-116514683D01*
X115464090Y-116298559D01*
X115251890Y-116153569D01*
X115000000Y-116102560D01*
X113000000Y-116102560D01*
X112764683Y-116146838D01*
X112548559Y-116285910D01*
X112403569Y-116498110D01*
X112352560Y-116750000D01*
X112352560Y-119250000D01*
X112396838Y-119485317D01*
X112535910Y-119701441D01*
X112748110Y-119846431D01*
X113000000Y-119897440D01*
X115000000Y-119897440D01*
X115235317Y-119853162D01*
X115451441Y-119714090D01*
X115596431Y-119501890D01*
X115647440Y-119250000D01*
X115647440Y-118760000D01*
X118594000Y-118760000D01*
X118884839Y-118702148D01*
X119131401Y-118537401D01*
X119537401Y-118131401D01*
X119561600Y-118095185D01*
X119561600Y-132824500D01*
X106070100Y-132824500D01*
X105779261Y-132882352D01*
X105532699Y-133047099D01*
X101664498Y-136915300D01*
X98169102Y-136915300D01*
X106798652Y-128285750D01*
X107247400Y-128285750D01*
X107247400Y-129243910D01*
X107344073Y-129477299D01*
X107522702Y-129655927D01*
X107756091Y-129752600D01*
X108714250Y-129752600D01*
X108873000Y-129593850D01*
X108873000Y-128127000D01*
X109127000Y-128127000D01*
X109127000Y-129593850D01*
X109285750Y-129752600D01*
X110243909Y-129752600D01*
X110477298Y-129655927D01*
X110655927Y-129477299D01*
X110752600Y-129243910D01*
X110752600Y-128285750D01*
X110593850Y-128127000D01*
X109127000Y-128127000D01*
X108873000Y-128127000D01*
X107406150Y-128127000D01*
X107247400Y-128285750D01*
X106798652Y-128285750D01*
X106942601Y-128141801D01*
X107107348Y-127895240D01*
X107165200Y-127604400D01*
X107165200Y-126756090D01*
X107247400Y-126756090D01*
X107247400Y-127714250D01*
X107406150Y-127873000D01*
X108873000Y-127873000D01*
X108873000Y-126406150D01*
X109127000Y-126406150D01*
X109127000Y-127873000D01*
X110593850Y-127873000D01*
X110752600Y-127714250D01*
X110752600Y-126756090D01*
X110655927Y-126522701D01*
X110477298Y-126344073D01*
X110243909Y-126247400D01*
X109285750Y-126247400D01*
X109127000Y-126406150D01*
X108873000Y-126406150D01*
X108714250Y-126247400D01*
X107756091Y-126247400D01*
X107522702Y-126344073D01*
X107344073Y-126522701D01*
X107247400Y-126756090D01*
X107165200Y-126756090D01*
X107165200Y-118285750D01*
X108365000Y-118285750D01*
X108365000Y-119376310D01*
X108461673Y-119609699D01*
X108640302Y-119788327D01*
X108873691Y-119885000D01*
X109714250Y-119885000D01*
X109873000Y-119726250D01*
X109873000Y-118127000D01*
X110127000Y-118127000D01*
X110127000Y-119726250D01*
X110285750Y-119885000D01*
X111126309Y-119885000D01*
X111359698Y-119788327D01*
X111538327Y-119609699D01*
X111635000Y-119376310D01*
X111635000Y-118285750D01*
X111476250Y-118127000D01*
X110127000Y-118127000D01*
X109873000Y-118127000D01*
X108523750Y-118127000D01*
X108365000Y-118285750D01*
X107165200Y-118285750D01*
X107165200Y-115576767D01*
X108298338Y-115576767D01*
X108440383Y-115920543D01*
X108703173Y-116183792D01*
X108705390Y-116184713D01*
X108640302Y-116211673D01*
X108461673Y-116390301D01*
X108365000Y-116623690D01*
X108365000Y-117714250D01*
X108523750Y-117873000D01*
X109873000Y-117873000D01*
X109873000Y-116273750D01*
X110127000Y-116273750D01*
X110127000Y-117873000D01*
X111476250Y-117873000D01*
X111635000Y-117714250D01*
X111635000Y-116623690D01*
X111538327Y-116390301D01*
X111359698Y-116211673D01*
X111126309Y-116115000D01*
X110285750Y-116115000D01*
X110127000Y-116273750D01*
X109873000Y-116273750D01*
X109773214Y-116173964D01*
X110025692Y-115921927D01*
X110168338Y-115578399D01*
X110168662Y-115206433D01*
X110026617Y-114862657D01*
X109993500Y-114829482D01*
X109993500Y-114706602D01*
X110537401Y-114162701D01*
X110702148Y-113916139D01*
X110705867Y-113897440D01*
X111000000Y-113897440D01*
X111235317Y-113853162D01*
X111451441Y-113714090D01*
X111596431Y-113501890D01*
X111647440Y-113250000D01*
X111647440Y-110750000D01*
X111603162Y-110514683D01*
X111464090Y-110298559D01*
X111251890Y-110153569D01*
X111000000Y-110102560D01*
X109000000Y-110102560D01*
X108764683Y-110146838D01*
X108548559Y-110285910D01*
X108403569Y-110498110D01*
X108352560Y-110750000D01*
X108352560Y-113250000D01*
X108396838Y-113485317D01*
X108535910Y-113701441D01*
X108721945Y-113828553D01*
X108696099Y-113854399D01*
X108531352Y-114100961D01*
X108473500Y-114391800D01*
X108473500Y-114829137D01*
X108441308Y-114861273D01*
X108298662Y-115204801D01*
X108298338Y-115576767D01*
X107165200Y-115576767D01*
X107165200Y-93240800D01*
X107107348Y-92949961D01*
X107098842Y-92937231D01*
X107162648Y-92841739D01*
X107220500Y-92550900D01*
X107220500Y-86673102D01*
X108311000Y-85582602D01*
X108311000Y-85890310D01*
G36*
X159171374Y-118615776D02*
X159127000Y-118660150D01*
X159127000Y-119873000D01*
X159147000Y-119873000D01*
X159147000Y-120127000D01*
X159127000Y-120127000D01*
X159127000Y-120147000D01*
X158873000Y-120147000D01*
X158873000Y-120127000D01*
X158853000Y-120127000D01*
X158853000Y-119873000D01*
X158873000Y-119873000D01*
X158873000Y-118660150D01*
X158714250Y-118501400D01*
X157857691Y-118501400D01*
X157624302Y-118598073D01*
X157445673Y-118776701D01*
X157349000Y-119010090D01*
X157349000Y-119714250D01*
X157507748Y-119872998D01*
X157479400Y-119872998D01*
X157186900Y-119580498D01*
X157186900Y-116631302D01*
X159171374Y-118615776D01*
X159171374Y-118615776D01*
G37*
X159171374Y-118615776D02*
X159127000Y-118660150D01*
X159127000Y-119873000D01*
X159147000Y-119873000D01*
X159147000Y-120127000D01*
X159127000Y-120127000D01*
X159127000Y-120147000D01*
X158873000Y-120147000D01*
X158873000Y-120127000D01*
X158853000Y-120127000D01*
X158853000Y-119873000D01*
X158873000Y-119873000D01*
X158873000Y-118660150D01*
X158714250Y-118501400D01*
X157857691Y-118501400D01*
X157624302Y-118598073D01*
X157445673Y-118776701D01*
X157349000Y-119010090D01*
X157349000Y-119714250D01*
X157507748Y-119872998D01*
X157479400Y-119872998D01*
X157186900Y-119580498D01*
X157186900Y-116631302D01*
X159171374Y-118615776D01*
G36*
X143009500Y-97990375D02*
X142954005Y-97806136D01*
X142416777Y-97613035D01*
X141846546Y-97640222D01*
X141445995Y-97806136D01*
X141371861Y-98052255D01*
X142200000Y-98880395D01*
X142214142Y-98866252D01*
X142393748Y-99045858D01*
X142379605Y-99060000D01*
X142393748Y-99074142D01*
X142214142Y-99253748D01*
X142200000Y-99239605D01*
X141371861Y-100067745D01*
X141373850Y-100074348D01*
X140114400Y-101333798D01*
X140114400Y-100895702D01*
X140237401Y-100772701D01*
X140402148Y-100526140D01*
X140405868Y-100507440D01*
X140500000Y-100507440D01*
X140735317Y-100463162D01*
X140951441Y-100324090D01*
X141096431Y-100111890D01*
X141144646Y-99873799D01*
X141192255Y-99888139D01*
X142020395Y-99060000D01*
X141192255Y-98231861D01*
X141144833Y-98246145D01*
X141103162Y-98024683D01*
X140964090Y-97808559D01*
X140751890Y-97663569D01*
X140500000Y-97612560D01*
X140460000Y-97612560D01*
X140460000Y-95284702D01*
X143009500Y-92735202D01*
X143009500Y-97990375D01*
X143009500Y-97990375D01*
G37*
X143009500Y-97990375D02*
X142954005Y-97806136D01*
X142416777Y-97613035D01*
X141846546Y-97640222D01*
X141445995Y-97806136D01*
X141371861Y-98052255D01*
X142200000Y-98880395D01*
X142214142Y-98866252D01*
X142393748Y-99045858D01*
X142379605Y-99060000D01*
X142393748Y-99074142D01*
X142214142Y-99253748D01*
X142200000Y-99239605D01*
X141371861Y-100067745D01*
X141373850Y-100074348D01*
X140114400Y-101333798D01*
X140114400Y-100895702D01*
X140237401Y-100772701D01*
X140402148Y-100526140D01*
X140405868Y-100507440D01*
X140500000Y-100507440D01*
X140735317Y-100463162D01*
X140951441Y-100324090D01*
X141096431Y-100111890D01*
X141144646Y-99873799D01*
X141192255Y-99888139D01*
X142020395Y-99060000D01*
X141192255Y-98231861D01*
X141144833Y-98246145D01*
X141103162Y-98024683D01*
X140964090Y-97808559D01*
X140751890Y-97663569D01*
X140500000Y-97612560D01*
X140460000Y-97612560D01*
X140460000Y-95284702D01*
X143009500Y-92735202D01*
X143009500Y-97990375D01*
G36*
X135793748Y-85095858D02*
X135779605Y-85110000D01*
X136501917Y-85832312D01*
X136503586Y-85831906D01*
X136506602Y-85839206D01*
X136868887Y-86202124D01*
X137249446Y-86360146D01*
X136870794Y-86516602D01*
X136507876Y-86878887D01*
X136504010Y-86888197D01*
X136501917Y-86887688D01*
X135779605Y-87610000D01*
X135793748Y-87624143D01*
X135614143Y-87803748D01*
X135600000Y-87789605D01*
X135585858Y-87803748D01*
X135406253Y-87624143D01*
X135420395Y-87610000D01*
X134698083Y-86887688D01*
X134696414Y-86888094D01*
X134693398Y-86880794D01*
X134331113Y-86517876D01*
X133950554Y-86359854D01*
X134329206Y-86203398D01*
X134521021Y-86011917D01*
X134877688Y-86011917D01*
X134933862Y-86242926D01*
X135240925Y-86349885D01*
X134933862Y-86477074D01*
X134877688Y-86708083D01*
X135600000Y-87430395D01*
X136322312Y-86708083D01*
X136266138Y-86477074D01*
X135959075Y-86370115D01*
X136266138Y-86242926D01*
X136322312Y-86011917D01*
X135600000Y-85289605D01*
X134877688Y-86011917D01*
X134521021Y-86011917D01*
X134692124Y-85841113D01*
X134695990Y-85831803D01*
X134698083Y-85832312D01*
X135420395Y-85110000D01*
X135406253Y-85095858D01*
X135585858Y-84916253D01*
X135600000Y-84930395D01*
X135614143Y-84916253D01*
X135793748Y-85095858D01*
X135793748Y-85095858D01*
G37*
X135793748Y-85095858D02*
X135779605Y-85110000D01*
X136501917Y-85832312D01*
X136503586Y-85831906D01*
X136506602Y-85839206D01*
X136868887Y-86202124D01*
X137249446Y-86360146D01*
X136870794Y-86516602D01*
X136507876Y-86878887D01*
X136504010Y-86888197D01*
X136501917Y-86887688D01*
X135779605Y-87610000D01*
X135793748Y-87624143D01*
X135614143Y-87803748D01*
X135600000Y-87789605D01*
X135585858Y-87803748D01*
X135406253Y-87624143D01*
X135420395Y-87610000D01*
X134698083Y-86887688D01*
X134696414Y-86888094D01*
X134693398Y-86880794D01*
X134331113Y-86517876D01*
X133950554Y-86359854D01*
X134329206Y-86203398D01*
X134521021Y-86011917D01*
X134877688Y-86011917D01*
X134933862Y-86242926D01*
X135240925Y-86349885D01*
X134933862Y-86477074D01*
X134877688Y-86708083D01*
X135600000Y-87430395D01*
X136322312Y-86708083D01*
X136266138Y-86477074D01*
X135959075Y-86370115D01*
X136266138Y-86242926D01*
X136322312Y-86011917D01*
X135600000Y-85289605D01*
X134877688Y-86011917D01*
X134521021Y-86011917D01*
X134692124Y-85841113D01*
X134695990Y-85831803D01*
X134698083Y-85832312D01*
X135420395Y-85110000D01*
X135406253Y-85095858D01*
X135585858Y-84916253D01*
X135600000Y-84930395D01*
X135614143Y-84916253D01*
X135793748Y-85095858D01*
G36*
X127793748Y-85095858D02*
X127779605Y-85110000D01*
X128501917Y-85832312D01*
X128503586Y-85831906D01*
X128506602Y-85839206D01*
X128840000Y-86173187D01*
X128840000Y-86547342D01*
X128507876Y-86878887D01*
X128504010Y-86888197D01*
X128501917Y-86887688D01*
X127779605Y-87610000D01*
X127793748Y-87624143D01*
X127614143Y-87803748D01*
X127600000Y-87789605D01*
X127585858Y-87803748D01*
X127406253Y-87624143D01*
X127420395Y-87610000D01*
X126698083Y-86887688D01*
X126696414Y-86888094D01*
X126693398Y-86880794D01*
X126331113Y-86517876D01*
X125950554Y-86359854D01*
X126329206Y-86203398D01*
X126521021Y-86011917D01*
X126877688Y-86011917D01*
X126933862Y-86242926D01*
X127240925Y-86349885D01*
X126933862Y-86477074D01*
X126877688Y-86708083D01*
X127600000Y-87430395D01*
X128322312Y-86708083D01*
X128266138Y-86477074D01*
X127959075Y-86370115D01*
X128266138Y-86242926D01*
X128322312Y-86011917D01*
X127600000Y-85289605D01*
X126877688Y-86011917D01*
X126521021Y-86011917D01*
X126692124Y-85841113D01*
X126695990Y-85831803D01*
X126698083Y-85832312D01*
X127420395Y-85110000D01*
X127406253Y-85095858D01*
X127585858Y-84916253D01*
X127600000Y-84930395D01*
X127614143Y-84916253D01*
X127793748Y-85095858D01*
X127793748Y-85095858D01*
G37*
X127793748Y-85095858D02*
X127779605Y-85110000D01*
X128501917Y-85832312D01*
X128503586Y-85831906D01*
X128506602Y-85839206D01*
X128840000Y-86173187D01*
X128840000Y-86547342D01*
X128507876Y-86878887D01*
X128504010Y-86888197D01*
X128501917Y-86887688D01*
X127779605Y-87610000D01*
X127793748Y-87624143D01*
X127614143Y-87803748D01*
X127600000Y-87789605D01*
X127585858Y-87803748D01*
X127406253Y-87624143D01*
X127420395Y-87610000D01*
X126698083Y-86887688D01*
X126696414Y-86888094D01*
X126693398Y-86880794D01*
X126331113Y-86517876D01*
X125950554Y-86359854D01*
X126329206Y-86203398D01*
X126521021Y-86011917D01*
X126877688Y-86011917D01*
X126933862Y-86242926D01*
X127240925Y-86349885D01*
X126933862Y-86477074D01*
X126877688Y-86708083D01*
X127600000Y-87430395D01*
X128322312Y-86708083D01*
X128266138Y-86477074D01*
X127959075Y-86370115D01*
X128266138Y-86242926D01*
X128322312Y-86011917D01*
X127600000Y-85289605D01*
X126877688Y-86011917D01*
X126521021Y-86011917D01*
X126692124Y-85841113D01*
X126695990Y-85831803D01*
X126698083Y-85832312D01*
X127420395Y-85110000D01*
X127406253Y-85095858D01*
X127585858Y-84916253D01*
X127600000Y-84930395D01*
X127614143Y-84916253D01*
X127793748Y-85095858D01*
G36*
X131793748Y-85095858D02*
X131779605Y-85110000D01*
X132501917Y-85832312D01*
X132503586Y-85831906D01*
X132506602Y-85839206D01*
X132868887Y-86202124D01*
X133249446Y-86360146D01*
X132870794Y-86516602D01*
X132507876Y-86878887D01*
X132504010Y-86888197D01*
X132501917Y-86887688D01*
X131779605Y-87610000D01*
X131793748Y-87624143D01*
X131614143Y-87803748D01*
X131600000Y-87789605D01*
X131585858Y-87803748D01*
X131406253Y-87624143D01*
X131420395Y-87610000D01*
X130698083Y-86887688D01*
X130696414Y-86888094D01*
X130693398Y-86880794D01*
X130360000Y-86546813D01*
X130360000Y-86172658D01*
X130521021Y-86011917D01*
X130877688Y-86011917D01*
X130933862Y-86242926D01*
X131240925Y-86349885D01*
X130933862Y-86477074D01*
X130877688Y-86708083D01*
X131600000Y-87430395D01*
X132322312Y-86708083D01*
X132266138Y-86477074D01*
X131959075Y-86370115D01*
X132266138Y-86242926D01*
X132322312Y-86011917D01*
X131600000Y-85289605D01*
X130877688Y-86011917D01*
X130521021Y-86011917D01*
X130692124Y-85841113D01*
X130695990Y-85831803D01*
X130698083Y-85832312D01*
X131420395Y-85110000D01*
X131406253Y-85095858D01*
X131585858Y-84916253D01*
X131600000Y-84930395D01*
X131614143Y-84916253D01*
X131793748Y-85095858D01*
X131793748Y-85095858D01*
G37*
X131793748Y-85095858D02*
X131779605Y-85110000D01*
X132501917Y-85832312D01*
X132503586Y-85831906D01*
X132506602Y-85839206D01*
X132868887Y-86202124D01*
X133249446Y-86360146D01*
X132870794Y-86516602D01*
X132507876Y-86878887D01*
X132504010Y-86888197D01*
X132501917Y-86887688D01*
X131779605Y-87610000D01*
X131793748Y-87624143D01*
X131614143Y-87803748D01*
X131600000Y-87789605D01*
X131585858Y-87803748D01*
X131406253Y-87624143D01*
X131420395Y-87610000D01*
X130698083Y-86887688D01*
X130696414Y-86888094D01*
X130693398Y-86880794D01*
X130360000Y-86546813D01*
X130360000Y-86172658D01*
X130521021Y-86011917D01*
X130877688Y-86011917D01*
X130933862Y-86242926D01*
X131240925Y-86349885D01*
X130933862Y-86477074D01*
X130877688Y-86708083D01*
X131600000Y-87430395D01*
X132322312Y-86708083D01*
X132266138Y-86477074D01*
X131959075Y-86370115D01*
X132266138Y-86242926D01*
X132322312Y-86011917D01*
X131600000Y-85289605D01*
X130877688Y-86011917D01*
X130521021Y-86011917D01*
X130692124Y-85841113D01*
X130695990Y-85831803D01*
X130698083Y-85832312D01*
X131420395Y-85110000D01*
X131406253Y-85095858D01*
X131585858Y-84916253D01*
X131600000Y-84930395D01*
X131614143Y-84916253D01*
X131793748Y-85095858D01*
G36*
X139793748Y-85095858D02*
X139779605Y-85110000D01*
X140501917Y-85832312D01*
X140503586Y-85831906D01*
X140506602Y-85839206D01*
X140868887Y-86202124D01*
X141055903Y-86279780D01*
X141062599Y-86289801D01*
X141167007Y-86394209D01*
X140870794Y-86516602D01*
X140599845Y-86787078D01*
X140331113Y-86517876D01*
X139967181Y-86366758D01*
X140266138Y-86242926D01*
X140322312Y-86011917D01*
X139600000Y-85289605D01*
X138877688Y-86011917D01*
X138933862Y-86242926D01*
X139259024Y-86356189D01*
X138870794Y-86516602D01*
X138599845Y-86787078D01*
X138331113Y-86517876D01*
X137950554Y-86359854D01*
X138329206Y-86203398D01*
X138692124Y-85841113D01*
X138695990Y-85831803D01*
X138698083Y-85832312D01*
X139420395Y-85110000D01*
X139406253Y-85095858D01*
X139585858Y-84916253D01*
X139600000Y-84930395D01*
X139614143Y-84916253D01*
X139793748Y-85095858D01*
X139793748Y-85095858D01*
G37*
X139793748Y-85095858D02*
X139779605Y-85110000D01*
X140501917Y-85832312D01*
X140503586Y-85831906D01*
X140506602Y-85839206D01*
X140868887Y-86202124D01*
X141055903Y-86279780D01*
X141062599Y-86289801D01*
X141167007Y-86394209D01*
X140870794Y-86516602D01*
X140599845Y-86787078D01*
X140331113Y-86517876D01*
X139967181Y-86366758D01*
X140266138Y-86242926D01*
X140322312Y-86011917D01*
X139600000Y-85289605D01*
X138877688Y-86011917D01*
X138933862Y-86242926D01*
X139259024Y-86356189D01*
X138870794Y-86516602D01*
X138599845Y-86787078D01*
X138331113Y-86517876D01*
X137950554Y-86359854D01*
X138329206Y-86203398D01*
X138692124Y-85841113D01*
X138695990Y-85831803D01*
X138698083Y-85832312D01*
X139420395Y-85110000D01*
X139406253Y-85095858D01*
X139585858Y-84916253D01*
X139600000Y-84930395D01*
X139614143Y-84916253D01*
X139793748Y-85095858D01*
G36*
X123793748Y-85095858D02*
X123779605Y-85110000D01*
X124501917Y-85832312D01*
X124503586Y-85831906D01*
X124506602Y-85839206D01*
X124868887Y-86202124D01*
X125249446Y-86360146D01*
X124870794Y-86516602D01*
X124599845Y-86787078D01*
X124331113Y-86517876D01*
X123967181Y-86366758D01*
X124266138Y-86242926D01*
X124322312Y-86011917D01*
X123600000Y-85289605D01*
X123585858Y-85303748D01*
X123406253Y-85124143D01*
X123420395Y-85110000D01*
X123406253Y-85095858D01*
X123585858Y-84916253D01*
X123600000Y-84930395D01*
X123614143Y-84916253D01*
X123793748Y-85095858D01*
X123793748Y-85095858D01*
G37*
X123793748Y-85095858D02*
X123779605Y-85110000D01*
X124501917Y-85832312D01*
X124503586Y-85831906D01*
X124506602Y-85839206D01*
X124868887Y-86202124D01*
X125249446Y-86360146D01*
X124870794Y-86516602D01*
X124599845Y-86787078D01*
X124331113Y-86517876D01*
X123967181Y-86366758D01*
X124266138Y-86242926D01*
X124322312Y-86011917D01*
X123600000Y-85289605D01*
X123585858Y-85303748D01*
X123406253Y-85124143D01*
X123420395Y-85110000D01*
X123406253Y-85095858D01*
X123585858Y-84916253D01*
X123600000Y-84930395D01*
X123614143Y-84916253D01*
X123793748Y-85095858D01*
G36*
X117793748Y-85095858D02*
X117779605Y-85110000D01*
X118501917Y-85832312D01*
X118503586Y-85831906D01*
X118506602Y-85839206D01*
X118868887Y-86202124D01*
X119249446Y-86360146D01*
X118870794Y-86516602D01*
X118599845Y-86787078D01*
X118331113Y-86517876D01*
X117967181Y-86366758D01*
X118266138Y-86242926D01*
X118322312Y-86011917D01*
X117600000Y-85289605D01*
X116877688Y-86011917D01*
X116933862Y-86242926D01*
X117259024Y-86356189D01*
X116870794Y-86516602D01*
X116599845Y-86787078D01*
X116331113Y-86517876D01*
X115950554Y-86359854D01*
X116329206Y-86203398D01*
X116692124Y-85841113D01*
X116695990Y-85831803D01*
X116698083Y-85832312D01*
X117420395Y-85110000D01*
X117406253Y-85095858D01*
X117585858Y-84916253D01*
X117600000Y-84930395D01*
X117614143Y-84916253D01*
X117793748Y-85095858D01*
X117793748Y-85095858D01*
G37*
X117793748Y-85095858D02*
X117779605Y-85110000D01*
X118501917Y-85832312D01*
X118503586Y-85831906D01*
X118506602Y-85839206D01*
X118868887Y-86202124D01*
X119249446Y-86360146D01*
X118870794Y-86516602D01*
X118599845Y-86787078D01*
X118331113Y-86517876D01*
X117967181Y-86366758D01*
X118266138Y-86242926D01*
X118322312Y-86011917D01*
X117600000Y-85289605D01*
X116877688Y-86011917D01*
X116933862Y-86242926D01*
X117259024Y-86356189D01*
X116870794Y-86516602D01*
X116599845Y-86787078D01*
X116331113Y-86517876D01*
X115950554Y-86359854D01*
X116329206Y-86203398D01*
X116692124Y-85841113D01*
X116695990Y-85831803D01*
X116698083Y-85832312D01*
X117420395Y-85110000D01*
X117406253Y-85095858D01*
X117585858Y-84916253D01*
X117600000Y-84930395D01*
X117614143Y-84916253D01*
X117793748Y-85095858D01*
G36*
X142793748Y-83095858D02*
X142779605Y-83110000D01*
X143501917Y-83832312D01*
X143722799Y-83778601D01*
X144494279Y-84550081D01*
X144041548Y-84549686D01*
X143376057Y-84824662D01*
X142888825Y-85311044D01*
X142889223Y-84854727D01*
X142699437Y-84395409D01*
X142930069Y-84382130D01*
X143266138Y-84242926D01*
X143322312Y-84011917D01*
X142600000Y-83289605D01*
X142585858Y-83303748D01*
X142406253Y-83124143D01*
X142420395Y-83110000D01*
X142406253Y-83095858D01*
X142585858Y-82916253D01*
X142600000Y-82930395D01*
X142614143Y-82916253D01*
X142793748Y-83095858D01*
X142793748Y-83095858D01*
G37*
X142793748Y-83095858D02*
X142779605Y-83110000D01*
X143501917Y-83832312D01*
X143722799Y-83778601D01*
X144494279Y-84550081D01*
X144041548Y-84549686D01*
X143376057Y-84824662D01*
X142888825Y-85311044D01*
X142889223Y-84854727D01*
X142699437Y-84395409D01*
X142930069Y-84382130D01*
X143266138Y-84242926D01*
X143322312Y-84011917D01*
X142600000Y-83289605D01*
X142585858Y-83303748D01*
X142406253Y-83124143D01*
X142420395Y-83110000D01*
X142406253Y-83095858D01*
X142585858Y-82916253D01*
X142600000Y-82930395D01*
X142614143Y-82916253D01*
X142793748Y-83095858D01*
G36*
X113793748Y-85095858D02*
X113779605Y-85110000D01*
X113793748Y-85124143D01*
X113614143Y-85303748D01*
X113600000Y-85289605D01*
X113585858Y-85303748D01*
X113406253Y-85124143D01*
X113420395Y-85110000D01*
X113406253Y-85095858D01*
X113585858Y-84916253D01*
X113600000Y-84930395D01*
X113614143Y-84916253D01*
X113793748Y-85095858D01*
X113793748Y-85095858D01*
G37*
X113793748Y-85095858D02*
X113779605Y-85110000D01*
X113793748Y-85124143D01*
X113614143Y-85303748D01*
X113600000Y-85289605D01*
X113585858Y-85303748D01*
X113406253Y-85124143D01*
X113420395Y-85110000D01*
X113406253Y-85095858D01*
X113585858Y-84916253D01*
X113600000Y-84930395D01*
X113614143Y-84916253D01*
X113793748Y-85095858D01*
G36*
X109727000Y-84983000D02*
X109747000Y-84983000D01*
X109747000Y-85237000D01*
X109727000Y-85237000D01*
X109727000Y-85257000D01*
X109473000Y-85257000D01*
X109473000Y-85237000D01*
X109453000Y-85237000D01*
X109453000Y-84983000D01*
X109473000Y-84983000D01*
X109473000Y-84963000D01*
X109727000Y-84963000D01*
X109727000Y-84983000D01*
X109727000Y-84983000D01*
G37*
X109727000Y-84983000D02*
X109747000Y-84983000D01*
X109747000Y-85237000D01*
X109727000Y-85237000D01*
X109727000Y-85257000D01*
X109473000Y-85257000D01*
X109473000Y-85237000D01*
X109453000Y-85237000D01*
X109453000Y-84983000D01*
X109473000Y-84983000D01*
X109473000Y-84963000D01*
X109727000Y-84963000D01*
X109727000Y-84983000D01*
G36*
X142393748Y-73645858D02*
X142379605Y-73660000D01*
X142393748Y-73674142D01*
X142214142Y-73853748D01*
X142200000Y-73839605D01*
X142185858Y-73853748D01*
X142006253Y-73674143D01*
X142020395Y-73660000D01*
X142006253Y-73645858D01*
X142185858Y-73466252D01*
X142200000Y-73480395D01*
X142214142Y-73466252D01*
X142393748Y-73645858D01*
X142393748Y-73645858D01*
G37*
X142393748Y-73645858D02*
X142379605Y-73660000D01*
X142393748Y-73674142D01*
X142214142Y-73853748D01*
X142200000Y-73839605D01*
X142185858Y-73853748D01*
X142006253Y-73674143D01*
X142020395Y-73660000D01*
X142006253Y-73645858D01*
X142185858Y-73466252D01*
X142200000Y-73480395D01*
X142214142Y-73466252D01*
X142393748Y-73645858D01*
G36*
X127793748Y-59695858D02*
X127779605Y-59710000D01*
X128501917Y-60432312D01*
X128503586Y-60431906D01*
X128506602Y-60439206D01*
X128840000Y-60773187D01*
X128840000Y-61147342D01*
X128507876Y-61478887D01*
X128504010Y-61488197D01*
X128501917Y-61487688D01*
X127779605Y-62210000D01*
X127793748Y-62224143D01*
X127614143Y-62403748D01*
X127600000Y-62389605D01*
X127585858Y-62403748D01*
X127406253Y-62224143D01*
X127420395Y-62210000D01*
X126698083Y-61487688D01*
X126696414Y-61488094D01*
X126693398Y-61480794D01*
X126331113Y-61117876D01*
X125950554Y-60959854D01*
X126329206Y-60803398D01*
X126521021Y-60611917D01*
X126877688Y-60611917D01*
X126933862Y-60842926D01*
X127240925Y-60949885D01*
X126933862Y-61077074D01*
X126877688Y-61308083D01*
X127600000Y-62030395D01*
X128322312Y-61308083D01*
X128266138Y-61077074D01*
X127959075Y-60970115D01*
X128266138Y-60842926D01*
X128322312Y-60611917D01*
X127600000Y-59889605D01*
X126877688Y-60611917D01*
X126521021Y-60611917D01*
X126692124Y-60441113D01*
X126695990Y-60431803D01*
X126698083Y-60432312D01*
X127420395Y-59710000D01*
X127406253Y-59695858D01*
X127585858Y-59516253D01*
X127600000Y-59530395D01*
X127614143Y-59516253D01*
X127793748Y-59695858D01*
X127793748Y-59695858D01*
G37*
X127793748Y-59695858D02*
X127779605Y-59710000D01*
X128501917Y-60432312D01*
X128503586Y-60431906D01*
X128506602Y-60439206D01*
X128840000Y-60773187D01*
X128840000Y-61147342D01*
X128507876Y-61478887D01*
X128504010Y-61488197D01*
X128501917Y-61487688D01*
X127779605Y-62210000D01*
X127793748Y-62224143D01*
X127614143Y-62403748D01*
X127600000Y-62389605D01*
X127585858Y-62403748D01*
X127406253Y-62224143D01*
X127420395Y-62210000D01*
X126698083Y-61487688D01*
X126696414Y-61488094D01*
X126693398Y-61480794D01*
X126331113Y-61117876D01*
X125950554Y-60959854D01*
X126329206Y-60803398D01*
X126521021Y-60611917D01*
X126877688Y-60611917D01*
X126933862Y-60842926D01*
X127240925Y-60949885D01*
X126933862Y-61077074D01*
X126877688Y-61308083D01*
X127600000Y-62030395D01*
X128322312Y-61308083D01*
X128266138Y-61077074D01*
X127959075Y-60970115D01*
X128266138Y-60842926D01*
X128322312Y-60611917D01*
X127600000Y-59889605D01*
X126877688Y-60611917D01*
X126521021Y-60611917D01*
X126692124Y-60441113D01*
X126695990Y-60431803D01*
X126698083Y-60432312D01*
X127420395Y-59710000D01*
X127406253Y-59695858D01*
X127585858Y-59516253D01*
X127600000Y-59530395D01*
X127614143Y-59516253D01*
X127793748Y-59695858D01*
G36*
X131793748Y-59695858D02*
X131779605Y-59710000D01*
X132501917Y-60432312D01*
X132503586Y-60431906D01*
X132506602Y-60439206D01*
X132840000Y-60773187D01*
X132840000Y-61147342D01*
X132507876Y-61478887D01*
X132504010Y-61488197D01*
X132501917Y-61487688D01*
X131779605Y-62210000D01*
X131793748Y-62224143D01*
X131614143Y-62403748D01*
X131600000Y-62389605D01*
X131585858Y-62403748D01*
X131406253Y-62224143D01*
X131420395Y-62210000D01*
X130698083Y-61487688D01*
X130696414Y-61488094D01*
X130693398Y-61480794D01*
X130360000Y-61146813D01*
X130360000Y-60772658D01*
X130521021Y-60611917D01*
X130877688Y-60611917D01*
X130933862Y-60842926D01*
X131240925Y-60949885D01*
X130933862Y-61077074D01*
X130877688Y-61308083D01*
X131600000Y-62030395D01*
X132322312Y-61308083D01*
X132266138Y-61077074D01*
X131959075Y-60970115D01*
X132266138Y-60842926D01*
X132322312Y-60611917D01*
X131600000Y-59889605D01*
X130877688Y-60611917D01*
X130521021Y-60611917D01*
X130692124Y-60441113D01*
X130695990Y-60431803D01*
X130698083Y-60432312D01*
X131420395Y-59710000D01*
X131406253Y-59695858D01*
X131585858Y-59516253D01*
X131600000Y-59530395D01*
X131614143Y-59516253D01*
X131793748Y-59695858D01*
X131793748Y-59695858D01*
G37*
X131793748Y-59695858D02*
X131779605Y-59710000D01*
X132501917Y-60432312D01*
X132503586Y-60431906D01*
X132506602Y-60439206D01*
X132840000Y-60773187D01*
X132840000Y-61147342D01*
X132507876Y-61478887D01*
X132504010Y-61488197D01*
X132501917Y-61487688D01*
X131779605Y-62210000D01*
X131793748Y-62224143D01*
X131614143Y-62403748D01*
X131600000Y-62389605D01*
X131585858Y-62403748D01*
X131406253Y-62224143D01*
X131420395Y-62210000D01*
X130698083Y-61487688D01*
X130696414Y-61488094D01*
X130693398Y-61480794D01*
X130360000Y-61146813D01*
X130360000Y-60772658D01*
X130521021Y-60611917D01*
X130877688Y-60611917D01*
X130933862Y-60842926D01*
X131240925Y-60949885D01*
X130933862Y-61077074D01*
X130877688Y-61308083D01*
X131600000Y-62030395D01*
X132322312Y-61308083D01*
X132266138Y-61077074D01*
X131959075Y-60970115D01*
X132266138Y-60842926D01*
X132322312Y-60611917D01*
X131600000Y-59889605D01*
X130877688Y-60611917D01*
X130521021Y-60611917D01*
X130692124Y-60441113D01*
X130695990Y-60431803D01*
X130698083Y-60432312D01*
X131420395Y-59710000D01*
X131406253Y-59695858D01*
X131585858Y-59516253D01*
X131600000Y-59530395D01*
X131614143Y-59516253D01*
X131793748Y-59695858D01*
G36*
X135793748Y-59695858D02*
X135779605Y-59710000D01*
X136501917Y-60432312D01*
X136503586Y-60431906D01*
X136506602Y-60439206D01*
X136868887Y-60802124D01*
X137249446Y-60960146D01*
X136870794Y-61116602D01*
X136507876Y-61478887D01*
X136504010Y-61488197D01*
X136501917Y-61487688D01*
X135779605Y-62210000D01*
X135793748Y-62224143D01*
X135614143Y-62403748D01*
X135600000Y-62389605D01*
X135585858Y-62403748D01*
X135406253Y-62224143D01*
X135420395Y-62210000D01*
X134698083Y-61487688D01*
X134696414Y-61488094D01*
X134693398Y-61480794D01*
X134360000Y-61146813D01*
X134360000Y-60772658D01*
X134521021Y-60611917D01*
X134877688Y-60611917D01*
X134933862Y-60842926D01*
X135240925Y-60949885D01*
X134933862Y-61077074D01*
X134877688Y-61308083D01*
X135600000Y-62030395D01*
X136322312Y-61308083D01*
X136266138Y-61077074D01*
X135959075Y-60970115D01*
X136266138Y-60842926D01*
X136322312Y-60611917D01*
X135600000Y-59889605D01*
X134877688Y-60611917D01*
X134521021Y-60611917D01*
X134692124Y-60441113D01*
X134695990Y-60431803D01*
X134698083Y-60432312D01*
X135420395Y-59710000D01*
X135406253Y-59695858D01*
X135585858Y-59516253D01*
X135600000Y-59530395D01*
X135614143Y-59516253D01*
X135793748Y-59695858D01*
X135793748Y-59695858D01*
G37*
X135793748Y-59695858D02*
X135779605Y-59710000D01*
X136501917Y-60432312D01*
X136503586Y-60431906D01*
X136506602Y-60439206D01*
X136868887Y-60802124D01*
X137249446Y-60960146D01*
X136870794Y-61116602D01*
X136507876Y-61478887D01*
X136504010Y-61488197D01*
X136501917Y-61487688D01*
X135779605Y-62210000D01*
X135793748Y-62224143D01*
X135614143Y-62403748D01*
X135600000Y-62389605D01*
X135585858Y-62403748D01*
X135406253Y-62224143D01*
X135420395Y-62210000D01*
X134698083Y-61487688D01*
X134696414Y-61488094D01*
X134693398Y-61480794D01*
X134360000Y-61146813D01*
X134360000Y-60772658D01*
X134521021Y-60611917D01*
X134877688Y-60611917D01*
X134933862Y-60842926D01*
X135240925Y-60949885D01*
X134933862Y-61077074D01*
X134877688Y-61308083D01*
X135600000Y-62030395D01*
X136322312Y-61308083D01*
X136266138Y-61077074D01*
X135959075Y-60970115D01*
X136266138Y-60842926D01*
X136322312Y-60611917D01*
X135600000Y-59889605D01*
X134877688Y-60611917D01*
X134521021Y-60611917D01*
X134692124Y-60441113D01*
X134695990Y-60431803D01*
X134698083Y-60432312D01*
X135420395Y-59710000D01*
X135406253Y-59695858D01*
X135585858Y-59516253D01*
X135600000Y-59530395D01*
X135614143Y-59516253D01*
X135793748Y-59695858D01*
G36*
X123793748Y-59695858D02*
X123779605Y-59710000D01*
X124501917Y-60432312D01*
X124503586Y-60431906D01*
X124506602Y-60439206D01*
X124868887Y-60802124D01*
X125249446Y-60960146D01*
X124870794Y-61116602D01*
X124599845Y-61387078D01*
X124331113Y-61117876D01*
X123967181Y-60966758D01*
X124266138Y-60842926D01*
X124322312Y-60611917D01*
X123600000Y-59889605D01*
X123585858Y-59903748D01*
X123406253Y-59724143D01*
X123420395Y-59710000D01*
X123406253Y-59695858D01*
X123585858Y-59516253D01*
X123600000Y-59530395D01*
X123614143Y-59516253D01*
X123793748Y-59695858D01*
X123793748Y-59695858D01*
G37*
X123793748Y-59695858D02*
X123779605Y-59710000D01*
X124501917Y-60432312D01*
X124503586Y-60431906D01*
X124506602Y-60439206D01*
X124868887Y-60802124D01*
X125249446Y-60960146D01*
X124870794Y-61116602D01*
X124599845Y-61387078D01*
X124331113Y-61117876D01*
X123967181Y-60966758D01*
X124266138Y-60842926D01*
X124322312Y-60611917D01*
X123600000Y-59889605D01*
X123585858Y-59903748D01*
X123406253Y-59724143D01*
X123420395Y-59710000D01*
X123406253Y-59695858D01*
X123585858Y-59516253D01*
X123600000Y-59530395D01*
X123614143Y-59516253D01*
X123793748Y-59695858D01*
G36*
X117793748Y-59695858D02*
X117779605Y-59710000D01*
X118501917Y-60432312D01*
X118503586Y-60431906D01*
X118506602Y-60439206D01*
X118868887Y-60802124D01*
X119249446Y-60960146D01*
X118870794Y-61116602D01*
X118599845Y-61387078D01*
X118331113Y-61117876D01*
X117967181Y-60966758D01*
X118266138Y-60842926D01*
X118322312Y-60611917D01*
X117600000Y-59889605D01*
X117585858Y-59903748D01*
X117406253Y-59724143D01*
X117420395Y-59710000D01*
X117406253Y-59695858D01*
X117585858Y-59516253D01*
X117600000Y-59530395D01*
X117614143Y-59516253D01*
X117793748Y-59695858D01*
X117793748Y-59695858D01*
G37*
X117793748Y-59695858D02*
X117779605Y-59710000D01*
X118501917Y-60432312D01*
X118503586Y-60431906D01*
X118506602Y-60439206D01*
X118868887Y-60802124D01*
X119249446Y-60960146D01*
X118870794Y-61116602D01*
X118599845Y-61387078D01*
X118331113Y-61117876D01*
X117967181Y-60966758D01*
X118266138Y-60842926D01*
X118322312Y-60611917D01*
X117600000Y-59889605D01*
X117585858Y-59903748D01*
X117406253Y-59724143D01*
X117420395Y-59710000D01*
X117406253Y-59695858D01*
X117585858Y-59516253D01*
X117600000Y-59530395D01*
X117614143Y-59516253D01*
X117793748Y-59695858D01*
G36*
X139793748Y-59695858D02*
X139779605Y-59710000D01*
X139793748Y-59724143D01*
X139614143Y-59903748D01*
X139600000Y-59889605D01*
X139585858Y-59903748D01*
X139406253Y-59724143D01*
X139420395Y-59710000D01*
X139406253Y-59695858D01*
X139585858Y-59516253D01*
X139600000Y-59530395D01*
X139614143Y-59516253D01*
X139793748Y-59695858D01*
X139793748Y-59695858D01*
G37*
X139793748Y-59695858D02*
X139779605Y-59710000D01*
X139793748Y-59724143D01*
X139614143Y-59903748D01*
X139600000Y-59889605D01*
X139585858Y-59903748D01*
X139406253Y-59724143D01*
X139420395Y-59710000D01*
X139406253Y-59695858D01*
X139585858Y-59516253D01*
X139600000Y-59530395D01*
X139614143Y-59516253D01*
X139793748Y-59695858D01*
G36*
X113793748Y-59695858D02*
X113779605Y-59710000D01*
X113793748Y-59724143D01*
X113614143Y-59903748D01*
X113600000Y-59889605D01*
X113585858Y-59903748D01*
X113406253Y-59724143D01*
X113420395Y-59710000D01*
X113406253Y-59695858D01*
X113585858Y-59516253D01*
X113600000Y-59530395D01*
X113614143Y-59516253D01*
X113793748Y-59695858D01*
X113793748Y-59695858D01*
G37*
X113793748Y-59695858D02*
X113779605Y-59710000D01*
X113793748Y-59724143D01*
X113614143Y-59903748D01*
X113600000Y-59889605D01*
X113585858Y-59903748D01*
X113406253Y-59724143D01*
X113420395Y-59710000D01*
X113406253Y-59695858D01*
X113585858Y-59516253D01*
X113600000Y-59530395D01*
X113614143Y-59516253D01*
X113793748Y-59695858D01*
G36*
X109727000Y-59583000D02*
X109747000Y-59583000D01*
X109747000Y-59837000D01*
X109727000Y-59837000D01*
X109727000Y-59857000D01*
X109473000Y-59857000D01*
X109473000Y-59837000D01*
X109453000Y-59837000D01*
X109453000Y-59583000D01*
X109473000Y-59583000D01*
X109473000Y-59563000D01*
X109727000Y-59563000D01*
X109727000Y-59583000D01*
X109727000Y-59583000D01*
G37*
X109727000Y-59583000D02*
X109747000Y-59583000D01*
X109747000Y-59837000D01*
X109727000Y-59837000D01*
X109727000Y-59857000D01*
X109473000Y-59857000D01*
X109473000Y-59837000D01*
X109453000Y-59837000D01*
X109453000Y-59583000D01*
X109473000Y-59583000D01*
X109473000Y-59563000D01*
X109727000Y-59563000D01*
X109727000Y-59583000D01*
G36*
X142793748Y-57695858D02*
X142779605Y-57710000D01*
X142793748Y-57724143D01*
X142614143Y-57903748D01*
X142600000Y-57889605D01*
X142585858Y-57903748D01*
X142406253Y-57724143D01*
X142420395Y-57710000D01*
X142406253Y-57695858D01*
X142585858Y-57516253D01*
X142600000Y-57530395D01*
X142614143Y-57516253D01*
X142793748Y-57695858D01*
X142793748Y-57695858D01*
G37*
X142793748Y-57695858D02*
X142779605Y-57710000D01*
X142793748Y-57724143D01*
X142614143Y-57903748D01*
X142600000Y-57889605D01*
X142585858Y-57903748D01*
X142406253Y-57724143D01*
X142420395Y-57710000D01*
X142406253Y-57695858D01*
X142585858Y-57516253D01*
X142600000Y-57530395D01*
X142614143Y-57516253D01*
X142793748Y-57695858D01*
G36*
X143486767Y-47585431D02*
X143453864Y-47505995D01*
X143207745Y-47431861D01*
X142379605Y-48260000D01*
X142393748Y-48274142D01*
X142214142Y-48453748D01*
X142200000Y-48439605D01*
X141856667Y-48782939D01*
X141745957Y-48828683D01*
X141482708Y-49091473D01*
X141436250Y-49203356D01*
X141371861Y-49267745D01*
X141387691Y-49320299D01*
X141340062Y-49435001D01*
X141339973Y-49537100D01*
X140931223Y-49537100D01*
X140951441Y-49524090D01*
X141096431Y-49311890D01*
X141144646Y-49073799D01*
X141192255Y-49088139D01*
X142020395Y-48260000D01*
X142006252Y-48245858D01*
X142185858Y-48066252D01*
X142200000Y-48080395D01*
X143028139Y-47252255D01*
X142954005Y-47006136D01*
X142867617Y-46975085D01*
X144556302Y-45286400D01*
X145785798Y-45286400D01*
X143486767Y-47585431D01*
X143486767Y-47585431D01*
G37*
X143486767Y-47585431D02*
X143453864Y-47505995D01*
X143207745Y-47431861D01*
X142379605Y-48260000D01*
X142393748Y-48274142D01*
X142214142Y-48453748D01*
X142200000Y-48439605D01*
X141856667Y-48782939D01*
X141745957Y-48828683D01*
X141482708Y-49091473D01*
X141436250Y-49203356D01*
X141371861Y-49267745D01*
X141387691Y-49320299D01*
X141340062Y-49435001D01*
X141339973Y-49537100D01*
X140931223Y-49537100D01*
X140951441Y-49524090D01*
X141096431Y-49311890D01*
X141144646Y-49073799D01*
X141192255Y-49088139D01*
X142020395Y-48260000D01*
X142006252Y-48245858D01*
X142185858Y-48066252D01*
X142200000Y-48080395D01*
X143028139Y-47252255D01*
X142954005Y-47006136D01*
X142867617Y-46975085D01*
X144556302Y-45286400D01*
X145785798Y-45286400D01*
X143486767Y-47585431D01*
G36*
X127793748Y-36795858D02*
X127779605Y-36810000D01*
X127793748Y-36824143D01*
X127614143Y-37003748D01*
X127600000Y-36989605D01*
X127585858Y-37003748D01*
X127406253Y-36824143D01*
X127420395Y-36810000D01*
X127406253Y-36795858D01*
X127585858Y-36616253D01*
X127600000Y-36630395D01*
X127614143Y-36616253D01*
X127793748Y-36795858D01*
X127793748Y-36795858D01*
G37*
X127793748Y-36795858D02*
X127779605Y-36810000D01*
X127793748Y-36824143D01*
X127614143Y-37003748D01*
X127600000Y-36989605D01*
X127585858Y-37003748D01*
X127406253Y-36824143D01*
X127420395Y-36810000D01*
X127406253Y-36795858D01*
X127585858Y-36616253D01*
X127600000Y-36630395D01*
X127614143Y-36616253D01*
X127793748Y-36795858D01*
G36*
X135793748Y-34295858D02*
X135779605Y-34310000D01*
X136501917Y-35032312D01*
X136503586Y-35031906D01*
X136506602Y-35039206D01*
X136868887Y-35402124D01*
X137249446Y-35560146D01*
X136870794Y-35716602D01*
X136507876Y-36078887D01*
X136504010Y-36088197D01*
X136501917Y-36087688D01*
X135779605Y-36810000D01*
X135793748Y-36824143D01*
X135614143Y-37003748D01*
X135600000Y-36989605D01*
X135585858Y-37003748D01*
X135406253Y-36824143D01*
X135420395Y-36810000D01*
X134698083Y-36087688D01*
X134696414Y-36088094D01*
X134693398Y-36080794D01*
X134360000Y-35746813D01*
X134360000Y-35372658D01*
X134521021Y-35211917D01*
X134877688Y-35211917D01*
X134933862Y-35442926D01*
X135240925Y-35549885D01*
X134933862Y-35677074D01*
X134877688Y-35908083D01*
X135600000Y-36630395D01*
X136322312Y-35908083D01*
X136266138Y-35677074D01*
X135959075Y-35570115D01*
X136266138Y-35442926D01*
X136322312Y-35211917D01*
X135600000Y-34489605D01*
X134877688Y-35211917D01*
X134521021Y-35211917D01*
X134692124Y-35041113D01*
X134695990Y-35031803D01*
X134698083Y-35032312D01*
X135420395Y-34310000D01*
X135406253Y-34295858D01*
X135585858Y-34116253D01*
X135600000Y-34130395D01*
X135614143Y-34116253D01*
X135793748Y-34295858D01*
X135793748Y-34295858D01*
G37*
X135793748Y-34295858D02*
X135779605Y-34310000D01*
X136501917Y-35032312D01*
X136503586Y-35031906D01*
X136506602Y-35039206D01*
X136868887Y-35402124D01*
X137249446Y-35560146D01*
X136870794Y-35716602D01*
X136507876Y-36078887D01*
X136504010Y-36088197D01*
X136501917Y-36087688D01*
X135779605Y-36810000D01*
X135793748Y-36824143D01*
X135614143Y-37003748D01*
X135600000Y-36989605D01*
X135585858Y-37003748D01*
X135406253Y-36824143D01*
X135420395Y-36810000D01*
X134698083Y-36087688D01*
X134696414Y-36088094D01*
X134693398Y-36080794D01*
X134360000Y-35746813D01*
X134360000Y-35372658D01*
X134521021Y-35211917D01*
X134877688Y-35211917D01*
X134933862Y-35442926D01*
X135240925Y-35549885D01*
X134933862Y-35677074D01*
X134877688Y-35908083D01*
X135600000Y-36630395D01*
X136322312Y-35908083D01*
X136266138Y-35677074D01*
X135959075Y-35570115D01*
X136266138Y-35442926D01*
X136322312Y-35211917D01*
X135600000Y-34489605D01*
X134877688Y-35211917D01*
X134521021Y-35211917D01*
X134692124Y-35041113D01*
X134695990Y-35031803D01*
X134698083Y-35032312D01*
X135420395Y-34310000D01*
X135406253Y-34295858D01*
X135585858Y-34116253D01*
X135600000Y-34130395D01*
X135614143Y-34116253D01*
X135793748Y-34295858D01*
G36*
X131793748Y-36795858D02*
X131779605Y-36810000D01*
X131793748Y-36824143D01*
X131614143Y-37003748D01*
X131600000Y-36989605D01*
X131585858Y-37003748D01*
X131406253Y-36824143D01*
X131420395Y-36810000D01*
X131406253Y-36795858D01*
X131585858Y-36616253D01*
X131600000Y-36630395D01*
X131614143Y-36616253D01*
X131793748Y-36795858D01*
X131793748Y-36795858D01*
G37*
X131793748Y-36795858D02*
X131779605Y-36810000D01*
X131793748Y-36824143D01*
X131614143Y-37003748D01*
X131600000Y-36989605D01*
X131585858Y-37003748D01*
X131406253Y-36824143D01*
X131420395Y-36810000D01*
X131406253Y-36795858D01*
X131585858Y-36616253D01*
X131600000Y-36630395D01*
X131614143Y-36616253D01*
X131793748Y-36795858D01*
G36*
X113793748Y-34295858D02*
X113779605Y-34310000D01*
X114501917Y-35032312D01*
X114503586Y-35031906D01*
X114506602Y-35039206D01*
X114868887Y-35402124D01*
X115249446Y-35560146D01*
X114870794Y-35716602D01*
X114599845Y-35987078D01*
X114331113Y-35717876D01*
X113967181Y-35566758D01*
X114266138Y-35442926D01*
X114322312Y-35211917D01*
X113600000Y-34489605D01*
X112877688Y-35211917D01*
X112933862Y-35442926D01*
X113259024Y-35556189D01*
X112870794Y-35716602D01*
X112599845Y-35987078D01*
X112331113Y-35717876D01*
X111950554Y-35559854D01*
X112329206Y-35403398D01*
X112692124Y-35041113D01*
X112695990Y-35031803D01*
X112698083Y-35032312D01*
X113420395Y-34310000D01*
X113406253Y-34295858D01*
X113585858Y-34116253D01*
X113600000Y-34130395D01*
X113614143Y-34116253D01*
X113793748Y-34295858D01*
X113793748Y-34295858D01*
G37*
X113793748Y-34295858D02*
X113779605Y-34310000D01*
X114501917Y-35032312D01*
X114503586Y-35031906D01*
X114506602Y-35039206D01*
X114868887Y-35402124D01*
X115249446Y-35560146D01*
X114870794Y-35716602D01*
X114599845Y-35987078D01*
X114331113Y-35717876D01*
X113967181Y-35566758D01*
X114266138Y-35442926D01*
X114322312Y-35211917D01*
X113600000Y-34489605D01*
X112877688Y-35211917D01*
X112933862Y-35442926D01*
X113259024Y-35556189D01*
X112870794Y-35716602D01*
X112599845Y-35987078D01*
X112331113Y-35717876D01*
X111950554Y-35559854D01*
X112329206Y-35403398D01*
X112692124Y-35041113D01*
X112695990Y-35031803D01*
X112698083Y-35032312D01*
X113420395Y-34310000D01*
X113406253Y-34295858D01*
X113585858Y-34116253D01*
X113600000Y-34130395D01*
X113614143Y-34116253D01*
X113793748Y-34295858D01*
G36*
X117793748Y-34295858D02*
X117779605Y-34310000D01*
X118501917Y-35032312D01*
X118503586Y-35031906D01*
X118506602Y-35039206D01*
X118868887Y-35402124D01*
X119249446Y-35560146D01*
X118870794Y-35716602D01*
X118599845Y-35987078D01*
X118331113Y-35717876D01*
X117967181Y-35566758D01*
X118266138Y-35442926D01*
X118322312Y-35211917D01*
X117600000Y-34489605D01*
X116877688Y-35211917D01*
X116933862Y-35442926D01*
X117259024Y-35556189D01*
X116870794Y-35716602D01*
X116599845Y-35987078D01*
X116331113Y-35717876D01*
X115950554Y-35559854D01*
X116329206Y-35403398D01*
X116692124Y-35041113D01*
X116695990Y-35031803D01*
X116698083Y-35032312D01*
X117420395Y-34310000D01*
X117406253Y-34295858D01*
X117585858Y-34116253D01*
X117600000Y-34130395D01*
X117614143Y-34116253D01*
X117793748Y-34295858D01*
X117793748Y-34295858D01*
G37*
X117793748Y-34295858D02*
X117779605Y-34310000D01*
X118501917Y-35032312D01*
X118503586Y-35031906D01*
X118506602Y-35039206D01*
X118868887Y-35402124D01*
X119249446Y-35560146D01*
X118870794Y-35716602D01*
X118599845Y-35987078D01*
X118331113Y-35717876D01*
X117967181Y-35566758D01*
X118266138Y-35442926D01*
X118322312Y-35211917D01*
X117600000Y-34489605D01*
X116877688Y-35211917D01*
X116933862Y-35442926D01*
X117259024Y-35556189D01*
X116870794Y-35716602D01*
X116599845Y-35987078D01*
X116331113Y-35717876D01*
X115950554Y-35559854D01*
X116329206Y-35403398D01*
X116692124Y-35041113D01*
X116695990Y-35031803D01*
X116698083Y-35032312D01*
X117420395Y-34310000D01*
X117406253Y-34295858D01*
X117585858Y-34116253D01*
X117600000Y-34130395D01*
X117614143Y-34116253D01*
X117793748Y-34295858D01*
G36*
X123793748Y-34295858D02*
X123779605Y-34310000D01*
X124501917Y-35032312D01*
X124503586Y-35031906D01*
X124506602Y-35039206D01*
X124868887Y-35402124D01*
X125249446Y-35560146D01*
X124870794Y-35716602D01*
X124599845Y-35987078D01*
X124331113Y-35717876D01*
X123967181Y-35566758D01*
X124266138Y-35442926D01*
X124322312Y-35211917D01*
X123600000Y-34489605D01*
X123585858Y-34503748D01*
X123406253Y-34324143D01*
X123420395Y-34310000D01*
X123406253Y-34295858D01*
X123585858Y-34116253D01*
X123600000Y-34130395D01*
X123614143Y-34116253D01*
X123793748Y-34295858D01*
X123793748Y-34295858D01*
G37*
X123793748Y-34295858D02*
X123779605Y-34310000D01*
X124501917Y-35032312D01*
X124503586Y-35031906D01*
X124506602Y-35039206D01*
X124868887Y-35402124D01*
X125249446Y-35560146D01*
X124870794Y-35716602D01*
X124599845Y-35987078D01*
X124331113Y-35717876D01*
X123967181Y-35566758D01*
X124266138Y-35442926D01*
X124322312Y-35211917D01*
X123600000Y-34489605D01*
X123585858Y-34503748D01*
X123406253Y-34324143D01*
X123420395Y-34310000D01*
X123406253Y-34295858D01*
X123585858Y-34116253D01*
X123600000Y-34130395D01*
X123614143Y-34116253D01*
X123793748Y-34295858D01*
G36*
X139793748Y-34295858D02*
X139779605Y-34310000D01*
X139793748Y-34324143D01*
X139614143Y-34503748D01*
X139600000Y-34489605D01*
X139585858Y-34503748D01*
X139406253Y-34324143D01*
X139420395Y-34310000D01*
X139406253Y-34295858D01*
X139585858Y-34116253D01*
X139600000Y-34130395D01*
X139614143Y-34116253D01*
X139793748Y-34295858D01*
X139793748Y-34295858D01*
G37*
X139793748Y-34295858D02*
X139779605Y-34310000D01*
X139793748Y-34324143D01*
X139614143Y-34503748D01*
X139600000Y-34489605D01*
X139585858Y-34503748D01*
X139406253Y-34324143D01*
X139420395Y-34310000D01*
X139406253Y-34295858D01*
X139585858Y-34116253D01*
X139600000Y-34130395D01*
X139614143Y-34116253D01*
X139793748Y-34295858D01*
G36*
X131793748Y-34295858D02*
X131779605Y-34310000D01*
X131793748Y-34324143D01*
X131614143Y-34503748D01*
X131600000Y-34489605D01*
X131585858Y-34503748D01*
X131406253Y-34324143D01*
X131420395Y-34310000D01*
X131406253Y-34295858D01*
X131585858Y-34116253D01*
X131600000Y-34130395D01*
X131614143Y-34116253D01*
X131793748Y-34295858D01*
X131793748Y-34295858D01*
G37*
X131793748Y-34295858D02*
X131779605Y-34310000D01*
X131793748Y-34324143D01*
X131614143Y-34503748D01*
X131600000Y-34489605D01*
X131585858Y-34503748D01*
X131406253Y-34324143D01*
X131420395Y-34310000D01*
X131406253Y-34295858D01*
X131585858Y-34116253D01*
X131600000Y-34130395D01*
X131614143Y-34116253D01*
X131793748Y-34295858D01*
G36*
X127793748Y-34295858D02*
X127779605Y-34310000D01*
X127793748Y-34324143D01*
X127614143Y-34503748D01*
X127600000Y-34489605D01*
X127585858Y-34503748D01*
X127406253Y-34324143D01*
X127420395Y-34310000D01*
X127406253Y-34295858D01*
X127585858Y-34116253D01*
X127600000Y-34130395D01*
X127614143Y-34116253D01*
X127793748Y-34295858D01*
X127793748Y-34295858D01*
G37*
X127793748Y-34295858D02*
X127779605Y-34310000D01*
X127793748Y-34324143D01*
X127614143Y-34503748D01*
X127600000Y-34489605D01*
X127585858Y-34503748D01*
X127406253Y-34324143D01*
X127420395Y-34310000D01*
X127406253Y-34295858D01*
X127585858Y-34116253D01*
X127600000Y-34130395D01*
X127614143Y-34116253D01*
X127793748Y-34295858D01*
G36*
X109727000Y-34183000D02*
X109747000Y-34183000D01*
X109747000Y-34437000D01*
X109727000Y-34437000D01*
X109727000Y-34457000D01*
X109473000Y-34457000D01*
X109473000Y-34437000D01*
X109453000Y-34437000D01*
X109453000Y-34183000D01*
X109473000Y-34183000D01*
X109473000Y-34163000D01*
X109727000Y-34163000D01*
X109727000Y-34183000D01*
X109727000Y-34183000D01*
G37*
X109727000Y-34183000D02*
X109747000Y-34183000D01*
X109747000Y-34437000D01*
X109727000Y-34437000D01*
X109727000Y-34457000D01*
X109473000Y-34457000D01*
X109473000Y-34437000D01*
X109453000Y-34437000D01*
X109453000Y-34183000D01*
X109473000Y-34183000D01*
X109473000Y-34163000D01*
X109727000Y-34163000D01*
X109727000Y-34183000D01*
G36*
X142793748Y-32295858D02*
X142779605Y-32310000D01*
X142793748Y-32324143D01*
X142614143Y-32503748D01*
X142600000Y-32489605D01*
X142585858Y-32503748D01*
X142406253Y-32324143D01*
X142420395Y-32310000D01*
X142406253Y-32295858D01*
X142585858Y-32116253D01*
X142600000Y-32130395D01*
X142614143Y-32116253D01*
X142793748Y-32295858D01*
X142793748Y-32295858D01*
G37*
X142793748Y-32295858D02*
X142779605Y-32310000D01*
X142793748Y-32324143D01*
X142614143Y-32503748D01*
X142600000Y-32489605D01*
X142585858Y-32503748D01*
X142406253Y-32324143D01*
X142420395Y-32310000D01*
X142406253Y-32295858D01*
X142585858Y-32116253D01*
X142600000Y-32130395D01*
X142614143Y-32116253D01*
X142793748Y-32295858D01*
M02*
