M48
;DRILL file {KiCad 4.0.2+dfsg1-stable} date gio 27 giu 2019 14:18:59 CEST
;FORMAT={-:-/ absolute / inch / decimal}
FMAT,2
INCH,TZ
T1C0.016
T2C0.030
T3C0.031
T4C0.040
T5C0.043
%
G90
G05
M72
T1
X3.4646Y-5.0561
X3.5548Y-5.5846
X3.5848Y-5.3439
X3.6366Y-5.2768
X3.6872Y-5.6662
X3.698Y-4.0894
X3.7103Y-5.881
X3.7597Y-5.3045
X3.772Y-3.0162
X3.7765Y-5.779
X3.7787Y-4.901
X3.7896Y-5.3383
X3.8364Y-5.8423
X3.8812Y-2.919
X3.8888Y-5.7224
X3.9355Y-5.3062
X3.9424Y-4.901
X3.9471Y-3.0668
X3.956Y-6.1688
X3.9598Y-3.2869
X3.9676Y-1.6532
X3.9676Y-1.7044
X3.9711Y-2.7213
X3.9768Y-4.9289
X3.98Y-3.34
X3.9908Y-2.6896
X3.9932Y-3.2451
X3.9974Y-3.4268
X3.9986Y-4.3887
X4.0139Y-2.5532
X4.0302Y-2.4707
X4.0432Y-3.3695
X4.0661Y-3.221
X4.0661Y-3.2545
X4.0747Y-3.0409
X4.0787Y-4.7212
X4.0794Y-1.8812
X4.09Y-3.4989
X4.0977Y-2.9901
X4.105Y-3.0866
X4.1074Y-2.9525
X4.1075Y-1.8218
X4.1091Y-3.5581
X4.1172Y-2.9149
X4.1229Y-2.3126
X4.1302Y-2.7643
X4.133Y-2.8035
X4.1353Y-1.9106
X4.144Y-2.5234
X4.1482Y-2.3351
X4.1491Y-3.4731
X4.1635Y-2.5839
X4.1654Y-3.5407
X4.1902Y-2.8109
X4.1948Y-3.0333
X4.2173Y-3.0581
X4.2238Y-3.5407
X4.2405Y-1.7482
X4.2604Y-2.2896
X4.2835Y-2.263
X4.2998Y-3.2383
X4.3008Y-3.1648
X4.3077Y-3.1291
X4.3083Y-2.1311
X4.3331Y-2.1537
X4.3368Y-1.7021
X4.3995Y-2.1202
X4.4048Y-1.6211
X4.4083Y-1.6566
X4.4083Y-3.1025
X4.4137Y-2.8556
X4.4169Y-1.7066
X4.428Y-3.0079
X4.446Y-1.7261
X4.4558Y-2.694
X4.4842Y-4.5659
X4.4934Y-2.6564
X4.5247Y-2.6849
X4.5315Y-4.4854
X4.5876Y-4.4034
X4.6026Y-3.5962
X4.6271Y-4.5659
X4.6315Y-5.6381
X4.6508Y-2.9463
X4.6844Y-3.9865
X4.7288Y-2.8506
X4.7393Y-2.5806
X4.7432Y-4.4706
X4.7562Y-2.7734
X4.7634Y-2.2772
X4.7732Y-2.6499
X4.7779Y-3.8443
X4.7816Y-5.6761
X4.8263Y-3.7258
X4.8427Y-2.778
X4.8528Y-6.1684
X4.8671Y-5.3078
X4.8826Y-5.5501
X4.9219Y-4.766
X4.9378Y-5.8721
X4.9389Y-4.5999
X4.9405Y-3.8229
X4.9436Y-5.8362
X4.9601Y-5.805
X4.9806Y-5.6794
X4.9954Y-4.4617
X5.0037Y-5.7724
X5.0059Y-6.4752
X5.0307Y-5.7928
X5.0352Y-5.6566
X5.0564Y-5.5724
X5.1066Y-6.9362
X5.2308Y-6.951
X5.2384Y-4.2344
X5.2972Y-6.236
X5.3042Y-2.67
X5.378Y-2.7681
X5.4301Y-2.0963
X5.4557Y-6.9278
X5.4713Y-2.0927
X5.4718Y-2.0094
X5.4776Y-5.6991
X5.4823Y-6.2357
X5.4896Y-5.6617
X5.4924Y-5.3356
X5.5162Y-3.0492
X5.5231Y-2.0752
X5.5281Y-5.6616
X5.548Y-5.769
X5.5482Y-2.6755
X5.5568Y-6.2362
X5.5758Y-5.6569
X5.5864Y-2.7959
X5.6012Y-5.872
X5.6033Y-2.9738
X5.6098Y-6.1837
X5.6222Y-6.9558
X5.6256Y-2.6763
X5.6332Y-1.8295
X5.652Y-5.6574
X5.6756Y-1.9497
X5.6812Y-1.5867
X5.6812Y-1.634
X5.7004Y-2.5431
X5.7146Y-1.7348
X5.7244Y-1.7724
X5.7267Y-1.2315
X5.729Y-2.7415
X5.7385Y-2.296
X5.7421Y-3.7101
X5.7467Y-6.062
X5.748Y-5.8543
X5.758Y-2.0986
X5.7651Y-4.9364
X5.7712Y-4.647
X5.7732Y-2.75
X5.7848Y-2.1974
X5.7975Y-2.8352
X5.8028Y-6.9467
X5.8044Y-2.8884
X5.8057Y-5.3334
X5.8059Y-4.6773
X5.8127Y-3.0471
X5.8132Y-4.894
X5.8194Y-6.0529
X5.8214Y-2.294
X5.8421Y-2.3791
X5.8469Y-2.9158
X5.8601Y-2.9761
X5.861Y-5.8664
X5.8667Y-6.5152
X5.8714Y-4.7428
X5.874Y-1.8301
X5.8752Y-5.6569
X5.8755Y-2.3899
X5.8823Y-3.1102
X5.8885Y-2.1102
X5.8938Y-6.4593
X5.8941Y-1.8796
X5.9048Y-2.6332
X5.9049Y-2.4357
X5.9053Y-5.5526
X5.9076Y-2.2658
X5.9104Y-4.7724
X5.9185Y-2.9913
X5.9209Y-5.6727
X5.9623Y-5.5719
X5.9741Y-3.2558
X5.9791Y-6.0481
X5.9808Y-6.4246
X5.9968Y-3.4872
X6.0063Y-5.0674
X6.0104Y-2.75
X6.0196Y-3.9684
X6.0555Y-3.3815
X6.0638Y-2.0173
X6.0896Y-5.567
X6.1251Y-5.2731
X6.2118Y-5.6564
X6.2246Y-5.7162
X6.2286Y-5.7875
X6.248Y-6.0703
X6.2719Y-5.8406
X6.3493Y-5.0515
X6.3721Y-4.8492
X6.4696Y-5.6563
T2
X3.45Y-5.955
X3.45Y-6.0952
X3.55Y-5.955
X3.55Y-6.0952
X3.65Y-5.955
X3.65Y-6.0952
X3.75Y-5.955
X3.75Y-6.0952
X3.85Y-5.955
X3.85Y-6.0952
X3.95Y-5.955
X3.95Y-6.0952
X4.05Y-5.955
X4.05Y-6.0952
T3
X4.315Y-1.3508
X4.315Y-1.4492
X4.315Y-2.3508
X4.315Y-2.4492
X4.315Y-3.3508
X4.315Y-3.4492
X4.3543Y-1.272
X4.3543Y-1.528
X4.3543Y-2.272
X4.3543Y-2.528
X4.3543Y-3.272
X4.3543Y-3.528
X4.3937Y-1.3508
X4.3937Y-1.4492
X4.3937Y-2.3508
X4.3937Y-2.4492
X4.3937Y-3.3508
X4.3937Y-3.4492
X4.4331Y-1.272
X4.4331Y-1.528
X4.4331Y-2.272
X4.4331Y-2.528
X4.4331Y-3.272
X4.4331Y-3.528
X4.4724Y-1.3508
X4.4724Y-1.4492
X4.4724Y-2.3508
X4.4724Y-2.4492
X4.4724Y-3.3508
X4.4724Y-3.4492
X4.5118Y-1.272
X4.5118Y-1.528
X4.5118Y-2.272
X4.5118Y-2.528
X4.5118Y-3.272
X4.5118Y-3.528
X4.5512Y-1.3508
X4.5512Y-1.4492
X4.5512Y-2.3508
X4.5512Y-2.4492
X4.5512Y-3.3508
X4.5512Y-3.4492
X4.5906Y-1.272
X4.5906Y-1.528
X4.5906Y-2.272
X4.5906Y-2.528
X4.5906Y-3.272
X4.5906Y-3.528
X4.6299Y-1.3508
X4.6299Y-1.4492
X4.6299Y-2.3508
X4.6299Y-2.4492
X4.6299Y-3.3508
X4.6299Y-3.4492
X4.6693Y-1.272
X4.6693Y-1.528
X4.6693Y-2.272
X4.6693Y-2.528
X4.6693Y-3.272
X4.6693Y-3.528
X4.7087Y-1.3508
X4.7087Y-1.4492
X4.7087Y-2.3508
X4.7087Y-2.4492
X4.7087Y-3.3508
X4.7087Y-3.4492
X4.8268Y-1.272
X4.8268Y-1.528
X4.8268Y-2.272
X4.8268Y-2.528
X4.8268Y-3.272
X4.8268Y-3.528
X4.8661Y-1.3508
X4.8661Y-1.4492
X4.8661Y-2.3508
X4.8661Y-2.4492
X4.8661Y-3.3508
X4.8661Y-3.4492
X4.9055Y-1.272
X4.9055Y-1.528
X4.9055Y-2.272
X4.9055Y-2.528
X4.9055Y-3.272
X4.9055Y-3.528
X4.9449Y-1.3508
X4.9449Y-1.4492
X4.9449Y-2.3508
X4.9449Y-2.4492
X4.9449Y-3.3508
X4.9449Y-3.4492
X4.9843Y-1.272
X4.9843Y-1.528
X4.9843Y-2.272
X4.9843Y-2.528
X4.9843Y-3.272
X4.9843Y-3.528
X5.0236Y-1.3508
X5.0236Y-1.4492
X5.0236Y-2.3508
X5.0236Y-2.4492
X5.0236Y-3.3508
X5.0236Y-3.4492
X5.063Y-1.272
X5.063Y-1.528
X5.063Y-2.272
X5.063Y-2.528
X5.063Y-3.272
X5.063Y-3.528
X5.1024Y-1.3508
X5.1024Y-1.4492
X5.1024Y-2.3508
X5.1024Y-2.4492
X5.1024Y-3.3508
X5.1024Y-3.4492
X5.1417Y-1.272
X5.1417Y-1.528
X5.1417Y-2.272
X5.1417Y-2.528
X5.1417Y-3.272
X5.1417Y-3.528
X5.1811Y-1.3508
X5.1811Y-1.4492
X5.1811Y-2.3508
X5.1811Y-2.4492
X5.1811Y-3.3508
X5.1811Y-3.4492
X5.2205Y-1.272
X5.2205Y-1.528
X5.2205Y-2.272
X5.2205Y-2.528
X5.2205Y-3.272
X5.2205Y-3.528
X5.2598Y-1.3508
X5.2598Y-1.4492
X5.2598Y-2.3508
X5.2598Y-2.4492
X5.2598Y-3.3508
X5.2598Y-3.4492
X5.2992Y-1.272
X5.2992Y-1.528
X5.2992Y-2.272
X5.2992Y-2.528
X5.2992Y-3.272
X5.2992Y-3.528
X5.3386Y-1.3508
X5.3386Y-1.4492
X5.3386Y-2.3508
X5.3386Y-2.4492
X5.3386Y-3.3508
X5.3386Y-3.4492
X5.378Y-1.272
X5.378Y-1.528
X5.378Y-2.272
X5.378Y-2.528
X5.378Y-3.272
X5.378Y-3.528
X5.4173Y-1.3508
X5.4173Y-1.4492
X5.4173Y-2.3508
X5.4173Y-2.4492
X5.4173Y-3.3508
X5.4173Y-3.4492
X5.4567Y-1.272
X5.4567Y-1.528
X5.4567Y-2.272
X5.4567Y-2.528
X5.4567Y-3.272
X5.4567Y-3.528
X5.4961Y-1.3508
X5.4961Y-1.4492
X5.4961Y-2.3508
X5.4961Y-2.4492
X5.4961Y-3.3508
X5.4961Y-3.4492
X5.5Y-1.9
X5.5Y-2.9
X5.5Y-3.9
X5.5354Y-1.272
X5.5354Y-1.528
X5.5354Y-2.272
X5.5354Y-2.528
X5.5354Y-3.272
X5.5354Y-3.528
X5.5748Y-1.3508
X5.5748Y-1.4492
X5.5748Y-2.3508
X5.5748Y-2.4492
X5.5748Y-3.3508
X5.5748Y-3.4492
X5.5984Y-1.9
X5.5984Y-2.9
X5.5984Y-3.9
X5.6142Y-1.272
X5.6142Y-1.528
X5.6142Y-2.272
X5.6142Y-2.528
X5.6142Y-3.272
X5.6142Y-3.528
T4
X4.2913Y-5.0394
X4.2913Y-5.3937
X5.048Y-5.9478
X5.048Y-6.1388
X5.148Y-5.9478
X5.148Y-6.1388
X5.248Y-5.9478
X5.248Y-6.1388
X5.348Y-5.9478
X5.348Y-6.1388
X5.448Y-5.9478
X5.448Y-6.1388
X5.548Y-5.9478
X5.548Y-6.1388
X5.648Y-5.9478
X5.648Y-6.1388
X5.748Y-5.9478
X5.748Y-6.1388
X5.848Y-5.9478
X5.848Y-6.1388
X5.948Y-5.9478
X5.948Y-6.1388
X6.048Y-5.9478
X6.048Y-6.1388
X6.148Y-5.9478
X6.148Y-6.1388
X6.2205Y-4.3701
X6.248Y-5.9478
X6.248Y-6.1388
X6.2598Y-4.7244
X6.2598Y-4.8244
X6.2598Y-4.9244
X6.2598Y-5.0244
X6.348Y-5.9478
X6.348Y-6.1388
X6.448Y-5.9478
X6.448Y-6.1388
X6.4961Y-4.3701
T5
X3.5Y-4.75
X3.6Y-4.75
X3.7Y-4.75
T0
M30
