M48
;DRILL file {KiCad 4.0.2+dfsg1-stable} date ven 07 giu 2019 12:13:34 CEST
;FORMAT={-:-/ absolute / inch / decimal}
FMAT,2
INCH,TZ
T1C0.016
T2C0.030
T3C0.031
T4C0.040
T5C0.043
%
G90
G05
M72
T1
X3.6573Y-5.5505
X3.6927Y-5.781
X3.6954Y-6.9464
X3.6983Y-5.4281
X3.7211Y-5.8019
X3.7328Y-5.3433
X3.7907Y-5.8852
X3.9309Y-3.6171
X3.937Y-4.4812
X3.9747Y-3.5705
X3.9911Y-3.6711
X4.0014Y-3.2541
X4.0254Y-2.596
X4.0332Y-5.0586
X4.0368Y-2.0816
X4.0447Y-1.864
X4.0574Y-2.0548
X4.0577Y-2.1108
X4.0582Y-2.0181
X4.0754Y-3.2856
X4.0877Y-2.2169
X4.094Y-4.5163
X4.0996Y-3.6224
X4.1094Y-2.4772
X4.1095Y-3.2989
X4.1096Y-2.1898
X4.1578Y-2.5288
X4.1583Y-1.8906
X4.1632Y-2.7494
X4.1648Y-3.48
X4.1669Y-2.6766
X4.1767Y-3.6584
X4.1829Y-2.832
X4.187Y-1.8256
X4.1922Y-2.7031
X4.2095Y-2.9471
X4.2442Y-2.4564
X4.2482Y-2.9852
X4.2508Y-2.95
X4.266Y-3.6555
X4.2864Y-2.7412
X4.3005Y-4.543
X4.3043Y-1.9178
X4.3065Y-3.8593
X4.3695Y-2.6037
X4.3983Y-2.6234
X4.4611Y-2.073
X4.4756Y-2.6839
X4.4947Y-2.7305
X4.4951Y-2.0669
X4.5124Y-2.6364
X4.518Y-2.0963
X4.5305Y-1.8751
X4.5802Y-3.2196
X4.5827Y-3.7153
X4.5977Y-2.0772
X4.6128Y-1.8223
X4.6215Y-1.8619
X4.6485Y-1.8867
X4.7114Y-3.6876
X4.7736Y-1.5362
X4.7969Y-2.0105
X4.8429Y-4.556
X4.8569Y-2.0651
X4.8608Y-5.6486
X4.9267Y-5.7147
X4.936Y-5.6789
X4.9604Y-5.4481
X5.0293Y-6.0304
X5.0414Y-2.8751
X5.0821Y-5.5723
X5.1154Y-4.4693
X5.1283Y-4.8623
X5.148Y-6.0544
X5.1844Y-4.4863
X5.187Y-2.9024
X5.2717Y-6.0224
X5.3005Y-6.9653
X5.3369Y-6.0629
X5.3432Y-4.1788
X5.348Y-5.8469
X5.3843Y-4.3248
X5.3963Y-3.1426
X5.4028Y-6.9703
X5.4128Y-4.3979
X5.4546Y-5.7416
X5.4629Y-4.1111
X5.4847Y-5.8196
X5.4879Y-1.2066
X5.5121Y-5.8743
X5.513Y-4.0532
X5.5301Y-2.9744
X5.5317Y-6.951
X5.5431Y-3.1407
X5.5504Y-4.0376
X5.5521Y-2.9491
X5.5572Y-4.3009
X5.5658Y-3.1131
X5.6009Y-3.1013
X5.6014Y-1.9536
X5.6351Y-1.7388
X5.6594Y-1.6457
X5.6667Y-2.8508
X5.6928Y-2.8295
X5.694Y-1.6995
X5.7067Y-3.4946
X5.7408Y-1.7264
X5.7439Y-2.8536
X5.7626Y-3.2294
X5.7671Y-2.9912
X5.7714Y-3.0474
X5.7843Y-5.7219
X5.7995Y-6.9686
X5.8103Y-3.8417
X5.8126Y-3.4285
X5.822Y-2.9658
X5.8228Y-2.6242
X5.8245Y-1.9106
X5.8326Y-2.4296
X5.8345Y-1.4772
X5.8492Y-2.9197
X5.8522Y-3.777
X5.8697Y-5.7046
X5.8754Y-2.6785
X5.8768Y-2.9395
X5.8781Y-1.9261
X5.8931Y-6.9641
X5.8976Y-3.2137
X5.906Y-2.1047
X5.9061Y-3.4715
X5.9098Y-2.8762
X5.9118Y-5.5725
X5.9247Y-3.2856
X5.9336Y-3.3253
X5.9348Y-5.6561
X5.9379Y-2.8963
X5.949Y-3.4099
X5.9946Y-4.4831
X6.0142Y-5.5723
X6.0207Y-5.7309
X6.0273Y-4.4183
X6.048Y-5.7012
X6.0504Y-5.5712
X6.0563Y-3.7106
X6.0675Y-3.8566
X6.0745Y-3.6737
X6.0896Y-5.5723
X6.1204Y-3.616
X6.1219Y-6.0444
X6.1358Y-3.1738
X6.1665Y-6.0047
X6.172Y-3.612
X6.176Y-3.3748
X6.1806Y-5.9002
X6.1836Y-3.2572
X6.2076Y-5.8792
X6.4912Y-5.6565
T2
X3.45Y-5.955
X3.45Y-6.0952
X3.55Y-5.955
X3.55Y-6.0952
X3.65Y-5.955
X3.65Y-6.0952
X3.75Y-5.955
X3.75Y-6.0952
X3.85Y-5.955
X3.85Y-6.0952
X3.95Y-5.955
X3.95Y-6.0952
X4.05Y-5.955
X4.05Y-6.0952
T3
X4.315Y-1.3508
X4.315Y-1.4492
X4.315Y-2.3508
X4.315Y-2.4492
X4.315Y-3.3508
X4.315Y-3.4492
X4.3543Y-1.272
X4.3543Y-1.528
X4.3543Y-2.272
X4.3543Y-2.528
X4.3543Y-3.272
X4.3543Y-3.528
X4.3937Y-1.3508
X4.3937Y-1.4492
X4.3937Y-2.3508
X4.3937Y-2.4492
X4.3937Y-3.3508
X4.3937Y-3.4492
X4.4331Y-1.272
X4.4331Y-1.528
X4.4331Y-2.272
X4.4331Y-2.528
X4.4331Y-3.272
X4.4331Y-3.528
X4.4724Y-1.3508
X4.4724Y-1.4492
X4.4724Y-2.3508
X4.4724Y-2.4492
X4.4724Y-3.3508
X4.4724Y-3.4492
X4.5118Y-1.272
X4.5118Y-1.528
X4.5118Y-2.272
X4.5118Y-2.528
X4.5118Y-3.272
X4.5118Y-3.528
X4.5512Y-1.3508
X4.5512Y-1.4492
X4.5512Y-2.3508
X4.5512Y-2.4492
X4.5512Y-3.3508
X4.5512Y-3.4492
X4.5906Y-1.272
X4.5906Y-1.528
X4.5906Y-2.272
X4.5906Y-2.528
X4.5906Y-3.272
X4.5906Y-3.528
X4.6299Y-1.3508
X4.6299Y-1.4492
X4.6299Y-2.3508
X4.6299Y-2.4492
X4.6299Y-3.3508
X4.6299Y-3.4492
X4.6693Y-1.272
X4.6693Y-1.528
X4.6693Y-2.272
X4.6693Y-2.528
X4.6693Y-3.272
X4.6693Y-3.528
X4.7087Y-1.3508
X4.7087Y-1.4492
X4.7087Y-2.3508
X4.7087Y-2.4492
X4.7087Y-3.3508
X4.7087Y-3.4492
X4.8268Y-1.272
X4.8268Y-1.528
X4.8268Y-2.272
X4.8268Y-2.528
X4.8268Y-3.272
X4.8268Y-3.528
X4.8661Y-1.3508
X4.8661Y-1.4492
X4.8661Y-2.3508
X4.8661Y-2.4492
X4.8661Y-3.3508
X4.8661Y-3.4492
X4.9055Y-1.272
X4.9055Y-1.528
X4.9055Y-2.272
X4.9055Y-2.528
X4.9055Y-3.272
X4.9055Y-3.528
X4.9449Y-1.3508
X4.9449Y-1.4492
X4.9449Y-2.3508
X4.9449Y-2.4492
X4.9449Y-3.3508
X4.9449Y-3.4492
X4.9843Y-1.272
X4.9843Y-1.528
X4.9843Y-2.272
X4.9843Y-2.528
X4.9843Y-3.272
X4.9843Y-3.528
X5.0236Y-1.3508
X5.0236Y-1.4492
X5.0236Y-2.3508
X5.0236Y-2.4492
X5.0236Y-3.3508
X5.0236Y-3.4492
X5.063Y-1.272
X5.063Y-1.528
X5.063Y-2.272
X5.063Y-2.528
X5.063Y-3.272
X5.063Y-3.528
X5.1024Y-1.3508
X5.1024Y-1.4492
X5.1024Y-2.3508
X5.1024Y-2.4492
X5.1024Y-3.3508
X5.1024Y-3.4492
X5.1417Y-1.272
X5.1417Y-1.528
X5.1417Y-2.272
X5.1417Y-2.528
X5.1417Y-3.272
X5.1417Y-3.528
X5.1811Y-1.3508
X5.1811Y-1.4492
X5.1811Y-2.3508
X5.1811Y-2.4492
X5.1811Y-3.3508
X5.1811Y-3.4492
X5.2205Y-1.272
X5.2205Y-1.528
X5.2205Y-2.272
X5.2205Y-2.528
X5.2205Y-3.272
X5.2205Y-3.528
X5.2598Y-1.3508
X5.2598Y-1.4492
X5.2598Y-2.3508
X5.2598Y-2.4492
X5.2598Y-3.3508
X5.2598Y-3.4492
X5.2992Y-1.272
X5.2992Y-1.528
X5.2992Y-2.272
X5.2992Y-2.528
X5.2992Y-3.272
X5.2992Y-3.528
X5.3386Y-1.3508
X5.3386Y-1.4492
X5.3386Y-2.3508
X5.3386Y-2.4492
X5.3386Y-3.3508
X5.3386Y-3.4492
X5.378Y-1.272
X5.378Y-1.528
X5.378Y-2.272
X5.378Y-2.528
X5.378Y-3.272
X5.378Y-3.528
X5.4173Y-1.3508
X5.4173Y-1.4492
X5.4173Y-2.3508
X5.4173Y-2.4492
X5.4173Y-3.3508
X5.4173Y-3.4492
X5.4567Y-1.272
X5.4567Y-1.528
X5.4567Y-2.272
X5.4567Y-2.528
X5.4567Y-3.272
X5.4567Y-3.528
X5.4961Y-1.3508
X5.4961Y-1.4492
X5.4961Y-2.3508
X5.4961Y-2.4492
X5.4961Y-3.3508
X5.4961Y-3.4492
X5.5Y-1.9
X5.5Y-2.9
X5.5Y-3.9
X5.5354Y-1.272
X5.5354Y-1.528
X5.5354Y-2.272
X5.5354Y-2.528
X5.5354Y-3.272
X5.5354Y-3.528
X5.5748Y-1.3508
X5.5748Y-1.4492
X5.5748Y-2.3508
X5.5748Y-2.4492
X5.5748Y-3.3508
X5.5748Y-3.4492
X5.5984Y-1.9
X5.5984Y-2.9
X5.5984Y-3.9
X5.6142Y-1.272
X5.6142Y-1.528
X5.6142Y-2.272
X5.6142Y-2.528
X5.6142Y-3.272
X5.6142Y-3.528
T4
X4.2913Y-5.0394
X4.2913Y-5.3937
X5.048Y-5.9478
X5.048Y-6.1388
X5.148Y-5.9478
X5.148Y-6.1388
X5.248Y-5.9478
X5.248Y-6.1388
X5.348Y-5.9478
X5.348Y-6.1388
X5.448Y-5.9478
X5.448Y-6.1388
X5.548Y-5.9478
X5.548Y-6.1388
X5.648Y-5.9478
X5.648Y-6.1388
X5.748Y-5.9478
X5.748Y-6.1388
X5.848Y-5.9478
X5.848Y-6.1388
X5.948Y-5.9478
X5.948Y-6.1388
X6.048Y-5.9478
X6.048Y-6.1388
X6.148Y-5.9478
X6.148Y-6.1388
X6.2205Y-4.3701
X6.248Y-5.9478
X6.248Y-6.1388
X6.2598Y-4.7244
X6.2598Y-4.8244
X6.2598Y-4.9244
X6.2598Y-5.0244
X6.348Y-5.9478
X6.348Y-6.1388
X6.448Y-5.9478
X6.448Y-6.1388
X6.4961Y-4.3701
T5
X3.5Y-4.75
X3.6Y-4.75
X3.7Y-4.75
T0
M30
